<svg width="348" height="116" xmlns="http://www.w3.org/2000/svg" xmlns:xlink="http://www.w3.org/1999/xlink" xmlns:svgjs="http://svgjs.com/svgjs" viewBox="546 10816 348 116"><svg width="106" height="115" xmlns="http://www.w3.org/2000/svg" xmlns:xlink="http://www.w3.org/1999/xlink" xmlns:svgjs="http://svgjs.com/svgjs" fill="#fff" x="546" y="10817"><svg xmlns="http://www.w3.org/2000/svg" xmlns:xlink="http://www.w3.org/1999/xlink" width="106" height="115"><path paint-order="stroke fill markers" fill-rule="evenodd" d="M26.451 10.93c1.507 1.59 3.053 3.02 4.361 4.64 4.2 5.204 3.722 12.394-1.116 16.846-2.53 2.329-5.695 3.128-9.047 3.191-4.475.084-8.587-.939-11.52-4.617-3.505-4.395-3.761-9.322-1.847-14.423 1.18-3.145 3.332-5.576 6.036-7.563 5.59-4.106 11.954-6.292 18.675-7.52C42.417-.422 52.903-.301 63.407.774c7.107.726 13.982 2.339 20.547 5.185 3.968 1.72 7.65 3.907 10.814 6.898 8.834 8.349 9.332 20.88 1.179 29.886-4.997 5.52-11.355 8.698-18.413 10.66-.803.224-1.604.452-2.45.69v2.541c3.646 1.084 7.278 1.96 10.76 3.245 5.485 2.025 10.448 4.94 14.413 9.388 7.855 8.816 7.641 22.06-.574 30.546-4.664 4.818-10.463 7.768-16.679 9.988-7.031 2.512-14.313 3.871-21.734 4.518-8.298.724-16.609.944-24.92.3-8.564-.665-16.953-2.102-24.657-6.206-4.115-2.191-7.679-4.985-9.848-9.256C-1.239 93.085-.43 85.817 4.065 81c4.225-4.529 9.549-5.584 15.282-3.808 5.52 1.711 8.26 5.982 9.112 11.53.833 5.433-.557 10.374-3.51 14.932-.254.391-.503.785-.75 1.18-.022.035-.015.087-.072.5 1.538.833 3.126 1.91 4.868 2.596 6.404 2.52 13.108 2.85 19.857 2.185 2.996-.295 6.03-.81 8.894-1.714 7.515-2.37 12.102-7.603 14.001-15.241 1.434-5.77 1.487-11.552.335-17.371-1.585-8.002-6.543-12.614-14.327-14.508-6.896-1.679-13.878-1.676-20.893-1.286-1.166.065-2.335.155-3.5.135-.929-.016-1.881-.078-2.775-.308-1.133-.292-2.347-.725-2.421-2.158-.075-1.443.97-2.233 2.17-2.586a13.077 13.077 0 0 1 3.706-.542c4.016.024 8.038.371 12.043.211 3.007-.12 6.047-.599 8.972-1.323 7.587-1.88 11.906-6.936 13.419-14.525 1.357-6.813 1.18-13.598-.703-20.266-2.291-8.115-7.752-12.819-16.101-13.945-6.147-.83-12.216-.354-18.064 1.898-2.675 1.03-5.094 2.484-7.157 4.343"/></svg></svg><svg width="106" height="116" xmlns="http://www.w3.org/2000/svg" xmlns:xlink="http://www.w3.org/1999/xlink" xmlns:svgjs="http://svgjs.com/svgjs" viewBox="0 0.5 106 115" fill="#fff" x="788" y="10816"><svg xmlns="http://www.w3.org/2000/svg" xmlns:xlink="http://www.w3.org/1999/xlink" width="106" height="116" viewBox="0 1 106 115"><path paint-order="stroke fill markers" fill-rule="evenodd" d="M11.454 2.659c30.109 3.516 60.048 5.149 89.887-1.66.331 2.633.191 4.742-1.772 6.791C89.8 17.98 77.89 24.107 64.219 26.898c-13.966 2.851-28.032 2.884-42.12.957-2.894-.396-5.77-.924-8.801-1.416-.322 2.627-.652 5.25-.963 7.876-.466 3.945-.915 7.892-1.378 11.837-.256 2.177 1.711 3.763 3.836 3.075 12.443-4.028 25.168-6.429 38.27-6.47 12.202-.038 24.073 1.614 34.905 7.766 7.61 4.32 13.56 10.173 16.373 18.734 4.354 13.257.03 26.005-11.698 34.542-8.131 5.92-17.345 9.093-27.155 10.733-9.38 1.568-18.826 1.794-28.282 1.083-9.293-.7-18.387-2.343-26.633-7.073-4.268-2.448-7.742-5.65-9.55-10.402-3.896-10.234 3.837-20.379 14.703-19.26 5.351.55 9.182 3.334 11.184 8.284 2.087 5.16 1.201 10.013-2.47 14.235-1.12 1.29-2.458 2.388-3.96 3.825 1.958 1.068 3.753 2.219 5.682 3.065 6.179 2.711 12.729 3.581 19.39 3.188 3.357-.198 6.806-.691 9.986-1.742 8.55-2.826 13.49-9.152 15.679-17.729 2.234-8.759 2.098-17.557-.656-26.145-3.113-9.706-9.798-15.693-19.88-17.55-6.388-1.179-12.806-.769-19.198.105-7.237.99-14.15 3.185-20.958 5.758-.908.344-3.951-.643-4.336-1.48-.16-.346-.09-.823-.047-1.232.772-7.25 1.559-14.498 2.337-21.747.899-8.364 1.79-16.73 2.691-25.093.074-.684.196-1.363.284-1.963"/></svg></svg><svg width="106" height="116" xmlns="http://www.w3.org/2000/svg" xmlns:xlink="http://www.w3.org/1999/xlink" xmlns:svgjs="http://svgjs.com/svgjs" viewBox="0 0.5 106 115" fill="#fff" x="668" y="10816"><svg xmlns="http://www.w3.org/2000/svg" width="106" height="116" viewBox="0 1 106 115"><path paint-order="stroke fill markers" fill-rule="evenodd" d="M21.181 105.552c2.962 2.3 6.982 3.833 11.248 4.777 6.344 1.405 12.727 1.749 19.14.496 10.455-2.041 16.914-8.43 19.574-18.627 2.314-8.867 2.29-17.831-.556-26.565-3.126-9.589-9.796-15.472-19.753-17.362-6.4-1.215-12.815-.73-19.207.142-7.237.989-14.158 3.168-20.972 5.729-.992.373-4.024-.555-4.482-1.452-.17-.33-.095-.817-.052-1.223 1.378-12.875 2.763-25.75 4.153-38.623.37-3.429.761-6.854 1.135-10.215 30.133 3.44 60.102 5.29 89.956-1.63.336 2.642.13 4.763-1.88 6.844-9.84 10.19-21.783 16.292-35.534 19.075-11.372 2.301-22.858 2.662-34.377 1.734-5.372-.434-10.708-1.318-16.289-2.027-.23 1.928-.499 4.128-.753 6.328-.512 4.411-.995 8.825-1.53 13.233-.248 2.056 1.679 3.585 3.74 3.032 5.392-1.448 10.749-3.09 16.214-4.177 14.077-2.801 28.227-3.309 42.33-.162 7.87 1.757 15.106 4.982 21.37 10.213 11.45 9.56 14.655 25.33 7.672 38.111-2.614 4.783-6.483 8.404-10.918 11.456-7.794 5.364-16.522 8.293-25.758 9.86-9.429 1.6-18.923 1.796-28.434 1.097-8.167-.601-16.198-1.966-23.668-5.542-4.589-2.198-8.783-4.958-11.373-9.59C.074 96.727-.605 92.743.58 88.583c1.798-6.31 8.395-10.447 15.24-9.708 5.312.575 9.067 3.393 11.048 8.274 2.045 5.04 1.218 9.802-2.267 14.048-1.156 1.41-2.254 2.867-3.42 4.356"/></svg></svg></svg>