<?xml version="1.0" encoding="utf-8"?>
<svg id="Layer_1" data-name="Layer 1" viewBox="97.726 353.548 869.041 315.484" xmlns="http://www.w3.org/2000/svg" xmlns:xlink="http://www.w3.org/1999/xlink">
  <defs>
    <style>.cls-1{fill:url(#linear-gradient);}.cls-2{fill:url(#linear-gradient-2);}.cls-3{fill:url(#linear-gradient-3);}.cls-4{fill:url(#linear-gradient-4);}.cls-5{fill:url(#linear-gradient-5);}.cls-6{fill:#fff;stroke:#221f20;stroke-miterlimit:10;stroke-width:8.09px;}.cls-7{clip-path:url(#clip-path);}.cls-8{fill:url(#linear-gradient-7);}.cls-9{clip-path:url(#clip-path-2);}.cls-10{fill:url(#linear-gradient-9);}.cls-11{clip-path:url(#clip-path-3);}.cls-12{fill:url(#linear-gradient-11);}.cls-13{clip-path:url(#clip-path-4);}.cls-14{fill:url(#linear-gradient-13);}.cls-15{clip-path:url(#clip-path-5);}.cls-16{fill:url(#linear-gradient-15);}.cls-17{fill:url(#linear-gradient-16);}</style>
    <linearGradient id="linear-gradient" x1="444.59" y1="405.25" x2="616.01" y2="405.25" gradientUnits="userSpaceOnUse">
      <stop offset="0" stop-color="#898f95"/>
      <stop offset="0.35" stop-color="#bbbdbf"/>
      <stop offset="0.57" stop-color="#ddd"/>
      <stop offset="0.64" stop-color="#d1d2d3"/>
      <stop offset="0.75" stop-color="#b2b6b9"/>
      <stop offset="0.88" stop-color="#898f95"/>
      <stop offset="0.91" stop-color="#9ba0a4"/>
      <stop offset="0.99" stop-color="#cacbcd"/>
      <stop offset="1" stop-color="#cfd0d1"/>
      <stop offset="1" stop-color="#a5a6a9"/>
    </linearGradient>
    <linearGradient id="linear-gradient-2" x1="343.46" y1="637.87" x2="717.02" y2="637.87" xlink:href="#linear-gradient"/>
    <linearGradient id="linear-gradient-3" x1="121.69" y1="534.14" x2="938.92" y2="534.14" xlink:href="#linear-gradient"/>
    <linearGradient id="linear-gradient-4" x1="935.14" y1="579" x2="942.83" y2="579" xlink:href="#linear-gradient"/>
    <linearGradient id="linear-gradient-5" x1="930.86" y1="579" x2="946.59" y2="579" xlink:href="#linear-gradient"/>
    <clipPath id="clip-path">
      <path id="SVGID" class="cls-1" d="M551.44,418.26l-3.65-14.1,28.43-28.79-13.34,36.48ZM530.3,430.14l15-8.4-3.63-14.14-11.36-44.23v0h0v0l-11.36,44.23-3.63,14.14,15,8.4Zm-21.13-11.89,3.65-14.11-28.43-28.78,13.34,36.48Zm21.13,19.58h0l-85.71-48,62.27,57.4h46.89L616,389.8Z"/>
    </clipPath>
    <linearGradient id="linear-gradient-7" x1="442.51" y1="405.25" x2="618.1" y2="405.25" xlink:href="#linear-gradient"/>
    <clipPath id="clip-path-2">
      <path id="SVGID-2" data-name="SVGID" class="cls-2" d="M343.46,621.12v16.72h1c.53-4,.81-8.35,4.5-12.12,2.66-2.7,5.26-3.33,11-3.33v26.08c0,3.77-2.45,4.26-7.63,4.26h-3.63V654h29.29v-1.25h-3.63c-5.18,0-7.62-.49-7.62-4.26V622.39c5.72,0,8.31.63,11,3.33,3.69,3.77,4,8.08,4.49,12.12h1V621.12Zm59.05,0v1.27h2.05c5.53,0,6.54.28,6.54,6.33V648.4c0,4-2.71,4.33-6.29,4.33h-2.3V654h41.42V640.42h-.61c-2.73,8.83-5,12.31-16.6,12.31h-8.86V637.84h3.49c7.1,0,7.78,6.12,8,9.59h.89v-19.9h-.89c-.12,4.88-1.15,9.05-8,9.05h-3.49V622.39h10.86c10.16,0,11.66,7.66,12.48,11.41h.55V621.12Zm146.45,0v1.27h1.86c3.41,0,6.15.41,6.15,3.76v13.14c0,4.19-.14,7.25-2.74,10.24-1.29,1.46-5,3.47-10.22,3.47-6.7,0-9.77-2.5-9.77-10.3V628.85c0-5.42,1.36-6.46,5.74-6.46h2.3v-1.27H520.52v1.27h2.19c4.77,0,4.77,2,4.77,6.46v13.22c0,8.5,6.55,12.67,16.53,12.67,5.1,0,9.28-1.79,11.32-3.82,3-3,3.34-4.88,3.34-11.56v-9.25c0-4.73.49-7.72,4.9-7.72h2.12v-1.27Zm33.88,0v1.27h2.25c3.49,0,5.6.48,5.6,3.69v23c0,3.2-2.11,3.69-5.6,3.69h-2.25V654h22.45v-1.25h-2.24c-3.49,0-5.6-.49-5.6-3.69v-23c0-3.21,2.11-3.69,5.6-3.69h2.24v-1.27Zm40,0v1.27h3.81c4.59,0,4.59,1.25,4.59,6.05V649.1c0,3.07-2.13,3.63-5.87,3.63h-3V654h41l.4-13.56h-1.09c-2.45,7-5.11,12.31-16.37,12.31H638V628.17c0-5.09,1.58-5.78,5.61-5.78h4.29v-1.27Zm-151,16.65c0-10.24,2.85-16,12.2-16,8.26,0,11,5.64,11,15.93a20.37,20.37,0,0,1-2.25,10.09c-2.25-2.43-4.29-4.8-8.19-4.8-3.19,0-5,1.82-6.47,3.56l.48.34a6.28,6.28,0,0,1,2.87-1.31c2.58,0,4.29,2,8,6.52a18.49,18.49,0,0,1-6.07,1.26c-8.74,0-11.59-5.49-11.59-15.58m-8-.08c0,9.19,9.5,17,19.6,17a22.8,22.8,0,0,0,7.09-1.45c1.78,1.17,3.7,2.49,6.22,2.49,4.57,0,7-4,8.19-6.53l-.63-.42c-1.21,1.32-2.1,3.07-4.5,3.07a9,9,0,0,1-4.21-1.6c2.51-1.75,7.42-5.86,7.42-12.95,0-10.72-11.67-17-18.71-17-9.81,0-20.47,8.7-20.47,17.32m227.77-10,7,14.33H684.19Zm2.66-7.79L682,643.39c-2.6,5-4.29,9.34-10.72,9.34h-1.77V654h19.72v-1.25h-2c-2.81,0-6.09-.29-6.09-3.56a8.36,8.36,0,0,1,1.23-3.75l1.08-2.09h15.71l1.5,3c.68,1.32,1.57,2.57,1.57,4,0,2.37-3.07,2.37-5.73,2.37h-2.46V654H717v-1.25h-1.57c-5.33,0-6.48-4.39-9.08-9.47L694.3,620Z"/>
    </clipPath>
    <linearGradient id="linear-gradient-9" x1="343.46" y1="637.87" x2="717.02" y2="637.87" xlink:href="#linear-gradient"/>
    <clipPath id="clip-path-3">
      <path id="SVGID-3" data-name="SVGID" class="cls-3" d="M257.78,484.53v4.79h14.57l8.5,8.48v72.87l-8.5,8.48H257.78v4.78h75v-4.78H318.21l-8.73-8.49V497.8l8.73-8.48h14.54v-4.79Zm103.45,0v4.79H375.8l8.71,8.48v72.86l-8.71,8.49H361.23v4.78H482.75V545.49H479.3l-27.85,33H419.3l-6.16-7.78v-37.8h14.17l18.92,21.8h3.67V506.53h-3.66l-18.93,21.38H413.14V497.74l6.59-8.42h34.52L479,522.68l.23.29h3.51l-1.58-38.44Zm205,13.21,6.61-8.42h13.34c17.93,0,28.64,7.56,28.64,20.25,0,12.51-11.41,19.41-32.12,19.41H566.23Zm-51.91-13.21v4.79h14.57l8.72,8.48v72.86l-8.72,8.49H514.32v4.78h74.11v-4.78H572.84l-6.61-8.43V534h8.21c15.3,0,21.28,5.44,26.72,24.25l7.31,25.7h43v-4.78H639.1l-4.67-4.37c-3.26-8.24-6.25-18.57-9.69-33.4l-.13-.56h-2.33c-10.51,0-17.68-1.79-21.88-5.53v-1.74l1.79-1.92c29.74-2.46,43-9.45,43-22.69,0-15.28-18.73-24.41-50.1-24.41Zm153.84,0V519h3.72L693,489.32h20.23v81.33l-9.56,8.5H689.05v4.78H766v-4.78H751.6l-9.78-8.52V489.32h20.44L783.36,519h3.5V484.53Zm165.7,49.8c0-32,11.5-46.91,36.25-46.91,24.59,0,36,14.9,36,46.91s-11.46,46.72-36,46.72c-24.75,0-36.25-14.85-36.25-46.72m-32.56,0c0,30.22,29,52.14,68.81,52.14s68.81-21.92,68.81-52.14S910,482,870.11,482s-68.81,22-68.81,52.34M227.9,481.8,214,491.37c-8.41-6.36-19.11-9.57-31.78-9.57-34.51,0-60.53,22.78-60.53,53,0,29.85,25.36,51.51,60.31,51.51,25,0,43.32-13,49.09-33.95H224.9c-5.3,16.59-19.88,27.47-38.32,27.47-24.35,0-32.59-11.89-32.59-47.13,0-31.3,9.81-45.88,30.84-45.88,19.57,0,34.78,13.66,42,37.47h4.57V481.8Z"/>
    </clipPath>
    <linearGradient id="linear-gradient-11" x1="121.69" y1="534.14" x2="938.92" y2="534.14" xlink:href="#linear-gradient"/>
    <clipPath id="clip-path-4">
      <path class="cls-4" d="M941,582.34l-1.92-2.27h-2.42v2.27h-1.52v-6.69h4.62c1.63,0,2.87.75,2.87,2.21a2.13,2.13,0,0,1-1.87,2.1l2.07,2.38Zm-1.33-3.54c.81,0,1.4-.19,1.4-.93s-.59-.94-1.4-.94h-3v1.87Z"/>
    </clipPath>
    <linearGradient id="linear-gradient-13" x1="925.24" y1="583.35" x2="961.97" y2="583.35" gradientTransform="translate(1887.21 1166.7) rotate(-180)" xlink:href="#linear-gradient"/>
    <clipPath id="clip-path-5">
      <path class="cls-5" d="M938.72,571.13a7.87,7.87,0,1,0,7.87,7.87A7.86,7.86,0,0,0,938.72,571.13Zm0,14.36a6.5,6.5,0,1,1,6.5-6.49A6.5,6.5,0,0,1,938.72,585.49Z"/>
    </clipPath>
    <linearGradient id="linear-gradient-15" x1="925.84" y1="587.03" x2="962.57" y2="587.03" gradientTransform="translate(1888.41 1174.07) rotate(-180)" xlink:href="#linear-gradient"/>
    <linearGradient id="linear-gradient-16" x1="935.48" y1="582.68" x2="943.17" y2="582.68" xlink:href="#linear-gradient"/>
  </defs>
  <path id="SVGID-4" data-name="SVGID" class="cls-1" d="M551.44,418.26l-3.65-14.1,28.43-28.79-13.34,36.48ZM530.3,430.14l15-8.4-3.63-14.14-11.36-44.23v0h0v0l-11.36,44.23-3.63,14.14,15,8.4Zm-21.13-11.89,3.65-14.11-28.43-28.78,13.34,36.48Zm21.13,19.58h0l-85.71-48,62.27,57.4h46.89L616,389.8Z"/>
  <g class="cls-7">
    <rect class="cls-8" x="442.51" y="363.14" width="175.59" height="84.24"/>
  </g>
  <path id="SVGID-5" data-name="SVGID" class="cls-2" d="M343.46,621.12v16.72h1c.53-4,.81-8.35,4.5-12.12,2.66-2.7,5.26-3.33,11-3.33v26.08c0,3.77-2.45,4.26-7.63,4.26h-3.63V654h29.29v-1.25h-3.63c-5.18,0-7.62-.49-7.62-4.26V622.39c5.72,0,8.31.63,11,3.33,3.69,3.77,4,8.08,4.49,12.12h1V621.12Zm59.05,0v1.27h2.05c5.53,0,6.54.28,6.54,6.33V648.4c0,4-2.71,4.33-6.29,4.33h-2.3V654h41.42V640.42h-.61c-2.73,8.83-5,12.31-16.6,12.31h-8.86V637.84h3.49c7.1,0,7.78,6.12,8,9.59h.89v-19.9h-.89c-.12,4.88-1.15,9.05-8,9.05h-3.49V622.39h10.86c10.16,0,11.66,7.66,12.48,11.41h.55V621.12Zm146.45,0v1.27h1.86c3.41,0,6.15.41,6.15,3.76v13.14c0,4.19-.14,7.25-2.74,10.24-1.29,1.46-5,3.47-10.22,3.47-6.7,0-9.77-2.5-9.77-10.3V628.85c0-5.42,1.36-6.46,5.74-6.46h2.3v-1.27H520.52v1.27h2.19c4.77,0,4.77,2,4.77,6.46v13.22c0,8.5,6.55,12.67,16.53,12.67,5.1,0,9.28-1.79,11.32-3.82,3-3,3.34-4.88,3.34-11.56v-9.25c0-4.73.49-7.72,4.9-7.72h2.12v-1.27Zm33.88,0v1.27h2.25c3.49,0,5.6.48,5.6,3.69v23c0,3.2-2.11,3.69-5.6,3.69h-2.25V654h22.45v-1.25h-2.24c-3.49,0-5.6-.49-5.6-3.69v-23c0-3.21,2.11-3.69,5.6-3.69h2.24v-1.27Zm40,0v1.27h3.81c4.59,0,4.59,1.25,4.59,6.05V649.1c0,3.07-2.13,3.63-5.87,3.63h-3V654h41l.4-13.56h-1.09c-2.45,7-5.11,12.31-16.37,12.31H638V628.17c0-5.09,1.58-5.78,5.61-5.78h4.29v-1.27Zm-151,16.65c0-10.24,2.85-16,12.2-16,8.26,0,11,5.64,11,15.93a20.37,20.37,0,0,1-2.25,10.09c-2.25-2.43-4.29-4.8-8.19-4.8-3.19,0-5,1.82-6.47,3.56l.48.34a6.28,6.28,0,0,1,2.87-1.31c2.58,0,4.29,2,8,6.52a18.49,18.49,0,0,1-6.07,1.26c-8.74,0-11.59-5.49-11.59-15.58m-8-.08c0,9.19,9.5,17,19.6,17a22.8,22.8,0,0,0,7.09-1.45c1.78,1.17,3.7,2.49,6.22,2.49,4.57,0,7-4,8.19-6.53l-.63-.42c-1.21,1.32-2.1,3.07-4.5,3.07a9,9,0,0,1-4.21-1.6c2.51-1.75,7.42-5.86,7.42-12.95,0-10.72-11.67-17-18.71-17-9.81,0-20.47,8.7-20.47,17.32m227.77-10,7,14.33H684.19Zm2.66-7.79L682,643.39c-2.6,5-4.29,9.34-10.72,9.34h-1.77V654h19.72v-1.25h-2c-2.81,0-6.09-.29-6.09-3.56a8.36,8.36,0,0,1,1.23-3.75l1.08-2.09h15.71l1.5,3c.68,1.32,1.57,2.57,1.57,4,0,2.37-3.07,2.37-5.73,2.37h-2.46V654H717v-1.25h-1.57c-5.33,0-6.48-4.39-9.08-9.47L694.3,620Z"/>
  <g class="cls-9">
    <rect class="cls-10" x="343.46" y="619.95" width="373.55" height="35.83"/>
  </g>
  <path id="SVGID-6" data-name="SVGID" class="cls-3" d="M257.78,484.53v4.79h14.57l8.5,8.48v72.87l-8.5,8.48H257.78v4.78h75v-4.78H318.21l-8.73-8.49V497.8l8.73-8.48h14.54v-4.79Zm103.45,0v4.79H375.8l8.71,8.48v72.86l-8.71,8.49H361.23v4.78H482.75V545.49H479.3l-27.85,33H419.3l-6.16-7.78v-37.8h14.17l18.92,21.8h3.67V506.53h-3.66l-18.93,21.38H413.14V497.74l6.59-8.42h34.52L479,522.68l.23.29h3.51l-1.58-38.44Zm205,13.21,6.61-8.42h13.34c17.93,0,28.64,7.56,28.64,20.25,0,12.51-11.41,19.41-32.12,19.41H566.23Zm-51.91-13.21v4.79h14.57l8.72,8.48v72.86l-8.72,8.49H514.32v4.78h74.11v-4.78H572.84l-6.61-8.43V534h8.21c15.3,0,21.28,5.44,26.72,24.25l7.31,25.7h43v-4.78H639.1l-4.67-4.37c-3.26-8.24-6.25-18.57-9.69-33.4l-.13-.56h-2.33c-10.51,0-17.68-1.79-21.88-5.53v-1.74l1.79-1.92c29.74-2.46,43-9.45,43-22.69,0-15.28-18.73-24.41-50.1-24.41Zm153.84,0V519h3.72L693,489.32h20.23v81.33l-9.56,8.5H689.05v4.78H766v-4.78H751.6l-9.78-8.52V489.32h20.44L783.36,519h3.5V484.53Zm165.7,49.8c0-32,11.5-46.91,36.25-46.91,24.59,0,36,14.9,36,46.91s-11.46,46.72-36,46.72c-24.75,0-36.25-14.85-36.25-46.72m-32.56,0c0,30.22,29,52.14,68.81,52.14s68.81-21.92,68.81-52.14S910,482,870.11,482s-68.81,22-68.81,52.34M227.9,481.8,214,491.37c-8.41-6.36-19.11-9.57-31.78-9.57-34.51,0-60.53,22.78-60.53,53,0,29.85,25.36,51.51,60.31,51.51,25,0,43.32-13,49.09-33.95H224.9c-5.3,16.59-19.88,27.47-38.32,27.47-24.35,0-32.59-11.89-32.59-47.13,0-31.3,9.81-45.88,30.84-45.88,19.57,0,34.78,13.66,42,37.47h4.57V481.8Z"/>
  <g class="cls-11">
    <rect class="cls-12" x="121.69" y="481.8" width="817.24" height="104.67"/>
  </g>
  <path class="cls-4" d="M941,582.34l-1.92-2.27h-2.42v2.27h-1.52v-6.69h4.62c1.63,0,2.87.75,2.87,2.21a2.13,2.13,0,0,1-1.87,2.1l2.07,2.38Zm-1.33-3.54c.81,0,1.4-.19,1.4-.93s-.59-.94-1.4-.94h-3v1.87Z"/>
  <g class="cls-13">
    <rect class="cls-14" x="925.24" y="578.5" width="36.73" height="9.69" transform="translate(1887.21 1166.7) rotate(180)"/>
  </g>
  <path class="cls-5" d="M938.72,571.13a7.87,7.87,0,1,0,7.87,7.87A7.86,7.86,0,0,0,938.72,571.13Zm0,14.36a6.5,6.5,0,1,1,6.5-6.49A6.5,6.5,0,0,1,938.72,585.49Z"/>
  <g class="cls-15">
    <rect class="cls-16" x="925.84" y="582.19" width="36.73" height="9.69" transform="translate(1888.41 1174.07) rotate(180)"/>
    <path class="cls-17" d="M941.34,586l-1.92-2.28H937V586h-1.52v-6.7h4.62c1.63,0,2.87.76,2.87,2.21a2.14,2.14,0,0,1-1.87,2.11l2.07,2.38ZM940,582.49c.8,0,1.4-.19,1.4-.94s-.6-.94-1.4-.94h-3v1.88Z"/>
  </g>
</svg>