<svg id="Layer_1" data-name="Layer 1" xmlns="http://www.w3.org/2000/svg" xmlns:xlink="http://www.w3.org/1999/xlink" viewBox="0 0 1000 1000"><defs><style>.cls-1{fill:url(#êVãKÉOÉâÉfÅ_ÉVÉáÉìÉXÉEÉHÉbÉ_7);}.cls-2{fill:url(#êVãKÉOÉâÉfÅ_ÉVÉáÉìÉXÉEÉHÉbÉ_7-2);}.cls-3{fill:url(#êVãKÉOÉâÉfÅ_ÉVÉáÉìÉXÉEÉHÉbÉ_7-3);}.cls-4{fill:url(#êVãKÉOÉâÉfÅ_ÉVÉáÉìÉXÉEÉHÉbÉ_7-4);}.cls-5{fill:url(#êVãKÉOÉâÉfÅ_ÉVÉáÉìÉXÉEÉHÉbÉ_7-5);}.cls-6{fill:url(#êVãKÉOÉâÉfÅ_ÉVÉáÉìÉXÉEÉHÉbÉ_7-6);}.cls-7{fill:url(#êVãKÉOÉâÉfÅ_ÉVÉáÉìÉXÉEÉHÉbÉ_7-7);}.cls-8{fill:url(#êVãKÉOÉâÉfÅ_ÉVÉáÉìÉXÉEÉHÉbÉ_7-8);}.cls-9{fill:url(#êVãKÉOÉâÉfÅ_ÉVÉáÉìÉXÉEÉHÉbÉ_7-9);}.cls-10{fill:url(#New_Gradient_Swatch_copy_7);}.cls-11{fill:url(#êVãKÉOÉâÉfÅ_ÉVÉáÉìÉXÉEÉHÉbÉ_7-10);}.cls-12{fill:url(#êVãKÉOÉâÉfÅ_ÉVÉáÉìÉXÉEÉHÉbÉ_7-11);}.cls-13{fill:url(#New_Gradient_Swatch_copy_7-2);}.cls-14{fill:url(#êVãKÉOÉâÉfÅ_ÉVÉáÉìÉXÉEÉHÉbÉ_7-12);}.cls-15{fill:url(#êVãKÉOÉâÉfÅ_ÉVÉáÉìÉXÉEÉHÉbÉ_7-13);}.cls-16{fill:url(#êVãKÉOÉâÉfÅ_ÉVÉáÉìÉXÉEÉHÉbÉ_7-14);}.cls-17{fill:url(#êVãKÉOÉâÉfÅ_ÉVÉáÉìÉXÉEÉHÉbÉ_7-15);}.cls-18{fill:url(#êVãKÉOÉâÉfÅ_ÉVÉáÉìÉXÉEÉHÉbÉ_7-16);}.cls-19{fill:url(#New_Gradient_Swatch_copy_7-3);}.cls-20{fill:url(#êVãKÉOÉâÉfÅ_ÉVÉáÉìÉXÉEÉHÉbÉ_7-17);}.cls-21{fill:url(#êVãKÉOÉâÉfÅ_ÉVÉáÉìÉXÉEÉHÉbÉ_7-18);}.cls-22{fill:url(#êVãKÉOÉâÉfÅ_ÉVÉáÉìÉXÉEÉHÉbÉ_7-19);}.cls-23{fill:url(#New_Gradient_Swatch_copy_7-4);}.cls-24{clip-path:url(#clip-path);}.cls-25{fill:url(#êVãKÉOÉâÉfÅ_ÉVÉáÉìÉXÉEÉHÉbÉ_7-21);}.cls-26{clip-path:url(#clip-path-2);}.cls-27{fill:url(#êVãKÉOÉâÉfÅ_ÉVÉáÉìÉXÉEÉHÉbÉ_7-23);}.cls-28{clip-path:url(#clip-path-3);}.cls-29{fill:url(#êVãKÉOÉâÉfÅ_ÉVÉáÉìÉXÉEÉHÉbÉ_7-25);}.cls-30{clip-path:url(#clip-path-4);}.cls-31{fill:url(#êVãKÉOÉâÉfÅ_ÉVÉáÉìÉXÉEÉHÉbÉ_7-27);}.cls-32{clip-path:url(#clip-path-5);}.cls-33{fill:url(#êVãKÉOÉâÉfÅ_ÉVÉáÉìÉXÉEÉHÉbÉ_7-29);}.cls-34{fill:url(#êVãKÉOÉâÉfÅ_ÉVÉáÉìÉXÉEÉHÉbÉ_7-30);}.cls-35{fill:url(#êVãKÉOÉâÉfÅ_ÉVÉáÉìÉXÉEÉHÉbÉ_7-31);}</style><linearGradient id="êVãKÉOÉâÉfÅ_ÉVÉáÉìÉXÉEÉHÉbÉ_7" x1="432.63" y1="353.28" x2="561.6" y2="353.28" gradientUnits="userSpaceOnUse"><stop offset="0" stop-color="#abadaf"/><stop offset="0.03" stop-color="#b3b4b6"/><stop offset="0.21" stop-color="#dededf"/><stop offset="0.3" stop-color="#efeeef"/><stop offset="0.74" stop-color="#828486"/><stop offset="1" stop-color="#abadaf"/></linearGradient><linearGradient id="êVãKÉOÉâÉfÅ_ÉVÉáÉìÉXÉEÉHÉbÉ_7-2" x1="356.55" y1="528.28" x2="637.59" y2="528.28" xlink:href="#êVãKÉOÉâÉfÅ_ÉVÉáÉìÉXÉEÉHÉbÉ_7"/><linearGradient id="êVãKÉOÉâÉfÅ_ÉVÉáÉìÉXÉEÉHÉbÉ_7-3" x1="189.7" y1="450.24" x2="804.53" y2="450.24" xlink:href="#êVãKÉOÉâÉfÅ_ÉVÉáÉìÉXÉEÉHÉbÉ_7"/><linearGradient id="êVãKÉOÉâÉfÅ_ÉVÉáÉìÉXÉEÉHÉbÉ_7-4" x1="801.69" y1="483.99" x2="807.47" y2="483.99" xlink:href="#êVãKÉOÉâÉfÅ_ÉVÉáÉìÉXÉEÉHÉbÉ_7"/><linearGradient id="êVãKÉOÉâÉfÅ_ÉVÉáÉìÉXÉEÉHÉbÉ_7-5" x1="798.47" y1="483.99" x2="810.3" y2="483.99" xlink:href="#êVãKÉOÉâÉfÅ_ÉVÉáÉìÉXÉEÉHÉbÉ_7"/><linearGradient id="êVãKÉOÉâÉfÅ_ÉVÉáÉìÉXÉEÉHÉbÉ_7-6" x1="526.21" y1="718.41" x2="694.9" y2="718.41" xlink:href="#êVãKÉOÉâÉfÅ_ÉVÉáÉìÉXÉEÉHÉbÉ_7"/><linearGradient id="êVãKÉOÉâÉfÅ_ÉVÉáÉìÉXÉEÉHÉbÉ_7-7" x1="301.33" y1="717.96" x2="470.04" y2="717.96" xlink:href="#êVãKÉOÉâÉfÅ_ÉVÉáÉìÉXÉEÉHÉbÉ_7"/><linearGradient id="êVãKÉOÉâÉfÅ_ÉVÉáÉìÉXÉEÉHÉbÉ_7-8" x1="614.41" y1="614.98" x2="716.66" y2="614.98" xlink:href="#êVãKÉOÉâÉfÅ_ÉVÉáÉìÉXÉEÉHÉbÉ_7"/><linearGradient id="êVãKÉOÉâÉfÅ_ÉVÉáÉìÉXÉEÉHÉbÉ_7-9" x1="279.58" y1="614.54" x2="381.82" y2="614.54" xlink:href="#êVãKÉOÉâÉfÅ_ÉVÉáÉìÉXÉEÉHÉbÉ_7"/><linearGradient id="New_Gradient_Swatch_copy_7" x1="376.34" y1="620.45" x2="619.6" y2="620.45" gradientUnits="userSpaceOnUse"><stop offset="0" stop-color="#aa772e"/><stop offset="0.04" stop-color="#b58c4a"/><stop offset="0.17" stop-color="#d2c28f"/><stop offset="0.25" stop-color="#e4e3bb"/><stop offset="0.3" stop-color="#ebf0cc"/><stop offset="0.75" stop-color="#ddae50"/><stop offset="1" stop-color="#b2884d"/></linearGradient><linearGradient id="êVãKÉOÉâÉfÅ_ÉVÉáÉìÉXÉEÉHÉbÉ_7-10" x1="197.61" y1="579" x2="261.42" y2="579" xlink:href="#êVãKÉOÉâÉfÅ_ÉVÉáÉìÉXÉEÉHÉbÉ_7"/><linearGradient id="êVãKÉOÉâÉfÅ_ÉVÉáÉìÉXÉEÉHÉbÉ_7-11" x1="292.52" y1="616.27" x2="703.72" y2="616.27" xlink:href="#êVãKÉOÉâÉfÅ_ÉVÉáÉìÉXÉEÉHÉbÉ_7"/><linearGradient id="New_Gradient_Swatch_copy_7-2" x1="254.19" y1="635.27" x2="742.04" y2="635.27" xlink:href="#New_Gradient_Swatch_copy_7"/><linearGradient id="êVãKÉOÉâÉfÅ_ÉVÉáÉìÉXÉEÉHÉbÉ_7-12" x1="734.82" y1="579.22" x2="798.73" y2="579.22" xlink:href="#êVãKÉOÉâÉfÅ_ÉVÉáÉìÉXÉEÉHÉbÉ_7"/><linearGradient id="êVãKÉOÉâÉfÅ_ÉVÉáÉìÉXÉEÉHÉbÉ_7-13" x1="734.82" y1="318.83" x2="798.76" y2="318.83" xlink:href="#êVãKÉOÉâÉfÅ_ÉVÉáÉìÉXÉEÉHÉbÉ_7"/><linearGradient id="êVãKÉOÉâÉfÅ_ÉVÉáÉìÉXÉEÉHÉbÉ_7-14" x1="197.38" y1="318.6" x2="261.42" y2="318.6" xlink:href="#êVãKÉOÉâÉfÅ_ÉVÉáÉìÉXÉEÉHÉbÉ_7"/><linearGradient id="êVãKÉOÉâÉfÅ_ÉVÉáÉìÉXÉEÉHÉbÉ_7-15" x1="614.41" y1="282.98" x2="716.66" y2="282.98" xlink:href="#êVãKÉOÉâÉfÅ_ÉVÉáÉìÉXÉEÉHÉbÉ_7"/><linearGradient id="êVãKÉOÉâÉfÅ_ÉVÉáÉìÉXÉEÉHÉbÉ_7-16" x1="279.58" y1="282.55" x2="381.82" y2="282.55" xlink:href="#êVãKÉOÉâÉfÅ_ÉVÉáÉìÉXÉEÉHÉbÉ_7"/><linearGradient id="New_Gradient_Swatch_copy_7-3" x1="329.44" y1="300.15" x2="666.78" y2="300.15" xlink:href="#New_Gradient_Swatch_copy_7"/><linearGradient id="êVãKÉOÉâÉfÅ_ÉVÉáÉìÉXÉEÉHÉbÉ_7-17" x1="291.96" y1="281.56" x2="704.29" y2="281.56" xlink:href="#êVãKÉOÉâÉfÅ_ÉVÉáÉìÉXÉEÉHÉbÉ_7"/><linearGradient id="êVãKÉOÉâÉfÅ_ÉVÉáÉìÉXÉEÉHÉbÉ_7-18" x1="526.21" y1="179.56" x2="694.9" y2="179.56" xlink:href="#êVãKÉOÉâÉfÅ_ÉVÉáÉìÉXÉEÉHÉbÉ_7"/><linearGradient id="êVãKÉOÉâÉfÅ_ÉVÉáÉìÉXÉEÉHÉbÉ_7-19" x1="301.33" y1="179.12" x2="470.04" y2="179.12" xlink:href="#êVãKÉOÉâÉfÅ_ÉVÉáÉìÉXÉEÉHÉbÉ_7"/><linearGradient id="New_Gradient_Swatch_copy_7-4" x1="253.63" y1="262.56" x2="742.61" y2="262.56" xlink:href="#New_Gradient_Swatch_copy_7"/><clipPath id="clip-path"><path id="SVGID" class="cls-1" d="M513,363.06l-2.74-10.61,21.38-21.65-10,27.44ZM497.11,372l11.29-6.32L505.67,355l-8.55-33.28v0h0v0L488.57,355l-2.74,10.64L497.11,372Zm-15.89-8.95L484,352.44l-21.39-21.66,10,27.45Zm15.9,14.74h0l-64.49-36.13,46.85,43.18h35.28l46.84-43.18Z"/></clipPath><linearGradient id="êVãKÉOÉâÉfÅ_ÉVÉáÉìÉXÉEÉHÉbÉ_7-21" x1="431.06" y1="353.28" x2="563.17" y2="353.28" xlink:href="#êVãKÉOÉâÉfÅ_ÉVÉáÉìÉXÉEÉHÉbÉ_7"/><clipPath id="clip-path-2"><path id="SVGID-2" data-name="SVGID" class="cls-2" d="M356.55,515.68v12.58h.73c.4-3,.61-6.29,3.38-9.12,2-2,4-2.51,8.27-2.51v19.63c0,2.83-1.85,3.2-5.75,3.2h-2.73v.95h22v-.95h-2.73c-3.9,0-5.74-.37-5.74-3.2V516.63c4.31,0,6.26.48,8.25,2.51,2.78,2.83,3,6.08,3.39,9.12h.73V515.68Zm44.42,0v1h1.55c4.16,0,4.92.22,4.92,4.77v14.81c0,3-2,3.25-4.73,3.25H401v.95h31.17V530.2h-.46c-2.06,6.64-3.76,9.26-12.49,9.26h-6.67v-11.2h2.63c5.34,0,5.85,4.6,6,7.21h.67v-15h-.67c-.09,3.68-.87,6.81-6,6.81h-2.63V516.63h8.17c7.65,0,8.78,5.77,9.39,8.59h.41v-9.54Zm110.18,0v1h1.4c2.56,0,4.63.31,4.63,2.83v9.89c0,3.15-.11,5.45-2.07,7.7-1,1.1-3.74,2.62-7.68,2.62-5,0-7.35-1.89-7.35-7.75V521.5c0-4.08,1-4.87,4.31-4.87h1.74v-1H489.76v1h1.64c3.6,0,3.6,1.53,3.6,4.87v10c0,6.39,4.92,9.52,12.43,9.52,3.84,0,7-1.35,8.51-2.87,2.25-2.25,2.51-3.67,2.51-8.69v-7c0-3.56.38-5.82,3.7-5.82h1.59v-1Zm25.5,0v1h1.68c2.63,0,4.21.37,4.21,2.78v17.27c0,2.41-1.58,2.78-4.21,2.78h-1.68v.95h16.88v-.95h-1.69c-2.62,0-4.21-.37-4.21-2.78V519.41c0-2.41,1.59-2.78,4.21-2.78h1.69v-1Zm30.08,0v1h2.87c3.45,0,3.45,1,3.45,4.56v15.54c0,2.31-1.6,2.73-4.41,2.73h-2.22v.95h30.8l.31-10.21h-.82c-1.84,5.27-3.84,9.26-12.32,9.26h-6.26V521c0-3.83,1.18-4.35,4.21-4.35h3.23v-1ZM453.15,528.21c0-7.71,2.15-12.05,9.18-12.05,6.22,0,8.26,4.25,8.26,12a15.37,15.37,0,0,1-1.69,7.59c-1.69-1.83-3.23-3.61-6.16-3.61-2.4,0-3.73,1.36-4.87,2.67l.36.26a4.75,4.75,0,0,1,2.16-1c1.94,0,3.23,1.52,6.05,4.91a14.08,14.08,0,0,1-4.57.95c-6.57,0-8.72-4.13-8.72-11.72m-6-.06c0,6.91,7.15,12.82,14.74,12.82a17.17,17.17,0,0,0,5.34-1.09,8.46,8.46,0,0,0,4.68,1.88c3.43,0,5.28-3,6.16-4.92l-.47-.31c-.92,1-1.59,2.3-3.39,2.3a6.76,6.76,0,0,1-3.17-1.2c1.89-1.31,5.59-4.41,5.59-9.74,0-8.07-8.79-12.77-14.08-12.77-7.38,0-15.4,6.54-15.4,13m171.36-7.49,5.28,10.79H612.89Zm2-5.86-9.24,17.64c-2,3.77-3.22,7-8.06,7h-1.33v.95h14.83v-.95h-1.48c-2.11,0-4.58-.22-4.58-2.67a6.4,6.4,0,0,1,.93-2.83l.81-1.57h11.82l1.13,2.26a6.94,6.94,0,0,1,1.18,3c0,1.78-2.31,1.78-4.31,1.78h-1.85v.95h17.25v-.95h-1.18c-4,0-4.88-3.3-6.83-7.12l-9.09-17.54Z"/></clipPath><linearGradient id="êVãKÉOÉâÉfÅ_ÉVÉáÉìÉXÉEÉHÉbÉ_7-23" x1="356.55" y1="528.28" x2="637.59" y2="528.28" xlink:href="#êVãKÉOÉâÉfÅ_ÉVÉáÉìÉXÉEÉHÉbÉ_7"/><clipPath id="clip-path-3"><path id="SVGID-3" data-name="SVGID" class="cls-3" d="M292.09,412.92v3.6h11l6.39,6.38v54.83l-6.39,6.37h-11v3.6h56.4v-3.6H337.55L331,477.72V422.9l6.57-6.38h10.94v-3.6Zm77.83,0v3.6h11l6.55,6.38v54.82l-6.55,6.38h-11v3.6h91.42V458.78h-2.6l-20.95,24.84H413.6L409,477.76V449.32h10.66l14.24,16.4h2.76V429.47h-2.76l-14.24,16.09H409V422.85l5-6.33h26l18.65,25.1.17.22h2.64l-1.18-28.92Zm154.23,9.93,5-6.33h10c13.49,0,21.55,5.69,21.55,15.24s-8.58,14.6-24.16,14.6H524.15Zm-39.06-9.93v3.6h11l6.56,6.38v54.82l-6.56,6.38h-11v3.6h55.75v-3.6H529.12l-5-6.34V450.12h6.17c11.51,0,16,4.09,20.1,18.25l5.51,19.33h32.36v-3.6H579l-3.52-3.28c-2.45-6.2-4.7-14-7.29-25.13l-.09-.42h-1.76c-7.91,0-13.3-1.35-16.46-4.16V449.8l1.35-1.45c22.37-1.84,32.36-7.11,32.36-17.07,0-11.5-14.1-18.36-37.69-18.36Zm115.74,0v25.89h2.8l15.86-22.29h15.22v61.19l-7.2,6.39h-11v3.6h57.87v-3.6H663.61l-7.36-6.41V416.52h15.38l15.87,22.29h2.63V412.92Zm124.66,37.47c0-24.09,8.65-35.3,27.28-35.3s27.11,11.21,27.11,35.3-8.61,35.14-27.11,35.14-27.28-11.17-27.28-35.14m-24.49,0c0,22.73,21.78,39.22,51.77,39.22s51.76-16.49,51.76-39.22S782.77,411,752.77,411,701,427.57,701,450.39M269.61,410.87l-10.46,7.19c-6.33-4.78-14.38-7.19-23.91-7.19-26,0-45.54,17.13-45.54,39.85,0,22.46,19.08,38.75,45.38,38.75,18.84,0,32.59-9.81,36.93-25.54h-4.66c-4,12.48-15,20.66-28.83,20.66-18.32,0-24.51-8.94-24.51-35.46,0-23.54,7.37-34.51,23.19-34.51,14.73,0,26.17,10.27,31.63,28.19h3.44V410.87Z"/></clipPath><linearGradient id="êVãKÉOÉâÉfÅ_ÉVÉáÉìÉXÉEÉHÉbÉ_7-25" x1="189.7" y1="450.24" x2="804.53" y2="450.24" xlink:href="#êVãKÉOÉâÉfÅ_ÉVÉáÉìÉXÉEÉHÉbÉ_7"/><clipPath id="clip-path-4"><path class="cls-4" d="M806.1,486.51l-1.45-1.72h-1.82v1.72h-1.14v-5h3.47c1.23,0,2.16.57,2.16,1.66a1.61,1.61,0,0,1-1.4,1.59l1.55,1.79Zm-1-2.67c.6,0,1-.14,1-.7s-.45-.71-1-.71h-2.28v1.41Z"/></clipPath><linearGradient id="êVãKÉOÉâÉfÅ_ÉVÉáÉìÉXÉEÉHÉbÉ_7-27" x1="794.24" y1="487.26" x2="821.88" y2="487.26" gradientTransform="translate(1616.12 974.53) rotate(-180)" xlink:href="#êVãKÉOÉâÉfÅ_ÉVÉáÉìÉXÉEÉHÉbÉ_7"/><clipPath id="clip-path-5"><path class="cls-5" d="M804.38,478.07A5.92,5.92,0,1,0,810.3,484,5.92,5.92,0,0,0,804.38,478.07Zm0,10.81a4.89,4.89,0,1,1,4.89-4.89A4.89,4.89,0,0,1,804.38,488.88Z"/></clipPath><linearGradient id="êVãKÉOÉâÉfÅ_ÉVÉáÉìÉXÉEÉHÉbÉ_7-29" x1="794.69" y1="490.04" x2="822.33" y2="490.04" gradientTransform="translate(1617.02 980.07) rotate(-180)" xlink:href="#êVãKÉOÉâÉfÅ_ÉVÉáÉìÉXÉEÉHÉbÉ_7"/><linearGradient id="êVãKÉOÉâÉfÅ_ÉVÉáÉìÉXÉEÉHÉbÉ_7-30" x1="801.94" y1="486.76" x2="807.73" y2="486.76" xlink:href="#êVãKÉOÉâÉfÅ_ÉVÉáÉìÉXÉEÉHÉbÉ_7"/><linearGradient id="êVãKÉOÉâÉfÅ_ÉVÉáÉìÉXÉEÉHÉbÉ_7-31" x1="105.64" y1="847.77" x2="894.36" y2="847.77" xlink:href="#êVãKÉOÉâÉfÅ_ÉVÉáÉìÉXÉEÉHÉbÉ_7"/></defs><g id="Top_Full_Logo" data-name="Top Full Logo"><path class="cls-6" d="M596.25,683.68l-70,69.45,11.29-1.46a309.26,309.26,0,0,0,148.4-61.1l9-6.89Zm-48.18,58.64,51.4-51H671.8A301.31,301.31,0,0,1,548.07,742.32Z"/><path class="cls-7" d="M400,683.24H301.33l9,6.89a309.34,309.34,0,0,0,148.4,61.1L470,752.69Zm-75.53,7.68h72.32l51.41,51A301.27,301.27,0,0,1,324.45,690.92Z"/><path class="cls-8" d="M614.41,665.67H716.66V564.29Zm94.5-7.69H633.14l75.77-75.13Z"/><path class="cls-9" d="M279.58,563.85V665.23H381.82Zm7.75,18.57,75.77,75.12H287.33Z"/><polygon class="cls-10" points="608.64 559.88 498.11 670.13 387.31 559.9 376.34 559.9 498.11 681.02 619.6 559.88 608.64 559.88"/><path class="cls-11" d="M218.68,514.35l35,34.68v71.72a296.45,296.45,0,0,1-48.13-106.4h-7.92a304.11,304.11,0,0,0,56.86,120.39l7,8.91v-97.8l-31.78-31.5Z"/><polygon class="cls-12" points="692.75 514.35 498.11 707.32 303.49 514.35 292.52 514.35 498.11 718.2 703.72 514.35 692.75 514.35"/><polygon class="cls-13" points="731.07 514.35 498.11 745.32 265.16 514.35 254.19 514.35 498.11 756.2 742.04 514.35 731.07 514.35"/><path class="cls-14" d="M790.8,514.35a296.46,296.46,0,0,1-48.22,106.84V549.47L778,514.35H767l-32.22,31.93v97.81l7-8.92a304.29,304.29,0,0,0,57-120.82Z"/><path class="cls-15" d="M734.82,351.68l32.37,32.09h11L742.58,348.5V276.78a296.21,296.21,0,0,1,48.25,107h7.93a304.39,304.39,0,0,0-57-121l-7-8.91Z"/><path class="cls-16" d="M254.47,262.36a304.07,304.07,0,0,0-57.09,121.41h7.94a296.48,296.48,0,0,1,48.34-107.43v71.72l-36,35.71h11l32.81-32.53v-97.8Z"/><path class="cls-17" d="M614.41,232.3,716.66,333.67V232.3Zm94.5,82.81L633.14,240h75.77Z"/><path class="cls-18" d="M279.58,231.86V333.24L381.82,231.86Zm7.75,7.68H363.1l-75.77,75.14Z"/><polygon class="cls-19" points="329.44 383.77 340.42 383.77 498.11 227.41 655.82 383.77 666.78 383.77 498.11 216.53 329.44 383.77"/><polygon class="cls-20" points="291.96 383.77 302.92 383.77 498.11 190.23 693.32 383.77 704.29 383.77 498.11 179.35 291.96 383.77"/><path class="cls-21" d="M685.9,207.4a309.27,309.27,0,0,0-148.4-61.11l-11.29-1.45,70,69.45H694.9Zm-86.43-.8-51.4-51a301.46,301.46,0,0,1,123.73,51Z"/><path class="cls-22" d="M458.73,145.85A309.25,309.25,0,0,0,310.33,207l-9,6.89H400L470,144.4Zm-62,60.31H324.45a301.42,301.42,0,0,1,123.73-51Z"/><polygon class="cls-23" points="253.63 383.77 264.59 383.77 498.11 152.23 731.64 383.77 742.61 383.77 498.11 141.36 253.63 383.77"/><path id="SVGID-4" data-name="SVGID" class="cls-1" d="M513,363.06l-2.74-10.61,21.38-21.65-10,27.44ZM497.11,372l11.29-6.32L505.67,355l-8.55-33.28v0h0v0L488.57,355l-2.74,10.64L497.11,372Zm-15.89-8.95L484,352.44l-21.39-21.66,10,27.45Zm15.9,14.74h0l-64.49-36.13,46.85,43.18h35.28l46.84-43.18Z"/><g class="cls-24"><rect class="cls-25" x="431.06" y="321.59" width="132.1" height="63.37"/></g><path id="SVGID-5" data-name="SVGID" class="cls-2" d="M356.55,515.68v12.58h.73c.4-3,.61-6.29,3.38-9.12,2-2,4-2.51,8.27-2.51v19.63c0,2.83-1.85,3.2-5.75,3.2h-2.73v.95h22v-.95h-2.73c-3.9,0-5.74-.37-5.74-3.2V516.63c4.31,0,6.26.48,8.25,2.51,2.78,2.83,3,6.08,3.39,9.12h.73V515.68Zm44.42,0v1h1.55c4.16,0,4.92.22,4.92,4.77v14.81c0,3-2,3.25-4.73,3.25H401v.95h31.17V530.2h-.46c-2.06,6.64-3.76,9.26-12.49,9.26h-6.67v-11.2h2.63c5.34,0,5.85,4.6,6,7.21h.67v-15h-.67c-.09,3.68-.87,6.81-6,6.81h-2.63V516.63h8.17c7.65,0,8.78,5.77,9.39,8.59h.41v-9.54Zm110.18,0v1h1.4c2.56,0,4.63.31,4.63,2.83v9.89c0,3.15-.11,5.45-2.07,7.7-1,1.1-3.74,2.62-7.68,2.62-5,0-7.35-1.89-7.35-7.75V521.5c0-4.08,1-4.87,4.31-4.87h1.74v-1H489.76v1h1.64c3.6,0,3.6,1.53,3.6,4.87v10c0,6.39,4.92,9.52,12.43,9.52,3.84,0,7-1.35,8.51-2.87,2.25-2.25,2.51-3.67,2.51-8.69v-7c0-3.56.38-5.82,3.7-5.82h1.59v-1Zm25.5,0v1h1.68c2.63,0,4.21.37,4.21,2.78v17.27c0,2.41-1.58,2.78-4.21,2.78h-1.68v.95h16.88v-.95h-1.69c-2.62,0-4.21-.37-4.21-2.78V519.41c0-2.41,1.59-2.78,4.21-2.78h1.69v-1Zm30.08,0v1h2.87c3.45,0,3.45,1,3.45,4.56v15.54c0,2.31-1.6,2.73-4.41,2.73h-2.22v.95h30.8l.31-10.21h-.82c-1.84,5.27-3.84,9.26-12.32,9.26h-6.26V521c0-3.83,1.18-4.35,4.21-4.35h3.23v-1ZM453.15,528.21c0-7.71,2.15-12.05,9.18-12.05,6.22,0,8.26,4.25,8.26,12a15.37,15.37,0,0,1-1.69,7.59c-1.69-1.83-3.23-3.61-6.16-3.61-2.4,0-3.73,1.36-4.87,2.67l.36.26a4.75,4.75,0,0,1,2.16-1c1.94,0,3.23,1.52,6.05,4.91a14.08,14.08,0,0,1-4.57.95c-6.57,0-8.72-4.13-8.72-11.72m-6-.06c0,6.91,7.15,12.82,14.74,12.82a17.17,17.17,0,0,0,5.34-1.09,8.46,8.46,0,0,0,4.68,1.88c3.43,0,5.28-3,6.16-4.92l-.47-.31c-.92,1-1.59,2.3-3.39,2.3a6.76,6.76,0,0,1-3.17-1.2c1.89-1.31,5.59-4.41,5.59-9.74,0-8.07-8.79-12.77-14.08-12.77-7.38,0-15.4,6.54-15.4,13m171.36-7.49,5.28,10.79H612.89Zm2-5.86-9.24,17.64c-2,3.77-3.22,7-8.06,7h-1.33v.95h14.83v-.95h-1.48c-2.11,0-4.58-.22-4.58-2.67a6.4,6.4,0,0,1,.93-2.83l.81-1.57h11.82l1.13,2.26a6.94,6.94,0,0,1,1.18,3c0,1.78-2.31,1.78-4.31,1.78h-1.85v.95h17.25v-.95h-1.18c-4,0-4.88-3.3-6.83-7.12l-9.09-17.54Z"/><g class="cls-26"><rect class="cls-27" x="356.55" y="514.8" width="281.04" height="26.96"/></g><path id="SVGID-6" data-name="SVGID" class="cls-3" d="M292.09,412.92v3.6h11l6.39,6.38v54.83l-6.39,6.37h-11v3.6h56.4v-3.6H337.55L331,477.72V422.9l6.57-6.38h10.94v-3.6Zm77.83,0v3.6h11l6.55,6.38v54.82l-6.55,6.38h-11v3.6h91.42V458.78h-2.6l-20.95,24.84H413.6L409,477.76V449.32h10.66l14.24,16.4h2.76V429.47h-2.76l-14.24,16.09H409V422.85l5-6.33h26l18.65,25.1.17.22h2.64l-1.18-28.92Zm154.23,9.93,5-6.33h10c13.49,0,21.55,5.69,21.55,15.24s-8.58,14.6-24.16,14.6H524.15Zm-39.06-9.93v3.6h11l6.56,6.38v54.82l-6.56,6.38h-11v3.6h55.75v-3.6H529.12l-5-6.34V450.12h6.17c11.51,0,16,4.09,20.1,18.25l5.51,19.33h32.36v-3.6H579l-3.52-3.28c-2.45-6.2-4.7-14-7.29-25.13l-.09-.42h-1.76c-7.91,0-13.3-1.35-16.46-4.16V449.8l1.35-1.45c22.37-1.84,32.36-7.11,32.36-17.07,0-11.5-14.1-18.36-37.69-18.36Zm115.74,0v25.89h2.8l15.86-22.29h15.22v61.19l-7.2,6.39h-11v3.6h57.87v-3.6H663.61l-7.36-6.41V416.52h15.38l15.87,22.29h2.63V412.92Zm124.66,37.47c0-24.09,8.65-35.3,27.28-35.3s27.11,11.21,27.11,35.3-8.61,35.14-27.11,35.14-27.28-11.17-27.28-35.14m-24.49,0c0,22.73,21.78,39.22,51.77,39.22s51.76-16.49,51.76-39.22S782.77,411,752.77,411,701,427.57,701,450.39M269.61,410.87l-10.46,7.19c-6.33-4.78-14.38-7.19-23.91-7.19-26,0-45.54,17.13-45.54,39.85,0,22.46,19.08,38.75,45.38,38.75,18.84,0,32.59-9.81,36.93-25.54h-4.66c-4,12.48-15,20.66-28.83,20.66-18.32,0-24.51-8.94-24.51-35.46,0-23.54,7.37-34.51,23.19-34.51,14.73,0,26.17,10.27,31.63,28.19h3.44V410.87Z"/><g class="cls-28"><rect class="cls-29" x="189.7" y="410.87" width="614.84" height="78.75"/></g><path class="cls-4" d="M806.1,486.51l-1.45-1.72h-1.82v1.72h-1.14v-5h3.47c1.23,0,2.16.57,2.16,1.66a1.61,1.61,0,0,1-1.4,1.59l1.55,1.79Zm-1-2.67c.6,0,1-.14,1-.7s-.45-.71-1-.71h-2.28v1.41Z"/><g class="cls-30"><rect class="cls-31" x="794.24" y="483.62" width="27.63" height="7.29" transform="translate(1616.12 974.53) rotate(180)"/></g><path class="cls-5" d="M804.38,478.07A5.92,5.92,0,1,0,810.3,484,5.92,5.92,0,0,0,804.38,478.07Zm0,10.81a4.89,4.89,0,1,1,4.89-4.89A4.89,4.89,0,0,1,804.38,488.88Z"/><g class="cls-32"><rect class="cls-33" x="794.69" y="486.39" width="27.63" height="7.29" transform="translate(1617.02 980.07) rotate(180)"/><path class="cls-34" d="M806.35,489.28l-1.44-1.71h-1.82v1.71h-1.15v-5h3.48c1.23,0,2.16.57,2.16,1.66a1.61,1.61,0,0,1-1.41,1.59l1.56,1.79Zm-1-2.66c.61,0,1-.15,1-.71s-.44-.7-1-.7h-2.27v1.41Z"/></g></g><path class="cls-35" d="M126.9,840.2h-9v15.57h-3.37V840.2h-8.91v-2.75H126.9Zm34.31-2.75v18.32h-3.38v-7.88H143v7.88h-3.37V837.45H143v7.61h14.87v-7.61ZM195.9,853v2.75H176.29V837.45h19.32v2.75h-16v4.89h13.44v2.75H179.64V853Zm60.91-15.57-7.2,18.32h-3.48L240.33,841l-5.82,14.79h-3.46l-7.23-18.32h3.6l5.43,14.65,5.85-14.65H242l5.82,14.65,5.46-14.65Zm10.81,9.15c0-6,4.67-9.7,12.23-9.7s12.24,3.66,12.24,9.7-4.67,9.72-12.24,9.72S267.62,852.65,267.62,846.6Zm21,0c0-4.44-3.43-6.93-8.78-6.93s-8.8,2.49-8.8,6.93,3.43,6.94,8.8,6.94S288.63,851.06,288.63,846.6Zm35,9.17-6.1-6.65h-8.3v6.65h-3.37V837.45H319.2c4.59,0,8,2,8,5.83,0,3.17-2.36,5.11-5.79,5.68l6.39,6.81ZM319,846.42c2.81,0,4.73-.83,4.73-3.11s-1.92-3.11-4.73-3.11h-9.81v6.22ZM359,853v2.78H341.06V837.45h3.37V853Zm34.68-6.39c0,5.66-4.67,9.17-12,9.17h-10V837.45h10C389,837.45,393.63,841,393.63,846.6Zm-3.46,0c0-4.23-3.6-6.4-8.77-6.4H375V853h6.36C386.57,853,390.17,850.85,390.17,846.6Zm20.25-7.48a7,7,0,0,1-2.92,5.16l-.87-.87a5.62,5.62,0,0,0,2-3,.94.94,0,0,1-.56.13,1.85,1.85,0,0,1-2-1.8A1.93,1.93,0,0,1,408.2,837,2.1,2.1,0,0,1,410.42,839.12Zm34.09,11.23c0,3.48-3.69,6-10.38,6a18.49,18.49,0,0,1-11.75-3.72l2.1-2.22a14.56,14.56,0,0,0,9.79,3.21c4.39,0,6.81-1.07,6.81-3s-2.48-2.38-7.43-2.77c-5.43-.42-10.54-1.55-10.54-5.29s4.52-5.65,10.18-5.65a16.69,16.69,0,0,1,10.26,3l-2.13,2.15a12.75,12.75,0,0,0-8.08-2.46c-3.11,0-6.83.68-6.83,2.72s3.29,2.28,7.6,2.59C440.23,845.38,444.51,846.53,444.51,850.35Zm34.26-10.13v5.39h13.44v2.8H478.77v7.36H475.4V837.45h19.26v2.77Zm28.91,15.55V837.45h3.38v18.32Zm40.08-18.32v18.32h-3L529.4,841.32v14.45h-3.26V837.45h3.6l14.73,13.89V837.45ZM582.45,853v2.75H562.84V837.45h19.32v2.75h-16v4.89h13.44v2.75H566.19V853Zm33.74-2.67c0,3.48-3.68,6-10.37,6a18.52,18.52,0,0,1-11.76-3.72l2.11-2.22a14.52,14.52,0,0,0,9.79,3.21c4.38,0,6.81-1.07,6.81-3s-2.48-2.38-7.43-2.77c-5.43-.42-10.55-1.55-10.55-5.29s4.53-5.65,10.18-5.65a16.73,16.73,0,0,1,10.27,3l-2.14,2.15a12.73,12.73,0,0,0-8.07-2.46c-3.12,0-6.83.68-6.83,2.72s3.28,2.28,7.59,2.59C611.92,845.38,616.19,846.53,616.19,850.35Zm31.62-10.15h-9v15.57h-3.38V840.2h-8.91v-2.75h21.26Zm47.42,0h-9v15.57h-3.37V840.2H674v-2.75h21.26ZM727.52,853v2.75h-19.6V837.45h19.32v2.75h-16v4.89h13.44v2.75H711.27V853Zm32.07,1.25,2.73,2.75-1.94,1.62-3.21-3.22a16.81,16.81,0,0,1-5.79.9c-7.57,0-12.24-3.67-12.24-9.72s4.67-9.7,12.24-9.7,12.23,3.66,12.23,9.7A8.7,8.7,0,0,1,759.59,854.27Zm-4.73-1.15-2.92-2.93,2-1.62,3.46,3.48a6.24,6.24,0,0,0,2.78-5.45c0-4.44-3.43-6.93-8.77-6.93s-8.8,2.49-8.8,6.93,3.42,6.94,8.8,6.94A13,13,0,0,0,754.86,853.12Zm43.51-15.67v9.68c0,5.42-3.74,9.19-10.71,9.19S777,852.55,777,847.13v-9.68h3.38v9.47c0,4.11,2.61,6.59,7.31,6.59S795,851,795,846.92v-9.47Zm14.72,18.32V837.45h3.37v18.32ZM849.43,853v2.78H831.54V837.45h3.37V853Zm28.77-1.65H865.57l-2.5,4.43h-3.66l10.66-18.32h3.71l10.63,18.32h-3.68Zm-1.49-2.67-4.81-8.47-4.81,8.47Zm10-10.71H884.6v3.71h-.81V838h-2.13v-.65h5.09Zm7.61-.65v4.36h-.8v-3.35l-2.24,2.52h-.05L889,838.32v3.35h-.77v-4.36h.87l2.18,2.5,2.19-2.5Z"/></svg>