<?xml version="1.0" standalone="no"?>
<!DOCTYPE svg PUBLIC "-//W3C//DTD SVG 1.1//EN" "http://www.w3.org/Graphics/SVG/1.1/DTD/svg11.dtd" >
<svg>
<metadata>
Created by FontForge 20090914 at Tue Oct  5 01:53:09 2021
 By www-data
Converted by ALLTYPE
</metadata>
<defs>
<font id="Palatino" horiz-adv-x="250" >
  <font-face 
    font-family="Palatino"
    font-weight="5"
    font-style="italic"
    font-stretch="normal"
    units-per-em="1000"
    panose-1="0 0 0 0 0 0 0 0 0 0"
    ascent="800"
    descent="-200"
    x-height="458.997"
    cap-height="692"
    bbox="-166 -283.003 1021 926.998"
    underline-thickness="50"
    underline-position="-55"
    slope="23853"
    unicode-range="U+0020-U+F002"
  />
<missing-glyph 
 />
    <glyph glyph-name=".notdef" 
 />
    <glyph glyph-name="space" unicode=" " 
 />
    <glyph glyph-name="space" unicode="&#xa0;" 
 />
    <glyph glyph-name="exclam" unicode="!" horiz-adv-x="278" 
d="M138 -5c-8 0 -15.333 1.16699 -22 3.5s-12.667 6.5 -18 12.5c-6 6 -10.333 12.333 -13 19s-4 13.667 -4 21s1.33301 14.333 4 21s7 13 13 19s12.333 10.5 19 13.5s13.667 4.5 21 4.5s14.5 -1.5 21.5 -4.5s13.5 -7.5 19.5 -13.5s10.5 -12.333 13.5 -19
s4.5 -13.667 4.5 -21s-1.5 -14.333 -4.5 -21s-7.5 -13 -13.5 -19s-12.333 -10.167 -19 -12.5s-14 -3.5 -22 -3.5v0v0zM160 694l34 0.00195312v-25c0 -7.33301 -0.166992 -14 -0.5 -20s-0.833008 -12 -1.5 -18s-1.16699 -12 -1.5 -18s-0.5 -11.667 -0.5 -17
c-0.666992 -2 -1.16699 -4 -1.5 -6s-0.5 -4 -0.5 -6v-2.5v-3.5c-0.666992 -0.666992 -1 -1.5 -1 -2.5v-3.5c-0.666992 -4 -1.16699 -8 -1.5 -12s-0.833008 -8 -1.5 -12s-1.16699 -8 -1.5 -12s-0.5 -8 -0.5 -12l-24 -276v-25l-28 -23l-10 5v3.5v5.5v4.5v4.5
c0 3.33301 -0.166992 6.66602 -0.5 9.99902s-0.833008 6.66602 -1.5 9.99902l-26 307c-0.666992 3.33301 -1.16699 7 -1.5 11s-0.5 8.33301 -0.5 13c-0.666992 4.66699 -1.16699 9.16699 -1.5 13.5s-0.5 8.83301 -0.5 13.5c-0.666992 4 -1.16699 8.16699 -1.5 12.5
s-0.5 8.83301 -0.5 13.5v6.5v7.5c-0.666992 2 -1 4.16699 -1 6.5v6.5l75 40v0v0z" />
    <glyph glyph-name="quotedbl" unicode="&#x22;" horiz-adv-x="371" 
d="M105 469l-20 -0.000976562l-33 196v-1v0v0.5v1.5v0v0v0.5v1.5v0v1v0v0v0.5v1.5c0.666992 4 2.16699 8 4.5 12s5.5 8 9.5 12s8.5 7 13.5 9s10.167 3 15.5 3s10.5 -1.16699 15.5 -3.5s9.83301 -5.5 14.5 -9.5s8 -8.16699 10 -12.5s3 -9.16602 3 -14.499v0v0v-1v0v0v0v-1v0
v-1.5v-0.5v0v0l-33 -194v0v0zM286 468.999l-20 -0.000976562l-33 196v-1v0v0.5v1.5v0v0v0.5v1.5v0v1v0v0v0.5v1.5c0.666992 4 2.16699 8 4.5 12s5.5 8 9.5 12s8.5 7 13.5 9s10.167 3 15.5 3s10.5 -1.16699 15.5 -3.5s9.83301 -5.5 14.5 -9.5s8 -8.16699 10 -12.5
s3 -9.16602 3 -14.499v0v0v-1v0v0v0v-1v0v-1.5v-0.5v0v0l-33 -194v0v0z" />
    <glyph glyph-name="numbersign" unicode="#" horiz-adv-x="500" 
d="M470 280v-56h-109l-31 -224h-58l31 224h-134l-33 -224h-58l33 224h-107v56h116l21 139h-110v56h118l31 209h58l-31 -209h133l30 209h58l-30 -209h97v-56h-105l-20 -139h100v0v0zM332 419h-133l-21 -139h134l20 139v0v0z" />
    <glyph glyph-name="dollar" unicode="$" horiz-adv-x="500" 
d="M223 18v278.998c-27.333 2 -52.5 6 -75.5 12s-43.833 13.667 -62.5 23s-32.5 24.333 -41.5 45s-13.5 47 -13.5 79c0 29.333 4.33301 56 13 80s22 45 40 63s38.667 32.333 62 43s49.333 18 78 22v4.5v4.5c-0.666992 1.33301 -1 2.83301 -1 4.5v4.5v4v5
c-0.666992 1.33301 -1 2.66602 -1 3.99902v4c-0.666992 2.66699 -1.16699 5.16699 -1.5 7.5s-0.5 4.83301 -0.5 7.5v7.5v7.5l45 2v-3.5v-2.5c-0.666992 -0.666992 -1 -1.33398 -1 -2.00098v-2v-2v-1v-2v-2c-0.666992 -4 -1.16699 -7.83301 -1.5 -11.5
s-0.5 -7.16699 -0.5 -10.5v-6v-6c-0.666992 -2 -1 -4.16699 -1 -6.5v-6.5c3.33301 -0.666992 7 -1.16699 11 -1.5s8 -0.5 12 -0.5c2 0 4 -0.166992 6 -0.5s4 -0.5 6 -0.5c1.33301 -0.666992 3 -1.16699 5 -1.5s4 -0.5 6 -0.5c5.33301 -0.666992 10.5 -1.5 15.5 -2.5
s10.167 -1.83301 15.5 -2.5c4.66699 -1.33301 9.66699 -2.66602 15 -3.99902s10.333 -2.66602 15 -3.99902c10 -2.66699 20 -6.16699 30 -10.5s19.667 -9.16602 29 -14.499c-2.66699 -8.66699 -4.66699 -18 -6 -28l-4 -31l-2 -33c-0.666992 -11.333 -1 -22.666 -1 -33.999
l-32 2v42v3v4c-0.666992 1.33301 -1 2.83301 -1 4.5v4.5c0 3.33301 -0.166992 6.5 -0.5 9.5s-0.833008 5.83301 -1.5 8.5c-1.33301 6 -4.16602 11.333 -8.49902 16s-10.166 9 -17.499 13c-6.66699 4 -14 7.5 -22 10.5s-16 5.83301 -24 8.5
c-4 1.33301 -8 2.16602 -12 2.49902s-8 0.833008 -12 1.5s-7.83301 1.16699 -11.5 1.5s-7.16699 0.833008 -10.5 1.5v-258c27.333 -3.33301 53.333 -8.16602 78 -14.499s47.667 -14.166 69 -23.499s37.333 -24.833 48 -46.5s16 -49.167 16 -82.5c0 -34 -5.5 -64 -16.5 -90
s-27.167 -48 -48.5 -66c-22 -18.667 -45 -33.334 -69 -44.001s-49.667 -18 -77 -22v-6.5v-7.5v-3.5c0 -1 0.333008 -2.16699 1 -3.5v-3v-4v-6v-6v-3.5c0 -1 0.333008 -1.83301 1 -2.5v-3.5v-2.5v-6c0 -2 0.333008 -4.33301 1 -7v-6v-6v-6c0 -2 0.333008 -4 1 -6v-5v-6h-45
c0.666992 6 1.16699 12.667 1.5 20s0.5 15.333 0.5 24s0.166992 17.5 0.5 26.5s0.833008 18.167 1.5 27.5c-10 0 -21.167 0.666992 -33.5 2s-26.166 3.33301 -41.499 6c-14.667 2.66699 -29.834 5.66699 -45.501 9s-31.5 7.66602 -47.5 12.999
c-0.666992 0.666992 -1.66699 1.16699 -3 1.5s-2.33301 0.833008 -3 1.5c-1.33301 0 -2.5 0.166992 -3.5 0.5s-2.16699 0.833008 -3.5 1.5c-2 0.666992 -4 1.5 -6 2.5s-4 1.83301 -6 2.5c0.666992 3.33301 1.16699 6.66602 1.5 9.99902s0.833008 6.66602 1.5 9.99902
c0 3.33301 0.166992 6.83301 0.5 10.5s0.833008 7.16699 1.5 10.5c1.33301 7.33301 2.16602 14.5 2.49902 21.5s0.833008 14.167 1.5 21.5v8c0 2.66699 0.333008 5.33398 1 8.00098v8v8c0 5.33301 0.166992 10.833 0.5 16.5s0.833008 10.834 1.5 15.501l32 2v-64v-3.5v-2.5
v-2v-2v-5.5v-4.5c0 -2 0.333008 -3.5 1 -4.5s1.33398 -2.16699 2.00098 -3.5c3.33301 -6.66699 8.16602 -12.667 14.499 -18s14.166 -10.666 23.499 -15.999c9.33301 -4.66699 19 -9 29 -13s20.333 -7.33301 31 -10c2 -0.666992 4 -1.16699 6 -1.5s4.33301 -0.833008 7 -1.5
c2 -0.666992 4 -1.16699 6 -1.5s4 -0.5 6 -0.5s4 -0.166992 6 -0.5s4 -0.5 6 -0.5c1.33301 -0.666992 3 -1 5 -1h6v2v0zM260 291.998v-274c17.333 0.666992 33.833 5 49.5 13s29.834 19.333 42.501 34c13.333 14 23.333 29.667 30 47s10 36.333 10 57
c0 21.333 -3.16699 39.5 -9.5 54.5s-15.5 26.5 -27.5 34.5c-12.667 8 -26.834 14.667 -42.501 20s-33.167 9.33301 -52.5 12v2v0zM223 378.998v251.002c-20 -2.66699 -37.333 -7.5 -52 -14.5s-27 -17.167 -37 -30.5c-10 -12.667 -17.333 -26.834 -22 -42.501
s-7 -32.834 -7 -51.501c0 -19.333 2.5 -36 7.5 -50s12.833 -25.333 23.5 -34s23.167 -15.5 37.5 -20.5s30.833 -8.16699 49.5 -9.5v2v0z" />
    <glyph glyph-name="percent" unicode="%" horiz-adv-x="840" 
d="M250 -20h-40l366 729h40l-366 -729v0v0zM649 321c21.333 -1.33301 41.168 -5.66699 59.501 -13s34.833 -18 49.5 -32c14.667 -14.667 25.667 -31 33 -49s11 -38 11 -60c0 -24 -3.66699 -46 -11 -66s-18.666 -38 -33.999 -54c-14.667 -16 -31.834 -27.833 -51.501 -35.5
s-41.834 -11.5 -66.501 -11.5c-22 -0 -42 3.33301 -60 10s-34.333 17 -49 31s-25.667 30.167 -33 48.5s-11 38.5 -11 60.5c0 23.333 3.83301 45 11.5 65s18.834 38.333 33.501 55c15.333 16 32.666 28.167 51.999 36.5s41.333 12.5 66 12.5v2v0zM646.002 297.999
c-12.667 -1.33301 -23.833 -4.5 -33.5 -9.5s-17.834 -12.167 -24.501 -21.5s-12 -19.166 -16 -29.499s-7 -21.166 -9 -32.499c-0.666992 -4 -1.5 -8 -2.5 -12s-1.5 -8 -1.5 -12c-0.666992 -4 -1 -8 -1 -12v-11v-10.5v-11.5c0 -4 0.333008 -8 1 -12l2 -12
c1.33301 -11.333 4 -22.333 8 -33s9 -20.667 15 -30s13.833 -16.333 23.5 -21s20.834 -7 33.501 -7s23.667 2.33301 33 7s17.333 11.667 24 21s12.167 19.333 16.5 30s7.83301 21.667 10.5 33c1.33301 4 2.16602 8 2.49902 12s0.833008 8 1.5 12v6c0 2 0.333008 4 1 6v5v6
v4.5v5.5c-0.666992 2 -1 4 -1 6v6c-0.666992 4 -1.16699 8 -1.5 12s-0.5 8 -0.5 12c-2 11.333 -5 22.166 -9 32.499s-9 20.166 -15 29.499s-13.667 16.5 -23 21.5s-20.666 7.5 -33.999 7.5v2v0zM202.003 688.999c21.333 -1.33301 41.168 -5.66699 59.501 -13
s34.833 -18 49.5 -32c14.667 -14.667 25.667 -31 33 -49s11 -38 11 -60c0 -24 -3.66699 -46 -11 -66s-18.666 -38 -33.999 -54c-14.667 -16.667 -31.834 -29 -51.501 -37s-41.834 -12 -66.501 -12c-22 0 -42 3.5 -60 10.5s-34.333 17.833 -49 32.5
c-14.667 14 -25.667 30.167 -33 48.5s-11 38.5 -11 60.5c0 23.333 3.83301 45 11.5 65s18.834 38.333 33.501 55c15.333 16 32.666 28.167 51.999 36.5s41.333 12.5 66 12.5v2v0zM199.005 665.998c-12.667 -1.33301 -23.833 -4.5 -33.5 -9.5s-17.834 -12.167 -24.501 -21.5
s-12 -19.166 -16 -29.499s-7 -21.166 -9 -32.499c-0.666992 -4 -1.5 -8 -2.5 -12s-1.5 -8 -1.5 -12c-0.666992 -4 -1 -8 -1 -12v-11v-10.5v-11.5c0 -4 0.333008 -8 1 -12l2 -12c1.33301 -11.333 4 -22.333 8 -33s9 -20.667 15 -30s13.833 -16.333 23.5 -21
s20.834 -7 33.501 -7s23.667 2.33301 33 7s17.333 11.667 24 21s12.167 19.333 16.5 30s7.83301 21.667 10.5 33c1.33301 4 2.16602 8 2.49902 12s0.833008 8 1.5 12v6c0 2 0.333008 4 1 6v5v6v4.5v5.5c-0.666992 2 -1 4 -1 6v6c-0.666992 4 -1.16699 8 -1.5 12
s-0.5 8 -0.5 12c-2 11.333 -5 22.166 -9 32.499s-9 20.166 -15 29.499s-13.667 16.5 -23 21.5s-20.666 7.5 -33.999 7.5v2v0z" />
    <glyph glyph-name="ampersand" unicode="&#x26;" horiz-adv-x="778" 
d="M548 387l194.004 6.99805l-3.5 -14.5c-1 -4.33301 -2.16699 -8.5 -3.5 -12.5l-2 -12c-0.666992 -4 -1.33398 -7.66699 -2.00098 -11v-2.5v-3.5c-0.666992 -0.666992 -1 -1.5 -1 -2.5v-3.5v-6v-6l-14 2l-14 2c-4.66699 0.666992 -9.33398 1.16699 -14.001 1.5
s-9.33398 0.833008 -14.001 1.5c-7.33301 0.666992 -14.5 1.16699 -21.5 1.5s-14.167 0.833008 -21.5 1.5c-6.66699 0 -13.5 0.166992 -20.5 0.5s-13.833 0.833008 -20.5 1.5c1.33301 -4 2.33301 -8 3 -12s1 -8 1 -12v-6c0 -2 0.333008 -3.66699 1 -5v-5.5v-5.5
c0 -16.667 -2.16699 -32.667 -6.5 -48s-10.5 -30 -18.5 -44c-8 -14.667 -16.667 -28.5 -26 -41.5s-19.333 -25.167 -30 -36.5l21.5 -12l20.5 -12c3.33301 -2 6.83301 -3.83301 10.5 -5.5l11.5 -5.5c3.33301 -1.33301 6.83301 -2.83301 10.5 -4.5s7.16699 -3.16699 10.5 -4.5
l21.5 -8c7 -2.66699 13.833 -4.66699 20.5 -6c7.33301 -2 14.5 -3.33301 21.5 -4s13.833 -1 20.5 -1c4.66699 0 9 0.333008 13 1s7.66699 1.33398 11 2.00098c3.33301 1.33301 6.83301 2.5 10.5 3.5s7.16699 2.16699 10.5 3.5c1.33301 0.666992 2.83301 1.33398 4.5 2.00098
s3.16699 1.33398 4.5 2.00098c0.666992 0.666992 1.33398 1.16699 2.00098 1.5l3 1.5c0.666992 0 1.5 0.166992 2.5 0.5s1.83301 0.833008 2.5 1.5l6 -23l-87 -63c-2 -1.33301 -4 -2.33301 -6 -3s-4.33301 -1.33398 -7 -2.00098h-4c-1.33301 0 -2.33301 -0.333008 -3 -1h-4
h-4h-2h-2h-1.5h-1.5h-1.5h-1.5h-1.5h-0.5c-4.66699 0 -10.334 0.666992 -17.001 2s-13.667 3 -21 5l-12 4c-4 1.33301 -7.66699 2.66602 -11 3.99902c-4 1.33301 -8 2.5 -12 3.5s-8 2.16699 -12 3.5c-6 2.66699 -12 5.5 -18 8.5l-17 8.5l-16.5 9.5l-14.5 8.5
c-2.66699 1.33301 -5 2.66602 -7 3.99902s-4 3 -6 5c-2 1.33301 -4 2.83301 -6 4.5s-3.66699 3.16699 -5 4.5c-14 -11.333 -28.667 -21.5 -44 -30.5s-31.666 -17.167 -48.999 -24.5c-16.667 -6.66699 -34 -11.667 -52 -15s-36 -5 -54 -5c-32 0 -60.667 4.5 -86 13.5
s-47.666 22.5 -66.999 40.5c-18.667 18 -32.667 38.5 -42 61.5s-14 48.167 -14 75.5c0 25.333 3.83301 48.5 11.5 69.5s19.167 40.167 34.5 57.5s32.166 33.333 50.499 48s37.833 27.667 58.5 39c-2 4 -3.66699 8 -5 12l-4 12l-4 12l-4 12
c-2 7.33301 -3.83301 14.5 -5.5 21.5s-3.16699 13.833 -4.5 20.5c-0.666992 7.33301 -1.33398 14.166 -2.00098 20.499s-1 12.833 -1 19.5c0 10 0.333008 19.5 1 28.5s2 17.5 4 25.5s4.5 14.833 7.5 20.5s6.83301 10.5 11.5 14.5l68 62
c3.33301 2 7.16602 4.16699 11.499 6.5l13.5 7.5c5.33301 2 11.666 3.66699 18.999 5s15.666 2 24.999 2c14.667 0 27.667 -2 39 -6s21.333 -10 30 -18s15.167 -17.5 19.5 -28.5s6.5 -24.167 6.5 -39.5c0 -18 -3 -35 -9 -51s-14.667 -31.667 -26 -47
c-11.333 -14.667 -23.333 -28.5 -36 -41.5s-26 -25.167 -40 -36.5c-1.33301 -0.666992 -2.66602 -1.5 -3.99902 -2.5s-2.66602 -2.16699 -3.99902 -3.5c-2 -0.666992 -3.66699 -1.5 -5 -2.5s-2.66602 -2.16699 -3.99902 -3.5l-8 -6l-8 -6c14 -23.333 29 -46.166 45 -68.499
l49 -65.5l53.5 -62c18.333 -20.667 37.166 -40.667 56.499 -60l2 2c0.666992 0.666992 1.33398 1.66699 2.00098 3c0 0.666992 0.333008 1.33398 1 2.00098l2 2c1.33301 1.33301 2.5 2.83301 3.5 4.5s2.16699 3.5 3.5 5.5c5.33301 7.33301 10.166 14.833 14.499 22.5
s7.83301 15.167 10.5 22.5c3.33301 7.33301 5.66602 14.833 6.99902 22.5s2 14.834 2 21.501v0v1v0v0v0.5v1.5c0 9.33301 -0.666992 18.5 -2 27.5s-3 17.5 -5 25.5c-2.66699 8 -5.16699 14.333 -7.5 19s-5.16602 7.66699 -8.49902 9s-8 2.5 -14 3.5s-13.333 1.83301 -22 2.5
c-4.66699 0.666992 -9.16699 1.16699 -13.5 1.5s-8.83301 0.833008 -13.5 1.5c-4.66699 0 -9.33398 0.166992 -14.001 0.5s-9.33398 0.833008 -14.001 1.5l33 47c6.66699 -1.33301 13.334 -2.33301 20.001 -3s13.334 -1 20.001 -1h20h20h4h4h4.5h4.5v2v0zM213.004 351.998
c-12.667 -10.667 -24.1719 -21.1689 -34.5049 -31.502s-19.166 -21.166 -26.499 -32.499c-7.33301 -10.667 -12.833 -23 -16.5 -37s-5.5 -29.333 -5.5 -46c0 -22.667 4 -43.834 12 -63.501s20.333 -38.167 37 -55.5s34.834 -30.333 54.501 -39s40.834 -13 63.501 -13h6h7
h3.5c1 0 2.16699 0.333008 3.5 1c0.666992 0 1.66699 0.166992 3 0.5s2.33301 0.5 3 0.5c8.66699 1.33301 17.167 3.5 25.5 6.5s16.833 6.5 25.5 10.5s16.834 8.33301 24.501 13s14.834 9.33398 21.501 14.001l-56.5 64l-55.5 65c-18 22 -35 44.833 -51 68.5
s-30.667 47.834 -44 72.501v2v0zM302.999 635.996c-14.667 -1.33301 -26.6699 -4.33594 -36.0029 -9.00293s-15.666 -11.667 -18.999 -21c-3.33301 -8.66699 -5.83301 -18 -7.5 -28s-2.5 -20.667 -2.5 -32c0 -4 0.166992 -8.16699 0.5 -12.5s0.833008 -9.16602 1.5 -14.499
c1.33301 -4.66699 2.5 -9.5 3.5 -14.5s2.16699 -10.167 3.5 -15.5l2 -10l2 -10c1.33301 -2.66699 2.5 -5.5 3.5 -8.5s1.83301 -6.16699 2.5 -9.5c0.666992 -2 1.16699 -4 1.5 -6s0.833008 -4 1.5 -6s1.33398 -3.83301 2.00098 -5.5s1.33398 -3.16699 2.00098 -4.5l6 4
c2 1.33301 4.33301 3 7 5c2 2 4.16699 4 6.5 6s4.83301 4 7.5 6l8 8l8 8c2 2.66699 4.33301 5.5 7 8.5s5.33398 6.16699 8.00098 9.5c5.33301 6 10 12.167 14 18.5s7.33301 12.833 10 19.5c1.33301 3.33301 2.83301 6.83301 4.5 10.5s2.83398 7.16699 3.50098 10.5
c1.33301 3.33301 2.16602 6.83301 2.49902 10.5s0.5 7.16699 0.5 10.5v2v2c-0.666992 0.666992 -1 1.33398 -1 2.00098v2v2v2c-0.666992 0.666992 -1 1.33398 -1 2.00098v2c-0.666992 6.66699 -2.5 13 -5.5 19s-6.83301 12 -11.5 18
c-4.66699 5.33301 -9.83398 9.5 -15.501 12.5s-12.167 4.5 -19.5 4.5v2v0z" />
    <glyph glyph-name="quotesingle" unicode="'" horiz-adv-x="208" 
d="M114 469l-20 -0.000976562l-33 196v-1v0v0.5v1.5v0v0v0.5v1.5v0v1v0v0v0.5v1.5c0.666992 4 2.16699 8 4.5 12s5.5 8 9.5 12s8.5 7 13.5 9s10.167 3 15.5 3s10.5 -1.16699 15.5 -3.5s9.83301 -5.5 14.5 -9.5s8 -8.16699 10 -12.5s3 -9.16602 3 -14.499v0v0v-1v0v0v0v-1v0
v-1.5v-0.5v0v0l-33 -194v0v0z" />
    <glyph glyph-name="parenleft" unicode="(" horiz-adv-x="333" 
d="M301 -194l-19.002 -21c-37.333 32 -70 66 -98 102s-51 74 -69 114c-18.667 41.333 -32.5 84 -41.5 128s-13.5 89.333 -13.5 136c0 45.333 4.66699 88.833 14 130.5s23.333 81.834 42 120.501c18.667 39.333 41.834 76.166 69.501 110.499s59.834 66.833 96.501 97.5
l19 -24c-28.667 -32 -53.167 -64.833 -73.5 -98.5s-36.166 -68.5 -47.499 -104.5s-19.833 -73.333 -25.5 -112s-8.5 -78.667 -8.5 -120c0 -42 2.83301 -83.5 8.5 -124.5s14.167 -81.167 25.5 -120.5c11.333 -38.667 27.166 -76 47.499 -112s44.833 -70 73.5 -102v0v0z" />
    <glyph glyph-name="parenright" unicode=")" horiz-adv-x="333" 
d="M51 -215l-19.001 21c29.333 32 54 66 74 102s35.667 73.333 47 112c11.333 39.333 19.833 79.5 25.5 120.5s8.5 82.5 8.5 124.5c0 41.333 -2.83301 81.333 -8.5 120s-14.167 76 -25.5 112s-27 70.833 -47 104.5s-44.667 65.834 -74 96.501l19 28
c36.667 -31.333 68.834 -64.333 96.501 -99s50.834 -71.667 69.501 -111c18.667 -38.667 32.667 -78.834 42 -120.501s14 -85.167 14 -130.5c0 -46.667 -4.66699 -92 -14 -136s-23 -86.667 -41 -128c-18.667 -40 -41.834 -78 -69.501 -114s-60.167 -70 -97.5 -102v0v0z" />
    <glyph glyph-name="asterisk" unicode="*" horiz-adv-x="389" 
d="M168 514l-131 64l-3 10l44 52h10l95 -98l26 143l9 4l62 -19l3 -15l-69 -125l139 24l6 -4v-62l-9 -8l-138 20l68 -122v-10l-68 -26l-10 4l-18 142l-106 -88h-10l-36 51l5 9l131 54v0v0z" />
    <glyph glyph-name="plus" unicode="+" horiz-adv-x="606" 
d="M275 289v223h56v-223h224v-56h-224v-226h-56v226h-224v56h224v0v0z" />
    <glyph glyph-name="comma" unicode="," 
d="M204 123l13.999 -14.001c-8 -23.333 -17.333 -45.833 -28 -67.5s-22.667 -41.834 -36 -60.501c-12.667 -20 -26 -39.833 -40 -59.5s-28.333 -38.834 -43 -57.501l-41 -19l-14 11c11.333 18 21.833 36.5 31.5 55.5s18.834 38.167 27.501 57.5s15.5 39.166 20.5 59.499
s8.5 41.166 10.5 62.499l15.5 4l14.5 4c2.66699 0.666992 5.16699 1.33398 7.5 2.00098s4.83301 1.33398 7.5 2.00098c2 0.666992 4.16699 1.5 6.5 2.5s4.83301 1.83301 7.5 2.5c1.33301 0.666992 2.83301 1.16699 4.5 1.5s3.5 0.833008 5.5 1.5
c1.33301 0.666992 2.83301 1.16699 4.5 1.5s3.16699 0.833008 4.5 1.5s2.83301 1.33398 4.5 2.00098s3.5 1.33398 5.5 2.00098c1.33301 0 2.83301 0.333008 4.5 1s3.5 1.33398 5.5 2.00098v2v0z" />
    <glyph glyph-name="hyphen" unicode="-" horiz-adv-x="333" 
d="M282 215h-260l-5 5l27 67h263l5 -5l-30 -67v0v0z" />
    <glyph glyph-name="period" unicode="." 
d="M124 -5c-8 0 -15.333 1.16699 -22 3.5s-12.667 6.5 -18 12.5c-6 6 -10.333 12.333 -13 19s-4 13.667 -4 21s1.33301 14.333 4 21s7 13 13 19s12.333 10.5 19 13.5s13.667 4.5 21 4.5s14.5 -1.5 21.5 -4.5s13.5 -7.5 19.5 -13.5s10.5 -12.333 13.5 -19
s4.5 -13.667 4.5 -21s-1.5 -14.333 -4.5 -21s-7.5 -13 -13.5 -19s-12.333 -10.167 -19 -12.5s-14 -3.5 -22 -3.5v0v0z" />
    <glyph glyph-name="slash" unicode="/" horiz-adv-x="606" 
d="M519 726l-372 -845h-60l372 845h60v0v0z" />
    <glyph glyph-name="zero" unicode="0" horiz-adv-x="500" 
d="M238 -20c-34.667 1.33301 -65 8.66797 -91 22.001s-47.667 33 -65 59c-18 26 -31.333 60.5 -40 103.5s-13 94.167 -13 153.5v22c0 7.33301 0.333008 14.666 1 21.999c0 7.33301 0.333008 14.833 1 22.5l2 23.5c3.33301 34.667 9.66602 68 18.999 100s22 62.333 38 91
c16 29.333 38.667 51.333 68 66s65.333 22 108 22c36 0 66.833 -7.16699 92.5 -21.5s45.834 -36.166 60.501 -65.499c15.333 -28.667 26.833 -61.834 34.5 -99.501s11.5 -79.5 11.5 -125.5c0 -10.667 -0.166992 -21.5 -0.5 -32.5s-0.833008 -22.167 -1.5 -33.5l-2 -34.5
c-0.666992 -11.667 -1.66699 -23.167 -3 -34.5c-4.66699 -32.667 -12 -64 -22 -94s-22.667 -58.667 -38 -86c-15.333 -26.667 -36.333 -46.667 -63 -60s-59 -20 -97 -20v0v0zM248 654.002c-0.666992 -1.33301 -1.16699 -1.99805 -1.5 -1.99805h-0.5h-1v0h-1.5h-0.5h-1.5
h-0.5c-29.333 0 -53 -8 -71 -24s-30.333 -40 -37 -72s-11.667 -65.5 -15 -100.5s-5 -71.5 -5 -109.5c0 -48.667 2.33301 -92.834 7 -132.501s11.334 -75.167 20.001 -106.5c9.33301 -31.333 23.166 -54.833 41.499 -70.5s41.5 -23.5 69.5 -23.5
c27.333 0 49.833 7.16699 67.5 21.5s30.5 35.833 38.5 64.5c7.33301 29.333 13 59.666 17 90.999s6.33301 64.333 7 99v3v3v2.5v2.5v3v3v2.5v2.5c0 47.333 -2.16699 91.333 -6.5 132s-10.5 77.334 -18.5 110.001c-8 33.333 -21 58.166 -39 74.499s-41 24.5 -69 24.5v2v0z
" />
    <glyph glyph-name="one" unicode="1" horiz-adv-x="500" 
d="M67 555l-7.00586 43.0059c1.33301 -0.666992 2.5 -1 3.5 -1s1.83301 0.333008 2.5 1h2c0.666992 0 1.33398 0.333008 2.00098 1l1 0.5c0.666992 0.333008 1.33398 0.5 2.00098 0.5l28 10.5c9.33301 3.66699 19 7.16699 29 10.5l28 11.5l28 11.5l53.5 24
c17 8 32.833 16 47.5 24l14 -3v-593c0 -6.66699 0.166992 -12.667 0.5 -18s0.833008 -10.333 1.5 -15c1.33301 -4.66699 2.83301 -8.83398 4.5 -12.501s3.83398 -6.5 6.50098 -8.5c3.33301 -2.66699 6.83301 -4.83398 10.5 -6.50098s7.83398 -3.16699 12.501 -4.5
c4 -0.666992 8.5 -1.33398 13.5 -2.00098s10.167 -1 15.5 -1l52 -1v-30h-9.5h-9.5c-2.66699 0.666992 -5.33398 1 -8.00098 1h-8h-15.5h-14.5c-10 0.666992 -19.167 1.16699 -27.5 1.5s-16.166 0.5 -23.499 0.5h-21.5h-21.5h-21.5h-22.5
c-7.33301 0 -15.333 -0.166992 -24 -0.5s-17.667 -0.833008 -27 -1.5h-15.5h-16.5h-8.5c-3 0 -5.83301 -0.333008 -8.5 -1h-9.5h-9.5v30l56 3c5.33301 -0.666992 10.333 -0.833984 15 -0.500977s9.33398 0.833008 14.001 1.5c4 1.33301 8 2.83301 12 4.5
s7.66699 3.83398 11 6.50098c2.66699 2 4.83398 4.83301 6.50098 8.5s2.83398 7.83398 3.50098 12.501c1.33301 4.66699 2.16602 9.5 2.49902 14.5s0.5 10.5 0.5 16.5v487c0 -0.666992 0 -0.833984 0 -0.500977v1.5v2v2v4c0 1.33301 -0.333008 3 -1 5
c0 1.33301 -0.166992 2.66602 -0.5 3.99902s-0.5 2.66602 -0.5 3.99902c-0.666992 3.33301 -1.5 5.66602 -2.5 6.99902s-2.16699 2 -3.5 2v0v0h-1v0v0v0c-0.666992 -0.666992 -1.16699 -1 -1.5 -1h-0.5v0v0l-129 -56h-10v0v0z" />
    <glyph glyph-name="two" unicode="2" horiz-adv-x="500" 
d="M16 23l170.003 180.998c32 32.667 58.333 62.334 79 89.001s36 50 46 70s17.5 38.833 22.5 56.5s7.5 34.167 7.5 49.5c0 20 -3 38.5 -9 55.5s-15 32.167 -27 45.5s-26 23.333 -42 30s-34.667 10 -56 10c-16.667 0 -31.834 -1.5 -45.501 -4.5s-25.5 -7.16699 -35.5 -12.5
c-10.667 -5.33301 -19.667 -13.5 -27 -24.5s-13.333 -24.833 -18 -41.5l-13 -44h-29c0.666992 2 1.16699 4.33301 1.5 7s0.833008 5.33398 1.5 8.00098c0 2.66699 0.166992 5.5 0.5 8.5s0.833008 5.83301 1.5 8.5l2 16.5l2 17.5v3.5v2.5v2
c0 0.666992 0.333008 1.33398 1 2.00098v2v2c0.666992 4 1.16699 8.33301 1.5 13s0.833008 9.33398 1.5 14.001l2 13.5l2 13.5c11.333 12.667 23.333 23.5 36 32.5s26.334 16.167 41.001 21.5s29.667 9.33301 45 12s31.333 4 48 4c36.667 0 68 -4.66699 94 -14
s47 -23.666 63 -42.999c16 -18.667 28 -38.834 36 -60.501s12 -44.834 12 -69.501c0 -8.66699 -0.5 -17.334 -1.5 -26.001s-2.5 -17 -4.5 -25s-4.5 -16 -7.5 -24s-6.16699 -15.667 -9.5 -23c-5.33301 -10.667 -11.5 -21.167 -18.5 -31.5s-14.833 -20.833 -23.5 -31.5
l-28.5 -33.5l-33.5 -37.5l-182 -191c14 -1.33301 28.167 -2 42.5 -2s28.833 0.333008 43.5 1c14.667 0 29.167 0.333008 43.5 1l43.5 2h10.5h11.5c3.33301 0 6.83301 0.166992 10.5 0.5s7.16699 0.5 10.5 0.5c7.33301 0 14.666 0.166992 21.999 0.5
s14.666 0.833008 21.999 1.5h10.5c3.66699 0 7.16699 0.333008 10.5 1h10.5h10.5c7.33301 0 14.666 0.166992 21.999 0.5s14.666 0.833008 21.999 1.5c-0.666992 -4 -1.16699 -8 -1.5 -12s-0.5 -8 -0.5 -12v-11.5v-10.5v-6v-6v-5.5c0 -1.66699 0.333008 -3.16699 1 -4.5
v-2.5v-2.5v-3v-3v-2.5c0 -1 0.333008 -1.83301 1 -2.5v-2v-2h-10h-9c-3.33301 0.666992 -6.66602 1 -9.99902 1h-10h-19.5h-18.5c-6.66699 0.666992 -13.167 1 -19.5 1h-18.5h-19h-18c-6.66699 0.666992 -13.167 1 -19.5 1h-18.5h-19.5h-18.5h-38h-38
c-12.667 -0 -25.167 -0.166992 -37.5 -0.5s-24.5 -0.833008 -36.5 -1.5h-9h-9h-9.5h-9.5h-9c-3.33301 0 -6.33301 -0.333008 -9 -1h-9.5h-9.5v26v0v0z" />
    <glyph glyph-name="three" unicode="3" horiz-adv-x="500" 
d="M43 498l29.001 124.002c10.667 10.667 22 20.334 34 29.001s25 15.334 39 20.001c13.333 5.33301 27.5 9.33301 42.5 12s30.5 4 46.5 4c28 0 53.167 -3.5 75.5 -10.5s41.833 -17.167 58.5 -30.5c16.667 -14 29.167 -30.167 37.5 -48.5s12.5 -39.166 12.5 -62.499
c0 -16 -2.66699 -31.333 -8 -46s-13.666 -29 -24.999 -43c-10.667 -14 -22.334 -27 -35.001 -39s-26.667 -23.667 -42 -35c24.667 -3.33301 46.5 -9 65.5 -17s35.167 -18 48.5 -30c13.333 -12.667 23.333 -27.834 30 -45.501s10 -38.167 10 -61.5
c0 -30.667 -7.5 -59.834 -22.5 -87.501s-37.167 -53.834 -66.5 -78.501s-60.333 -42.834 -93 -54.501s-66.667 -17.5 -102 -17.5c-4.66699 0 -9.83398 0.166992 -15.501 0.5s-11.5 1.16602 -17.5 2.49902c-6.66699 0.666992 -13.167 1.66699 -19.5 3l-19.5 4
c-2.66699 0.666992 -5.16699 1.33398 -7.5 2.00098s-4.83301 1 -7.5 1c-2.66699 0.666992 -5.16699 1.33398 -7.5 2.00098s-4.83301 1.33398 -7.5 2.00098s-5.16699 1.33398 -7.5 2.00098s-4.5 1 -6.5 1l-6 2l-6 2c-0.666992 10.667 -2 21.667 -4 33s-4.66699 23.333 -8 36
c-2.66699 12.667 -6 25.5 -10 38.5s-8.33301 26.167 -13 39.5l27 12c7.33301 -24.667 16.166 -45.834 26.499 -63.501s22.5 -32.5 36.5 -44.5s30.833 -21 50.5 -27s41.834 -9 66.501 -9c23.333 0 44 4.16699 62 12.5s33.333 20.833 46 37.5
c13.333 17.333 23.166 35.666 29.499 54.999s9.5 40 9.5 62s-2.66699 41.833 -8 59.5s-13.666 33.167 -24.999 46.5c-10.667 13.333 -24.334 23.333 -41.001 30s-36.334 10 -59.001 10c-7.33301 0 -14.333 -0.5 -21 -1.5s-13 -2.5 -19 -4.5s-11.5 -4 -16.5 -6l-15.5 -6
c-0.666992 -0.666992 -1.5 -1.16699 -2.5 -1.5s-2.16699 -0.5 -3.5 -0.5c-0.666992 -0.666992 -1.33398 -1.16699 -2.00098 -1.5s-1.33398 -0.5 -2.00098 -0.5l-7 8l12 53c0.666992 -0.666992 1.33398 -1.16699 2.00098 -1.5s1.33398 -0.5 2.00098 -0.5
c0 -0.666992 0.333008 -1 1 -1h2h4h4h0.5h1.5c0 -0.666992 0.166992 -1 0.5 -1h0.5h2h2h2h3c0.666992 -0.666992 1.5 -1 2.5 -1h2.5h6h6c19.333 0 36.833 3.33301 52.5 10s29.5 16.667 41.5 30c11.333 13.333 20.333 27.166 27 41.499s10.667 29.5 12 45.5v1.5v1.5v0.5v1.5
v3.5v2.5c0 16.667 -3 32 -9 46s-15 26.333 -27 37c-12 11.333 -25 19.666 -39 24.999s-29.333 8 -46 8h-3h-3c-1.33301 -0.666992 -2.5 -1 -3.5 -1h-3.5h-3c-1.33301 0 -2.33301 -0.333008 -3 -1c-1.33301 0 -2.5 -0.166992 -3.5 -0.5s-2.16699 -0.5 -3.5 -0.5
c-10.667 -2 -20.667 -5 -30 -9s-18.666 -8.66699 -27.999 -14c-8.66699 -6 -16.167 -12 -22.5 -18s-11.166 -12.333 -14.499 -19v-0.5v-0.5c-0.666992 -0.666992 -1 -1.16699 -1 -1.5v-0.5c-0.666992 -0.666992 -1 -1.16699 -1 -1.5v-0.5l-18 -54h-31v0v0z" />
    <glyph glyph-name="four" unicode="4" horiz-adv-x="500" 
d="M280 181l-266.999 -0.000976562l-11 23l283 463l74 27l12 -5c-1.33301 -8.66699 -2.5 -22 -3.5 -40s-1.83301 -41 -2.5 -69s-1 -58.5 -1 -91.5v-106.5v-137c0.666992 -0.666992 1.33398 -1.16699 2.00098 -1.5s1.33398 -0.5 2.00098 -0.5h1h2h4h4h3.5h2.5h4h4h10h10h10
c3.33301 0 6.66602 0.333008 9.99902 1h9.5h9.5c3.33301 0 6.66602 0.166992 9.99902 0.5s6.66602 0.833008 9.99902 1.5v-69c-8 0 -16.167 0.166992 -24.5 0.5s-17.166 0.5 -26.499 0.5h-14c-4.66699 0 -9.33398 0.333008 -14.001 1h-15h-14v-73
c0 -18 1.16699 -32.333 3.5 -43s5.83301 -18 10.5 -22c5.33301 -4 11.666 -7 18.999 -9s16.333 -3.33301 27 -4l48 -1v-30h-6.5h-6.5c-2.66699 0.666992 -5.16699 1 -7.5 1h-6.5h-13.5h-12.5h-3h-3c-1.33301 0.666992 -2.5 1 -3.5 1h-3.5h-3h-3h-3.5h-3.5h-10h-10
c-3.33301 0.666992 -6.66602 1 -9.99902 1h-10h-19.5h-19.5h-13.5h-12.5h-13.5h-13.5c-8.66699 0 -17.334 -0.166992 -26.001 -0.5s-17.334 -0.833008 -26.001 -1.5h-13.5h-12.5h-6c-2 0 -4 -0.333008 -6 -1h-7h-6v30l62 3c10.667 -0.666992 19.834 0 27.501 2
s13.834 5 18.501 9s8.16699 11.333 10.5 22s3.5 24.334 3.5 41.001v77v0v0zM280.001 244.999v349h-2l-213 -349h215v0v0z" />
    <glyph glyph-name="five" unicode="5" horiz-adv-x="500" 
d="M127 605l-9.00195 -209.008l32 17c11.333 6 23 11.333 35 16c12 5.33301 24 9.16602 36 11.499s24.333 3.5 37 3.5c29.333 0 56 -4.33301 80 -13s45.333 -21.667 64 -39c19.333 -16.667 33.666 -37 42.999 -61s14 -51 14 -81c0 -38 -7.33301 -73 -22 -105
s-36.667 -60.667 -66 -86s-60.166 -44.5 -92.499 -57.5s-66.166 -20.167 -101.499 -21.5h-2.5h-2.5h-2h-2c-3.33301 0 -7 0.166992 -11 0.5s-8 0.833008 -12 1.5c-4.66699 0.666992 -9.16699 1.16699 -13.5 1.5s-8.83301 0.833008 -13.5 1.5
c-5.33301 0.666992 -10.5 1.83398 -15.5 3.50098s-10.167 3.16699 -15.5 4.5c-4.66699 2 -9.16699 3.66699 -13.5 5s-8.16602 2.66602 -11.499 3.99902c-0.666992 2.66699 -1.5 5.33398 -2.5 8.00098s-1.83301 5.66699 -2.5 9c-1.33301 2.66699 -2.33301 5.33398 -3 8.00098
s-1.66699 5.33398 -3 8.00098l-6 16.5l-6 17.5c-0.666992 2.66699 -1.66699 5.33398 -3 8.00098s-2.33301 5.33398 -3 8.00098c-1.33301 2.66699 -2.5 5.5 -3.5 8.5s-2.16699 5.83301 -3.5 8.5c-0.666992 2.66699 -1.66699 5.33398 -3 8.00098s-2.33301 5.66699 -3 9
c-1.33301 2.66699 -2.5 5.33398 -3.5 8.00098s-2.16699 5.33398 -3.5 8.00098l24 16l46 -82c3.33301 -6 7.16602 -11.167 11.499 -15.5s9.83301 -8.16602 16.5 -11.499l20.5 -8c7 -2.66699 13.833 -4.66699 20.5 -6l12.5 -2l13.5 -2c4 -0.666992 8 -1 12 -1h11
c28.667 0 53.667 4 75 12s39.333 20 54 36s25.667 34.667 33 56s11 45 11 71c0 26.667 -3.5 50.667 -10.5 72s-17.167 40 -30.5 56c-14 16 -30.5 28.167 -49.5 36.5s-40.833 12.5 -65.5 12.5c-10.667 0 -20.834 -0.833008 -30.501 -2.5s-18.167 -4.16699 -25.5 -7.5
c-8 -3.33301 -15.5 -7.5 -22.5 -12.5s-14.167 -10.5 -21.5 -16.5l-2.5 -2.5c-1 -1 -2.16699 -1.83301 -3.5 -2.5c-0.666992 -1.33301 -1.5 -2.33301 -2.5 -3s-2.16699 -1.66699 -3.5 -3l-2.5 -2.5l-2.5 -2.5l-3 -3l-3 -3l-20 8
c0.666992 5.33301 1.33398 14.666 2.00098 27.999s1.33398 30 2.00098 50s1.16699 41 1.5 63s0.5 44.333 0.5 67v6.5v7.5v8v8v33v32c0 10.667 -0.166992 20.667 -0.5 30s-0.833008 18.333 -1.5 27l5 7c2.66699 -1.33301 5.16699 -2.16602 7.5 -2.49902
s4.83301 -0.5 7.5 -0.5c2 -0.666992 4.16699 -1 6.5 -1h7.5h6.5h7.5c2.66699 -0.666992 5.16699 -1 7.5 -1h7.5c9.33301 -0.666992 18.833 -1.16699 28.5 -1.5s19.5 -0.5 29.5 -0.5h28.5h29.5h29.5h28.5c9.33301 0 18.833 0.166992 28.5 0.5s19.5 0.833008 29.5 1.5h7.5
c2.33301 0 4.83301 0.333008 7.5 1h6.5h7.5h7.5c2.33301 0 4.83301 0.333008 7.5 1c2 0 4.16699 0.166992 6.5 0.5s4.83301 0.5 7.5 0.5l5 -3c-0.666992 -2.66699 -1.16699 -5 -1.5 -7s-0.5 -3.66699 -0.5 -5v-5.5v-4.5v-5.5v-4.5v-5.5v-4.5v-10v-10v-4.5
c0 -1.66699 0.333008 -3.16699 1 -4.5c0 -2 0.166992 -3.83301 0.5 -5.5s0.5 -3.16699 0.5 -4.5l-5 -3c-23.333 -1.33301 -46.333 -2 -69 -2s-45 0.333008 -67 1c-22 0 -44 0.333008 -66 1l-66 2h-4.5h-4.5h-5.5h-4.5h-4.5c-1.66699 0 -3.16699 0.333008 -4.5 1h-4.5h-4.5v2
v0z" />
    <glyph glyph-name="six" unicode="6" horiz-adv-x="500" 
d="M242 -20c-38.667 0 -71.5 6.67188 -98.5 20.0049s-48.5 33.666 -64.5 60.999s-27.833 56.333 -35.5 87s-11.5 62.667 -11.5 96c0 55.333 8.16699 106.833 24.5 154.5s40.833 91.167 73.5 130.5s69.667 72.166 111 98.499s87.333 46.166 138 59.499l37 -15v-8
c-43.333 -13.333 -81.833 -29.833 -115.5 -49.5s-62.167 -42.834 -85.5 -69.501s-42 -58 -56 -94s-23.333 -76.667 -28 -122l13.5 10l12.5 10c2 1.33301 4 2.83301 6 4.5s4 3.5 6 5.5c2 1.33301 4 2.83301 6 4.5s4 3.16699 6 4.5c8 5.33301 16 10.333 24 15s16.333 9 25 13
c8.66699 3.33301 18.167 6 28.5 8s21.5 3 33.5 3c28 0 52.833 -4.5 74.5 -13.5s40.167 -22.5 55.5 -40.5s26.833 -38.333 34.5 -61s11.5 -48 11.5 -76c0 -34.667 -5.5 -66.167 -16.5 -94.5s-27.5 -53.5 -49.5 -75.5c-22 -22.667 -46.333 -39.334 -73 -50.001
s-55.667 -16 -87 -16v0v0zM251 349.005c-2.66699 -1.33301 -5.16797 -2.16602 -7.50098 -2.49902s-4.83301 -0.5 -7.5 -0.5c-2.66699 -0.666992 -5.16699 -1.16699 -7.5 -1.5s-4.83301 -0.833008 -7.5 -1.5c-9.33301 -2 -18.5 -5 -27.5 -9s-17.833 -9 -26.5 -15
s-16 -12.5 -22 -19.5s-10.667 -14.833 -14 -23.5c-1.33301 -3.33301 -2.5 -6.83301 -3.5 -10.5s-1.83301 -7.16699 -2.5 -10.5s-1.16699 -6.83301 -1.5 -10.5s-0.5 -7.16699 -0.5 -10.5v-2.5v-2.5v-3v-3v-2.5v-2.5v-3v-3v-1.5v-1.5v-1.5v-1.5v-6v-6
c0 -2.66699 0.166992 -5 0.5 -7s0.5 -4 0.5 -6c0 -4.66699 0.166992 -9.16699 0.5 -13.5s0.833008 -8.5 1.5 -12.5c2.66699 -18 7 -35.167 13 -51.5s13.667 -32.166 23 -47.499c9.33301 -14.667 21.833 -25.834 37.5 -33.501s33.834 -11.5 54.501 -11.5
s38.5 3.83301 53.5 11.5s27.5 18.834 37.5 33.501c10 15.333 18 31.166 24 47.499s10 33.5 12 51.5v6.5v7.5v3.5c0 1 0.333008 2.16699 1 3.5v3v4c0 20.667 -2.5 40.5 -7.5 59.5s-12.5 36.833 -22.5 53.5c-10 17.333 -23.5 30.166 -40.5 38.499s-37.167 12.5 -60.5 12.5v2v0
z" />
    <glyph glyph-name="seven" unicode="7" horiz-adv-x="500" 
d="M56 10l243.998 392.001c4.66699 6.66699 9.16699 13.667 13.5 21l13.5 23l14 23l14 25l12.5 25l13.5 26l14 27.5c4.66699 9 9.33398 18.5 14.001 28.5l-267 2c-12 -1.33301 -21.667 -3 -29 -5s-12.666 -5 -15.999 -9s-6.33301 -10.5 -9 -19.5s-5 -20.5 -7 -34.5v-1.5
v-0.5v-1.5v-0.5l-7 -54h-30v7v8v4c0 1.33301 0.333008 3 1 5v4v4v9c0 2.66699 0.333008 5.66699 1 9v8.5v8.5v9c0 2.66699 0.333008 5.66699 1 9v8.5v8.5v8v9c-0.666992 2.66699 -1 5.5 -1 8.5v8.5v8v9c-0.666992 2.66699 -1 5.5 -1 8.5v8.5v4v5
c-0.666992 1.33301 -1 2.66602 -1 3.99902v4v9.5v8.5l10 7c18 -1.33301 36.167 -2.5 54.5 -3.5s36.833 -1.83301 55.5 -2.5s37.167 -1 55.5 -1h55.5h55.5c18.333 0 36.833 0.333008 55.5 1l55.5 2l55.5 2v-28l-183 -329c-4 -8 -8 -15.5 -12 -22.5
s-7.66699 -14.167 -11 -21.5c-4 -6.66699 -7.83301 -13.5 -11.5 -20.5s-7.16699 -14.167 -10.5 -21.5l-31.5 -63.5c-10.333 -21 -20.166 -42.167 -29.499 -63.5l-27 -61.5l-24 -58.5h-2h-2c-0.666992 0.666992 -1.33398 1 -2.00098 1h-2h-2h-1h-2h-2h-1.5h-0.5
c-0.666992 0.666992 -1.16699 1 -1.5 1h-0.5h-2h-2h-2.5h-3.5c-0.666992 0.666992 -1.5 1 -2.5 1h-3.5h-2.5h-2.5h-3h-3h-6h-6h-2.5c-1 0 -1.83301 -0.333008 -2.5 -1h-3h-3h-2h-2h-1.5c-0.333008 0 -0.5 -0.333008 -0.5 -1h-1.5h-0.5h-4h-4h-2
c-0.666992 0 -1 -0.333008 -1 -1h-2h-2l-9 13v0v0z" />
    <glyph glyph-name="eight" unicode="8" horiz-adv-x="500" 
d="M259 689c22.667 -1.33301 44.167 -4.99902 64.5 -10.999s39.5 -14.667 57.5 -26c18 -12 31.667 -27.167 41 -45.5s14 -40.166 14 -65.499c0 -16.667 -2.66699 -32 -8 -46s-13.333 -27 -24 -39s-21.834 -23.167 -33.501 -33.5s-23.834 -20.166 -36.501 -29.499
c-0.666992 -0.666992 -1.5 -1.33398 -2.5 -2.00098s-1.83301 -1 -2.5 -1c-1.33301 -0.666992 -2.33301 -1.33398 -3 -2.00098s-1.66699 -1.33398 -3 -2.00098c-2 -1.33301 -3.83301 -2.5 -5.5 -3.5s-3.16699 -2.16699 -4.5 -3.5c20 -8.66699 39 -18.5 57 -29.5
s34.333 -22.5 49 -34.5c15.333 -12.667 26.666 -28.167 33.999 -46.5s11 -39.833 11 -64.5c0 -32 -6 -61.333 -18 -88s-30 -50.667 -54 -72c-24 -22 -49.5 -38.167 -76.5 -48.5s-56.167 -15.5 -87.5 -15.5c-27.333 0 -52.666 3.83301 -75.999 11.5
s-44.666 19.167 -63.999 34.5c-19.333 16 -33.833 35.167 -43.5 57.5s-14.5 47.833 -14.5 76.5c0 21.333 3.33301 41.5 10 60.5s16.667 36.5 30 52.5s28.333 29.833 45 41.5s34.334 21.167 53.001 28.5c-17.333 10.667 -33 21.667 -47 33s-26.333 23 -37 35
s-18.5 25.5 -23.5 40.5s-7.5 31.833 -7.5 50.5c0 29.333 5 55.5 15 78.5s25.333 42.5 46 58.5s43 28 67 36s50 12 78 12v2v0zM284 295.001l-80.0039 36c-18 -11.333 -33.667 -23 -47 -35s-24 -24.667 -32 -38c-8 -14 -14 -29 -18 -45s-6 -33.333 -6 -52
c0 -22.667 3.33301 -43.167 10 -61.5s16.334 -34.166 29.001 -47.499c13.333 -13.333 28.833 -23.333 46.5 -30s37.834 -10 60.501 -10c19.333 0 37.166 3.83301 53.499 11.5s30.833 18.834 43.5 33.501c13.333 15.333 23.333 31.166 30 47.499s10.334 33.5 11.001 51.5v1.5
v1.5v1.5v1.5c0 13.333 -1.66699 25.666 -5 36.999s-8.66602 21.333 -15.999 30c-6.66699 9.33301 -14 17.666 -22 24.999s-16.333 14 -25 20c-1.33301 1.33301 -2.66602 2.33301 -3.99902 3s-2.66602 1.66699 -3.99902 3c-2 0.666992 -3.66699 1.5 -5 2.5
s-2.66602 1.83301 -3.99902 2.5c-2.66699 1.33301 -5.33398 2.83301 -8.00098 4.5s-5.33398 2.83398 -8.00098 3.50098v2v0zM222.996 423.001l54.998 -26.9971c12.667 6.66699 24.334 14.667 35.001 24s20.334 19.333 29.001 30c8.66699 11.333 15.167 23.666 19.5 36.999
s6.5 27.666 6.5 42.999c0 18 -2.66699 34.333 -8 49s-13.333 27.667 -24 39s-23.167 20 -37.5 26s-30.833 9 -49.5 9s-35.167 -2.5 -49.5 -7.5s-27.166 -12.5 -38.499 -22.5c-10.667 -10 -18.834 -22 -24.501 -36s-8.5 -30.333 -8.5 -49c0 -12.667 2.16699 -24.5 6.5 -35.5
s10.833 -21.167 19.5 -30.5c8.66699 -8.66699 17.667 -16.834 27 -24.501s19.333 -14.5 30 -20.5c1.33301 -0.666992 2.5 -1.16699 3.5 -1.5s1.83301 -0.833008 2.5 -1.5c1.33301 -0.666992 2.5 -1.16699 3.5 -1.5s1.83301 -0.833008 2.5 -1.5v2v0z" />
    <glyph glyph-name="nine" unicode="9" horiz-adv-x="500" 
d="M96 -20l-34.001 17.002v8c42 8.66699 80.5 22.667 115.5 42s66.5 43.666 94.5 72.999s49.333 62.166 64 98.499s22.667 76.166 24 119.499l-70 -56c-2.66699 -3.33301 -6 -6.16602 -10 -8.49902s-8 -4.16602 -12 -5.49902c-2 -0.666992 -4 -1.5 -6 -2.5
s-4 -1.83301 -6 -2.5c-2.66699 -0.666992 -5 -1.33398 -7 -2.00098l-6 -2l-10 -2l-10 -2c-3.33301 -0.666992 -6.5 -1 -9.5 -1h-8.5c-30 0 -56.333 4.83301 -79 14.5s-42 24.5 -58 44.5c-16 19.333 -28 40.833 -36 64.5s-12 49.5 -12 77.5c0 32 5.33301 61.667 16 89
s26.334 52.333 47.001 75c21.333 22.667 45.5 39.667 72.5 51s56.833 17 89.5 17c33.333 0 63 -6.16699 89 -18.5s48.333 -30.833 67 -55.5s32.667 -53.167 42 -85.5s14 -68.5 14 -108.5c0 -50.667 -7.16699 -98.5 -21.5 -143.5s-35.5 -87.5 -63.5 -127.5
c-28.667 -40 -66 -74 -112 -102s-100.667 -50 -164 -66v0v0zM241.999 317.002c20 -1.33301 37.8311 1.83301 53.498 9.5s29.167 18.834 40.5 33.501c11.333 15.333 19.833 31.666 25.5 48.999s8.5 35.666 8.5 54.999v6v6c-0.666992 2 -1 4.16699 -1 6.5v6.5
c-0.666992 4.66699 -1.16699 9.16699 -1.5 13.5s-0.833008 8.83301 -1.5 13.5c-2.66699 17.333 -7.16699 33.833 -13.5 49.5s-14.166 30.834 -23.499 45.501c-9.33301 14 -21.166 24.667 -35.499 32s-31.166 11 -50.499 11v0v0h-1v0v0v0h-1v0
c-26 -0.666992 -47.833 -5.33398 -65.5 -14.001s-31.167 -21.667 -40.5 -39c-9.33301 -16.667 -16.5 -34.5 -21.5 -53.5s-7.5 -38.833 -7.5 -59.5v-1.5v-0.5v0v0v-1v0v-4v-4v-4c0 -1.33301 0.333008 -2.66602 1 -3.99902c1.33301 -19.333 5 -37.833 11 -55.5
s14.333 -34.5 25 -50.5c11.333 -16 25.166 -28 41.499 -36s35.5 -12 57.5 -12v2v0z" />
    <glyph glyph-name="colon" unicode=":" 
d="M123 -5c-8 0 -15.333 1.16699 -22 3.5s-12.667 6.5 -18 12.5c-6 6 -10.333 12.333 -13 19s-4 13.667 -4 21s1.33301 14.333 4 21s7 13 13 19s12.333 10.5 19 13.5s13.667 4.5 21 4.5s14.5 -1.5 21.5 -4.5s13.5 -7.5 19.5 -13.5s10.5 -12.333 13.5 -19
s4.5 -13.667 4.5 -21s-1.5 -14.333 -4.5 -21s-7.5 -13 -13.5 -19s-12.333 -10.167 -19 -12.5s-14 -3.5 -22 -3.5v0v0zM123 340c-8 -1.33301 -15.333 -0.5 -22 2.5s-12.667 7.5 -18 13.5c-6 6 -10.333 12.333 -13 19s-4 13.667 -4 21s1.33301 14.333 4 21s7 13 13 19
s12.333 10.5 19 13.5s13.667 4.5 21 4.5s14.5 -1.5 21.5 -4.5s13.5 -7.5 19.5 -13.5s10.5 -12.333 13.5 -19s4.5 -13.667 4.5 -21s-1.5 -14.333 -4.5 -21s-7.5 -13 -13.5 -19s-12.333 -10.5 -19 -13.5s-14 -4.5 -22 -4.5v2v0z" />
    <glyph glyph-name="semicolon" unicode=";" 
d="M204 125l13.999 -14.001c-8 -23.333 -17.333 -45.833 -28 -67.5s-22.667 -41.834 -36 -60.501c-12.667 -20 -26 -39.833 -40 -59.5s-28.333 -38.834 -43 -57.501l-41 -19l-14 11c11.333 18 21.833 36.5 31.5 55.5s18.834 38.167 27.501 57.5s15.5 39.166 20.5 59.499
s8.5 41.166 10.5 62.499l15.5 4l14.5 4c2.66699 0.666992 5.16699 1.33398 7.5 2.00098s4.83301 1.33398 7.5 2.00098c2 0.666992 4.16699 1.5 6.5 2.5s4.83301 1.83301 7.5 2.5c1.33301 0.666992 2.83301 1.16699 4.5 1.5s3.5 0.833008 5.5 1.5
c1.33301 0.666992 2.83301 1.16699 4.5 1.5s3.16699 0.833008 4.5 1.5s2.83301 1.33398 4.5 2.00098s3.5 1.33398 5.5 2.00098c1.33301 0 2.83301 0.333008 4.5 1s3.5 1.33398 5.5 2.00098v2v0zM149.999 339.999c-8 -1.33301 -15.333 -0.5 -22 2.5s-12.667 7.5 -18 13.5
c-6 6 -10.333 12.333 -13 19s-4 13.667 -4 21s1.33301 14.333 4 21s7 13 13 19s12.333 10.5 19 13.5s13.667 4.5 21 4.5s14.5 -1.5 21.5 -4.5s13.5 -7.5 19.5 -13.5s10.5 -12.333 13.5 -19s4.5 -13.667 4.5 -21s-1.5 -14.333 -4.5 -21s-7.5 -13 -13.5 -19
s-12.333 -10.5 -19 -13.5s-14 -4.5 -22 -4.5v2v0z" />
    <glyph glyph-name="less" unicode="&#x3c;" horiz-adv-x="606" 
d="M558 60v-60l-501 234v54l501 234v-60l-432 -203l432 -199v0v0z" />
    <glyph glyph-name="equal" unicode="=" horiz-adv-x="606" 
d="M555 192v-56h-504v56h504v0v0zM555 386v-56h-504v56h504v0v0z" />
    <glyph glyph-name="greater" unicode="&#x3e;" horiz-adv-x="606" 
d="M48 60l432 199l-432 203v60l501 -234v-54l-501 -234v60v0v0z" />
    <glyph glyph-name="question" unicode="?" horiz-adv-x="444" 
d="M198 -5c-8 0 -15.333 1.16699 -22 3.5s-12.667 6.5 -18 12.5c-6 6 -10.333 12.333 -13 19s-4 13.667 -4 21s1.33301 14.333 4 21s7 13 13 19s12.333 10.5 19 13.5s13.667 4.5 21 4.5s14.5 -1.5 21.5 -4.5s13.5 -7.5 19.5 -13.5s10.5 -12.333 13.5 -19
s4.5 -13.667 4.5 -21s-1.5 -14.333 -4.5 -21s-7.5 -13 -13.5 -19s-12.333 -10.167 -19 -12.5s-14 -3.5 -22 -3.5v0v0zM43 546l38 113.001c3.33301 0.666992 6.83301 1.83398 10.5 3.50098l11.5 5.5c4 1.33301 8.16699 2.83301 12.5 4.5s8.5 3.16699 12.5 4.5
c8.66699 3.33301 17.334 6.16602 26.001 8.49902s17.334 3.83301 26.001 4.5h3.5c1 0 2.16699 0.333008 3.5 1h3h3h3.5c1 0 2.16699 0.333008 3.5 1h3h3c24.667 0 48 -3.33301 70 -10s42.333 -16.667 61 -30c19.333 -12.667 33.833 -28.834 43.5 -48.501
s14.5 -42.167 14.5 -67.5c0 -16.667 -2.66699 -32.5 -8 -47.5s-13.333 -29.167 -24 -42.5l-33.5 -38c-11.667 -12.667 -23.834 -24.667 -36.501 -36c-8 -6.66699 -15.667 -13.5 -23 -20.5s-14.666 -13.5 -21.999 -19.5l-19 -19.5l-17 -18.5
c-3.33301 -4.66699 -6.33301 -9.16699 -9 -13.5s-5 -8.5 -7 -12.5c-2 -4.66699 -3.33301 -9.16699 -4 -13.5s-1 -8.5 -1 -12.5c0 -4.66699 0.333008 -9.16699 1 -13.5s2 -8.16602 4 -11.499s4 -6.5 6 -9.5s4.33301 -6.16699 7 -9.5c0 -0.666992 0.166992 -1.16699 0.5 -1.5
l1.5 -1.5c0 -0.666992 0.166992 -1.16699 0.5 -1.5s0.833008 -0.5 1.5 -0.5l-21 -12c-6.66699 2.66699 -12.667 6.5 -18 11.5s-10 10.833 -14 17.5s-7 13.5 -9 20.5s-3 14.167 -3 21.5c0 9.33301 1.33301 18.166 4 26.499s6.66699 16.833 12 25.5s11.166 17.167 17.499 25.5
s13.166 16.833 20.499 25.5l4.5 4.5l5.5 5.5c1.33301 2 2.83301 4 4.5 6s3.5 4 5.5 6v0l1 1v0v0l0.5 0.5l1.5 1.5l27.5 32.5l25.5 32.5c8 11.333 14 22.833 18 34.5s6 23.834 6 36.501c0 15.333 -2.83301 29.5 -8.5 42.5s-14.167 24.833 -25.5 35.5
c-10.667 10.667 -23.167 18.667 -37.5 24s-30.166 8 -47.499 8c-10.667 0 -20.834 -0.833008 -30.501 -2.5s-18.5 -4.16699 -26.5 -7.5c-8 -2.66699 -14.833 -6.83398 -20.5 -12.501s-10.167 -12.167 -13.5 -19.5l-20 -46l-29 8v0v0z" />
    <glyph glyph-name="at" unicode="@" horiz-adv-x="747" 
d="M658 171l61 -0.000976562c-15.333 -29.333 -34 -55.666 -56 -78.999s-47.667 -43.666 -77 -60.999c-28.667 -16.667 -58.5 -29.334 -89.5 -38.001s-63.167 -13 -96.5 -13c-51.333 0 -99 7.83301 -143 23.5s-84.667 39.834 -122 72.501c-36.667 32 -64.334 69 -83.001 111
s-28 88.667 -28 140s8.83301 98.5 26.5 141.5s43.834 82.167 78.501 117.5c35.333 35.333 74.833 61.833 118.5 79.5s91.834 26.5 144.501 26.5c42 0 82.167 -6.5 120.5 -19.5s74.5 -32.167 108.5 -57.5c34 -26 59.667 -56.333 77 -91s26 -73.667 26 -117
c0 -32 -4.66699 -62 -14 -90s-23.666 -54.333 -42.999 -79c-18.667 -24.667 -38.334 -45 -59.001 -61s-42.334 -28 -65.001 -36c-4.66699 -1.33301 -9.16699 -2.5 -13.5 -3.5s-8.5 -2.16699 -12.5 -3.5c-4.66699 -0.666992 -9.16699 -1.16699 -13.5 -1.5
s-8.5 -0.5 -12.5 -0.5c-12.667 0 -23.667 2.16699 -33 6.5s-17 10.833 -23 19.5c-6 9.33301 -10.667 18.666 -14 27.999s-5.33301 19.333 -6 30c-0.666992 -1.33301 -1.5 -2.66602 -2.5 -3.99902s-1.83301 -2.33301 -2.5 -3c-1.33301 -1.33301 -2.33301 -2.5 -3 -3.5
s-1.66699 -2.16699 -3 -3.5c-2 -2 -3.83301 -4 -5.5 -6s-3.16699 -3.66699 -4.5 -5c-6.66699 -8 -13.834 -15.167 -21.501 -21.5s-15.167 -12.166 -22.5 -17.499c-8 -4.66699 -16.667 -8.33398 -26 -11.001s-19.666 -4 -30.999 -4c-19.333 0 -37 3.5 -53 10.5
s-30.333 17.5 -43 31.5s-22.167 29.5 -28.5 46.5s-9.5 35.833 -9.5 56.5v4.5v4.5v4.5c0 1.66699 0.333008 3.5 1 5.5c2.66699 25.333 10 49.833 22 73.5s28.333 46.167 49 67.5c21.333 21.333 44 37.5 68 48.5s49.333 16.5 76 16.5c12.667 0 24 -1.66699 34 -5
s18.667 -8.66602 26 -15.999c7.33301 -6.66699 13.333 -14.667 18 -24s8 -19.666 10 -30.999l2 2l17 66h88l-77 -279c-0.666992 -2.66699 -1.16699 -4.83398 -1.5 -6.50098s-0.5 -3.16699 -0.5 -4.5c-0.666992 -1.33301 -1 -2.83301 -1 -4.5v-4.5
c0 -0.666992 -0.166992 -1.16699 -0.5 -1.5l-0.5 -0.5v-1.5v-1.5v-2v-2c0 -4 0.333008 -7.66699 1 -11s2 -6.66602 4 -9.99902c2 -2.66699 4.83301 -4.83398 8.5 -6.50098s8.16699 -2.5 13.5 -2.5c4 0 8.16699 0.5 12.5 1.5s8.83301 2.5 13.5 4.5
c5.33301 2 10.5 4.5 15.5 7.5s9.83301 6.5 14.5 10.5c12 9.33301 23.667 21.333 35 36s22.333 31.667 33 51c10 19.333 17.667 40.166 23 62.499s8 45.833 8 70.5c0 31.333 -6.16699 60.666 -18.5 87.999s-31.166 53 -56.499 77c-24.667 24 -53.334 42 -86.001 54
s-69.667 18 -111 18c-45.333 0 -87 -7.16699 -125 -21.5s-72.333 -35.833 -103 -64.5s-53.667 -61.5 -69 -98.5s-23 -78.167 -23 -123.5s7.83301 -86.5 23.5 -123.5s39.167 -69.5 70.5 -97.5c31.333 -28.667 66.333 -50 105 -64s81 -21 127 -21c26.667 0 52 3.16699 76 9.5
s47 15.833 69 28.5c21.333 13.333 41 28.5 59 45.5s34.333 36.167 49 57.5v2v0zM309 165.999c13.333 -1.33301 25.833 1.49902 37.5 8.49902s22.5 17.5 32.5 31.5c9.33301 14 17.833 28.667 25.5 44s14.5 31.333 20.5 48c3.33301 10 6.16602 20 8.49902 30s4.5 20 6.5 30
c1.33301 9.33301 2.5 18 3.5 26s1.5 15.333 1.5 22v2.5v2.5c-0.666992 1.33301 -1 2.5 -1 3.5v2.5c0 2 -0.166992 4 -0.5 6s-0.833008 4 -1.5 6c-1.33301 6 -3.33301 12 -6 18s-6 11.667 -10 17s-8.83301 9.33301 -14.5 12s-12.167 4 -19.5 4
c-14 0 -27.167 -3.5 -39.5 -10.5s-23.833 -17.167 -34.5 -30.5s-20.167 -27.5 -28.5 -42.5s-15.5 -30.5 -21.5 -46.5c-3.33301 -9.33301 -6.33301 -18.5 -9 -27.5s-4.66699 -17.833 -6 -26.5c-2 -8.66699 -3.33301 -16.667 -4 -24s-1 -14 -1 -20v-6v-6v-2.5
c0 -1 0.333008 -1.83301 1 -2.5c0 -1.33301 0.166992 -2.33301 0.5 -3s0.5 -1.66699 0.5 -3c1.33301 -8 3.33301 -15.667 6 -23s6.33398 -14.666 11.001 -21.999c4.66699 -6.66699 10.5 -11.667 17.5 -15s15.167 -5 24.5 -5v2v0z" />
    <glyph glyph-name="A" unicode="A" horiz-adv-x="778" 
d="M408 700l242.001 -568.002c0.666992 -2 1.33398 -3.83301 2.00098 -5.5s1.33398 -3.16699 2.00098 -4.5c0.666992 -2 1.33398 -3.83301 2.00098 -5.5s1.33398 -3.16699 2.00098 -4.5c1.33301 -2.66699 2.66602 -5.5 3.99902 -8.5s2.66602 -6.16699 3.99902 -9.5
c1.33301 -2.66699 2.66602 -5.5 3.99902 -8.5s2.66602 -5.83301 3.99902 -8.5l4 -8c1.33301 -2.66699 2.66602 -5 3.99902 -7c2.66699 -4.66699 5.5 -8.83398 8.5 -12.501l8.5 -10.5c3.33301 -2.66699 6.83301 -5 10.5 -7s7.83398 -3.33301 12.501 -4l34 -1v-30h-6h-5
c-2 0.666992 -3.83301 1 -5.5 1h-5.5h-11.5h-10.5c-7.33301 0.666992 -14.666 1.16699 -21.999 1.5s-14.666 0.5 -21.999 0.5h-22.5h-22.5h-18h-20c-6.66699 0 -13.834 -0.166992 -21.501 -0.5s-15.167 -0.833008 -22.5 -1.5h-6h-6h-7h-6h-6c-2 0 -4.33301 -0.333008 -7 -1
h-6.5h-6.5v30l47 3c5.33301 -0.666992 10.333 -0.666992 15 0s9 2 13 4c4 1.33301 7.16699 3.33301 9.5 6s3.5 5.33398 3.5 8.00098c0 3.33301 -0.5 6.83301 -1.5 10.5l-3.5 12.5l-6 15.5l-6 15.5v0v1c-0.666992 0 -1 0.166992 -1 0.5v0.5v0.5v1.5
c-0.666992 0 -1.16699 0.333008 -1.5 1s-0.5 1.33398 -0.5 2.00098v0.5v1.5c-0.666992 0 -1 0.166992 -1 0.5v0.5l-46 117h-288l-28 -67c-0.666992 -2 -1.33398 -3.66699 -2.00098 -5s-1 -2.66602 -1 -3.99902c-0.666992 -1.33301 -1.33398 -2.83301 -2.00098 -4.5
s-1.33398 -3.5 -2.00098 -5.5l-2 -6c-0.666992 -2 -1.33398 -3.66699 -2.00098 -5c-1.33301 -2 -2.33301 -4 -3 -6l-2 -6c-0.666992 -0.666992 -1.16699 -1.5 -1.5 -2.5s-0.5 -2.16699 -0.5 -3.5c0 -0.666992 -0.166992 -1.16699 -0.5 -1.5l-0.5 -0.5
c-0.666992 -0.666992 -1 -1.16699 -1 -1.5v-1.5l-6 -16c-2 -5.33301 -3.66699 -10.666 -5 -15.999c-1.33301 -4.66699 -2.33301 -8.83398 -3 -12.501s-1 -6.5 -1 -8.5c0 -5.33301 1 -9.83301 3 -13.5s5 -6.16699 9 -7.5c4 -2 9 -3.5 15 -4.5s13 -1.83301 21 -2.5l37 -1v-30
h-6h-6c-2 0.666992 -3.83301 1 -5.5 1h-5.5h-11.5h-10.5c-6.66699 0.666992 -13.167 1.16699 -19.5 1.5s-12.5 0.5 -18.5 0.5h-16.5h-15.5h-19.5h-19.5c-6.66699 -0 -13.167 -0.166992 -19.5 -0.5s-12.5 -0.833008 -18.5 -1.5h-4.5h-4.5h-5.5h-4.5h-4.5
c-1.66699 0 -3.16699 -0.333008 -4.5 -1h-5.5h-4.5v30l37 3c6 -0.666992 11.667 0.333008 17 3s10.333 6.33398 15 11.001s8.83398 9.66699 12.501 15s6.83398 11.333 9.50098 18l178 407l6.5 14.5l7.5 15.5c2 5.33301 4.16699 10.666 6.5 15.999s4.83301 10.666 7.5 15.999
c3.33301 6.66699 6.5 13.334 9.5 20.001s5.83301 13.334 8.5 20.001l4 10c1.33301 3.33301 3 6.66602 5 9.99902l4 10l4 10c2.66699 6 5.16699 12 7.5 18s4.83301 12 7.5 18c2 6 4.16699 12 6.5 18s4.83301 12 7.5 18l32 2v0v0zM240.001 268.998h253l-126 298l-127 -298v0v0
z" />
    <glyph glyph-name="B" unicode="B" horiz-adv-x="611" 
d="M113 95l-0.00292969 473.999c0 8.66699 -0.166992 16.834 -0.5 24.501s-0.833008 14.834 -1.5 21.501c-0.666992 6 -1.66699 11.333 -3 16s-2.66602 8.33398 -3.99902 11.001s-3.16602 5 -5.49902 7s-5.16602 3.33301 -8.49902 4
c-3.33301 1.33301 -7.33301 2.16602 -12 2.49902s-10 0.833008 -16 1.5l-36 5v30c1.33301 -1.33301 2.5 -2 3.5 -2h2.5h3.5h2.5h5.5h5.5c1.33301 -0.666992 2.83301 -1 4.5 -1h5.5h10.5h11.5c8.66699 -0.666992 17 -1.16699 25 -1.5s16 -0.5 24 -0.5h22h18h3.5h2.5h4h4h25
h26c9.33301 0 18.5 0.166992 27.5 0.5s18.5 0.833008 28.5 1.5h16.5h17.5h9.5c3 0 5.83301 0.333008 8.5 1h10h10h0.5h1.5h0.5h1.5h0.5h1.5h0.5h1.5c22.667 0 44 -2.66699 64 -8s38.333 -13 55 -23c17.333 -10 30.333 -24 39 -42s13 -39.667 13 -65
c0 -22 -4.16699 -42 -12.5 -60s-20.833 -34 -37.5 -48s-34 -25.5 -52 -34.5s-37 -15.5 -57 -19.5h-1.5h-0.5c-0.666992 -0.666992 -1.16699 -1 -1.5 -1h-0.5h-2h-2v0c25.333 -1.33301 49.666 -5.33301 72.999 -12s45.333 -16 66 -28s36.167 -28.333 46.5 -49
s15.5 -45.667 15.5 -75c0 -5.33301 -0.166992 -10.833 -0.5 -16.5s-1.16602 -11.5 -2.49902 -17.5c-0.666992 -6 -1.66699 -11.833 -3 -17.5s-3 -11.167 -5 -16.5c-6.66699 -20.667 -17 -40.167 -31 -58.5s-31.667 -36.166 -53 -53.499
c-20.667 -16.667 -46.5 -28.834 -77.5 -36.501s-66.833 -11.5 -107.5 -11.5h-3.5h-3.5h-2.5h-3.5h-4.5h-4.5c-2 0.666992 -3.83301 1 -5.5 1h-4.5h-8.5h-9.5c-6 0.666992 -12 1.16699 -18 1.5s-12 0.5 -18 0.5h-18h-18h-9h-9h-9.5h-9.5c-6 0 -12 -0.166992 -18 -0.5
s-12 -0.833008 -18 -1.5h-8.5h-9.5h-4.5c-1.66699 0 -3.16699 -0.333008 -4.5 -1h-4.5h-4.5v23l26 10c4 0.666992 7.33301 2.66699 10 6s4.66699 7.33301 6 12c1.33301 5.33301 2.5 10.666 3.5 15.999s1.83301 11 2.5 17v3.5v2.5v3.5v2.5v2v0zM207.997 361.999
l-0.000976562 -315.001c2 -1.33301 4.16699 -2.5 6.5 -3.5s4.83301 -1.5 7.5 -1.5c2 -0.666992 4.16699 -1.16699 6.5 -1.5s4.83301 -0.5 7.5 -0.5l14 -2c4.66699 -0.666992 9.33398 -1 14.001 -1h14.5h13.5c27.333 0 52 3.83301 74 11.5s41.333 18.834 58 33.501
c16 15.333 28.167 33.5 36.5 54.5s12.5 44.833 12.5 71.5c0 27.333 -4.16699 50.833 -12.5 70.5s-21.166 35.5 -38.499 47.5c-16.667 12 -37.334 21 -62.001 27s-53 9 -85 9h-10h-10c-3.33301 -0.666992 -6.33301 -1 -9 -1h-8h-8h-8c-2 -0.666992 -4.33301 -1 -7 -1h-7v2v0z
M207.996 643.998l0.00292969 -243.001c4.66699 -1.33301 9.5 -2.33301 14.5 -3s10.5 -1 16.5 -1h19h21c21.333 0 41.5 2.5 60.5 7.5s36.833 12.5 53.5 22.5s29.167 23.833 37.5 41.5s12.5 38.834 12.5 63.501c0 24 -3.66699 43.833 -11 59.5s-18.333 27.5 -33 35.5
c-14.667 7.33301 -30.834 13 -48.501 17s-37.167 6 -58.5 6h-6.5h-7.5c-2 -0.666992 -4.16699 -1 -6.5 -1h-7.5c-4.66699 0 -9.33398 -0.166992 -14.001 -0.5s-9.33398 -0.833008 -14.001 -1.5c-2.66699 -0.666992 -5.16699 -1.16699 -7.5 -1.5s-4.5 -0.5 -6.5 -0.5
c-2.66699 -0.666992 -5.16699 -1.16699 -7.5 -1.5s-4.5 -0.833008 -6.5 -1.5v2v0z" />
    <glyph glyph-name="C" unicode="C" horiz-adv-x="709" 
d="M670 84l-28.0078 -50.0059c-8 -5.33301 -16.333 -10.166 -25 -14.499s-18 -8.16602 -28 -11.499l-14.5 -4l-14.5 -4c-5.33301 -0.666992 -10.333 -1.66699 -15 -3s-9.66699 -2.66602 -15 -3.99902c-10 -2 -19.667 -3.83301 -29 -5.5s-18.666 -2.83398 -27.999 -3.50098
c-8.66699 -1.33301 -17.167 -2.33301 -25.5 -3s-16.166 -1 -23.499 -1c-60 0 -114.167 7.83301 -162.5 23.5s-91.166 39.5 -128.499 71.5c-36.667 32 -64.334 70.333 -83.001 115s-28 95.334 -28 152.001c0 28.667 2.66699 55.834 8 81.501s13.333 49.834 24 72.501
s23.5 43.5 38.5 62.5s32.167 36.5 51.5 52.5c18.667 15.333 38.834 29 60.501 41s44.834 22 69.501 30c25.333 8 51.166 14.167 77.499 18.5s53.5 6.5 81.5 6.5c18 0 35.667 -0.666992 53 -2s34.333 -3.66602 51 -6.99902c17.333 -2.66699 33.333 -5.83398 48 -9.50098
l41 -10.5c3.33301 -0.666992 6.83301 -1.5 10.5 -2.5s6.83398 -2.16699 9.50098 -3.5c3.33301 -0.666992 6.5 -1.5 9.5 -2.5s5.83301 -2.16699 8.5 -3.5l-6 -30.5l-6 -32.5c-0.666992 -5.33301 -1.5 -10.833 -2.5 -16.5s-1.5 -11.167 -1.5 -16.5
c-0.666992 -6 -1.16699 -11.833 -1.5 -17.5s-0.5 -11.167 -0.5 -16.5c0 -0.666992 -0.166992 -1.5 -0.5 -2.5s-0.5 -1.83301 -0.5 -2.5v-3v-3v-2.5v-2.5v-3v-3l-31 2v72c0 6 -2.16699 11.833 -6.5 17.5s-10.833 10.834 -19.5 15.501s-18 9.16699 -28 13.5l-32 13.5
c-5.33301 1.33301 -10.833 2.83301 -16.5 4.5s-11.5 3.16699 -17.5 4.5c-2.66699 0.666992 -5.66699 1.16699 -9 1.5s-6.33301 0.833008 -9 1.5c-3.33301 0.666992 -6.5 1.16699 -9.5 1.5s-6.16699 0.833008 -9.5 1.5h-6c-2 0 -3.66699 0.333008 -5 1h-5.5h-4.5h-5.5
c-1.66699 0 -3.16699 0.333008 -4.5 1h-5.5h-4.5c-46.667 0 -88 -7.5 -124 -22.5s-66 -37.5 -90 -67.5c-24.667 -30 -43 -63 -55 -99s-18 -75.333 -18 -118c0 -49.333 7.5 -93.833 22.5 -133.5s37.5 -74.167 67.5 -103.5c30 -30 65 -52.333 105 -67s84.667 -22 134 -22h14
c4.66699 0 9.33398 0.333008 14.001 1c4.66699 0 9.33398 0.5 14.001 1.5s9.33398 1.83301 14.001 2.5c14 2 27.833 4.83301 41.5 8.5s26.834 7.83398 39.501 12.501c13.333 5.33301 25.5 10.666 36.5 15.999s20.833 11.333 29.5 18l9 -8v0v0z" />
    <glyph glyph-name="D" unicode="D" horiz-adv-x="774" 
d="M113 95l-0.000976562 473.997c0 8.66699 -0.166992 16.834 -0.5 24.501s-0.833008 14.834 -1.5 21.501c-0.666992 6 -1.66699 11.333 -3 16s-2.66602 8.33398 -3.99902 11.001s-3.16602 5 -5.49902 7s-5.16602 3.33301 -8.49902 4
c-3.33301 1.33301 -7.33301 2.16602 -12 2.49902s-10 0.833008 -16 1.5l-40 5v30c5.33301 -1.33301 10.833 -2.16602 16.5 -2.49902s11.167 -0.5 16.5 -0.5h16.5h16.5h6h7c2 -0.666992 4.16699 -1 6.5 -1h6.5h12.5h13.5c6.66699 -0.666992 13.167 -1 19.5 -1h19.5h20h20
h32.5h31.5c10.667 0 21 0.166992 31 0.5s19.667 0.833008 29 1.5h13.5h12.5h6c2 0 4 0.333008 6 1h6h6h1.5h1.5h2h2h1.5h1.5h2h2c49.333 0 94.5 -6.66699 135.5 -20s77.833 -33.666 110.5 -60.999c32.667 -26.667 57.167 -58.834 73.5 -96.501s24.5 -80.167 24.5 -127.5
c0 -40.667 -5.16699 -79.5 -15.5 -116.5s-25.833 -71.5 -46.5 -103.5c-20.667 -32.667 -43.834 -60.167 -69.501 -82.5s-53.5 -39.833 -83.5 -52.5c-14.667 -6 -29.5 -11 -44.5 -15s-30.167 -7.66699 -45.5 -11c-16 -2.66699 -32.833 -4.5 -50.5 -5.5s-36.5 -1.5 -56.5 -1.5
h-4h-4h-4.5h-4.5h-5.5h-4.5c-2 0.666992 -3.83301 1 -5.5 1h-5.5h-10h-10c-3.33301 0 -6.83301 0.166992 -10.5 0.5s-7.16699 0.5 -10.5 0.5c-4 0.666992 -7.83301 1 -11.5 1h-10.5h-22.5h-22.5h-4h-4h-5h-4h-4h-4h-5h-4h-7.5c-2.33301 0 -4.5 -0.333008 -6.5 -1h-7.5h-6.5
h-14c-4.66699 0 -9.33398 -0.333008 -14.001 -1h-6h-5h-6h-6h-6c-2 0 -3.66699 -0.333008 -5 -1h-6h-6v23l31 16c4 1.33301 7.66699 3.83301 11 7.5s6 8.16699 8 13.5s3.5 11 4.5 17s1.5 12.333 1.5 19v2v0zM207.999 643.997l0.00195312 -595.003c4 -2 8.33301 -3.5 13 -4.5
s10 -1.83301 16 -2.5c5.33301 -0.666992 11 -1.16699 17 -1.5s12 -0.5 18 -0.5c4 -0.666992 8.16699 -1 12.5 -1h13.5h12h12c9.33301 0 18.666 0.166992 27.999 0.5s19 0.833008 29 1.5s20 1.83398 30 3.50098s20.333 3.83398 31 6.50098l10.5 4l11.5 4l6 2l6 2l5 2.5
c2 1 4 1.83301 6 2.5c27.333 12.667 51.166 28.5 71.499 47.5s36.833 40.833 49.5 65.5c12.667 25.333 22.167 52.5 28.5 81.5s9.5 60.5 9.5 94.5c0 62 -7.83301 112.833 -23.5 152.5s-39.167 68.5 -70.5 86.5c-30.667 18 -65 31.5 -103 40.5s-79.667 13.5 -125 13.5h-12
h-12h-6.5h-6.5c-2.66699 -0.666992 -5 -1 -7 -1h-6c-6 -0.666992 -12 -1.16699 -18 -1.5s-11.667 -0.833008 -17 -1.5c-6 -0.666992 -11.333 -1.16699 -16 -1.5s-9 -1.16602 -13 -2.49902v2v0z" />
    <glyph glyph-name="E" unicode="E" horiz-adv-x="611" 
d="M121 120l-0.00488281 449c0 8.66699 -0.166992 16.834 -0.5 24.501s-0.833008 14.834 -1.5 21.501c-0.666992 6 -1.66699 11.333 -3 16s-2.66602 8.33398 -3.99902 11.001s-3.16602 5 -5.49902 7s-5.16602 3.33301 -8.49902 4
c-3.33301 1.33301 -7.33301 2.16602 -12 2.49902s-10 0.833008 -16 1.5l-48 5v30c4.66699 -1.33301 9.33398 -2.16602 14.001 -2.49902s9.33398 -0.5 14.001 -0.5h14h14c9.33301 -0.666992 18.666 -1.16699 27.999 -1.5s18.666 -0.5 27.999 -0.5h28.5h28.5h8h8h4h5h4h4h24
h24c8 0 16 0.166992 24 0.5s16 0.833008 24 1.5h30h28h13.5c4.33301 0 8.5 0.333008 12.5 1h12h11h16.5h17.5c5.33301 -0.666992 10.833 -1 16.5 -1h16.5c11.333 0 22 -0.166992 32 -0.5s20 -0.833008 30 -1.5c-2 -8 -3.83301 -16 -5.5 -24s-3.16699 -16.333 -4.5 -25
c-0.666992 -4.66699 -1.16699 -9.16699 -1.5 -13.5s-0.833008 -8.5 -1.5 -12.5c0 -4.66699 -0.166992 -9.16699 -0.5 -13.5s-0.5 -8.83301 -0.5 -13.5c-0.666992 -4.66699 -1.16699 -9.16699 -1.5 -13.5s-0.5 -8.5 -0.5 -12.5v-12v-12l-35 2v65
c0 2.66699 -0.166992 5.16699 -0.5 7.5s-0.833008 4.83301 -1.5 7.5s-1.5 4.83398 -2.5 6.50098s-2.5 2.83398 -4.5 3.50098c-8.66699 3.33301 -17.667 6.16602 -27 8.49902s-19.333 4.16602 -30 5.49902c-5.33301 0.666992 -10.666 1.16699 -15.999 1.5
s-10.666 0.833008 -15.999 1.5c-6 0.666992 -11.667 1.16699 -17 1.5s-10.666 0.833008 -15.999 1.5h-10c-3.33301 0 -6.33301 0.333008 -9 1h-9.5h-9.5h-18h-18h-6.5h-7.5c-2 -0.666992 -4.16699 -1 -6.5 -1h-7.5c-4.66699 0 -9.33398 -0.166992 -14.001 -0.5
s-9.33398 -0.833008 -14.001 -1.5c-2.66699 -0.666992 -5.16699 -1.16699 -7.5 -1.5s-4.5 -0.5 -6.5 -0.5c-2.66699 -0.666992 -5.16699 -1.16699 -7.5 -1.5s-4.5 -0.833008 -6.5 -1.5v-265c8 -1.33301 16.333 -2.33301 25 -3s17.667 -1 27 -1
c9.33301 -0.666992 19.333 -1 30 -1h34c15.333 0 29 0.333008 41 1s22.333 1.33398 31 2.00098c8.66699 1.33301 15.834 2.5 21.501 3.5s9.83398 2.5 12.501 4.5c1.33301 1.33301 2.33301 2.66602 3 3.99902s1.33398 3 2.00098 5s1.16699 4.5 1.5 7.5
s0.833008 6.16699 1.5 9.5l5 54h30v-7v-5c-0.666992 -2 -1 -3.83301 -1 -5.5v-4.5v-10v-10c-0.666992 -6.66699 -1.16699 -13.334 -1.5 -20.001s-0.5 -13 -0.5 -19v-9v-9v-9.5v-9.5v-4.5v-4.5v-5.5v-4.5v-8.5c0 -3 0.333008 -6.16699 1 -9.5v-9.5v-9.5v-8.5
c0 -3 0.333008 -6.16699 1 -9.5v-9.5v-9.5v-4.5c0 -1.66699 0.333008 -3.16699 1 -4.5v-4.5v-4.5l-30 2l-5 59c-0.666992 2.66699 -1.16699 5.16699 -1.5 7.5s-0.833008 4.5 -1.5 6.5s-1.33398 3.83301 -2.00098 5.5s-1.66699 2.83398 -3 3.50098
c-2.66699 2 -6.83398 3.83301 -12.501 5.5s-12.834 2.83398 -21.501 3.50098c-8.66699 1.33301 -19 2.16602 -31 2.49902s-25.667 0.5 -41 0.5h-17.5h-16.5c-6 -0.666992 -11.5 -1 -16.5 -1h-14.5c-9.33301 0 -18.333 -0.166992 -27 -0.5s-16.667 -0.833008 -24 -1.5v-278
c2 -1.33301 4.16699 -2.5 6.5 -3.5s4.83301 -1.5 7.5 -1.5c2 -0.666992 4.16699 -1.16699 6.5 -1.5s4.83301 -0.5 7.5 -0.5l14 -2c4.66699 -0.666992 9.33398 -1 14.001 -1h14.5h13.5h12h12h12h13c17.333 0 34.166 0.5 50.499 1.5s31.833 1.83301 46.5 2.5
c15.333 1.33301 27.5 2.66602 36.5 3.99902s15.5 3 19.5 5c3.33301 2 6.83301 6 10.5 12s6.83398 14 9.50098 24c3.33301 10 6.16602 21.5 8.49902 34.5s4.5 26.833 6.5 41.5l35 2c-2 -8.66699 -3.66699 -17.167 -5 -25.5s-2.66602 -17.166 -3.99902 -26.499
c-0.666992 -4.66699 -1.16699 -9.16699 -1.5 -13.5s-0.833008 -8.5 -1.5 -12.5c-0.666992 -4.66699 -1.16699 -9.16699 -1.5 -13.5s-0.5 -8.83301 -0.5 -13.5c0 -2.66699 -0.166992 -5.33398 -0.5 -8.00098s-0.5 -5 -0.5 -7c-0.666992 -2.66699 -1 -5.33398 -1 -8.00098v-8
v-14.5v-13.5h-12h-13h-6.5c-2.33301 0 -4.83301 -0.333008 -7.5 -1h-7.5h-7.5h-13.5c-4.33301 0 -8.83301 -0.333008 -13.5 -1h-14h-15h-14.5c-5 0 -9.83301 -0.333008 -14.5 -1h-15h-15h-7.5h-6.5h-7.5h-6.5h-4.5h-4.5h-5.5h-4.5h-8.5h-9.5
c-3.33301 0.666992 -6.66602 1 -9.99902 1h-10h-8.5h-9.5h-4.5h-4.5h-4.5h-4.5c-10.667 0.666992 -21.5 1.16699 -32.5 1.5s-21.833 0.5 -32.5 0.5h-31h-29h-18h-17c-5.33301 0 -10.666 -0.166992 -15.999 -0.5s-10.666 -0.833008 -15.999 -1.5h-1.5h-1.5h-1.5h-0.5h-4h-4
h-5h-4h-4.5c-1.66699 0 -3.16699 -0.333008 -4.5 -1h-4.5h-4.5v30l36 3c6 -0.666992 11.333 -0.5 16 0.5l12 2.5c3.33301 1.33301 6.16602 2.66602 8.49902 3.99902s4.16602 3.33301 5.49902 6s2.66602 6.16699 3.99902 10.5s2.33301 9.83301 3 16.5s1.16699 14 1.5 22
s0.5 16.667 0.5 26v2v0z" />
    <glyph glyph-name="F" unicode="F" horiz-adv-x="556" 
d="M216 327l0.000976562 -207.005c0 -10.667 0.166992 -20 0.5 -28s0.833008 -15.333 1.5 -22s1.5 -12.167 2.5 -16.5s2.5 -7.83301 4.5 -10.5c1.33301 -2.66699 3.33301 -4.83398 6 -6.50098s5.33398 -3.16699 8.00098 -4.5l12 -2.5c4.66699 -1 10 -1.5 16 -1.5l48 -1v-30
c-12.667 0.666992 -25.334 1.16699 -38.001 1.5s-25 0.5 -37 0.5c-12 0.666992 -23.833 1 -35.5 1h-34.5h-10.5h-10.5h-10.5h-10.5h-13.5c-4.33301 0 -8.5 -0.333008 -12.5 -1h-13.5h-12.5c-8.66699 0 -17.5 -0.166992 -26.5 -0.5s-18.167 -0.833008 -27.5 -1.5v30l48 3
c6 -0.666992 11.333 -0.666992 16 0s8.66699 1.33398 12 2.00098c3.33301 1.33301 6.16602 2.83301 8.49902 4.5s4.16602 3.83398 5.49902 6.50098s2.66602 6.16699 3.99902 10.5s2.33301 9.83301 3 16.5s1.16699 14 1.5 22s0.5 16.667 0.5 26v451
c0 8.66699 -0.166992 16.834 -0.5 24.501s-0.833008 14.834 -1.5 21.501c-0.666992 6 -1.66699 11.333 -3 16s-2.66602 8.33398 -3.99902 11.001s-3.16602 5 -5.49902 7s-5.16602 3.33301 -8.49902 4c-3.33301 1.33301 -7.33301 2.16602 -12 2.49902s-10 0.833008 -16 1.5
l-48 5v30c4.66699 -1.33301 9.33398 -2.16602 14.001 -2.49902s9.33398 -0.5 14.001 -0.5h14h14c9.33301 -0.666992 18.666 -1.16699 27.999 -1.5s18.666 -0.5 27.999 -0.5h28.5h28.5h21.5h22.5h12c4 0 8 0.333008 12 1h12h12h4.5h5.5h4.5c1.66699 0 3.5 0.333008 5.5 1
h28.5h27.5h13.5c4.33301 0 8.5 0.333008 12.5 1h11.5h10.5h16.5h17.5c5.33301 -0.666992 10.833 -1 16.5 -1h16.5c11.333 0 22 -0.166992 32 -0.5s20 -0.833008 30 -1.5c-2 -8 -3.83301 -16 -5.5 -24s-3.16699 -16.333 -4.5 -25
c-0.666992 -4.66699 -1.16699 -9.16699 -1.5 -13.5s-0.833008 -8.5 -1.5 -12.5c0 -4.66699 -0.166992 -9.16699 -0.5 -13.5s-0.5 -8.83301 -0.5 -13.5c-0.666992 -4.66699 -1.16699 -9.16699 -1.5 -13.5s-0.5 -8.5 -0.5 -12.5v-12v-12l-35 2v65
c0 2.66699 -0.166992 5.16699 -0.5 7.5s-0.833008 4.83301 -1.5 7.5s-1.5 4.83398 -2.5 6.50098s-2.5 2.83398 -4.5 3.50098c-6 2 -12 3.83301 -18 5.5s-12.333 3.16699 -19 4.5l-10 2l-10 2c-3.33301 0 -6.66602 0.333008 -9.99902 1l-10 2
c-9.33301 1.33301 -18.5 2.16602 -27.5 2.49902s-17.833 0.5 -26.5 0.5h-13c-4 0 -8 0.333008 -12 1h-10h-10h-6.5h-7.5c-2 -0.666992 -4.16699 -1 -6.5 -1h-7.5c-4.66699 0 -9.33398 -0.166992 -14.001 -0.5s-9.33398 -0.833008 -14.001 -1.5
c-2.66699 -0.666992 -5.16699 -1.16699 -7.5 -1.5s-4.5 -0.5 -6.5 -0.5c-2.66699 -0.666992 -5.16699 -1.16699 -7.5 -1.5s-4.5 -0.833008 -6.5 -1.5v-265c8 -1.33301 16.333 -2.33301 25 -3s17.667 -1 27 -1c9.33301 -0.666992 19.333 -1 30 -1h34
c15.333 0 29 0.333008 41 1s22.333 1.33398 31 2.00098c8.66699 1.33301 15.834 2.5 21.501 3.5s9.83398 2.5 12.501 4.5c1.33301 1.33301 2.33301 2.66602 3 3.99902s1.33398 3 2.00098 5s1.16699 4.5 1.5 7.5s0.833008 6.16699 1.5 9.5l5 54h30v-7v-5
c-0.666992 -2 -1 -3.83301 -1 -5.5v-4.5v-10v-10c-0.666992 -6.66699 -1.16699 -13.334 -1.5 -20.001s-0.5 -13 -0.5 -19v-9v-9v-9.5v-9.5v-4.5v-4.5v-5.5v-4.5v-8.5c0 -3 0.333008 -6.16699 1 -9.5v-9.5v-9.5v-8.5c0 -3 0.333008 -6.16699 1 -9.5v-9.5v-9.5v-4.5
c0 -1.66699 0.333008 -3.16699 1 -4.5v-4.5v-4.5l-30 2l-5 59c-0.666992 2.66699 -1.16699 5.16699 -1.5 7.5s-0.833008 4.5 -1.5 6.5s-1.33398 3.83301 -2.00098 5.5s-1.66699 2.83398 -3 3.50098c-2.66699 2 -6.83398 3.83301 -12.501 5.5
s-12.834 2.83398 -21.501 3.50098c-8.66699 1.33301 -19 2.16602 -31 2.49902s-25.667 0.5 -41 0.5h-17.5h-16.5c-6 -0.666992 -11.5 -1 -16.5 -1h-14.5c-9.33301 0 -18.333 -0.166992 -27 -0.5s-16.667 -0.833008 -24 -1.5v2v0z" />
    <glyph glyph-name="G" unicode="G" horiz-adv-x="763" 
d="M596 98l-0.000976562 100.999c0 4.66699 -0.666992 9 -2 13s-3 7.33301 -5 10c-2.66699 3.33301 -6.16699 5.66602 -10.5 6.99902s-9.83301 2.33301 -16.5 3l-83 9v30c5.33301 -1.33301 10.5 -2.16602 15.5 -2.49902s10.167 -0.5 15.5 -0.5
c4.66699 -0.666992 9.66699 -1 15 -1h15h15.5h15.5h15h15h15.5h15.5h15h15c10 0 20.167 0.166992 30.5 0.5s20.833 0.833008 31.5 1.5l4 -23l-29 -10c-2.66699 -2 -4.83398 -3.83301 -6.50098 -5.5s-2.83398 -3.5 -3.50098 -5.5s-1 -5.33301 -1 -10v-18v-166
c-0.666992 -1.33301 -1.16699 -2.16602 -1.5 -2.49902l-0.5 -0.5c-0.666992 -0.666992 -1.16699 -1 -1.5 -1h-1.5h-1.5h-0.5c-0.666992 -0.666992 -1.16699 -1 -1.5 -1h-1.5c-6.66699 -2 -13.834 -4 -21.501 -6l-22.5 -6l-22.5 -6c-7.66699 -2 -15.167 -3.66699 -22.5 -5
l-44.5 -8l-43.5 -8c-14.667 -2 -28.167 -3.66699 -40.5 -5s-24.166 -2 -35.499 -2c-56 0 -107.667 7.16699 -155 21.5s-90.666 36.5 -129.999 66.5c-39.333 29.333 -68.833 67.166 -88.5 113.499s-29.5 100.833 -29.5 163.5c0 55.333 10 104.833 30 148.5
s50 81.834 90 114.501c40 33.333 85.167 58.166 135.5 74.499s105.833 24.5 166.5 24.5c20 0 39 -0.666992 57 -2s34.667 -3.33301 50 -6l43 -7.5c13.333 -2.33301 26 -5.16602 38 -8.49902c6 -2 11.833 -3.83301 17.5 -5.5l15.5 -4.5l14.5 -3.5
c4.33301 -1 8.5 -2.16699 12.5 -3.5c-2.66699 -10 -5.16699 -20.167 -7.5 -30.5s-4.16602 -21.166 -5.49902 -32.499c-0.666992 -5.33301 -1.5 -10.833 -2.5 -16.5s-1.83301 -11.167 -2.5 -16.5c0 -6 -0.333008 -11.833 -1 -17.5s-1 -11.167 -1 -16.5v-2.5v-2.5v-3v-3v-2.5
v-2.5v-3v-3l-31 2v53c0 10.667 -2 20 -6 28s-9.66699 14.667 -17 20s-15.666 10.333 -24.999 15s-19.666 9 -30.999 13h-0.5c-0.333008 0 -0.5 0.333008 -0.5 1h-1v0h-0.5c-0.333008 0 -0.5 0.333008 -0.5 1h-1v0c-8 2.66699 -16.833 5 -26.5 7s-20.167 4 -31.5 6
c-10.667 1.33301 -23 2.5 -37 3.5s-29 1.5 -45 1.5c-47.333 0 -89 -7.16699 -125 -21.5s-66.333 -35.5 -91 -63.5s-43 -60.167 -55 -96.5s-18 -76.833 -18 -121.5c0 -50 7 -95.5 21 -136.5s35 -77.5 63 -109.5s61.833 -56 101.5 -72s85.167 -24 136.5 -24
c19.333 0 37.166 0.833008 53.499 2.5s30.833 4.5 43.5 8.5c13.333 3.33301 23.5 7 30.5 11s11.167 8.33301 12.5 13v0.5c0 0.333008 0.333008 0.833008 1 1.5v0.5v0.5v0.5c0 0.333008 0.333008 0.833008 1 1.5v0.5v1.5c0.666992 2 1.16699 4 1.5 6s0.5 4.33301 0.5 7v4
c0 1.33301 0.333008 2.66602 1 3.99902v6v7v2v0z" />
    <glyph glyph-name="H" unicode="H" horiz-adv-x="832" 
d="M711 569l-0.000976562 -449.007c0 -10.667 0.166992 -20 0.5 -28s0.833008 -15.333 1.5 -22s1.5 -12.167 2.5 -16.5s2.5 -7.83301 4.5 -10.5c1.33301 -2.66699 3.33301 -4.83398 6 -6.50098s5.33398 -3.16699 8.00098 -4.5l12 -2.5c4.66699 -1 10 -1.5 16 -1.5l48 -1v-30
c-12.667 0.666992 -25.334 1.16699 -38.001 1.5s-25 0.5 -37 0.5c-12 0.666992 -23.833 1 -35.5 1h-34.5h-10.5h-10.5h-10.5h-10.5h-13.5c-4.33301 0 -8.5 -0.333008 -12.5 -1h-13.5h-12.5c-8.66699 0 -17.5 -0.166992 -26.5 -0.5s-18.167 -0.833008 -27.5 -1.5v30l48 3
c6 -0.666992 11.333 -0.666992 16 0s8.66699 1.33398 12 2.00098c3.33301 1.33301 6.16602 2.83301 8.49902 4.5s4.16602 3.83398 5.49902 6.50098s2.66602 6.16699 3.99902 10.5s2.33301 9.83301 3 16.5s1.16699 14 1.5 22s0.5 16.667 0.5 26v225
c-2.66699 -0.666992 -6.5 -1 -11.5 -1h-18.5h-11c-4 0 -8 0.333008 -12 1h-14.5h-15.5l-234 2c-10.667 -1.33301 -20.5 -2.16602 -29.5 -2.49902s-17.167 -0.5 -24.5 -0.5h-9.5h-7.5c-2.66699 -0.666992 -5 -1 -7 -1h-5v-221c0 -10.667 0.166992 -20 0.5 -28
s0.833008 -15.333 1.5 -22s1.5 -12.167 2.5 -16.5s2.5 -7.83301 4.5 -10.5c1.33301 -2.66699 3.33301 -4.83398 6 -6.50098s5.33398 -3.16699 8.00098 -4.5l12 -2.5c4.66699 -1 10 -1.5 16 -1.5l48 -1v-30c-12.667 0.666992 -25.334 1.16699 -38.001 1.5s-25 0.5 -37 0.5
c-12 0.666992 -23.833 1 -35.5 1h-34.5h-10.5h-10.5h-10.5h-10.5h-13.5c-4.33301 0 -8.5 -0.333008 -12.5 -1h-13.5h-12.5c-8.66699 0 -17.5 -0.166992 -26.5 -0.5s-18.167 -0.833008 -27.5 -1.5v30l48 3c6 -0.666992 11.333 -0.666992 16 0s8.66699 1.33398 12 2.00098
c3.33301 1.33301 6.16602 2.83301 8.49902 4.5s4.16602 3.83398 5.49902 6.50098s2.66602 6.16699 3.99902 10.5s2.33301 9.83301 3 16.5s1.16699 14 1.5 22s0.5 16.667 0.5 26v451c0 8.66699 -0.166992 16.834 -0.5 24.501s-0.833008 14.834 -1.5 21.501
c-0.666992 6 -1.66699 11.333 -3 16s-2.66602 8.33398 -3.99902 11.001s-3.16602 5 -5.49902 7s-5.16602 3.33301 -8.49902 4c-3.33301 1.33301 -7.33301 2.16602 -12 2.49902s-10 0.833008 -16 1.5l-48 5v30c9.33301 -1.33301 18.5 -2.33301 27.5 -3s17.833 -1 26.5 -1
h12.5h13.5c4 -0.666992 8.16699 -1 12.5 -1h13.5h10.5h10.5h10.5h10.5h34.5c11.667 0 23.5 0.333008 35.5 1c12 0 24.333 0.166992 37 0.5s25.334 0.833008 38.001 1.5v-28l-48 -3c-2.66699 -1.33301 -5.5 -2.16602 -8.5 -2.49902s-5.5 -0.5 -7.5 -0.5
c-2.66699 -0.666992 -5 -1.16699 -7 -1.5s-3.66699 -0.833008 -5 -1.5c-2.66699 -0.666992 -5.33398 -2 -8.00098 -4s-4.66699 -4.33301 -6 -7c-2 -2.66699 -3.5 -6.33398 -4.5 -11.001s-1.83301 -10 -2.5 -16c-0.666992 -6.66699 -1.16699 -14 -1.5 -22
s-0.5 -16.667 -0.5 -26v-176c3.33301 -1.33301 7.33301 -2.33301 12 -3s10.334 -1 17.001 -1h24.5h29.5l234 2c11.333 -1.33301 21.333 -2 30 -2h23c7.33301 0 13.5 0.166992 18.5 0.5s8.83301 0.833008 11.5 1.5v180c0 8.66699 -0.166992 16.834 -0.5 24.501
s-0.833008 14.834 -1.5 21.501c-0.666992 6 -1.66699 11.333 -3 16s-2.66602 8.33398 -3.99902 11.001s-3.16602 5 -5.49902 7s-5.16602 3.33301 -8.49902 4c-3.33301 1.33301 -7.33301 2.16602 -12 2.49902s-10 0.833008 -16 1.5l-48 5v30
c9.33301 -1.33301 18.5 -2.33301 27.5 -3s17.833 -1 26.5 -1h12.5h13.5c4 -0.666992 8.16699 -1 12.5 -1h13.5h10.5h10.5h10.5h10.5h34.5c11.667 0 23.5 0.333008 35.5 1c12 0 24.333 0.166992 37 0.5s25.334 0.833008 38.001 1.5v-28l-48 -3
c-2.66699 -1.33301 -5.5 -2.16602 -8.5 -2.49902s-5.5 -0.5 -7.5 -0.5c-2.66699 -0.666992 -5 -1.16699 -7 -1.5s-3.66699 -0.833008 -5 -1.5c-2.66699 -0.666992 -5.33398 -2 -8.00098 -4s-4.66699 -4.33301 -6 -7c-2 -2.66699 -3.5 -6.33398 -4.5 -11.001
s-1.83301 -10 -2.5 -16c-0.666992 -6.66699 -1.16699 -14 -1.5 -22s-0.5 -16.667 -0.5 -26v2v0z" />
    <glyph glyph-name="I" unicode="I" horiz-adv-x="337" 
d="M216 569v-449.003c0 -10.667 0.166992 -20 0.5 -28s0.833008 -15.333 1.5 -22s1.5 -12.167 2.5 -16.5s2.5 -7.83301 4.5 -10.5c1.33301 -2.66699 3.33301 -4.83398 6 -6.50098s5.33398 -3.16699 8.00098 -4.5l12 -2.5c4.66699 -1 10 -1.5 16 -1.5l48 -1v-30
c-12.667 0.666992 -25.334 1.16699 -38.001 1.5s-25 0.5 -37 0.5c-12 0.666992 -23.833 1 -35.5 1h-34.5h-10.5h-10.5h-10.5h-10.5h-13.5c-4.33301 0 -8.5 -0.333008 -12.5 -1h-13.5h-12.5c-8.66699 0 -17.5 -0.166992 -26.5 -0.5s-18.167 -0.833008 -27.5 -1.5v30l48 3
c6 -0.666992 11.333 -0.666992 16 0s8.66699 1.33398 12 2.00098c3.33301 1.33301 6.16602 2.83301 8.49902 4.5s4.16602 3.83398 5.49902 6.50098s2.66602 6.16699 3.99902 10.5s2.33301 9.83301 3 16.5s1.16699 14 1.5 22s0.5 16.667 0.5 26v451
c0 8.66699 -0.166992 16.834 -0.5 24.501s-0.833008 14.834 -1.5 21.501c-0.666992 6 -1.66699 11.333 -3 16s-2.66602 8.33398 -3.99902 11.001s-3.16602 5 -5.49902 7s-5.16602 3.33301 -8.49902 4c-3.33301 1.33301 -7.33301 2.16602 -12 2.49902s-10 0.833008 -16 1.5
l-48 5v30c9.33301 -1.33301 18.5 -2.33301 27.5 -3s17.833 -1 26.5 -1h12.5h13.5c4 -0.666992 8.16699 -1 12.5 -1h13.5h10.5h10.5h10.5h10.5h34.5c11.667 0 23.5 0.333008 35.5 1c12 0 24.333 0.166992 37 0.5s25.334 0.833008 38.001 1.5v-28l-48 -3
c-2.66699 -1.33301 -5.5 -2.16602 -8.5 -2.49902s-5.5 -0.5 -7.5 -0.5c-2.66699 -0.666992 -5 -1.16699 -7 -1.5s-3.66699 -0.833008 -5 -1.5c-2.66699 -0.666992 -5.33398 -2 -8.00098 -4s-4.66699 -4.33301 -6 -7c-2 -2.66699 -3.5 -6.33398 -4.5 -11.001
s-1.83301 -10 -2.5 -16c-0.666992 -6.66699 -1.16699 -14 -1.5 -22s-0.5 -16.667 -0.5 -26v2v0z" />
    <glyph glyph-name="J" unicode="J" horiz-adv-x="333" 
d="M212 569l-0.00683594 -452.002v-5v-4v-2.5v-3.5c0 -14 -0.5 -28.667 -1.5 -44s-2.5 -31.333 -4.5 -48c-2 -16 -6.16699 -32.5 -12.5 -49.5s-15.166 -34.167 -26.499 -51.5c-1.33301 -1.33301 -2.66602 -3 -3.99902 -5l-4 -6c-1.33301 -2 -2.83301 -4 -4.5 -6
s-3.16699 -4 -4.5 -6c-8.66699 -10.667 -18.334 -20.667 -29.001 -30s-22 -18 -34 -26s-24.667 -14 -38 -18s-27.333 -6 -42 -6h-2.5h-2.5c-0.666992 0.666992 -1.16699 1 -1.5 1h-1.5h-2h-2c0 0.666992 -0.333008 1 -1 1h-2l-7 76l11 6
c2.66699 -1.33301 5.16699 -2.83301 7.5 -4.5s4.83301 -2.83398 7.5 -3.50098c2 -1.33301 4.33301 -2.5 7 -3.5s5.33398 -1.83301 8.00098 -2.5c3.33301 -1.33301 6.5 -2.16602 9.5 -2.49902s6.16699 -0.833008 9.5 -1.5h4.5c1.66699 0 3.5 -0.333008 5.5 -1h5h6
c5.33301 0 10 0.666992 14 2s8 3.33301 12 6c3.33301 2.66699 6.5 6.16699 9.5 10.5s5.5 9.16602 7.5 14.499c0.666992 2.66699 1.33398 5.83398 2.00098 9.50098s1.33398 7.83398 2.00098 12.501s1.16699 9.16699 1.5 13.5s0.833008 9.16602 1.5 14.499v7.5v7.5v4
c0 1.33301 0.333008 2.33301 1 3v3.5v3.5v586c0 8.66699 -0.166992 16.834 -0.5 24.501s-0.833008 14.834 -1.5 21.501c-0.666992 6 -1.66699 11.333 -3 16s-2.66602 8.33398 -3.99902 11.001s-3.16602 5 -5.49902 7s-5.16602 3.33301 -8.49902 4
c-3.33301 1.33301 -7.33301 2.16602 -12 2.49902s-10 0.833008 -16 1.5l-48 5v30c9.33301 -1.33301 18.5 -2.33301 27.5 -3s17.833 -1 26.5 -1h12.5h13.5c4 -0.666992 8.16699 -1 12.5 -1h13.5h10.5h10.5h10.5h10.5h34.5c11.667 0 23.5 0.333008 35.5 1
c12 0 24.333 0.166992 37 0.5s25.334 0.833008 38.001 1.5v-28l-48 -3c-2.66699 -1.33301 -5.5 -2.16602 -8.5 -2.49902s-5.5 -0.5 -7.5 -0.5c-2.66699 -0.666992 -5 -1.16699 -7 -1.5s-3.66699 -0.833008 -5 -1.5c-2.66699 -0.666992 -5.33398 -2 -8.00098 -4
s-4.66699 -4.33301 -6 -7c-2 -2.66699 -3.5 -6.33398 -4.5 -11.001s-1.83301 -10 -2.5 -16c-0.666992 -6.66699 -1.16699 -14 -1.5 -22s-0.5 -16.667 -0.5 -26v2v0z" />
    <glyph glyph-name="K" unicode="K" horiz-adv-x="726" 
d="M216 325l0.00292969 -205.006c0 -10.667 0.166992 -20 0.5 -28s0.833008 -15.333 1.5 -22s1.5 -12.167 2.5 -16.5s2.5 -7.83301 4.5 -10.5c1.33301 -2.66699 3.33301 -4.83398 6 -6.50098s5.33398 -3.16699 8.00098 -4.5l12 -2.5c4.66699 -1 10 -1.5 16 -1.5l48 -1v-30
c-12.667 0.666992 -25.334 1.16699 -38.001 1.5s-25 0.5 -37 0.5c-12 0.666992 -23.833 1 -35.5 1h-34.5h-10.5h-10.5h-10.5h-10.5h-13.5c-4.33301 0 -8.5 -0.333008 -12.5 -1h-13.5h-12.5c-8.66699 0 -17.5 -0.166992 -26.5 -0.5s-18.167 -0.833008 -27.5 -1.5v30l48 3
c6 -0.666992 11.333 -0.666992 16 0s8.66699 1.33398 12 2.00098c3.33301 1.33301 6.16602 2.83301 8.49902 4.5s4.16602 3.83398 5.49902 6.50098s2.66602 6.16699 3.99902 10.5s2.33301 9.83301 3 16.5s1.16699 14 1.5 22s0.5 16.667 0.5 26v451
c0 8.66699 -0.166992 16.834 -0.5 24.501s-0.833008 14.834 -1.5 21.501c-0.666992 6 -1.66699 11.333 -3 16s-2.66602 8.33398 -3.99902 11.001s-3.16602 5 -5.49902 7s-5.16602 3.33301 -8.49902 4c-3.33301 1.33301 -7.33301 2.16602 -12 2.49902s-10 0.833008 -16 1.5
l-48 5v30c9.33301 -1.33301 18.5 -2.33301 27.5 -3s17.833 -1 26.5 -1h12.5h13.5c4 -0.666992 8.16699 -1 12.5 -1h13.5h10.5h10.5h10.5h10.5h34.5c11.667 0 23.5 0.333008 35.5 1c12 0 24.333 0.166992 37 0.5s25.334 0.833008 38.001 1.5v-28l-48 -3
c-2.66699 -1.33301 -5.5 -2.16602 -8.5 -2.49902s-5.5 -0.5 -7.5 -0.5c-2.66699 -0.666992 -5 -1.16699 -7 -1.5s-3.66699 -0.833008 -5 -1.5c-2.66699 -0.666992 -5.33398 -2 -8.00098 -4s-4.66699 -4.33301 -6 -7c-2 -2.66699 -3.5 -6.33398 -4.5 -11.001
s-1.83301 -10 -2.5 -16c-0.666992 -6.66699 -1.16699 -14 -1.5 -22s-0.5 -16.667 -0.5 -26v-212l278 271c0.666992 -0.666992 1.33398 -0.666992 2.00098 0l2 2c0.666992 0.666992 1.16699 1.33398 1.5 2.00098s0.833008 1.33398 1.5 2.00098
c3.33301 3.33301 6.16602 6.5 8.49902 9.5l6.5 8.5c2 3.33301 3.66699 6 5 8s2 3.66699 2 5v29c2.66699 -1.33301 5.16699 -2.16602 7.5 -2.49902s4.83301 -0.5 7.5 -0.5h8h8c3.33301 -0.666992 6.66602 -1.16699 9.99902 -1.5s6.66602 -0.5 9.99902 -0.5h10.5h10.5h4h4h4.5
h4.5h14h14c4.66699 0 9.16699 0.166992 13.5 0.5s8.83301 0.833008 13.5 1.5h6h6h3.5c1 0 2.16699 0.333008 3.5 1h3h3v-28l-42 -2c-0.666992 -0.666992 -1.66699 -1.16699 -3 -1.5s-2.33301 -0.5 -3 -0.5c-1.33301 -0.666992 -2.5 -1.16699 -3.5 -1.5
s-2.16699 -0.5 -3.5 -0.5c-2.66699 -0.666992 -5 -1.16699 -7 -1.5s-4 -0.833008 -6 -1.5l-13.5 -6c-4.33301 -2 -8.5 -4.33301 -12.5 -7c-4.66699 -2.66699 -9.16699 -5.66699 -13.5 -9s-8.5 -7 -12.5 -11l-266 -238l330 -312c6 -6.66699 12 -12.5 18 -17.5
s11.333 -9.16699 16 -12.5c5.33301 -4 10.166 -7 14.499 -9s8.83301 -3.33301 13.5 -4h21v-30h-2.5h-2.5c-1.33301 0.666992 -2.33301 1 -3 1h-2h-5.5h-4.5c-2.66699 0.666992 -5.5 1.16699 -8.5 1.5s-6.16699 0.5 -9.5 0.5h-8h-8h-2.5h-3.5h-2.5h-3.5h-6h-6h-7h-6h-6
c-2 0 -4 -0.333008 -6 -1c-2.66699 0 -5 -0.166992 -7 -0.5s-4 -0.5 -6 -0.5h-7.5h-6.5h-4c-1.33301 0 -2.33301 -0.333008 -3 -1h-4h-4l-348 335l-10 -7v0v0z" />
    <glyph glyph-name="L" unicode="L" horiz-adv-x="611" 
d="M216 569l-0.00488281 -522c2 -1.33301 4.16699 -2.5 6.5 -3.5s4.83301 -1.5 7.5 -1.5c2 -0.666992 4.16699 -1.16699 6.5 -1.5s4.83301 -0.5 7.5 -0.5l14 -2c4.66699 -0.666992 9.33398 -1 14.001 -1h14.5h13.5h17h19h18.5c6.33301 0 12.833 0.333008 19.5 1
c16.667 0 32.834 0.5 48.501 1.5s30.834 2.16699 45.501 3.5s26.5 3.16602 35.5 5.49902s14.833 4.83301 17.5 7.5c1.33301 1.33301 2.83301 3.16602 4.5 5.49902s2.83398 5.5 3.50098 9.5l2 6l2 6c0 2 0.333008 4 1 6l2 6c0 1.33301 0.166992 2.5 0.5 3.5
s0.833008 2.16699 1.5 3.5c0 0.666992 0.166992 1.66699 0.5 3s0.5 2.33301 0.5 3c0.666992 2 1.16699 4 1.5 6s0.833008 4 1.5 6l12 52h32c-0.666992 -3.33301 -1.16699 -6.66602 -1.5 -9.99902s-0.5 -6.33301 -0.5 -9c-0.666992 -3.33301 -1.16699 -6.5 -1.5 -9.5
s-0.5 -6.16699 -0.5 -9.5l-2 -18l-2 -18c-0.666992 -8.66699 -1.5 -17.5 -2.5 -26.5s-2.16699 -17.833 -3.5 -26.5l-2 -12c-0.666992 -4 -1 -8 -1 -12l-2 -11.5c-0.666992 -3.66699 -1.33398 -6.83398 -2.00098 -9.50098h-12h-13h-6.5
c-2.33301 0 -4.83301 -0.333008 -7.5 -1h-7.5h-7.5h-13.5c-4.33301 0 -8.83301 -0.333008 -13.5 -1h-14h-15h-14.5c-5 0 -9.83301 -0.333008 -14.5 -1h-15h-15h-7.5h-6.5h-7.5h-6.5h-11.5h-10.5c-3.33301 0.666992 -6.83301 1 -10.5 1h-10.5h-20.5h-19.5
c-12.667 0.666992 -24.834 1.16699 -36.501 1.5s-23.167 0.5 -34.5 0.5h-32.5h-31.5h-16.5h-15.5c-4.66699 0 -9.33398 -0.166992 -14.001 -0.5s-9 -0.833008 -13 -1.5h-5.5h-4.5h-4c-1.33301 0 -2.66602 -0.333008 -3.99902 -1h-2h-2h-2h-2v23l31 16
c4 1.33301 7.66699 3.83301 11 7.5s6 8.16699 8 13.5s3.5 11 4.5 17s1.5 12.333 1.5 19v476c0 8.66699 -0.166992 16.834 -0.5 24.501s-0.833008 14.834 -1.5 21.501c-0.666992 6 -1.66699 11.333 -3 16s-2.66602 8.33398 -3.99902 11.001s-3.16602 5 -5.49902 7
s-5.16602 3.33301 -8.49902 4c-3.33301 1.33301 -7.33301 2.16602 -12 2.49902s-10 0.833008 -16 1.5l-48 5v30c9.33301 -1.33301 18.5 -2.33301 27.5 -3s17.833 -1 26.5 -1h12.5h13.5c4 -0.666992 8.16699 -1 12.5 -1h13.5h10.5h10.5h10.5h10.5h34.5
c11.667 0 23.5 0.333008 35.5 1c12 0 24.333 0.166992 37 0.5s25.334 0.833008 38.001 1.5v-28l-48 -3c-2.66699 -1.33301 -5.5 -2.16602 -8.5 -2.49902s-5.5 -0.5 -7.5 -0.5c-2.66699 -0.666992 -5 -1.16699 -7 -1.5s-3.66699 -0.833008 -5 -1.5
c-2.66699 -0.666992 -5.33398 -2 -8.00098 -4s-4.66699 -4.33301 -6 -7c-2 -2.66699 -3.5 -6.33398 -4.5 -11.001s-1.83301 -10 -2.5 -16c-0.666992 -6.66699 -1.16699 -14 -1.5 -22s-0.5 -16.667 -0.5 -26v2v0z" />
    <glyph glyph-name="M" unicode="M" horiz-adv-x="946" 
d="M827 569l0.00292969 -449.003c0 -10.667 0.166992 -20 0.5 -28s0.833008 -15.333 1.5 -22s1.5 -12.167 2.5 -16.5s2.5 -7.83301 4.5 -10.5c1.33301 -2.66699 3.33301 -4.83398 6 -6.50098s5.33398 -3.16699 8.00098 -4.5l12 -2.5c4.66699 -1 10 -1.5 16 -1.5l48 -1v-30
c-12.667 0.666992 -25.334 1.16699 -38.001 1.5s-25 0.5 -37 0.5c-12 0.666992 -23.833 1 -35.5 1h-34.5h-36.5c-11.667 0 -23.167 -0.333008 -34.5 -1c-11.333 0 -22.333 -0.166992 -33 -0.5s-20.667 -0.833008 -30 -1.5v30l34 3c6 -0.666992 11.333 -0.5 16 0.5l12 2.5
c3.33301 1.33301 6.16602 2.66602 8.49902 3.99902s4.16602 3.33301 5.49902 6s2.66602 6.16699 3.99902 10.5s2.33301 9.83301 3 16.5s1.16699 14 1.5 22s0.5 16.667 0.5 26v456h-2c-2 -4.66699 -4 -8.83398 -6 -12.501s-3.66699 -7.16699 -5 -10.5
c-0.666992 -2 -1.5 -3.83301 -2.5 -5.5s-1.83301 -3.16699 -2.5 -4.5c-1.33301 -2 -2.33301 -3.83301 -3 -5.5s-1.66699 -3.16699 -3 -4.5c-2 -3.33301 -3.83301 -6.83301 -5.5 -10.5s-3.16699 -7.16699 -4.5 -10.5c-2 -3.33301 -3.83301 -6.66602 -5.5 -9.99902
s-3.16699 -6.66602 -4.5 -9.99902l-178 -376c-2.66699 -7.33301 -5.5 -14.166 -8.5 -20.499s-5.83301 -12.833 -8.5 -19.5l-8 -19.5l-8 -18.5c-0.666992 -0.666992 -1.16699 -1.33398 -1.5 -2.00098s-0.5 -1.33398 -0.5 -2.00098v-1.5v-0.5
c-0.666992 -0.666992 -1 -1.16699 -1 -1.5v-1.5c-2 -3.33301 -3.66699 -6.66602 -5 -9.99902l-4 -10c-0.666992 -1.33301 -1.16699 -2.5 -1.5 -3.5s-0.833008 -2.16699 -1.5 -3.5s-1.5 -3.16602 -2.5 -5.49902s-2.16699 -4.83301 -3.5 -7.5h-20l-277 587h-2v-454
c0 -10.667 0.166992 -20 0.5 -28s0.833008 -15.333 1.5 -22s1.5 -12.167 2.5 -16.5s2.5 -7.83301 4.5 -10.5c1.33301 -2.66699 3.33301 -4.66699 6 -6l8 -4l12 -2.5c4.66699 -1 10 -1.83301 16 -2.5l44 -1v-30h-6h-5c-2 0.666992 -3.83301 1 -5.5 1h-5.5h-10h-10
c-3.33301 0.666992 -6.66602 1 -9.99902 1h-10h-4.5h-4.5h-5.5h-4.5c-3.33301 0.666992 -6.66602 1 -9.99902 1h-10h-4.5h-4.5h-5.5h-4.5h-9h-9h-9.5h-9.5c-6.66699 0 -13.167 -0.166992 -19.5 -0.5s-12.833 -0.833008 -19.5 -1.5h-10h-10h-5.5
c-1.66699 0 -3.16699 -0.333008 -4.5 -1h-5.5h-4.5v30l44 3c6 -0.666992 11.333 -0.5 16 0.5l12 2.5c3.33301 1.33301 6.16602 2.66602 8.49902 3.99902s4.16602 3.33301 5.49902 6s2.66602 6.16699 3.99902 10.5s2.33301 9.83301 3 16.5s1.16699 14 1.5 22
s0.5 16.667 0.5 26v451c0 8.66699 -0.166992 16.834 -0.5 24.501s-0.833008 14.834 -1.5 21.501c-0.666992 6 -1.66699 11.333 -3 16s-2.66602 8.33398 -3.99902 11.001s-3.16602 5 -5.49902 7s-5.16602 3.33301 -8.49902 4c-3.33301 1.33301 -7.33301 2.16602 -12 2.49902
s-10 0.833008 -16 1.5l-44 5v30c2.66699 -1.33301 5.16699 -2.16602 7.5 -2.49902s4.83301 -0.5 7.5 -0.5h8h8c5.33301 -0.666992 10.666 -1.16699 15.999 -1.5s10.666 -0.5 15.999 -0.5h16h16h16h16c5.33301 0 10.666 0.166992 15.999 0.5s10.666 0.833008 15.999 1.5h7.5
h7.5h4c1.33301 0 2.66602 0.333008 3.99902 1h4h4l264 -554l262 556c2.66699 -1.33301 5.33398 -2.16602 8.00098 -2.49902s5.33398 -0.5 8.00098 -0.5h8h8h2h2c0.666992 -0.666992 1.33398 -1 2.00098 -1h2h4h4h5.5h5.5c2 -0.666992 4 -1 6 -1h6h12h12h16h16h8
c2.66699 0 5.33398 0.333008 8.00098 1c2 0 4.33301 0.166992 7 0.5s5.33398 0.5 8.00098 0.5h7.5h7.5h4c1.33301 0 2.66602 0.333008 3.99902 1h3h4v-28l-42 -3c-2.66699 -1.33301 -5.5 -2.16602 -8.5 -2.49902s-5.5 -0.5 -7.5 -0.5
c-2.66699 -0.666992 -5 -1.16699 -7 -1.5s-3.66699 -0.833008 -5 -1.5c-2.66699 -0.666992 -5.33398 -2 -8.00098 -4s-4.66699 -4.33301 -6 -7c-2 -2.66699 -3.5 -6.33398 -4.5 -11.001s-1.83301 -10 -2.5 -16c-0.666992 -6.66699 -1.16699 -14 -1.5 -22
s-0.5 -16.667 -0.5 -26v2v0z" />
    <glyph glyph-name="N" unicode="N" horiz-adv-x="831" 
d="M112 120v448.995c0 8.66699 -0.166992 16.834 -0.5 24.501s-0.833008 14.834 -1.5 21.501c-0.666992 6 -1.66699 11.333 -3 16s-2.66602 8.33398 -3.99902 11.001s-3.16602 5 -5.49902 7s-5.16602 3.33301 -8.49902 4c-3.33301 1.33301 -7.33301 2.16602 -12 2.49902
s-10 0.833008 -16 1.5l-44 5v30c3.33301 -1.33301 6.83301 -2.16602 10.5 -2.49902s7.16699 -0.5 10.5 -0.5h10.5h11.5c6.66699 -0.666992 13.167 -1.16699 19.5 -1.5s12.833 -0.5 19.5 -0.5h19.5h18.5h9.5h8.5c3.33301 0 6.5 0.166992 9.5 0.5s5.83301 0.833008 8.5 1.5
h4.5h4.5h2c0.666992 0 1.66699 0.333008 3 1h2h2l478 -588h3v467c0 8.66699 -0.166992 16.834 -0.5 24.501s-0.833008 14.834 -1.5 21.501c-0.666992 6 -1.66699 11.333 -3 16s-2.66602 8.33398 -3.99902 11.001s-3.16602 5 -5.49902 7s-5.16602 3.33301 -8.49902 4
c-3.33301 1.33301 -7.33301 2.16602 -12 2.49902s-10 0.833008 -16 1.5l-44 5v30c3.33301 -1.33301 6.66602 -2.16602 9.99902 -2.49902s6.66602 -0.5 9.99902 -0.5h10h10c6.66699 -0.666992 13.167 -1.16699 19.5 -1.5s12.833 -0.5 19.5 -0.5h9.5h9.5h9h9h4.5h5.5h4.5h4.5
h10c3.33301 0 6.66602 0.333008 9.99902 1h4.5h5.5h4.5h4.5h10c3.33301 0 6.66602 0.333008 9.99902 1h10h10h5.5c1.66699 0 3.5 0.333008 5.5 1h5h6v-28l-44 -3c-2.66699 -1.33301 -5.5 -2.16602 -8.5 -2.49902s-5.5 -0.5 -7.5 -0.5
c-2.66699 -0.666992 -5 -1.16699 -7 -1.5s-3.66699 -0.833008 -5 -1.5c-2.66699 -0.666992 -5.33398 -2 -8.00098 -4s-4.66699 -4.33301 -6 -7c-2 -2.66699 -3.5 -6.33398 -4.5 -11.001s-1.83301 -10 -2.5 -16c-0.666992 -6.66699 -1.16699 -14 -1.5 -22
s-0.5 -16.667 -0.5 -26v-550v-6.5v-4.5v-2.5c0 -1 0.333008 -1.83301 1 -2.5v-1.5v-1.5v-0.5v-1.5v-0.5c0 -0.333008 0.333008 -0.833008 1 -1.5v-0.5v-1.5v-3.5v-2.5v-1.5c0 -0.333008 0.333008 -0.833008 1 -1.5v-1.5v-1.5l-90 16l-471 585h-2v-461
c0 -10.667 0.166992 -20 0.5 -28s0.833008 -15.333 1.5 -22s1.5 -12.167 2.5 -16.5s2.5 -7.83301 4.5 -10.5c1.33301 -2.66699 3.33301 -4.66699 6 -6l8 -4l12 -2.5c4.66699 -1 10 -1.83301 16 -2.5l44 -1v-30h-6h-5c-2 0.666992 -3.83301 1 -5.5 1h-5.5h-10h-10
c-3.33301 0.666992 -6.66602 1 -9.99902 1h-10h-4.5h-4.5h-5.5h-4.5c-3.33301 0.666992 -6.66602 1 -9.99902 1h-10h-4.5h-4.5h-5.5h-4.5h-9h-9h-9.5h-9.5c-6.66699 0 -13.167 -0.166992 -19.5 -0.5s-12.833 -0.833008 -19.5 -1.5h-10h-10h-5.5
c-1.66699 0 -3.16699 -0.333008 -4.5 -1h-5.5h-4.5v30l44 3c6 -0.666992 11.333 -0.5 16 0.5l12 2.5c3.33301 1.33301 6.16602 2.66602 8.49902 3.99902s4.16602 3.33301 5.49902 6s2.66602 6.16699 3.99902 10.5s2.33301 9.83301 3 16.5s1.16699 14 1.5 22
s0.5 16.667 0.5 26v2v0z" />
    <glyph glyph-name="O" unicode="O" horiz-adv-x="786" 
d="M377 -20c-50.667 0 -97.167 7.83203 -139.5 23.499s-80.5 39.834 -114.5 72.501s-59.333 71.167 -76 115.5s-25 94.5 -25 150.5c0 51.333 8.33301 98.833 25 142.5s42 82.834 76 117.501c33.333 35.333 73 61.666 119 78.999s98 26 156 26c53.333 0 102 -7.33301 146 -22
s83 -36.667 117 -66c34 -28.667 59.667 -64.334 77 -107.001s26 -91.667 26 -147c0 -54 -9.33301 -103.833 -28 -149.5s-46.667 -87.167 -84 -124.5c-36.667 -37.333 -78 -65.166 -124 -83.499s-96.333 -27.5 -151 -27.5v0v0zM382 666.999
c-43.333 -1.33301 -81 -8.83301 -113 -22.5s-58.333 -34.167 -79 -61.5c-20.667 -26.667 -36 -57 -46 -91s-15 -71.667 -15 -113v-6v-6v-3v-3c0 -1.33301 0.166992 -2.5 0.5 -3.5s0.5 -2.16699 0.5 -3.5c1.33301 -42 8 -82 20 -120s29 -74.667 51 -110
c22 -34.667 50.333 -60.667 85 -78s75.667 -26 123 -26c41.333 0 77.5 7.33301 108.5 22s56.833 36.667 77.5 66s36.167 62.833 46.5 100.5s15.5 79.5 15.5 125.5c0 49.333 -5.66699 94 -17 134s-28.333 75.333 -51 106c-22.667 30 -51.167 52.667 -85.5 68
s-74.833 23 -121.5 23v2v0z" />
    <glyph glyph-name="P" unicode="P" horiz-adv-x="604" 
d="M216 642v-522.003c0 -10.667 0.166992 -20 0.5 -28s0.833008 -15.333 1.5 -22s1.5 -12.167 2.5 -16.5s2.5 -7.83301 4.5 -10.5c1.33301 -2.66699 3.33301 -4.83398 6 -6.50098s5.33398 -3.16699 8.00098 -4.5l12 -2.5c4.66699 -1 10 -1.5 16 -1.5l48 -1v-30
c-12.667 0.666992 -25.334 1.16699 -38.001 1.5s-25 0.5 -37 0.5c-12 0.666992 -23.833 1 -35.5 1h-34.5h-10.5h-10.5h-10.5h-10.5h-13.5c-4.33301 0 -8.5 -0.333008 -12.5 -1h-13.5h-12.5c-8.66699 0 -17.5 -0.166992 -26.5 -0.5s-18.167 -0.833008 -27.5 -1.5v30l48 3
c6 -0.666992 11.333 -0.666992 16 0s8.66699 1.33398 12 2.00098c3.33301 1.33301 6.16602 2.83301 8.49902 4.5s4.16602 3.83398 5.49902 6.50098s2.66602 6.16699 3.99902 10.5s2.33301 9.83301 3 16.5s1.16699 14 1.5 22s0.5 16.667 0.5 26v451
c0 7.33301 -0.166992 14.833 -0.5 22.5s-1.16602 14.834 -2.49902 21.501c-0.666992 6.66699 -1.66699 12.167 -3 16.5s-2.66602 7.83301 -3.99902 10.5c-2 2.66699 -4.16699 5 -6.5 7s-5.16602 3.66699 -8.49902 5c-2.66699 1.33301 -6.5 2.33301 -11.5 3
s-10.5 1.33398 -16.5 2.00098l-45 5v30c5.33301 -1.33301 10.833 -2.16602 16.5 -2.49902s10.834 -0.5 15.501 -0.5h8h8h7h8c10 -0.666992 20 -1.16699 30 -1.5s20 -0.5 30 -0.5h28.5h28.5h28.5h29.5c9.33301 0 18.833 0.166992 28.5 0.5s19.167 0.833008 28.5 1.5h14h14
h6.5c2.33301 0 4.83301 0.333008 7.5 1h6.5h6.5h0.5h1.5h0.5h1.5v0h1h0.5h1.5h4.5h5.5h2.5h2.5c1.33301 -0.666992 2.5 -1 3.5 -1h2.5c22 -1.33301 43.333 -5.33301 64 -12s40.334 -16 59.001 -28s32.667 -27.333 42 -46s14 -40.667 14 -66c0 -31.333 -6 -60 -18 -86
s-29.667 -49 -53 -69s-49 -35 -77 -45s-58.667 -15 -92 -15h-14.5c-5 0 -10.167 0.333008 -15.5 1c-4.66699 0.666992 -9.5 1.5 -14.5 2.5s-10.167 1.83301 -15.5 2.5l-10 38c5.33301 -2.66699 10.833 -4.66699 16.5 -6l16.5 -4
c5.33301 -0.666992 10.833 -1.16699 16.5 -1.5s11.167 -0.5 16.5 -0.5c20 0 38.5 3.5 55.5 10.5s32.5 17.5 46.5 31.5s24.5 30 31.5 48s10.5 37.667 10.5 59c0 26 -3.66699 48.333 -11 67s-18.333 34 -33 46s-31.834 21 -51.501 27s-41.834 9 -66.501 9
c-11.333 0 -21.833 -0.333008 -31.5 -1s-18.5 -1.66699 -26.5 -3c-8 -0.666992 -15.5 -1.83398 -22.5 -3.50098s-14.167 -3.16699 -21.5 -4.5v2v0z" />
    <glyph glyph-name="Q" unicode="Q" horiz-adv-x="786" 
d="M398 709c53.333 -1.33301 101.997 -9.33594 145.997 -24.0029s83 -36.667 117 -66c34 -28.667 59.667 -64.334 77 -107.001s26 -91.667 26 -147c0 -52 -8.66699 -100.167 -26 -144.5s-43.666 -85.166 -78.999 -122.499c-34.667 -37.333 -73 -65.5 -115 -84.5
s-87.333 -29.5 -136 -31.5v-2c10 -1.33301 20 -3 30 -5s19.667 -4.66699 29 -8c4.66699 -2 9.33398 -3.83301 14.001 -5.5s9.33398 -3.5 14.001 -5.5c4 -2 8.33301 -4 13 -6l14 -6h0.5h1.5c0.666992 0 1.16699 -0.166992 1.5 -0.5l1.5 -1.5
c2.66699 -1.33301 5.16699 -2.5 7.5 -3.5s4.83301 -1.83301 7.5 -2.5c2 -1.33301 4.16699 -2.5 6.5 -3.5s4.83301 -1.83301 7.5 -2.5c12 -5.33301 24 -10 36 -14s23.333 -7.33301 34 -10l16.5 -4c5.66699 -1.33301 11.5 -2.33301 17.5 -3l16.5 -2l16.5 -2h4h4h4h4
c4.66699 0 9.16699 0.166992 13.5 0.5s8.83301 0.833008 13.5 1.5s9.33398 1.16699 14.001 1.5s9.33398 1.16602 14.001 2.49902v-21l-84 -56l-12 2c-4 0.666992 -8 1.66699 -12 3c-4.66699 0.666992 -9 1.33398 -13 2.00098s-8 1.66699 -12 3
c-8.66699 2 -17.667 4.33301 -27 7l-30 9l-148 46c-8.66699 2.66699 -16.667 4.83398 -24 6.50098l-20 4.5c-6.66699 1.33301 -13 2.33301 -19 3s-11.667 1 -17 1c-2.66699 0 -5.33398 -0.166992 -8.00098 -0.5s-5 -0.833008 -7 -1.5c-2 -1.33301 -4 -2.5 -6 -3.5l-5 -2.5
l-59 -32l2 32l34 26c10.667 8 21 15.333 31 22s18.667 12 26 16s13.333 6.66699 18 8l11 4v2h-6c-52.667 0 -100.334 7.83301 -143.001 23.5s-80.667 39.834 -114 72.501c-32.667 32 -57.167 70.5 -73.5 115.5s-24.5 96.167 -24.5 153.5c0 51.333 8.33301 98.333 25 141
s42 81.334 76 116.001c33.333 34.667 73 60.667 119 78s98 26 156 26v2v0zM381.997 666.997c-43.333 -1.33301 -81 -8.83398 -113 -22.501s-58.333 -34.167 -79 -61.5c-20.667 -26.667 -36 -57 -46 -91s-15 -71.667 -15 -113v-2.5v-2.5v-3v-3v-6v-5
c1.33301 -42 8 -82.167 20 -120.5s29 -75.166 51 -110.499c22 -34.667 50.5 -60.834 85.5 -78.501s76.167 -26.5 123.5 -26.5c43.333 0 80.833 7.33301 112.5 22s57.167 36.334 76.5 65.001c19.333 29.333 34 62.833 44 100.5s15 79.5 15 125.5
c0 49.333 -5.66699 94 -17 134s-28.333 75.333 -51 106c-22.667 30 -51.167 52.667 -85.5 68s-74.833 23 -121.5 23v2v0z" />
    <glyph glyph-name="R" unicode="R" horiz-adv-x="668" 
d="M216 642l0.00292969 -522.007c0 -10.667 0.166992 -20 0.5 -28s0.833008 -15.333 1.5 -22s1.5 -12.167 2.5 -16.5s2.5 -7.83301 4.5 -10.5c1.33301 -2.66699 3.33301 -4.83398 6 -6.50098s5.33398 -3.16699 8.00098 -4.5l12 -2.5c4.66699 -1 10 -1.5 16 -1.5l48 -1v-30
c-12.667 0.666992 -25.334 1.16699 -38.001 1.5s-25 0.5 -37 0.5c-12 0.666992 -23.833 1 -35.5 1h-34.5h-10.5h-10.5h-10.5h-10.5h-13.5c-4.33301 0 -8.5 -0.333008 -12.5 -1h-13.5h-12.5c-8.66699 0 -17.5 -0.166992 -26.5 -0.5s-18.167 -0.833008 -27.5 -1.5v30l48 3
c6 -0.666992 11.333 -0.666992 16 0s8.66699 1.33398 12 2.00098c3.33301 1.33301 6.16602 2.83301 8.49902 4.5s4.16602 3.83398 5.49902 6.50098s2.66602 6.16699 3.99902 10.5s2.33301 9.83301 3 16.5s1.16699 14 1.5 22s0.5 16.667 0.5 26v451
c0 8.66699 -0.166992 16.834 -0.5 24.501s-0.833008 14.834 -1.5 21.501c-0.666992 6 -1.66699 11.333 -3 16s-2.66602 8.33398 -3.99902 11.001s-3.16602 5 -5.49902 7s-5.16602 3.33301 -8.49902 4c-3.33301 1.33301 -7.33301 2.16602 -12 2.49902s-10 0.833008 -16 1.5
l-41 5v30c4 -1.33301 8.33301 -2.16602 13 -2.49902s9.33398 -0.5 14.001 -0.5h14h14c9.33301 -0.666992 18.5 -1.16699 27.5 -1.5s18.5 -0.5 28.5 -0.5h15h15h14.5h14.5h15h15h14.5h14.5c9.33301 0 18.833 0.166992 28.5 0.5s19.5 0.833008 29.5 1.5h14.5h14.5h7.5
c2.33301 0 4.83301 0.333008 7.5 1h6.5h7.5h2h2h1.5h1.5h0.5h1.5c34.667 0 64 -3.5 88 -10.5s43 -17.167 57 -30.5c13.333 -13.333 24 -27.5 32 -42.5s13 -30.5 15 -46.5v-5.5v-4.5v-2.5c0 -1 0.333008 -1.83301 1 -2.5v-3v-2c0 -26.667 -5 -51 -15 -73s-25 -41 -45 -57
s-41 -29.167 -63 -39.5s-45 -17.833 -69 -22.5c-0.666992 -0.666992 -1.16699 -1 -1.5 -1h-0.5v0v0h-1v0l227 -294c3.33301 -6 7.33301 -10.833 12 -14.5s9.66699 -6.16699 15 -7.5s10.833 -2.5 16.5 -3.5s11.5 -1.83301 17.5 -2.5v-28h-3h-3
c-1.33301 0.666992 -2.5 1 -3.5 1h-3.5h-6h-6c-4 0.666992 -8 1.16699 -12 1.5s-8 0.5 -12 0.5h-6h-5h-6h-6h-8.5h-9.5h-4c-1.33301 0 -2.66602 -0.333008 -3.99902 -1h-4h-4h-2.5h-3.5h-1.5c-0.333008 0 -0.5 -0.333008 -0.5 -1h-1.5h-1.5h-6h-6h-2.5
c-1 0 -1.83301 -0.333008 -2.5 -1h-3h-3l-5.5 5.5c-1.66699 1.66699 -3.16699 3.83398 -4.5 6.50098c-0.666992 1.33301 -1.5 2.5 -2.5 3.5s-1.83301 2.16699 -2.5 3.5c-1.33301 0.666992 -2.33301 1.66699 -3 3s-1.33398 2.33301 -2.00098 3l-1.5 1.5
c-0.333008 0.333008 -0.5 0.833008 -0.5 1.5c-0.666992 0 -1.16699 0.166992 -1.5 0.5s-0.5 0.833008 -0.5 1.5l-2 2c-0.666992 0.666992 -1 1.33398 -1 2.00098c-1.33301 1.33301 -2.66602 2.83301 -3.99902 4.5s-2.66602 3.16699 -3.99902 4.5
c-0.666992 1.33301 -1.5 2.83301 -2.5 4.5s-2.16699 3.16699 -3.5 4.5l-184 249c-2.66699 2.66699 -5.16699 5.5 -7.5 8.5s-4.83301 5.83301 -7.5 8.5c-2.66699 3.33301 -5.33398 6.5 -8.00098 9.5s-5.33398 5.83301 -8.00098 8.5c-0.666992 1.33301 -1.5 2.5 -2.5 3.5
s-1.83301 2.16699 -2.5 3.5c-1.33301 0.666992 -2.33301 1.66699 -3 3s-1.66699 2.33301 -3 3c-2 2 -3.83301 4 -5.5 6s-3.16699 4 -4.5 6l6 14c2 -1.33301 4.16699 -2.16602 6.5 -2.49902s4.83301 -0.5 7.5 -0.5h6.5h7.5h10h10c3.33301 0 6.66602 0.166992 9.99902 0.5
s6.66602 0.833008 9.99902 1.5h2c0.666992 0 1.66699 0.333008 3 1h2.5h2.5c1.33301 0 2.83301 0.166992 4.5 0.5s3.5 0.833008 5.5 1.5c17.333 3.33301 33.666 8.83301 48.999 16.5s29.333 17.834 42 30.501c13.333 12.667 23.166 26.667 29.499 42s9.5 32.333 9.5 51
c0 26 -4 48 -12 66s-20 32 -36 42c-16 9.33301 -32.5 16.5 -49.5 21.5s-35.167 7.83301 -54.5 8.5h-2h-2h-1.5h-0.5c-11.333 0 -21.833 -0.333008 -31.5 -1s-18.5 -1.66699 -26.5 -3c-8 -0.666992 -15.5 -1.83398 -22.5 -3.50098s-14.167 -3.16699 -21.5 -4.5v2v0z" />
    <glyph glyph-name="S" unicode="S" horiz-adv-x="525" 
d="M447 526l-32.002 0.00195312l-6 57c-0.666992 2.66699 -1.16699 5.5 -1.5 8.5s-1.16602 5.83301 -2.49902 8.5c-0.666992 3.33301 -1.66699 6.16602 -3 8.49902s-3 4.83301 -5 7.5l-6 6c-2 2 -4.33301 4 -7 6s-5.5 4 -8.5 6l-10.5 7c-6 3.33301 -12.333 6.33301 -19 9
s-14 5 -22 7c-4 1.33301 -8 2.33301 -12 3s-7.66699 1.33398 -11 2.00098c-4 0 -8 0.333008 -12 1s-8 1 -12 1h-2.5c-1 0 -1.83301 0.333008 -2.5 1h-3h-3h-5.5h-4.5h-2.5h-2.5c-1.33301 -0.666992 -2.33301 -1 -3 -1h-2h-5.5h-4.5c-16 -2 -31.333 -6.5 -46 -13.5
s-28.667 -16.5 -42 -28.5s-23.333 -26.667 -30 -44s-10 -37 -10 -59c0 -16.667 2.83301 -32 8.5 -46s14.5 -26 26.5 -36c12 -10.667 28.833 -19.5 50.5 -26.5s48.167 -12.167 79.5 -15.5c35.333 -4 67 -9.66699 95 -17s52.333 -16.666 73 -27.999
c20.667 -10.667 36.167 -26 46.5 -46s15.5 -44.333 15.5 -73c0 -42 -7.66699 -78.5 -23 -109.5s-38 -56.833 -68 -77.5c-30.667 -20.667 -62.667 -36.334 -96 -47.001s-68 -16.334 -104 -17.001h-1.5h-0.5h-1.5h-1.5h-2.5h-3.5c-14 0 -27.5 0.666992 -40.5 2
s-26.167 3.66602 -39.5 6.99902c-6.66699 1.33301 -12.834 2.66602 -18.501 3.99902l-16.5 4c-6 2 -11.333 3.5 -16 4.5s-9.33398 2.16699 -14.001 3.5c-1.33301 0.666992 -2.66602 1.16699 -3.99902 1.5s-2.66602 0.833008 -3.99902 1.5c-1.33301 0 -2.5 0.166992 -3.5 0.5
s-2.16699 0.833008 -3.5 1.5c-2 1.33301 -4 2.5 -6 3.5l-5 2.5c0.666992 3.33301 1.16699 6.66602 1.5 9.99902s0.833008 6.66602 1.5 9.99902v4.5c0 1.66699 0.333008 3.5 1 5.5c0 1.33301 0.166992 2.83301 0.5 4.5s0.5 3.16699 0.5 4.5
c0 6.66699 0.166992 13.334 0.5 20.001s0.833008 13.334 1.5 20.001v19.5v18.5v9.5v8.5v9.5v8.5l32 2l8 -67c1.33301 -11.333 6.5 -21.833 15.5 -31.5s21.833 -18.5 38.5 -26.5s34 -14 52 -18s37 -6 57 -6c22.667 0 44.167 3.33301 64.5 10s39.833 16.667 58.5 30
s32.667 29.5 42 48.5s14 40.833 14 65.5c0 23.333 -4.16699 43.333 -12.5 60s-20.833 29.334 -37.5 38.001c-16.667 9.33301 -35.5 17 -56.5 23s-44.167 10.333 -69.5 13c-39.333 4.66699 -73 11.5 -101 20.5s-50.667 19.833 -68 32.5
c-16.667 13.333 -29.167 29.833 -37.5 49.5s-12.5 42.5 -12.5 68.5c0 34.667 5.66699 65.167 17 91.5s28.333 48.5 51 66.5s46.5 32.5 71.5 43.5s51.167 18.5 78.5 22.5h4.5c1.66699 0 3.16699 0.333008 4.5 1h4.5h5.5h4.5c1.66699 0 3.5 0.333008 5.5 1h4.5h4.5
c14 0 27.5 -0.666992 40.5 -2s25.5 -3.66602 37.5 -6.99902c12 -2.66699 23.333 -5.5 34 -8.5s20.667 -6.16699 30 -9.5l10.5 -4c3.66699 -1.33301 6.83398 -2.66602 9.50098 -3.99902c1.33301 -0.666992 2.83301 -1.33398 4.5 -2.00098s3.5 -1.33398 5.5 -2.00098
c1.33301 -0.666992 2.83301 -1.16699 4.5 -1.5s3.16699 -0.833008 4.5 -1.5c-2 -8.66699 -3.5 -17 -4.5 -25s-2.16699 -16 -3.5 -24c-0.666992 -8 -1.5 -15.833 -2.5 -23.5s-1.83301 -15.167 -2.5 -22.5v-6v-5c-0.666992 -2 -1 -4 -1 -6v-6v-6v-5v-6v-6v2v0z" />
    <glyph glyph-name="T" unicode="T" horiz-adv-x="613" 
d="M259 120l0.00292969 422.998v12.5v13.5c-0.666992 4 -1 8.16699 -1 12.5v12.5c-0.666992 8 -1.16699 16 -1.5 24s-0.833008 15.667 -1.5 23l-155 2c-7.33301 -1.33301 -13.5 -2.66602 -18.5 -3.99902s-8.83301 -3.33301 -11.5 -6s-4.83398 -6 -6.50098 -10
s-2.83398 -9 -3.50098 -15l-4 -77h-31v8.5v9.5v10v11c-0.666992 10 -1.16699 20 -1.5 30s-0.833008 20 -1.5 30s-1.16699 20 -1.5 30s-1.16602 20 -2.49902 30h13.5h13.5c4.66699 -0.666992 9.16699 -1 13.5 -1h13.5h27.5h26.5c9.33301 -0.666992 18.5 -1.16699 27.5 -1.5
s17.833 -0.5 26.5 -0.5h27.5h26.5l145 2c9.33301 -1.33301 18.5 -2 27.5 -2h26.5c9.33301 0 18.5 0.166992 27.5 0.5s17.833 0.833008 26.5 1.5h27.5h26.5h13.5c4.33301 0 8.83301 0.333008 13.5 1h13.5h13.5c-0.666992 -10 -1.5 -20 -2.5 -30s-1.83301 -20 -2.5 -30
s-1.16699 -20 -1.5 -30s-0.5 -20 -0.5 -30v-11v-10v-10v-10l-31 2l-4 79c-0.666992 4.66699 -1.66699 9 -3 13s-3.33301 7.33301 -6 10s-6.66699 4.66699 -12 6s-11.666 2 -18.999 2l-155 2l-2 -25c-0.666992 -8 -1 -16 -1 -24c-0.666992 -8 -1 -16.5 -1 -25.5v-27.5v-421
c0 -10.667 0.166992 -20 0.5 -28s0.833008 -15.333 1.5 -22s1.5 -12.167 2.5 -16.5s2.5 -7.83301 4.5 -10.5c1.33301 -2.66699 3.33301 -4.83398 6 -6.50098s5.33398 -3.16699 8.00098 -4.5l12 -2.5c4.66699 -1 10 -1.5 16 -1.5l48 -1v-30
c-12.667 0.666992 -25.334 1.16699 -38.001 1.5s-25 0.5 -37 0.5c-12 0.666992 -23.833 1 -35.5 1h-34.5h-10.5h-10.5h-10.5h-10.5h-13.5c-4.33301 0 -8.5 -0.333008 -12.5 -1h-13.5h-12.5c-8.66699 0 -17.5 -0.166992 -26.5 -0.5s-18.167 -0.833008 -27.5 -1.5v30l48 3
c6 -0.666992 11.333 -0.666992 16 0s8.66699 1.33398 12 2.00098c3.33301 1.33301 6.16602 2.83301 8.49902 4.5s4.16602 3.83398 5.49902 6.50098s2.66602 6.16699 3.99902 10.5s2.33301 9.83301 3 16.5s1.16699 14 1.5 22s0.5 16.667 0.5 26v2v0z" />
    <glyph glyph-name="U" unicode="U" horiz-adv-x="778" 
d="M111 214l-0.00195312 354.994c0 8.66699 -0.166992 16.834 -0.5 24.501s-0.833008 14.834 -1.5 21.501c-0.666992 6 -1.66699 11.333 -3 16s-2.66602 8.33398 -3.99902 11.001s-3.16602 5 -5.49902 7s-5.16602 3.33301 -8.49902 4
c-3.33301 1.33301 -7.33301 2.16602 -12 2.49902s-10 0.833008 -16 1.5l-48 5v30c9.33301 -1.33301 18.5 -2.33301 27.5 -3s17.833 -1 26.5 -1h12.5h13.5c4 -0.666992 8.16699 -1 12.5 -1h13.5h10.5h10.5h10.5h10.5h34.5c11.667 0 23.5 0.333008 35.5 1
c12 0 24.333 0.166992 37 0.5s25.334 0.833008 38.001 1.5v-28l-48 -3c-2.66699 -1.33301 -5.5 -2.16602 -8.5 -2.49902s-5.5 -0.5 -7.5 -0.5c-2.66699 -0.666992 -5 -1.16699 -7 -1.5s-3.66699 -0.833008 -5 -1.5c-2.66699 -0.666992 -5.33398 -2 -8.00098 -4
s-4.66699 -4.33301 -6 -7c-2 -2.66699 -3.5 -6.33398 -4.5 -11.001s-1.83301 -10 -2.5 -16c-0.666992 -6.66699 -1.16699 -14 -1.5 -22s-0.5 -16.667 -0.5 -26v-342c0 -36.667 4.33301 -67 13 -91s22 -42.667 40 -56c18 -12.667 39.833 -22.167 65.5 -28.5
s54.834 -9.5 87.501 -9.5c27.333 0 52.833 3.33301 76.5 10s45.834 17 66.501 31c21.333 14 37.166 34.833 47.499 62.5s15.5 62.167 15.5 103.5v322c0 8.66699 -0.166992 16.834 -0.5 24.501s-0.833008 14.834 -1.5 21.501c-0.666992 6 -1.66699 11.333 -3 16
s-2.66602 8.33398 -3.99902 11.001s-3.16602 5 -5.49902 7s-5.16602 3.33301 -8.49902 4c-3.33301 1.33301 -7.33301 2.16602 -12 2.49902s-10 0.833008 -16 1.5l-44 5v30c3.33301 -1.33301 6.66602 -2.16602 9.99902 -2.49902s6.66602 -0.5 9.99902 -0.5h10h10
c6.66699 -0.666992 13.167 -1.16699 19.5 -1.5s12.833 -0.5 19.5 -0.5h9.5h9.5h9h9h4.5h5.5h4.5h4.5h10c3.33301 0 6.66602 0.333008 9.99902 1h4.5h5.5h4.5h4.5h10c3.33301 0 6.66602 0.333008 9.99902 1h10h10h5.5c1.66699 0 3.5 0.333008 5.5 1h5h6v-28l-44 -3
c-2.66699 -1.33301 -5.5 -2.16602 -8.5 -2.49902s-5.5 -0.5 -7.5 -0.5c-2.66699 -0.666992 -5 -1.16699 -7 -1.5s-3.66699 -0.833008 -5 -1.5c-2.66699 -0.666992 -5.33398 -2 -8.00098 -4s-4.66699 -4.33301 -6 -7c-2 -2.66699 -3.5 -6.33398 -4.5 -11.001
s-1.83301 -10 -2.5 -16c-0.666992 -6.66699 -1.16699 -14 -1.5 -22s-0.5 -16.667 -0.5 -26v-287c0 -54.667 -5.5 -101.167 -16.5 -139.5s-27.5 -69.166 -49.5 -92.499c-22 -22.667 -51 -39.667 -87 -51s-79.333 -17 -130 -17c-42.667 0 -80.5 3.83301 -113.5 11.5
s-61.5 19.5 -85.5 35.5s-41.833 39.333 -53.5 70s-17.5 69 -17.5 115v2v0z" />
    <glyph glyph-name="V" unicode="V" horiz-adv-x="722" 
d="M188 628l197.014 -507.001l183 473c1.33301 2.66699 2.66602 5.66699 3.99902 9s2.33301 6.33301 3 9c0.666992 3.33301 1.16699 6.16602 1.5 8.49902s0.5 4.83301 0.5 7.5c-0.666992 5.33301 -1.83398 9.83301 -3.50098 13.5s-4.16699 6.5 -7.5 8.5s-7 3.5 -11 4.5
s-8.33301 1.83301 -13 2.5l-52 5v30c3.33301 -1.33301 6.5 -2.16602 9.5 -2.49902s5.83301 -0.5 8.5 -0.5h9.5h8.5c6 -0.666992 12 -1.16699 18 -1.5s12 -0.5 18 -0.5h18h18h18h18c6 0 12 0.166992 18 0.5s12 0.833008 18 1.5h9.5h8.5h4.5c1.66699 0 3.16699 0.333008 4.5 1
h4.5h4.5v-28l-30 -3l-8 -4c-2.66699 -1.33301 -5 -2.66602 -7 -3.99902c-2.66699 -2 -5.16699 -4.16699 -7.5 -6.5s-4.5 -5.16602 -6.5 -8.49902c-2 -2.66699 -4 -6 -6 -10l-6 -12c-0.666992 -2 -1.66699 -4.16699 -3 -6.5s-2.33301 -4.5 -3 -6.5
c-1.33301 -2.66699 -2.5 -5.33398 -3.5 -8.00098s-2.16699 -5.33398 -3.5 -8.00098l-174 -419l-17.5 -45l-16.5 -43l-15.5 -43.5l-14.5 -43.5h-50c-2.66699 10 -5.83398 20.333 -9.50098 31l-10.5 32l-6 16c-2 5.33301 -3.66699 10.333 -5 15l-6 16
c-2 5.33301 -4 10.333 -6 15c-0.666992 1.33301 -1.33398 2.83301 -2.00098 4.5s-1.33398 3.5 -2.00098 5.5c-0.666992 1.33301 -1.33398 2.83301 -2.00098 4.5s-1.33398 3.16699 -2.00098 4.5s-1.33398 2.83301 -2.00098 4.5s-1 3.5 -1 5.5
c-0.666992 1.33301 -1.33398 2.83301 -2.00098 4.5s-1.33398 3.16699 -2.00098 4.5l-188 464c-3.33301 6.66699 -6.83301 12.667 -10.5 18s-7.16699 9.33301 -10.5 12s-7 4.66699 -11 6s-8 2.33301 -12 3l-36 5v30c3.33301 -1.33301 6.83301 -2.16602 10.5 -2.49902
s7.5 -0.5 11.5 -0.5h10.5h11.5c7.33301 -0.666992 14.666 -1.16699 21.999 -1.5s14.666 -0.5 21.999 -0.5h22.5h22.5h22.5h22.5c7.33301 0 14.666 0.166992 21.999 0.5s14.666 0.833008 21.999 1.5h10.5h11.5h5.5c1.66699 0 3.5 0.333008 5.5 1h5h6v-28l-56 -3
c-0.666992 -1.33301 -1.16699 -2 -1.5 -2h-0.5v0v0h-1v0c-4 -0.666992 -7.66699 -1.5 -11 -2.5s-6.66602 -2.16699 -9.99902 -3.5c-2.66699 -1.33301 -4.83398 -3.33301 -6.50098 -6s-2.16699 -5.66699 -1.5 -9v-1.5v-0.5v-1.5v-1.5v-1.5c0 -0.333008 0.333008 -0.5 1 -0.5
c0 -0.666992 0.166992 -1.16699 0.5 -1.5s0.5 -0.833008 0.5 -1.5v2v0z" />
    <glyph glyph-name="W" unicode="W" horiz-adv-x="1000" 
d="M613 197l-125 339.001l-174 -442l-9.5 -27c-3 -8.66699 -6.16699 -17.334 -9.5 -26.001c-2.66699 -8.66699 -5.5 -17.334 -8.5 -26.001l-8.5 -24h-50c-0.666992 2.66699 -1.33398 5.16699 -2.00098 7.5s-1 4.83301 -1 7.5c-0.666992 2 -1.33398 4.33301 -2.00098 7l-2 8
c-0.666992 5.33301 -1.5 10.5 -2.5 15.5s-2.16699 9.83301 -3.5 14.5c-0.666992 3.33301 -1.5 6.66602 -2.5 9.99902s-2.16699 6.66602 -3.5 9.99902l-2 10.5l-2 10.5l-119 517c-2.66699 9.33301 -5.66699 17.333 -9 24s-7.33301 11.334 -12 14.001
c-4.66699 3.33301 -9.33398 5.66602 -14.001 6.99902s-9.66699 2.33301 -15 3l-28 5v30c3.33301 -1.33301 6.83301 -2.16602 10.5 -2.49902s7.16699 -0.5 10.5 -0.5h10h11c7.33301 -0.666992 14.5 -1.16699 21.5 -1.5s13.833 -0.5 20.5 -0.5h21.5h20.5h21.5h20.5
c7.33301 0 14.5 0.166992 21.5 0.5s13.833 0.833008 20.5 1.5h10.5h10.5h5.5c1.66699 0 3.5 0.333008 5.5 1h4.5h5.5v-28l-42 -3c-5.33301 -1.33301 -10.333 -2.66602 -15 -3.99902s-8.66699 -3 -12 -5s-5.83301 -5.33301 -7.5 -10s-2.5 -10.667 -2.5 -18v-7.5
c0 -2.33301 0.333008 -4.83301 1 -7.5c0 -2.66699 0.333008 -5.16699 1 -7.5s1.33398 -5.16602 2.00098 -8.49902l99 -444h2l123 312c1.33301 2.66699 2.66602 5.5 3.99902 8.5s2.66602 6.16699 3.99902 9.5l4 10l4 10l18.5 49l19.5 50l18 51.5l18 50.5l32 2
c1.33301 -6 2.5 -11.667 3.5 -17s2.5 -10.666 4.5 -15.999c1.33301 -5.33301 3 -10.666 5 -15.999l6 -16c0 -0.666992 0.166992 -1.66699 0.5 -3s0.833008 -2.33301 1.5 -3c0 -1.33301 0.166992 -2.5 0.5 -3.5s0.833008 -2.16699 1.5 -3.5l2 -6l2 -6
c0.666992 -2 1.33398 -3.83301 2.00098 -5.5s1.33398 -3.16699 2.00098 -4.5c0 -2 0.333008 -3.83301 1 -5.5s1.33398 -3.16699 2.00098 -4.5s1.33398 -2.83301 2.00098 -4.5s1.33398 -3.16699 2.00098 -4.5c0 -1.33301 0.333008 -2.83301 1 -4.5
s1.33398 -3.16699 2.00098 -4.5l155 -432h2l131 486c0 -0.666992 0 -0.833984 0 -0.500977s0.333008 0.833008 1 1.5v0.5v1.5v1.5v1.5v0.5v1.5c0 4 -1 7.33301 -3 10s-5 4.66699 -9 6s-8.83301 2.66602 -14.5 3.99902s-12.5 2.33301 -20.5 3l-40 5v30
c1.33301 -0.666992 2.66602 -1.16699 3.99902 -1.5s3 -0.5 5 -0.5c1.33301 -0.666992 2.66602 -1 3.99902 -1h4h9.5h8.5c5.33301 -0.666992 10.833 -1.16699 16.5 -1.5s11.5 -0.5 17.5 -0.5h18h18h9h9h8.5h8.5h9c2.66699 0 5.66699 0.333008 9 1
c2.66699 0 5.5 0.166992 8.5 0.5s5.83301 0.5 8.5 0.5h4h5h4h4h4.5c1.66699 0 3.16699 0.333008 4.5 1h4.5h4.5v-28l-32 -3c-5.33301 -1.33301 -10 -2.83301 -14 -4.5s-7.66699 -3.83398 -11 -6.50098c-2.66699 -2.66699 -5.16699 -5.66699 -7.5 -9
s-4.16602 -7 -5.49902 -11l-153 -536c-0.666992 -2.66699 -1.33398 -5 -2.00098 -7s-1 -4 -1 -6l-2 -6l-2 -6c-0.666992 -2 -1.16699 -4 -1.5 -6s-0.833008 -3.66699 -1.5 -5c-0.666992 -2 -1.16699 -4 -1.5 -6s-0.833008 -4 -1.5 -6l-4 -12.5l-4 -13.5
c-0.666992 -4.66699 -1.5 -9.16699 -2.5 -13.5s-2.16699 -8.83301 -3.5 -13.5h-50l-6 18c-2 6 -3.66699 12 -5 18l-6 17.5l-6 16.5l-6 16c-2 5.33301 -3.66699 11 -5 17l-6 16l-6 16c-0.666992 2.66699 -1.66699 5.33398 -3 8.00098s-2.33301 5.66699 -3 9
c-1.33301 2.66699 -2.5 5.5 -3.5 8.5s-2.16699 5.83301 -3.5 8.5c-2 5.33301 -4 11 -6 17l-6 18v2v0z" />
    <glyph glyph-name="X" unicode="X" horiz-adv-x="667" 
d="M487 21l-167.996 281.994c-1.33301 -2.66699 -2.66602 -5 -3.99902 -7l-4 -6c-0.666992 -0.666992 -1.33398 -1.5 -2.00098 -2.5s-1 -1.83301 -1 -2.5c-0.666992 -1.33301 -1.33398 -2.33301 -2.00098 -3l-2 -2l-8 -11.5l-8 -10.5
c-2.66699 -3.33301 -5.16699 -6.83301 -7.5 -10.5l-6.5 -10.5l-157 -240h-2h-2c-1.33301 0.666992 -2.33301 1 -3 1h-2h-4h-4c-2.66699 0.666992 -5.5 1.16699 -8.5 1.5s-5.83301 0.5 -8.5 0.5h-4h-4h-5h-4h-8.5h-9.5h-4c-1.33301 0 -2.66602 -0.333008 -3.99902 -1
c-2 0 -3.66699 -0.166992 -5 -0.5s-2.66602 -0.5 -3.99902 -0.5h-4.5h-4.5h-2c-0.666992 0 -1.33398 -0.333008 -2.00098 -1h-2h-2v30l26 3c6 -0.666992 11.667 0.166016 17 2.49902s10 5.83301 14 10.5c4 4 8 8.33301 12 13l12 14
c0.666992 0.666992 1.16699 1.33398 1.5 2.00098s0.833008 1.33398 1.5 2.00098l0.5 1c0.333008 0.666992 0.833008 1.33398 1.5 2.00098s1.16699 1.33398 1.5 2.00098s0.833008 1.33398 1.5 2.00098l0.5 1c0.333008 0.666992 0.833008 1.33398 1.5 2.00098l189 257
l-128 213c-1.33301 0.666992 -2.66602 2 -3.99902 4l-4 6c-0.666992 1.33301 -1.33398 2.5 -2.00098 3.5s-1 1.83301 -1 2.5c-0.666992 1.33301 -1.33398 2.5 -2.00098 3.5s-1.33398 1.83301 -2.00098 2.5c-6.66699 10 -13.5 18.833 -20.5 26.5s-14.167 14.5 -21.5 20.5
c-6.66699 6 -12.834 10.5 -18.501 13.5s-11.167 4.83301 -16.5 5.5l-45 5l-2 26l141 27l12 -10c4 -3.33301 8 -7 12 -11l10.5 -12.5c3.66699 -4.33301 6.83398 -8.83301 9.50098 -13.5c0.666992 -0.666992 1.33398 -1.5 2.00098 -2.5s1.33398 -1.83301 2.00098 -2.5
c0 -1.33301 0.333008 -2.33301 1 -3l2 -2c1.33301 -2 2.5 -3.83301 3.5 -5.5s1.83301 -3.16699 2.5 -4.5l128 -214l185 270h101v-30l-41 -3c-2.66699 -1.33301 -5.16699 -2.66602 -7.5 -3.99902l-8.5 -5c-2.66699 -2.66699 -5.5 -5.33398 -8.5 -8.00098
s-6.16699 -5.66699 -9.5 -9c-0.666992 -0.666992 -1.33398 -1.5 -2.00098 -2.5s-1.33398 -1.83301 -2.00098 -2.5l-3 -3c-0.666992 -0.666992 -1.33398 -1.66699 -2.00098 -3c-0.666992 -0.666992 -1.33398 -1.5 -2.00098 -2.5s-1.33398 -1.83301 -2.00098 -2.5l-3 -3
c-0.666992 -0.666992 -1.33398 -1.66699 -2.00098 -3l-4 -6l-4 -6c-1.33301 -2 -2.66602 -3.83301 -3.99902 -5.5s-2.66602 -3.16699 -3.99902 -4.5l-154 -206l176 -280c0.666992 -1.33301 1.16699 -2.5 1.5 -3.5s0.833008 -1.83301 1.5 -2.5
c0 -1.33301 0.166992 -2.33301 0.5 -3s0.833008 -1.33398 1.5 -2.00098c1.33301 -1.33301 2.5 -2.66602 3.5 -3.99902s1.83301 -2.66602 2.5 -3.99902c4 -6.66699 8.16699 -13 12.5 -19s8.83301 -11.667 13.5 -17s9.5 -9.5 14.5 -12.5s9.83301 -4.5 14.5 -4.5l30 -1v-30
h-2.5h-3.5c-0.666992 0.666992 -1.5 1 -2.5 1h-3.5h-6h-6c-4 0.666992 -8 1.16699 -12 1.5s-8 0.5 -12 0.5h-12h-12h-6h-6h-7h-6c-4 -0 -8 -0.166992 -12 -0.5s-8 -0.833008 -12 -1.5h-6h-6h-2.5c-1 0 -2.16699 -0.333008 -3.5 -1h-2.5h-3.5l-16 24v0v0z" />
    <glyph glyph-name="Y" unicode="Y" horiz-adv-x="667" 
d="M220 602l143.006 -260.998l103 163c10 14.667 19.667 29.667 29 45s18.333 31 27 47c9.33301 16 18.166 32 26.499 48l25.5 48l80 2v-15l-20.5 -26l-21.5 -27l-22.5 -28.5l-22.5 -29.5l-6 -8c-2 -2.66699 -3.66699 -5 -5 -7l-6 -8l-6 -8
c-4 -4.66699 -7.83301 -9.5 -11.5 -14.5s-7.16699 -10.167 -10.5 -15.5l-35 -51.5l-32 -49.5c-10.667 -16.667 -19.834 -32 -27.501 -46s-14.167 -26.667 -19.5 -38c-2.66699 -6.66699 -5 -13.167 -7 -19.5s-3.66699 -12.5 -5 -18.5
c-0.666992 -6.66699 -1.16699 -13 -1.5 -19s-0.5 -12 -0.5 -18v-127c0 -10.667 0.166992 -20 0.5 -28s0.833008 -15.333 1.5 -22s1.5 -12.167 2.5 -16.5s2.5 -7.83301 4.5 -10.5c1.33301 -2.66699 3.33301 -4.83398 6 -6.50098s5.33398 -3.16699 8.00098 -4.5l12 -2.5
c4.66699 -1 10 -1.5 16 -1.5l48 -1v-30c-12.667 0.666992 -25.334 1.16699 -38.001 1.5s-25 0.5 -37 0.5c-12 0.666992 -23.833 1 -35.5 1h-34.5h-10.5h-10.5h-10.5h-10.5h-13.5c-4.33301 0 -8.5 -0.333008 -12.5 -1h-13.5h-12.5c-8.66699 0 -17.5 -0.166992 -26.5 -0.5
s-18.167 -0.833008 -27.5 -1.5v30l48 3c6 -0.666992 11.333 -0.666992 16 0s8.66699 1.33398 12 2.00098c3.33301 1.33301 6.16602 2.83301 8.49902 4.5s4.16602 3.83398 5.49902 6.50098s2.66602 6.16699 3.99902 10.5s2.33301 9.83301 3 16.5s1.16699 14 1.5 22
s0.5 16.667 0.5 26v144c0 2.66699 -0.166992 5.83398 -0.5 9.50098s-0.833008 7.16699 -1.5 10.5s-1.66699 6.5 -3 9.5s-2.66602 5.83301 -3.99902 8.5l-124 218c-12.667 21.333 -25.334 40.166 -38.001 56.499s-24.667 29.5 -36 39.5c-12 10 -22.5 17.667 -31.5 23
s-16.5 8.33301 -22.5 9l-29 5v29l115 24v-1.5c0 -0.333008 0.333008 -0.5 1 -0.5v0v0h0.5c0.333008 0 0.833008 0.333008 1.5 1v0h1v0v0v0h1v0v0c3.33301 -0.666992 6.83301 -1.66699 10.5 -3s6.83398 -3.33301 9.50098 -6c3.33301 -2.66699 6.5 -5.5 9.5 -8.5
s5.83301 -6.16699 8.5 -9.5c0.666992 -0.666992 1.33398 -1.5 2.00098 -2.5s1.33398 -2.16699 2.00098 -3.5l1.5 -1.5c0.333008 -0.333008 0.833008 -0.5 1.5 -0.5c0 -0.666992 0.166992 -1.16699 0.5 -1.5l1.5 -1.5l1.5 -1.5l1.5 -1.5
c0 -0.666992 0.166992 -1.16699 0.5 -1.5l1.5 -1.5c0 -0.666992 0.166992 -1.33398 0.5 -2.00098s0.833008 -1 1.5 -1c0.666992 -0.666992 1.16699 -1.33398 1.5 -2.00098s0.833008 -1.33398 1.5 -2.00098l4 -6c1.33301 -2 3 -4 5 -6
c1.33301 -2.66699 2.66602 -5 3.99902 -7l4 -6c1.33301 -2 2.66602 -4.16699 3.99902 -6.5s3 -4.5 5 -6.5c1.33301 -2.66699 2.66602 -5.16699 3.99902 -7.5s2.66602 -4.5 3.99902 -6.5v2v0z" />
    <glyph glyph-name="Z" unicode="Z" horiz-adv-x="667" 
d="M637 663l-486.007 -619.002h273c37.333 -1.33301 67.666 -1.16602 90.999 0.500977s39.666 4.16699 48.999 7.5s16.833 10.333 22.5 21s9.5 24.334 11.5 41.001l6 59h34c-0.666992 -4.66699 -1.16699 -9 -1.5 -13s-0.5 -8 -0.5 -12
c-0.666992 -4.66699 -1.16699 -9 -1.5 -13s-0.5 -8 -0.5 -12c-0.666992 -8.66699 -1 -17.167 -1 -25.5v-25.5c-0.666992 -6.66699 -1 -13.167 -1 -19.5v-19.5v-19v-17h-12h-12c-4.66699 0.666992 -9 1 -13 1h-12h-25.5h-25.5c-13.333 0.666992 -26.666 1.16699 -39.999 1.5
s-26.666 0.5 -39.999 0.5h-40.5h-40.5h-11.5h-10.5h-11.5h-10.5h-52h-52c-17.333 -0 -34.666 -0.166992 -51.999 -0.5s-34.666 -0.833008 -51.999 -1.5h-26h-26h-13.5c-4.33301 0 -8.5 -0.333008 -12.5 -1h-13.5h-12.5v28c2.66699 2.66699 5.33398 5.5 8.00098 8.5
s5.33398 5.83301 8.00098 8.5l8 10l8 10c0.666992 0.666992 1.16699 1.33398 1.5 2.00098s0.833008 1.33398 1.5 2.00098l2 2l2 2c2.66699 2.66699 5.16699 5.33398 7.5 8.00098l7.5 9l6.5 8.5c2.33301 3 4.83301 5.83301 7.5 8.5l7.5 9.5
c2.33301 3 4.83301 5.83301 7.5 8.5c2 3.33301 4.16699 6.5 6.5 9.5s4.83301 5.83301 7.5 8.5l302 390c1.33301 0.666992 2.33301 1.5 3 2.5s1.66699 1.83301 3 2.5c0.666992 1.33301 1.5 2.5 2.5 3.5s1.83301 2.16699 2.5 3.5c2 2.66699 4 5.16699 6 7.5s4 4.83301 6 7.5
c1.33301 1.33301 2.33301 2.66602 3 3.99902s1.66699 2.66602 3 3.99902c0.666992 0.666992 1.5 1.66699 2.5 3s1.83301 2.66602 2.5 3.99902c2 2.66699 4 5.16699 6 7.5s4 4.83301 6 7.5c3.33301 5.33301 6.83301 10.5 10.5 15.5l10.5 14.5l5.5 7.5
c1.66699 2.33301 3.16699 4.83301 4.5 7.5l4.5 6.5c1.66699 2.33301 3.16699 4.83301 4.5 7.5l-228 2c-34.667 -1.33301 -62.5 -3 -83.5 -5s-35.5 -4.66699 -43.5 -8c-8 -4 -14 -9 -18 -15s-6.33301 -13 -7 -21l-6 -69h-34v3.5c0 1.66699 0.333008 3.5 1 5.5v4.5v5.5v4.5
c0 1.66699 0.333008 3.5 1 5.5v5v6v4.5c0 1.66699 0.333008 3.5 1 5.5v4.5v5.5v10.5v10.5v10v10v4.5v5.5c-0.666992 1.33301 -1 2.83301 -1 4.5v5.5v4.5v4.5c-0.666992 1.33301 -1 2.83301 -1 4.5v5.5v4.5v5.5c-0.666992 1.33301 -1 2.83301 -1 4.5v5.5h16.5h16.5
c5.33301 -0.666992 10.833 -1 16.5 -1h16.5h33.5h32.5h8h9c2.66699 -0.666992 5.33398 -1 8.00098 -1h8h16.5h17.5h24h25c8 -0.666992 16.167 -1 24.5 -1h25.5h49.5h49.5h26h26c8.66699 0 17.334 0.166992 26.001 0.5s17.334 0.833008 26.001 1.5h12.5h13.5h6
c2 0 4.33301 0.333008 7 1h6.5h6.5l4 -27v0v0z" />
    <glyph glyph-name="bracketleft" unicode="[" horiz-adv-x="333" 
d="M88 14l-0.000976562 513.998c-0.666992 4 -1 8.5 -1 13.5v16.5v16.5v17.5c-0.666992 12 -1.16699 23.833 -1.5 35.5s-0.5 22.834 -0.5 33.501c-0.666992 11.333 -1.5 21 -2.5 29s-2.16699 15 -3.5 21l9 15c4 -1.33301 8 -2.16602 12 -2.49902s8.33301 -0.5 13 -0.5
c4 -0.666992 8 -1 12 -1h12h24h24h12h13h12h12c8 0 16 0.166992 24 0.5s16 0.833008 24 1.5l6 -4v-26l-4 -5h-38c-9.33301 -1.33301 -18 -2.66602 -26 -3.99902s-15.333 -3.66602 -22 -6.99902c-6.66699 -2.66699 -11.834 -6.16699 -15.501 -10.5
s-5.83398 -9.5 -6.50098 -15.5c-0.666992 -4.66699 -1.16699 -9.33398 -1.5 -14.001s-0.5 -9.66699 -0.5 -15c0 -2.66699 -0.166992 -5.33398 -0.5 -8.00098s-0.5 -5 -0.5 -7v-8v-8c-0.666992 -6 -1 -12 -1 -18v-17v-16.5v-14.5v-512v-5v-3v-11v-12v-17
c0 -6 0.333008 -12 1 -18v-8v-8c0 -2 0.166992 -4.33301 0.5 -7s0.5 -5.33398 0.5 -8.00098c0 -5.33301 0.166992 -10.333 0.5 -15s0.833008 -9.33398 1.5 -14.001c0.666992 -6 2.83398 -11.167 6.50098 -15.5s8.83398 -7.83301 15.501 -10.5
c6.66699 -3.33301 14 -5.66602 22 -6.99902s16.667 -2 26 -2h38l4 -5v-26l-6 -6c-8 0.666992 -16 1.16699 -24 1.5s-16 0.5 -24 0.5h-12h-12h-13h-12h-24h-24h-12c-4 0 -8 -0.333008 -12 -1c-4.66699 0 -9 -0.166992 -13 -0.5s-8 -0.5 -12 -0.5l-9 13
c1.33301 6 2.33301 13 3 21s1.33398 17.333 2.00098 28s1.16699 21.334 1.5 32.001s0.833008 21.667 1.5 33v2v2v2v2v5.5v4.5v5.5v4.5v6v6v5.5c0 1.66699 0.333008 3.16699 1 4.5v5v4v4.5v5.5v2v0z" />
    <glyph glyph-name="backslash" unicode="\" horiz-adv-x="606" 
d="M81 726h59l372 -726h-59l-372 726v0v0z" />
    <glyph glyph-name="bracketright" unicode="]" horiz-adv-x="333" 
d="M245 528v-513.998v-8.5c0 -2.33301 0.333008 -4.5 1 -6.5v-8.5v-8.5v-16.5v-17.5c0 -12 0.166992 -23.833 0.5 -35.5s0.833008 -22.834 1.5 -33.501c0.666992 -11.333 1.5 -21 2.5 -29s2.16699 -15 3.5 -21l-9 -13c-8.66699 0.666992 -17 1.16699 -25 1.5
s-16 0.5 -24 0.5h-24h-24h-25h-24c-8 0 -16 -0.166992 -24 -0.5s-16 -0.833008 -24 -1.5l-6 6v26l4 5h38c9.33301 0 18.166 0.666992 26.499 2s15.833 3.66602 22.5 6.99902c6.66699 2.66699 11.667 6.16699 15 10.5s5.33301 9.5 6 15.5
c0 4.66699 0.166992 9.33398 0.5 14.001s0.833008 9.66699 1.5 15v8c0 2.66699 0.333008 5 1 7v8v8v8.5c0 3 0.333008 6.16699 1 9.5v8.5v8.5v15.5v13.5v516v12.5v16.5v8.5v8.5c-0.666992 3.33301 -1 6.5 -1 9.5v8.5v8v8c-0.666992 2 -1 4.33301 -1 7v8
c-0.666992 5.33301 -1.16699 10.333 -1.5 15s-0.5 9.33398 -0.5 14.001c-0.666992 6 -2.66699 11.167 -6 15.5s-8.33301 7.83301 -15 10.5c-6.66699 3.33301 -14.167 5.66602 -22.5 6.99902s-17.166 2 -26.499 2l-38 2l-4 5v26l6 6c8 -1.33301 16 -2.33301 24 -3
s16 -1 24 -1h24h25h24h24c8 0 16 0.166992 24 0.5s16.333 0.833008 25 1.5l9 -11c-1.33301 -6.66699 -2.5 -14.167 -3.5 -22.5s-1.83301 -17.833 -2.5 -28.5s-1.16699 -21.334 -1.5 -32.001s-0.5 -21.667 -0.5 -33v-2v-2v-2v-2v-5.5v-4.5v-5.5v-4.5v-6v-6v-5.5v-4.5
c-0.666992 -2 -1 -4 -1 -6v-5v-5.5v-4.5v2v0z" />
    <glyph glyph-name="asciicircum" unicode="^" horiz-adv-x="606" 
d="M119 283h-68l219 406h66l218 -406h-68l-183 338l-184 -338v0v0z" />
    <glyph glyph-name="underscore" unicode="_" horiz-adv-x="500" 
d="M500 -125h-500v50h500v-50v0v0z" />
    <glyph glyph-name="grave" unicode="`" horiz-adv-x="333" 
d="M215 506l-144.001 90.0049c-0.666992 -0.666992 -1.5 -0.833984 -2.5 -0.500977s-2.16699 0.833008 -3.5 1.5c-0.666992 0 -1.16699 0.166992 -1.5 0.5s-0.5 0.833008 -0.5 1.5c-0.666992 0 -1.16699 0.166992 -1.5 0.5l-1.5 1.5c-4 2 -7.5 4.5 -10.5 7.5
s-6.16699 5.83301 -9.5 8.5c-2.66699 3.33301 -4.83398 6.83301 -6.50098 10.5s-2.5 7.83398 -2.5 12.501c0 5.33301 0.666992 10 2 14s3.33301 7.66699 6 11c3.33301 3.33301 7 5.83301 11 7.5s8.66699 2.5 14 2.5c2 0 4 -0.166992 6 -0.5s4 -1.16602 6 -2.49902
c2 -0.666992 4 -1.5 6 -2.5l7 -3.5l4.5 -4.5c1.66699 -1.66699 3.5 -3.16699 5.5 -4.5c1.33301 -0.666992 2.33301 -1.33398 3 -2.00098s1.66699 -1.33398 3 -2.00098c0.666992 -0.666992 1.5 -1.33398 2.5 -2.00098s1.83301 -1.33398 2.5 -2.00098
s1.16699 -1.33398 1.5 -2.00098s0.833008 -1.33398 1.5 -2.00098s1.33398 -1.16699 2.00098 -1.5s1.33398 -0.833008 2.00098 -1.5l138 -136h-40v0v0z" />
    <glyph glyph-name="a" unicode="a" horiz-adv-x="500" 
d="M225 270l99.0088 18.0059c0 18.667 -2.5 35.667 -7.5 51s-12.5 28.666 -22.5 39.999s-23 20 -39 26s-35 9 -57 9c-10.667 0 -19.834 -0.333008 -27.501 -1s-13.834 -1.66699 -18.501 -3s-9 -3.5 -13 -6.5s-7.66699 -6.5 -11 -10.5
c-0.666992 -0.666992 -1.16699 -1.33398 -1.5 -2.00098l-0.5 -1c-0.666992 -0.666992 -1.16699 -1.33398 -1.5 -2.00098s-0.5 -1.33398 -0.5 -2.00098c-0.666992 -0.666992 -1.33398 -1.83398 -2.00098 -3.50098s-1.33398 -3.16699 -2.00098 -4.5s-1.5 -2.83301 -2.5 -4.5
s-1.83301 -3.16699 -2.5 -4.5s-1.33398 -2.83301 -2.00098 -4.5s-1.33398 -3.16699 -2.00098 -4.5l-13 -29l-26 7v65l53 32c10.667 5.33301 21.167 10.166 31.5 14.499s20.5 7.83301 30.5 10.5c10 2 19.5 3.66699 28.5 5s17.5 2 25.5 2
c31.333 0 57.666 -3.83301 78.999 -11.5s37.666 -19.167 48.999 -34.5c11.333 -14.667 20 -34.834 26 -60.501s9 -56.5 9 -92.5v-181v-14c0 -4 0.333008 -8 1 -12c0 -4 0.166992 -7.5 0.5 -10.5s0.833008 -5.83301 1.5 -8.5s1.66699 -4.83398 3 -6.50098s3 -3.16699 5 -4.5
l7.5 -2.5c3 -1 6.16699 -1.5 9.5 -1.5h39v-30h-3h-3c-1.33301 0.666992 -2.5 1 -3.5 1h-3.5h-6h-6c-2 0 -4 0.166992 -6 0.5s-4 0.5 -6 0.5c-2.66699 0.666992 -5 1 -7 1h-6h-6h-6h-7h-6h-10h-10h-4.5c-1.66699 0 -3.16699 -0.333008 -4.5 -1h-4.5h-4.5h-3.5h-3.5h-1.5
c-0.333008 0 -0.833008 -0.333008 -1.5 -1h-1.5h-1.5h-7h-6h-3c-1.33301 0 -2.33301 -0.333008 -3 -1h-3.5h-3.5l5 85l-124 -86c-2 -1.33301 -4.33301 -2.33301 -7 -3s-5.66699 -1.33398 -9 -2.00098s-6.83301 -1.16699 -10.5 -1.5s-7.5 -0.833008 -11.5 -1.5h-2h-2h-2h-2
c-16.667 0 -32.334 2.33301 -47.001 7s-28 11.667 -40 21c-12 10 -20.833 22.5 -26.5 37.5s-8.5 32.833 -8.5 53.5c0 26 4.33301 48.333 13 67s22 33.334 40 44.001c17.333 10.667 35.833 19.834 55.5 27.501s40.167 13.834 61.5 18.501h3c0.666992 0 1.66699 0.333008 3 1
c0.666992 0 1.5 0.166992 2.5 0.5s1.83301 0.5 2.5 0.5c2 0 4 0.166992 6 0.5s4 0.833008 6 1.5v2v0zM324.009 124.006l-0.000976562 131.999c-6 -1.33301 -11.833 -2.5 -17.5 -3.5s-11.167 -2.16699 -16.5 -3.5c-5.33301 -0.666992 -10.666 -1.5 -15.999 -2.5
s-10.666 -2.16699 -15.999 -3.5c-6.66699 -1.33301 -13.334 -2.83301 -20.001 -4.5s-13.334 -3.5 -20.001 -5.5s-13.167 -4.16699 -19.5 -6.5l-20.5 -7.5c-7.33301 -2.66699 -14.166 -6.5 -20.499 -11.5s-12.166 -11.167 -17.499 -18.5
c-4.66699 -6.66699 -8.83398 -13.834 -12.501 -21.501s-6.16699 -15.5 -7.5 -23.5c-0.666992 -2 -1.16699 -3.83301 -1.5 -5.5s-0.5 -3.16699 -0.5 -4.5v-4.5v-4.5c0 -12.667 2 -24 6 -34s10 -18.667 18 -26s16.5 -12.833 25.5 -16.5s18.5 -5.5 28.5 -5.5
c7.33301 0 15 1 23 3s16 5.33301 24 10s16 9.66699 24 15s16.333 11.333 25 18c1.33301 0.666992 2.5 1.33398 3.5 2.00098s1.83301 1.33398 2.5 2.00098l1.5 1.5l1.5 1.5l0.5 0.5l1.5 1.5c2.66699 2.66699 5 5.16699 7 7.5s4 4.5 6 6.5s3.66699 4 5 6s2.33301 3.33301 3 4
v2v0z" />
    <glyph glyph-name="b" unicode="b" horiz-adv-x="553" 
d="M150 718l-0.000976562 -347.002h2l53 54c4.66699 4 10 8 16 12s13 7.66699 21 11s16.167 6.33301 24.5 9s16.833 5 25.5 7c2.66699 0 5.5 0.166992 8.5 0.5s5.83301 0.833008 8.5 1.5h4c1.33301 0 3 0.333008 5 1h4h4c29.333 0 55.333 -5 78 -15s41.667 -25 57 -45
s27 -42 35 -66s12 -50 12 -78c0 -4.66699 -0.166992 -9.16699 -0.5 -13.5s-0.833008 -8.83301 -1.5 -13.5c-0.666992 -2.66699 -1.16699 -5.16699 -1.5 -7.5s-0.5 -4.5 -0.5 -6.5c-0.666992 -2.66699 -1.16699 -5.16699 -1.5 -7.5s-0.833008 -4.5 -1.5 -6.5
c-2.66699 -12.667 -6.5 -25.334 -11.5 -38.001s-10.833 -25 -17.5 -37s-13.5 -22.333 -20.5 -31s-14.5 -16 -22.5 -22l-100 -70c-1.33301 -2 -2.66602 -3.5 -3.99902 -4.5s-2.66602 -1.83301 -3.99902 -2.5c-2 -1.33301 -3.66699 -2.16602 -5 -2.49902
s-2.66602 -0.5 -3.99902 -0.5c-2.66699 -1.33301 -5.33398 -2.5 -8.00098 -3.5s-5.33398 -1.83301 -8.00098 -2.5c-5.33301 -1.33301 -10.5 -2.5 -15.5 -3.5s-10.167 -1.5 -15.5 -1.5h-7.5c-2.33301 0 -4.5 -0.333008 -6.5 -1h-7h-6h-2.5h-3.5h-2.5h-3.5
c-10 0.666992 -20 1.83398 -30 3.50098s-19.667 3.83398 -29 6.50098c-10 2 -19.333 5 -28 9s-17 9 -25 15l-40 -34l-16 6v2.5v2.5v2v2c0 1.33301 0.166992 2.83301 0.5 4.5s0.833008 3.5 1.5 5.5v2c0 0.666992 0.333008 1.66699 1 3v2.5v2.5v3.5
c0 1 0.333008 1.83301 1 2.5v3.5v2.5l4 118v467c0 4.66699 -0.333008 9.33398 -1 14.001s-1.66699 9 -3 13s-3.83301 7 -7.5 9s-8.16699 3 -13.5 3l-56 2v28c7.33301 0 14.166 0.5 20.499 1.5s12.833 1.83301 19.5 2.5c6 1.33301 12.333 2.66602 19 3.99902l20 4
c13.333 2.66699 26.333 6 39 10s25.334 8.33301 38.001 13l9 -6v0v0zM149.999 307.998l-0.00488281 -215.004c0 -2.66699 0.333008 -4.83398 1 -6.50098s1.33398 -3.16699 2.00098 -4.5c1.33301 -2 2.83301 -3.83301 4.5 -5.5s3.83398 -3.16699 6.50098 -4.5l6 -4
c2 -1.33301 4.33301 -2.66602 7 -3.99902c2.66699 -2 5.33398 -3.66699 8.00098 -5s5.66699 -2.66602 9 -3.99902c6 -2.66699 12.333 -5.16699 19 -7.5s13.334 -4.16602 20.001 -5.49902l10 -2l10 -2c1.33301 0 2.83301 -0.166992 4.5 -0.5s3.5 -0.5 5.5 -0.5h4.5h4.5
c20 0 38.833 4 56.5 12s33.834 20 48.501 36s25.667 36.167 33 60.5s11 52.833 11 85.5c0 21.333 -2.66699 41.833 -8 61.5s-13.666 38.5 -24.999 56.5c-10.667 17.333 -24.834 30.5 -42.501 39.5s-38.834 13.5 -63.501 13.5c-12.667 0 -24.667 -1.5 -36 -4.5
s-22 -7.5 -32 -13.5s-19 -12.167 -27 -18.5s-14.667 -13.166 -20 -20.499l-7.5 -11c-2.33301 -3.33301 -4.16602 -6.66602 -5.49902 -9.99902s-2.33301 -6.5 -3 -9.5s-1 -5.83301 -1 -8.5v2v0z" />
    <glyph glyph-name="c" unicode="c" horiz-adv-x="444" 
d="M399 311l-27.9971 -0.00683594l-7 61v-1v0h-1v0v0.5v1.5l-4.5 4.5l-5.5 5.5l-6.5 4.5c-2.33301 1.66699 -5.16602 3.16699 -8.49902 4.5c-6 3.33301 -12.167 6.33301 -18.5 9s-12.833 5 -19.5 7c-2 0.666992 -4 1.16699 -6 1.5s-3.66699 0.833008 -5 1.5
c-2 0 -3.83301 0.166992 -5.5 0.5s-3.16699 0.833008 -4.5 1.5c-3.33301 0.666992 -6.5 1.16699 -9.5 1.5s-6.16699 0.5 -9.5 0.5h-5.5h-4.5h-2.5h-2.5c-1.33301 -0.666992 -2.33301 -1 -3 -1h-2c-16 -1.33301 -31.167 -5.33301 -45.5 -12s-28.166 -15.667 -41.499 -27
c-12.667 -11.333 -22.334 -27.333 -29.001 -48s-10 -45.667 -10 -75c0 -39.333 4.83301 -73.166 14.5 -101.499s23.834 -51.166 42.501 -68.499c19.333 -17.333 39.666 -30.333 60.999 -39s44.333 -13 69 -13h10c3.33301 0 6.66602 0.333008 9.99902 1l10 2
c3.33301 0.666992 7 1.33398 11 2.00098c5.33301 1.33301 10.666 2.83301 15.999 4.5s10.666 3.5 15.999 5.5s10.333 4.16699 15 6.5s9.33398 4.83301 14.001 7.5l10 -13l-21 -32c-0.666992 -2 -1.83398 -3.66699 -3.50098 -5s-3.5 -2.66602 -5.5 -3.99902
c-2.66699 -1.33301 -5.5 -2.5 -8.5 -3.5s-6.16699 -1.83301 -9.5 -2.5c-3.33301 -1.33301 -6.83301 -2.5 -10.5 -3.5s-7.5 -2.16699 -11.5 -3.5c-4 -0.666992 -8.16699 -1.66699 -12.5 -3s-8.83301 -2.33301 -13.5 -3c-10 -2 -20.333 -3.5 -31 -4.5s-21.667 -1.5 -33 -1.5
c-30 0 -58 4.83301 -84 14.5s-50.667 24.167 -74 43.5c-22.667 19.333 -39.834 43.333 -51.501 72s-17.5 61.667 -17.5 99c0 21.333 1.83301 41.166 5.5 59.499s9.5 34.833 17.5 49.5c8 15.333 16.333 28.833 25 40.5s18 21.5 28 29.5l2 2l2 2
c1.33301 0.666992 2.5 1.33398 3.5 2.00098s1.83301 1.33398 2.5 2.00098c1.33301 1.33301 2.66602 2.5 3.99902 3.5s2.66602 1.83301 3.99902 2.5c1.33301 1.33301 2.66602 2.5 3.99902 3.5s3 1.83301 5 2.5c2.66699 1.33301 5.5 2.83301 8.5 4.5s5.83301 3.5 8.5 5.5
c1.33301 1.33301 2.83301 2.33301 4.5 3s3.5 1.66699 5.5 3c1.33301 0.666992 2.83301 1.5 4.5 2.5s3.5 1.83301 5.5 2.5l8 4l8 4l4 2l4 2c0.666992 0 1.66699 0.333008 3 1l4 2c7.33301 3.33301 15 6.33301 23 9s16 5 24 7s16 3.66699 24 5s16.333 2 25 2
c12.667 0 24.334 -0.666992 35.001 -2s20.334 -3.66602 29.001 -6.99902c4.66699 -1.33301 9 -2.83301 13 -4.5s8 -3.16699 12 -4.5c3.33301 -2 6.83301 -3.83301 10.5 -5.5s6.83398 -3.16699 9.50098 -4.5l1.5 -1.5c0.333008 -0.333008 0.833008 -0.5 1.5 -0.5
c0 -0.666992 0.166992 -1.16699 0.5 -1.5s0.833008 -0.5 1.5 -0.5c1.33301 -0.666992 2.5 -1.16699 3.5 -1.5s1.83301 -0.833008 2.5 -1.5c-2 -6 -3.66699 -12.667 -5 -20l-4 -23c-0.666992 -8.66699 -1.5 -17.167 -2.5 -25.5s-1.5 -17.166 -1.5 -26.499
c-0.666992 -2.66699 -1 -5.16699 -1 -7.5v-6.5v-7.5v-6.5v2v0z" />
    <glyph glyph-name="d" unicode="d" horiz-adv-x="611" 
d="M412 437l-0.00390625 182.997c0 4.66699 -0.333008 9.33398 -1 14.001s-1.66699 9 -3 13s-3.83301 7 -7.5 9s-8.16699 3 -13.5 3l-56 2v28c6.66699 0 13.334 0.5 20.001 1.5s13.334 1.83301 20.001 2.5c6 1.33301 12.333 2.66602 19 3.99902l20 4
c13.333 2.66699 26.333 6 39 10s25.334 8.33301 38.001 13l9 -6v-616v-20c0 -6 0.333008 -11.667 1 -17c0 -4.66699 0.5 -9 1.5 -13l2.5 -10c1.33301 -2.66699 2.83301 -4.66699 4.5 -6s3.83398 -2.66602 6.50098 -3.99902c2.66699 -0.666992 5.66699 -1.5 9 -2.5
s7.33301 -1.5 12 -1.5l46 -1v-30h-5.5h-4.5c-1.33301 0.666992 -2.83301 1 -4.5 1h-4.5h-8.5h-8.5c-5.33301 0.666992 -10.5 1.16699 -15.5 1.5s-9.5 0.5 -13.5 0.5h-13.5h-12.5h-10h-10h-4.5c-1.66699 0 -3.16699 -0.333008 -4.5 -1h-4.5h-4.5h-3.5h-3.5h-1.5
c-0.333008 0 -0.833008 -0.333008 -1.5 -1h-1.5h-1.5h-7h-6h-3c-1.33301 0 -2.33301 -0.333008 -3 -1h-3.5h-3.5l5 92l-111 -93c-2 -1.33301 -4.83301 -2.5 -8.5 -3.5s-8.16699 -1.83301 -13.5 -2.5c-4.66699 -0.666992 -9.83398 -1.16699 -15.501 -1.5
s-11.167 -0.5 -16.5 -0.5h-1.5h-0.5h-1.5h-1.5h-1.5h-0.5h-1.5h-1.5c-34.667 0 -65 5.33301 -91 16s-47.667 27 -65 49c-16.667 22 -29.167 46.667 -37.5 74s-12.5 57.333 -12.5 90c0 22.667 2.33301 43.667 7 63s11.667 37.333 21 54c9.33301 16 19.5 29.667 30.5 41
s22.833 20.333 35.5 27l88 48l21.5 8c7 2.66699 13.833 4.33398 20.5 5.00098c6 1.33301 11.667 2.33301 17 3s10.333 1 15 1c6 0 11.833 -0.166992 17.5 -0.5s11.167 -1.16602 16.5 -2.49902l8 -2c2.66699 -0.666992 5.33398 -1 8.00098 -1l8 -2l8 -2
c2 -0.666992 4.16699 -1.5 6.5 -2.5s4.83301 -1.83301 7.5 -2.5c2 -1.33301 4.16699 -2.33301 6.5 -3s4.5 -1.66699 6.5 -3c2 -0.666992 4.16699 -1.5 6.5 -2.5s4.5 -1.83301 6.5 -2.5c2.66699 -1.33301 5.16699 -2.33301 7.5 -3s4.83301 -1.66699 7.5 -3v2v0z
M411.996 220.997l-0.000976562 129.002c0 0.666992 -0.666992 2.16699 -2 4.5s-3.33301 4.83301 -6 7.5c-2.66699 3.33301 -5.83398 6.5 -9.50098 9.5s-7.5 5.83301 -11.5 8.5c-4.66699 3.33301 -9.83398 6.83301 -15.501 10.5s-11.834 6.83398 -18.501 9.50098
c-6.66699 3.33301 -13.167 6.16602 -19.5 8.49902s-13.166 4.5 -20.499 6.5c-2.66699 0.666992 -5.5 1.16699 -8.5 1.5s-6.16699 0.833008 -9.5 1.5c-2.66699 0.666992 -5.5 1.16699 -8.5 1.5s-5.83301 0.5 -8.5 0.5h-1.5h-0.5v0v0h-1v0
c-25.333 -0.666992 -47.5 -4.83398 -66.5 -12.501s-34.5 -19.167 -46.5 -34.5c-12 -14.667 -21 -33.334 -27 -56.001s-9 -49.334 -9 -80.001v-5.5v-4.5v-2.5v-2.5c0 -1.33301 0.166992 -2.33301 0.5 -3s0.5 -1.66699 0.5 -3c1.33301 -22 5.83301 -42.833 13.5 -62.5
s17.834 -38.5 30.501 -56.5c13.333 -18 29.166 -31.5 47.499 -40.5s39.5 -13.5 63.5 -13.5c10.667 0 21 1.5 31 4.5s19.667 7.83301 29 14.5c9.33301 6 18.166 12.667 26.499 20s15.833 15.333 22.5 24c0.666992 0.666992 1.16699 1.33398 1.5 2.00098
s0.833008 1.33398 1.5 2.00098c0.666992 1.33301 1.33398 2.5 2.00098 3.5s1.33398 1.83301 2.00098 2.5c4.66699 7.33301 8.33398 14.5 11.001 21.5s4.33398 14.167 5.00098 21.5s1.16699 15.166 1.5 23.499s0.5 16.833 0.5 25.5v2.5v2.5v3.5v2.5v2v0z" />
    <glyph glyph-name="e" unicode="e" horiz-adv-x="479" 
d="M258 469c27.333 -1.33301 52.3281 -6.16406 74.9951 -14.4971s43 -20.5 61 -36.5c18 -16.667 31.5 -36.167 40.5 -58.5s13.5 -47.5 13.5 -75.5v-10.5v-10.5c0 -3.33301 -0.166992 -6.83301 -0.5 -10.5s-0.833008 -7.16699 -1.5 -10.5
c-7.33301 -1.33301 -14.833 -2.5 -22.5 -3.5s-15.167 -2.16699 -22.5 -3.5l-23 -2l-22 -2c-8 -0.666992 -15.833 -1.16699 -23.5 -1.5s-15.167 -0.5 -22.5 -0.5c-7.33301 -0.666992 -14.833 -1 -22.5 -1h-22.5l-146 2c0 -30.667 3.66699 -58 11 -82s18.333 -45 33 -63
c15.333 -18 34.333 -31.5 57 -40.5s49.334 -13.5 80.001 -13.5c11.333 0 22.333 1.16699 33 3.5s20.667 5.83301 30 10.5l28.5 14.5c9.66699 5 18.834 10.167 27.501 15.5h0.5c0.333008 0 0.833008 0.333008 1.5 1h0.5h0.5l0.5 0.5l1.5 1.5l13 -8l-20 -34
c-0.666992 -2.66699 -2.16699 -5 -4.5 -7s-5.5 -4 -9.5 -6c-4 -2.66699 -8.5 -5.16699 -13.5 -7.5s-10.167 -5.16602 -15.5 -8.49902c-6 -2.66699 -12 -4.83398 -18 -6.50098l-20 -5.5c-3.33301 -1.33301 -6.66602 -2.33301 -9.99902 -3s-6.66602 -1.66699 -9.99902 -3
c-4 -0.666992 -7.66699 -1.5 -11 -2.5s-6.66602 -1.83301 -9.99902 -2.5s-6.66602 -1.16699 -9.99902 -1.5s-6.66602 -0.833008 -9.99902 -1.5h-4.5c-1.66699 0 -3.16699 -0.333008 -4.5 -1h-4.5h-4.5c-38 0 -71.333 5.16699 -100 15.5s-52.667 26.166 -72 47.499
c-20 21.333 -34.833 45.833 -44.5 73.5s-14.5 58.5 -14.5 92.5c0 24 1.5 46 4.5 66s7.83301 37.333 14.5 52c6 15.333 13.5 29.166 22.5 41.499s19.167 22.833 30.5 31.5l14.5 10.5l15.5 11.5c5.33301 3.33301 10.666 6.5 15.999 9.5s10.666 5.83301 15.999 8.5l13.5 6
l13.5 6c4.66699 1.33301 9.16699 2.83301 13.5 4.5s8.83301 3.16699 13.5 4.5c3.33301 1.33301 6.83301 2.16602 10.5 2.49902s7.16699 0.833008 10.5 1.5s7 1.16699 11 1.5s8 0.5 12 0.5v2v0zM252.995 436.002c-18.667 -1.33301 -35.666 -5.16992 -50.999 -11.5029
s-29.666 -16.166 -42.999 -29.499c-12.667 -12.667 -22.334 -28.667 -29.001 -48s-9.66699 -41.666 -9 -66.999v-2.5v-3.5v-2.5v-3.5c11.333 -1.33301 22.5 -2.5 33.5 -3.5s21.833 -1.5 32.5 -1.5c11.333 -0.666992 22.166 -1 32.499 -1h31.5h28.5
c9.66699 0 18.834 0.333008 27.501 1c9.33301 0 18.166 0.166992 26.499 0.5s16.833 0.833008 25.5 1.5c0 23.333 -2.16699 44.833 -6.5 64.5s-10.833 37.834 -19.5 54.501s-19.667 29.167 -33 37.5s-29 12.5 -47 12.5v2v0z" />
    <glyph glyph-name="f" unicode="f" horiz-adv-x="333" 
d="M341 717l0.00488281 -77.002l-12 -6c-4.66699 3.33301 -9.5 6.5 -14.5 9.5s-10.167 5.83301 -15.5 8.5c-6 2.66699 -12 4.66699 -18 6s-12 2 -18 2c-15.333 0 -28 -2.5 -38 -7.5s-17.333 -12.167 -22 -21.5s-8 -23.5 -10 -42.5s-3 -42.833 -3 -71.5v-83l131 4l-7 -53
h-124v-283v-20c0 -6 0.333008 -11.667 1 -17c0 -4.66699 0.5 -9 1.5 -13l2.5 -10c1.33301 -2.66699 2.83301 -4.66699 4.5 -6s3.83398 -2.66602 6.50098 -3.99902c2.66699 -0.666992 5.66699 -1.5 9 -2.5s7.33301 -1.5 12 -1.5l46 -1v-30h-4.5h-4.5
c-2 0.666992 -3.83301 1 -5.5 1h-4.5h-4.5h-4.5h-5.5h-4.5c-6.66699 0.666992 -13.334 1.16699 -20.001 1.5s-13.667 0.5 -21 0.5h-22h-24h-23.5h-22.5c-7.33301 0 -14.5 -0.166992 -21.5 -0.5s-13.5 -0.833008 -19.5 -1.5h-10h-10h-4.5
c-1.66699 0 -3.16699 -0.333008 -4.5 -1h-4.5h-4.5v30l46 3c4 -0.666992 7.83301 -0.666992 11.5 0s6.83398 1.33398 9.50098 2.00098c2.66699 1.33301 5 2.66602 7 3.99902s3.33301 3.33301 4 6c1.33301 2.66699 2.16602 6 2.49902 10s0.833008 8.33301 1.5 13v8
c0 2.66699 0.333008 5.33398 1 8.00098v9v10v285l-69 -4v22l69 31v42c0 15.333 0.833008 30 2.5 44s4.16699 26.667 7.5 38s7.66602 22 12.999 32s11.666 19.333 18.999 28l58 68c3.33301 3.33301 7 6.66602 11 9.99902s8 6.33301 12 9s8.33301 5 13 7l14 6
c3.33301 1.33301 6.66602 2.5 9.99902 3.5s6.66602 1.83301 9.99902 2.5s6.83301 1.16699 10.5 1.5s6.83398 0.5 9.50098 0.5h2h2c0 -0.666992 0.333008 -1 1 -1h2h2h2c0.666992 -0.666992 1.33398 -1 2.00098 -1h2c2.66699 -0.666992 5.16699 -1.16699 7.5 -1.5
s4.83301 -1.16602 7.5 -2.49902c1.33301 -0.666992 2.66602 -1.16699 3.99902 -1.5s2.66602 -0.5 3.99902 -0.5c0.666992 -0.666992 1.66699 -1.16699 3 -1.5s2.66602 -0.833008 3.99902 -1.5v2v0z" />
    <glyph glyph-name="g" unicode="g" horiz-adv-x="556" 
d="M519 378l-92.0049 0.00292969c1.33301 -3.33301 2.33301 -6.16602 3 -8.49902s1.33398 -4.5 2.00098 -6.5c0.666992 -2.66699 1.16699 -5.16699 1.5 -7.5s0.833008 -4.83301 1.5 -7.5c1.33301 -4.66699 2.16602 -9.33398 2.49902 -14.001s0.5 -9.33398 0.5 -14.001
c0 -13.333 -1.66699 -26 -5 -38s-8 -23.333 -14 -34s-13 -20.334 -21 -29.001s-17 -16.334 -27 -23.001c-3.33301 -2.66699 -6.66602 -5 -9.99902 -7l-10 -6c-4 -2 -7.66699 -4 -11 -6s-6.66602 -3.66699 -9.99902 -5c-3.33301 -2 -6.83301 -3.66699 -10.5 -5l-10.5 -4
c-4 -1.33301 -7.83301 -2.5 -11.5 -3.5s-7.16699 -2.16699 -10.5 -3.5c-4.66699 -1.33301 -9.33398 -2.5 -14.001 -3.5s-9.33398 -1.83301 -14.001 -2.5s-9.33398 -1.16699 -14.001 -1.5s-9.33398 -0.5 -14.001 -0.5h-2.5h-2.5h-3h-3c-2 0 -3.83301 0.166992 -5.5 0.5
s-3.16699 0.833008 -4.5 1.5c-1.33301 -1.33301 -2.83301 -2.66602 -4.5 -3.99902s-3.16699 -2.66602 -4.5 -3.99902c-0.666992 -0.666992 -1.5 -1.33398 -2.5 -2.00098s-1.83301 -1.33398 -2.5 -2.00098l-3 -3c-0.666992 -0.666992 -1.66699 -1.33398 -3 -2.00098
c-2 -1.33301 -3.66699 -2.83301 -5 -4.5s-3 -3.16699 -5 -4.5c-1.33301 -2 -2.66602 -3.83301 -3.99902 -5.5s-2.66602 -3.16699 -3.99902 -4.5c-2.66699 -2.66699 -4.66699 -5.83398 -6 -9.50098s-2 -7.16699 -2 -10.5c0 -6.66699 1.33301 -12.5 4 -17.5
s6.66699 -8.83301 12 -11.5s10.833 -4.83398 16.5 -6.50098s11.834 -2.83398 18.501 -3.50098c2 -0.666992 4 -1 6 -1h6h3.5h3.5h3h3l160 2c17.333 -1.33301 32.333 -4.16602 45 -8.49902s23.334 -11.166 32.001 -20.499c9.33301 -8.66699 16.833 -17.5 22.5 -26.5
s9.83398 -18.5 12.501 -28.5c1.33301 -3.33301 2.16602 -6.83301 2.49902 -10.5s0.833008 -7.16699 1.5 -10.5c0 -1.33301 0.166992 -2.83301 0.5 -4.5s0.5 -3.5 0.5 -5.5c0.666992 -1.33301 1 -2.83301 1 -4.5v-4.5v-2v-2v-2.5v-2.5
c-1.33301 -25.333 -8.33301 -49.833 -21 -73.5s-31 -46.167 -55 -67.5s-52.167 -37.5 -84.5 -48.5s-69.166 -16.5 -110.499 -16.5c-30.667 0 -58.667 3.5 -84 10.5s-48.333 17.5 -69 31.5s-36.167 30 -46.5 48s-15.5 38 -15.5 60v4v4v4.5c0 1.66699 0.333008 3.16699 1 4.5
c0.666992 6 1.66699 12 3 18s3 11.667 5 17s4.5 10.333 7.5 15s6.83301 9 11.5 13l87 47c-10.667 2.66699 -20.334 5.66699 -29.001 9s-15.667 7.33301 -21 12s-9.33301 10 -12 16s-4 12.667 -4 20c0 3.33301 0.333008 6.83301 1 10.5s1.66699 7.5 3 11.5
c1.33301 3.33301 2.83301 6.83301 4.5 10.5s3.83398 6.83398 6.50098 9.50098l77 61v2c-2.66699 -1.33301 -6 -1.66602 -10 -0.999023s-8.66699 1.66699 -14 3c-2.66699 0.666992 -5.16699 1.33398 -7.5 2.00098s-4.5 1.66699 -6.5 3
c-2.66699 0.666992 -5.16699 1.66699 -7.5 3s-4.83301 2.66602 -7.5 3.99902c-8 4.66699 -15.667 10.5 -23 17.5s-14.666 15.167 -21.999 24.5c-6.66699 9.33301 -11.667 20.333 -15 33s-5 27 -5 43s1.83301 30.833 5.5 44.5s8.83398 25.834 15.501 36.501
c7.33301 11.333 15.5 21.5 24.5 30.5s19.167 17.167 30.5 24.5c4.66699 3.33301 9.5 6.16602 14.5 8.49902s9.83301 4.83301 14.5 7.5l15.5 6l14.5 6c8 2.66699 15.833 5 23.5 7s15.167 3.33301 22.5 4c7.33301 1.33301 14.333 2.33301 21 3s13 1 19 1h4h4h2h2
c0.666992 -0.666992 1.5 -1 2.5 -1h2.5c9.33301 -0.666992 18.833 -2 28.5 -4s18.834 -4.66699 27.501 -8c9.33301 -3.33301 18.166 -7.5 26.499 -12.5s15.833 -10.5 22.5 -16.5l142 6l4 -12l-25 -41v0v0zM253.995 -251.997c27.333 0 52.334 3.66797 75.001 11.001
s42.334 18.333 59.001 33c17.333 14.667 30.166 30.667 38.499 48s12.5 36 12.5 56c0 14.667 -2.33301 27.667 -7 39s-11.667 20.666 -21 27.999c-9.33301 8 -23.5 13.833 -42.5 17.5s-42.5 5.5 -70.5 5.5h-21h-25c-8.66699 0 -18 -0.5 -28 -1.5s-20.667 -1.83301 -32 -2.5
c-2.66699 0 -5.16699 -0.5 -7.5 -1.5s-5.16602 -1.83301 -8.49902 -2.5c-2.66699 -1.33301 -5.5 -2.83301 -8.5 -4.5s-6.16699 -3.83398 -9.5 -6.50098c-6.66699 -4 -12.834 -8.83301 -18.501 -14.5s-11.167 -12.5 -16.5 -20.5c-4.66699 -8 -8.33398 -16.5 -11.001 -25.5
s-4 -18.833 -4 -29.5c0 -21.333 3.5 -40.166 10.5 -56.499s17.833 -29.833 32.5 -40.5c14 -10.667 29.667 -18.667 47 -24s36 -8 56 -8v0v0zM353.996 290.004c0 17.333 -2.16406 34.334 -6.49707 51.001s-11.166 32.334 -20.499 47.001
c-8.66699 15.333 -20.334 26.666 -35.001 33.999s-32.334 11 -53.001 11c-16.667 0 -31.334 -2.83301 -44.001 -8.5s-23 -14.167 -31 -25.5c-8.66699 -11.333 -15 -24 -19 -38s-6 -29.333 -6 -46c0 -22 2.66699 -41.333 8 -58s13.333 -30.667 24 -42
c11.333 -10.667 23.666 -18.834 36.999 -24.501s28 -8.5 44 -8.5c14.667 0 28 2.5 40 7.5s23 12.5 33 22.5c9.33301 10 16.5 21.333 21.5 34s7.5 26.667 7.5 42v2v0z" />
    <glyph glyph-name="h" unicode="h" horiz-adv-x="582" 
d="M88 102l-0.00585938 517.999c0 4.66699 -0.333008 9.33398 -1 14.001s-1.66699 9 -3 13s-3.83301 7 -7.5 9s-8.16699 3 -13.5 3l-56 2v28c6.66699 0 13.334 0.5 20.001 1.5s13.334 1.83301 20.001 2.5c6 1.33301 12.333 2.66602 19 3.99902l20 4
c13.333 2.66699 26.333 6 39 10s25.334 8.33301 38.001 13l9 -6v-338h2l74 64c0.666992 -0.666992 1.33398 -0.833984 2.00098 -0.500977s1.33398 0.833008 2.00098 1.5l2 2l2 2c4.66699 3.33301 9.5 6.16602 14.5 8.49902s10.167 4.16602 15.5 5.49902
s11.666 2.33301 18.999 3s15.333 1 24 1c29.333 0 54.5 -3.83301 75.5 -11.5s37.833 -19.167 50.5 -34.5c13.333 -15.333 23.166 -33.666 29.499 -54.999s9.5 -45.666 9.5 -72.999v-191v-20c0 -6 0.333008 -11.667 1 -17c0 -4.66699 0.5 -9 1.5 -13l2.5 -10
c1.33301 -2.66699 2.83301 -4.66699 4.5 -6s3.83398 -2.66602 6.50098 -3.99902c2.66699 -0.666992 5.66699 -1.5 9 -2.5s7.33301 -1.5 12 -1.5l41 -1v-30h-3h-3c-1.33301 0.666992 -2.5 1 -3.5 1h-3.5h-3h-3h-3.5h-3.5c-3.33301 0.666992 -6.66602 1.16699 -9.99902 1.5
s-6.66602 0.5 -9.99902 0.5h-4.5h-4.5h-5.5h-4.5h-4.5h-4.5h-4h-4h-2.5h-3.5h-2.5h-3.5h-11.5h-10.5c-4 0 -7.66699 -0.166992 -11 -0.5s-6.66602 -0.833008 -9.99902 -1.5h-7h-6h-2.5c-1 0 -2.16699 -0.333008 -3.5 -1h-2.5h-3.5v284c0 19.333 -2.66699 36.833 -8 52.5
s-13.333 28.834 -24 39.501c-10.667 11.333 -22.834 19.666 -36.501 24.999s-29.167 8 -46.5 8h-1.5h-0.5v0v0h-1v0c-12 -0.666992 -23.667 -2.83398 -35 -6.50098s-22.666 -9.16699 -33.999 -16.5c-10.667 -7.33301 -19.834 -15 -27.501 -23s-13.5 -16 -17.5 -24
c-0.666992 -2 -1.5 -4 -2.5 -6s-1.83301 -4 -2.5 -6s-1 -4 -1 -6v-6v-210v-20c0 -6 0.333008 -11.667 1 -17c0 -4.66699 0.5 -9 1.5 -13l2.5 -10c1.33301 -2.66699 2.83301 -4.66699 4.5 -6s3.83398 -2.66602 6.50098 -3.99902c2.66699 -0.666992 5.66699 -1.5 9 -2.5
s7.33301 -1.5 12 -1.5l45 -1v-30h-4.5h-4.5c-1.33301 0.666992 -2.83301 1 -4.5 1h-4.5h-4.5h-4.5h-5.5h-4.5c-6.66699 0.666992 -13.334 1.16699 -20.001 1.5s-13.667 0.5 -21 0.5h-22h-24h-23.5h-22.5c-7.33301 0 -14.5 -0.166992 -21.5 -0.5s-13.5 -0.833008 -19.5 -1.5
h-9.5h-9.5h-4.5c-1.66699 0 -3.16699 -0.333008 -4.5 -1h-4.5h-4.5v30l45 3c4 -0.666992 7.83301 -0.666992 11.5 0s6.83398 1.33398 9.50098 2.00098c2.66699 1.33301 5 2.66602 7 3.99902s3.33301 3.33301 4 6c1.33301 2.66699 2.16602 6 2.49902 10
s0.833008 8.33301 1.5 13v8c0 2.66699 0.333008 5.33398 1 8.00098v9v10v2v0z" />
    <glyph glyph-name="i" unicode="i" horiz-adv-x="291" 
d="M188 465v-363.002v-20c0 -6 0.333008 -11.667 1 -17c0 -4.66699 0.5 -9 1.5 -13l2.5 -10c1.33301 -2.66699 2.83301 -4.66699 4.5 -6s3.83398 -2.66602 6.50098 -3.99902c2.66699 -0.666992 5.66699 -1.5 9 -2.5s7.33301 -1.5 12 -1.5l46 -1v-30h-4.5h-4.5
c-2 0.666992 -3.83301 1 -5.5 1h-4.5h-4.5h-4.5h-5.5h-4.5c-6.66699 0.666992 -13.334 1.16699 -20.001 1.5s-13.667 0.5 -21 0.5h-22h-24h-23.5h-22.5c-7.33301 0 -14.5 -0.166992 -21.5 -0.5s-13.5 -0.833008 -19.5 -1.5h-10h-10h-4.5
c-1.66699 0 -3.16699 -0.333008 -4.5 -1h-4.5h-4.5v30l46 3c4 -0.666992 7.83301 -0.666992 11.5 0s6.83398 1.33398 9.50098 2.00098c2.66699 1.33301 5 2.66602 7 3.99902s3.33301 3.33301 4 6c1.33301 2.66699 2.16602 6 2.49902 10s0.833008 8.33301 1.5 13v8
c0 2.66699 0.333008 5.33398 1 8.00098v9v10v227c0 6.66699 -0.166992 13.334 -0.5 20.001s-0.833008 12.667 -1.5 18s-1.33398 9.83301 -2.00098 13.5s-1.66699 6.5 -3 8.5s-3 3.66699 -5 5s-4.66699 2.33301 -8 3c-2.66699 1.33301 -6 2.16602 -10 2.49902
s-8.66699 0.5 -14 0.5l-37 2v28c0.666992 -1.33301 1.33398 -2 2.00098 -2h2h0.5c0.333008 0 0.833008 0.333008 1.5 1h0.5h0.5c11.333 1.33301 22.666 3 33.999 5s22.333 4.33301 33 7l31.5 9.5c9.66699 3 18.834 6.16699 27.501 9.5l6 2l6 2l3 1.5l3 1.5
c0.666992 0 1.5 0.166992 2.5 0.5s1.83301 0.833008 2.5 1.5l9 -2v0v0zM141 686.998c7.33301 -1.33301 14.166 -3.5 20.499 -6.5s12.5 -7.16699 18.5 -12.5c5.33301 -6 9.5 -12.167 12.5 -18.5s4.5 -13.166 4.5 -20.499s-1.5 -14.333 -4.5 -21s-7.16699 -12.667 -12.5 -18
c-6 -5.33301 -12.167 -9.33301 -18.5 -12s-13.166 -4 -20.499 -4s-14.333 1.33301 -21 4s-12.667 6.66699 -18 12s-9.33301 11.333 -12 18s-4 13.667 -4 21s1.33301 14.166 4 20.499s6.66699 12.5 12 18.5c5.33301 5.33301 11.333 9.5 18 12.5s13.667 4.5 21 4.5v2v0z" />
    <glyph glyph-name="j" unicode="j" horiz-adv-x="234" 
d="M159 465l0.00292969 -484c0 -20 -1.16699 -39.167 -3.5 -57.5s-5.83301 -35.5 -10.5 -51.5s-10.334 -30.667 -17.001 -44s-14 -25.333 -22 -36c-8 -10 -16.667 -19.333 -26 -28s-19.333 -16.667 -30 -24s-22.334 -13 -35.001 -17s-26.334 -6 -41.001 -6l-14 38
c3.33301 -0.666992 6.33301 -1.16699 9 -1.5s5.33398 -0.5 8.00098 -0.5h4.5c1.66699 0 3.16699 -0.333008 4.5 -1h4.5h5.5h2.5c1 0 1.83301 0.333008 2.5 1c0.666992 0 1.5 0.166992 2.5 0.5s1.83301 0.833008 2.5 1.5c2 0.666992 4.16699 1.5 6.5 2.5
s4.83301 2.16699 7.5 3.5c2.66699 2 5.16699 4.16699 7.5 6.5l7.5 7.5c2.66699 2.66699 5.16699 5.66699 7.5 9s4.5 7 6.5 11c3.33301 6.66699 6.5 16 9.5 28s5.83301 26.667 8.5 44c2.66699 16.667 4.66699 35.5 6 56.5s2 44.167 2 69.5v334
c0 6.66699 -0.166992 13.334 -0.5 20.001s-0.833008 12.667 -1.5 18s-1.33398 9.83301 -2.00098 13.5s-1.66699 6.5 -3 8.5s-3 3.66699 -5 5s-4.66699 2.33301 -8 3c-2.66699 1.33301 -6 2.16602 -10 2.49902s-8.66699 0.5 -14 0.5l-37 2v28c1.33301 -1.33301 2.5 -2 3.5 -2
h2.5v0v1h0.5h0.5c11.333 1.33301 22.666 3 33.999 5s22.333 4.33301 33 7l31.5 9.5c9.66699 3 18.834 6.16699 27.501 9.5l6 2l6 2l3 1.5l3 1.5c0.666992 0 1.5 0.166992 2.5 0.5s1.83301 0.833008 2.5 1.5l9 -2v0v0zM112.003 577
c-7.33301 -1.33301 -14.333 -0.666992 -21 2s-12.667 7 -18 13c-6 5.33301 -10.333 11.333 -13 18s-4 13.667 -4 21s1.33301 14.166 4 20.499s7 12.166 13 17.499c5.33301 5.33301 11.333 9.5 18 12.5s13.667 4.5 21 4.5s14.166 -1.5 20.499 -4.5
s12.166 -7.16699 17.499 -12.5s9.5 -11.166 12.5 -17.499s4.5 -13.166 4.5 -20.499s-1.5 -14.333 -4.5 -21s-7.16699 -12.667 -12.5 -18c-5.33301 -6 -11.166 -10.333 -17.499 -13s-13.166 -4 -20.499 -4v2v0z" />
    <glyph glyph-name="k" unicode="k" horiz-adv-x="556" 
d="M104 102l-0.000976562 517.996c0 4.66699 -0.333008 9.33398 -1 14.001s-1.66699 9 -3 13s-3.83301 7 -7.5 9s-8.16699 3 -13.5 3l-56 2v28c6.66699 0 13.334 0.5 20.001 1.5s13.334 1.83301 20.001 2.5c6 1.33301 12.333 2.66602 19 3.99902l20 4
c13.333 2.66699 26.333 6 39 10s25.334 8.33301 38.001 13l9 -6v-457l73 59c1.33301 0 2.5 0.333008 3.5 1s2.16699 1.33398 3.5 2.00098c0.666992 1.33301 1.66699 2.5 3 3.5s2.33301 1.83301 3 2.5c1.33301 1.33301 2.5 2.33301 3.5 3s2.16699 1.66699 3.5 3
c0.666992 0.666992 1.66699 1.5 3 2.5s2.66602 1.83301 3.99902 2.5l11 10.5l12 10.5l12 10.5l12 11.5c7.33301 6 14.166 12.167 20.499 18.5l19.5 19.5l18 18l18 18l100 2v-30c-0.666992 -1.33301 -1.16699 -2 -1.5 -2h-0.5v0v0h-1.5h-0.5v0v0h-1v0
c-9.33301 0 -18.5 -1.16699 -27.5 -3.5s-17.5 -5.83301 -25.5 -10.5c-8.66699 -4.66699 -16.667 -9.5 -24 -14.5l-22 -15.5l-1.5 -1.5l-0.5 -0.5h-0.5h-0.5l-1 -1v0l-129 -99c5.33301 -7.33301 10.5 -14 15.5 -20s10.167 -11.667 15.5 -17l16.5 -16.5l16.5 -16.5l126 -123
c1.33301 -2 2.5 -3.5 3.5 -4.5s1.83301 -2.16699 2.5 -3.5c1.33301 -0.666992 2.5 -1.5 3.5 -2.5l3.5 -3.5c3.33301 -3.33301 7 -6.5 11 -9.5l13 -9.5c4 -2.66699 8.16699 -5.16699 12.5 -7.5s8.83301 -4.16602 13.5 -5.49902l3 -1.5
c0.666992 -0.333008 1.66699 -0.5 3 -0.5c0.666992 -0.666992 1.5 -1 2.5 -1h2.5c1.33301 0 2.33301 -0.166992 3 -0.5s1.66699 -0.5 3 -0.5h2.5h2.5v-21l-96 -29l-265 252v-138v-20c0 -6 0.333008 -11.667 1 -17c0 -4.66699 0.5 -9 1.5 -13l2.5 -10
c1.33301 -2.66699 2.83301 -4.66699 4.5 -6s3.83398 -2.66602 6.50098 -3.99902c2.66699 -0.666992 5.66699 -1.5 9 -2.5s7.33301 -1.5 12 -1.5l44 -1v-30h-4.5h-4.5c-1.33301 0.666992 -2.83301 1 -4.5 1h-4.5h-8.5h-9.5c-6.66699 0.666992 -13.334 1.16699 -20.001 1.5
s-13.667 0.5 -21 0.5h-22h-24h-23.5h-22.5c-7.33301 0 -14.5 -0.166992 -21.5 -0.5s-13.5 -0.833008 -19.5 -1.5h-10h-10h-4.5c-1.66699 0 -3.16699 -0.333008 -4.5 -1h-4.5h-4.5v30l46 3c4 -0.666992 7.83301 -0.666992 11.5 0s6.83398 1.33398 9.50098 2.00098
c2.66699 1.33301 5 2.66602 7 3.99902s3.33301 3.33301 4 6c1.33301 2.66699 2.16602 6 2.49902 10s0.833008 8.33301 1.5 13v8c0 2.66699 0.333008 5.33398 1 8.00098v9v10v2v0z" />
    <glyph glyph-name="l" unicode="l" horiz-adv-x="291" 
d="M104 102l-0.00292969 517.998c0 4.66699 -0.333008 9.33398 -1 14.001s-1.66699 9 -3 13s-3.83301 7 -7.5 9s-8.16699 3 -13.5 3l-56 2v28c6.66699 0 13.334 0.5 20.001 1.5s13.334 1.83301 20.001 2.5c6 1.33301 12.333 2.66602 19 3.99902l20 4
c13.333 2.66699 26.333 6 39 10s25.334 8.33301 38.001 13l9 -6v-616v-20c0 -6 0.333008 -11.667 1 -17c0 -4.66699 0.5 -9 1.5 -13l2.5 -10c1.33301 -2.66699 2.83301 -4.66699 4.5 -6s3.83398 -2.66602 6.50098 -3.99902c2.66699 -0.666992 5.66699 -1.5 9 -2.5
s7.33301 -1.5 12 -1.5l46 -1v-30h-4.5h-4.5c-2 0.666992 -3.83301 1 -5.5 1h-4.5h-4.5h-4.5h-5.5h-4.5c-6.66699 0.666992 -13.334 1.16699 -20.001 1.5s-13.667 0.5 -21 0.5h-22h-24h-23.5h-22.5c-7.33301 0 -14.5 -0.166992 -21.5 -0.5s-13.5 -0.833008 -19.5 -1.5h-10
h-10h-4.5c-1.66699 0 -3.16699 -0.333008 -4.5 -1h-4.5h-4.5v30l46 3c4 -0.666992 7.83301 -0.666992 11.5 0s6.83398 1.33398 9.50098 2.00098c2.66699 1.33301 5 2.66602 7 3.99902s3.33301 3.33301 4 6c1.33301 2.66699 2.16602 6 2.49902 10s0.833008 8.33301 1.5 13v8
c0 2.66699 0.333008 5.33398 1 8.00098v9v10v2v0z" />
    <glyph glyph-name="m" unicode="m" horiz-adv-x="883" 
d="M99 102l-0.000976562 224.997c0 6.66699 -0.166992 13.334 -0.5 20.001s-0.833008 12.667 -1.5 18s-1.33398 9.83301 -2.00098 13.5s-1.66699 6.5 -3 8.5s-3 3.66699 -5 5s-4.66699 2.33301 -8 3c-2.66699 1.33301 -6 2.16602 -10 2.49902s-8.66699 0.5 -14 0.5l-37 2v28
c0.666992 -1.33301 1.33398 -2 2.00098 -2h2h0.5c0.333008 0 0.833008 0.333008 1.5 1h0.5h0.5c11.333 1.33301 22.666 3 33.999 5s22.333 4.33301 33 7l31.5 9.5c9.66699 3 18.834 6.16699 27.501 9.5l6 2l6 2l3 1.5l3 1.5c0.666992 0 1.5 0.166992 2.5 0.5
s1.83301 0.833008 2.5 1.5l9 -2v-85l69 64c5.33301 3.33301 11.166 6.5 17.499 9.5s12.833 5.5 19.5 7.5c7.33301 2 15.166 3.5 23.499 4.5s17.5 1.5 27.5 1.5c14.667 0 28.667 -1.83301 42 -5.5s26 -9.16699 38 -16.5c12 -6.66699 22.833 -16 32.5 -28
s17.834 -26.333 24.501 -43l76 70c5.33301 3.33301 11.166 6.5 17.499 9.5s12.833 5.5 19.5 7.5c7.33301 2 15.166 3.5 23.499 4.5s17.5 1.5 27.5 1.5c19.333 0 37.5 -3.5 54.5 -10.5s32.5 -17.5 46.5 -31.5s24.667 -30.833 32 -50.5s11 -42.5 11 -68.5v-204v-20
c0 -6 0.333008 -11.667 1 -17c0 -4.66699 0.5 -9 1.5 -13l2.5 -10c1.33301 -2.66699 2.83301 -4.66699 4.5 -6s3.83398 -2.66602 6.50098 -3.99902c2.66699 -0.666992 5.66699 -1.5 9 -2.5s7.33301 -1.5 12 -1.5l47 -1v-30h-4h-4c-1.33301 0.666992 -2.66602 1 -3.99902 1
h-4h-7.5h-6.5c-4.66699 0.666992 -9.5 1.16699 -14.5 1.5s-10.167 0.5 -15.5 0.5h-14h-14h-2.5h-3.5h-2.5h-3.5h-11.5h-10.5c-4 0 -7.66699 -0.166992 -11 -0.5s-6.66602 -0.833008 -9.99902 -1.5h-7h-6h-2.5c-1 0 -2.16699 -0.333008 -3.5 -1h-2.5h-3.5v284
c0 15.333 -2 30.333 -6 45s-9.66699 28.334 -17 41.001c-7.33301 13.333 -17 23.166 -29 29.499s-26 9.5 -42 9.5h-1.5h-0.5v0v0h-1v0c-12 -0.666992 -23.667 -2.83398 -35 -6.50098s-22.666 -9.16699 -33.999 -16.5c-10.667 -7.33301 -19.834 -15 -27.501 -23
s-13.5 -16 -17.5 -24c-0.666992 -2 -1.5 -4 -2.5 -6s-1.83301 -4 -2.5 -6s-1 -4 -1 -6v-6v-210v-20c0 -6 0.333008 -11.667 1 -17c0 -4.66699 0.5 -9 1.5 -13l2.5 -10c1.33301 -2.66699 2.83301 -4.66699 4.5 -6s3.83398 -2.66602 6.50098 -3.99902
c2.66699 -0.666992 5.66699 -1.5 9 -2.5s7.33301 -1.5 12 -1.5l46 -1v-30h-4.5h-4.5c-2 0.666992 -3.83301 1 -5.5 1h-4.5h-4.5h-4.5h-5.5h-4.5c-6.66699 0.666992 -13.334 1.16699 -20.001 1.5s-13.667 0.5 -21 0.5h-22h-24h-23.5h-22.5
c-7.33301 0 -14.5 -0.166992 -21.5 -0.5s-13.5 -0.833008 -19.5 -1.5h-10h-10h-4.5c-1.66699 0 -3.16699 -0.333008 -4.5 -1h-4.5h-4.5v30l46 3c4 -0.666992 7.83301 -0.666992 11.5 0s6.83398 1.33398 9.50098 2.00098c2.66699 1.33301 5 2.66602 7 3.99902
s3.33301 3.33301 4 6c1.33301 2.66699 2.16602 6 2.49902 10s0.833008 8.33301 1.5 13v8c0 2.66699 0.333008 5.33398 1 8.00098v9v10v181c0 15.333 -2 30.333 -6 45s-9.66699 28.334 -17 41.001c-7.33301 13.333 -17 23.166 -29 29.499s-26 9.5 -42 9.5h-1.5h-0.5v0v0h-1v0
c-12 -0.666992 -23.667 -2.83398 -35 -6.50098s-22.666 -9.16699 -33.999 -16.5c-10.667 -7.33301 -19.834 -15 -27.501 -23s-13.5 -16 -17.5 -24c-0.666992 -2 -1.5 -4 -2.5 -6s-1.83301 -4 -2.5 -6s-1 -4 -1 -6v-6v-210v-20c0 -6 0.333008 -11.667 1 -17
c0 -4.66699 0.5 -9 1.5 -13l2.5 -10c1.33301 -2.66699 2.83301 -4.66699 4.5 -6s3.83398 -2.66602 6.50098 -3.99902c2.66699 -0.666992 5.66699 -1.5 9 -2.5s7.33301 -1.5 12 -1.5l42 -1v-30h-4h-4c-2 0.666992 -3.66699 1 -5 1h-4h-8.5h-9.5
c-6 0.666992 -12.333 1.16699 -19 1.5s-13.667 0.5 -21 0.5h-22h-24h-23.5h-22.5c-7.33301 0 -14.5 -0.166992 -21.5 -0.5s-13.5 -0.833008 -19.5 -1.5h-10h-10h-4.5c-1.66699 0 -3.16699 -0.333008 -4.5 -1h-4.5h-4.5v30l46 3c4 -0.666992 7.83301 -0.666992 11.5 0
s6.83398 1.33398 9.50098 2.00098c2.66699 1.33301 5 2.66602 7 3.99902s3.33301 3.33301 4 6c1.33301 2.66699 2.16602 6 2.49902 10s0.833008 8.33301 1.5 13v8c0 2.66699 0.333008 5.33398 1 8.00098v9v10v2v0z" />
    <glyph glyph-name="n" unicode="n" horiz-adv-x="582" 
d="M172 314l-0.00292969 -212.001v-20c0 -6 0.333008 -11.667 1 -17c0 -4.66699 0.5 -9 1.5 -13l2.5 -10c1.33301 -2.66699 2.83301 -4.66699 4.5 -6s3.83398 -2.66602 6.50098 -3.99902c2.66699 -0.666992 5.66699 -1.5 9 -2.5s7.33301 -1.5 12 -1.5l45 -1v-30h-4.5h-4.5
c-1.33301 0.666992 -2.83301 1 -4.5 1h-4.5h-4.5h-4.5h-5.5h-4.5c-6.66699 0.666992 -13.334 1.16699 -20.001 1.5s-13.667 0.5 -21 0.5h-22h-24h-23.5h-22.5c-7.33301 -0 -14.5 -0.166992 -21.5 -0.5s-13.5 -0.833008 -19.5 -1.5h-9.5h-9.5h-4.5
c-1.66699 0 -3.16699 -0.333008 -4.5 -1h-4.5h-4.5v30l45 3c4 -0.666992 7.83301 -0.666992 11.5 0s6.83398 1.33398 9.50098 2.00098c2.66699 1.33301 5 2.66602 7 3.99902s3.33301 3.33301 4 6c1.33301 2.66699 2.16602 6 2.49902 10s0.833008 8.33301 1.5 13v8
c0 2.66699 0.333008 5.33398 1 8.00098v9v10v227c0 6.66699 -0.166992 13.334 -0.5 20.001s-0.833008 12.667 -1.5 18s-1.33398 9.83301 -2.00098 13.5s-1.66699 6.5 -3 8.5s-3 3.66699 -5 5s-4.66699 2.33301 -8 3c-2.66699 1.33301 -6 2.16602 -10 2.49902
s-8.66699 0.5 -14 0.5l-37 2v28c0.666992 -1.33301 1.33398 -2 2.00098 -2h2h0.5c0.333008 0 0.833008 0.333008 1.5 1h0.5h0.5c11.333 1.33301 22.666 3 33.999 5s22.333 4.33301 33 7l31.5 9.5c9.66699 3 18.834 6.16699 27.501 9.5l6 2l6 2l3 1.5l3 1.5
c0.666992 0 1.5 0.166992 2.5 0.5s1.83301 0.833008 2.5 1.5l9 -2v-85h2l74 64c0.666992 -0.666992 1.33398 -0.833984 2.00098 -0.500977s1.33398 0.833008 2.00098 1.5l2 2l2 2c4.66699 3.33301 9.5 6.16602 14.5 8.49902s10.167 4.16602 15.5 5.49902
s11.666 2.33301 18.999 3s15.333 1 24 1c29.333 0 54.5 -3.83301 75.5 -11.5s37.833 -19.167 50.5 -34.5c13.333 -15.333 23.166 -33.666 29.499 -54.999s9.5 -45.666 9.5 -72.999v-191v-20c0 -6 0.333008 -11.667 1 -17c0 -4.66699 0.5 -9 1.5 -13l2.5 -10
c1.33301 -2.66699 2.83301 -4.66699 4.5 -6s3.83398 -2.66602 6.50098 -3.99902c2.66699 -0.666992 5.66699 -1.5 9 -2.5s7.33301 -1.5 12 -1.5l41 -1v-30h-3h-3c-1.33301 0.666992 -2.5 1 -3.5 1h-3.5h-3h-3h-3.5h-3.5c-3.33301 0.666992 -6.66602 1.16699 -9.99902 1.5
s-6.66602 0.5 -9.99902 0.5h-4.5h-4.5h-5.5h-4.5h-4.5h-4.5h-4h-4h-2.5h-3.5h-2.5h-3.5h-11.5h-10.5c-4 0 -7.66699 -0.166992 -11 -0.5s-6.66602 -0.833008 -9.99902 -1.5h-7h-6h-2.5c-1 0 -2.16699 -0.333008 -3.5 -1h-2.5h-3.5v284c0 19.333 -2.66699 36.833 -8 52.5
s-13.333 28.834 -24 39.501c-10.667 11.333 -22.834 19.666 -36.501 24.999s-29.167 8 -46.5 8h-1.5h-0.5v0v0h-1v0c-12 -0.666992 -23.667 -2.83398 -35 -6.50098s-22.666 -9.16699 -33.999 -16.5c-10.667 -7.33301 -19.834 -15 -27.501 -23s-13.5 -16 -17.5 -24
c-0.666992 -2 -1.5 -4 -2.5 -6s-1.83301 -4 -2.5 -6s-1 -4 -1 -6v-6v2v0z" />
    <glyph glyph-name="o" unicode="o" horiz-adv-x="546" 
d="M252 -20h-1.49902h-0.5h-1v0h-1.5h-0.5h-1.5h-0.5c-30.667 0 -58.834 5.33301 -84.501 16s-48.5 27 -68.5 49s-35 46.833 -45 74.5s-15 58.5 -15 92.5c0 37.333 5.5 71.333 16.5 102s27.833 58 50.5 82c22 23.333 48.667 41 80 53s67.333 18 108 18
c32 0 61.333 -5.5 88 -16.5s51 -27.5 73 -49.5s38.5 -46.5 49.5 -73.5s16.5 -56.5 16.5 -88.5c0 -38.667 -6.16699 -73.667 -18.5 -105s-30.833 -59 -55.5 -83s-52.667 -41.833 -84 -53.5s-66 -17.5 -104 -17.5v0v0zM264.001 436
c-26.667 -1.33301 -49.001 -6.66797 -67.001 -16.001s-32 -23 -42 -41s-17.5 -37.333 -22.5 -58s-7.5 -42.667 -7.5 -66v-15.5c0 -5.66699 0.333008 -11.167 1 -16.5c0 -5.33301 0.5 -10.833 1.5 -16.5s1.83301 -11.167 2.5 -16.5
c3.33301 -22.667 8.83301 -44.167 16.5 -64.5s17.834 -39.833 30.501 -58.5c12 -18.667 27.5 -32.667 46.5 -42s41.5 -14 67.5 -14c22.667 0 42.167 4.83301 58.5 14.5s29.833 23.834 40.5 42.501c10 19.333 17.667 39.5 23 60.5s8 43.167 8 66.5c0 32 -3.66699 62 -11 90
s-18 54 -32 78c-14 23.333 -30.5 41 -49.5 53s-40.5 18 -64.5 18v2v0z" />
    <glyph glyph-name="p" unicode="p" horiz-adv-x="601" 
d="M91 -176l0.00195312 502.996c0 6.66699 -0.166992 13.334 -0.5 20.001s-0.833008 12.667 -1.5 18s-1.33398 9.83301 -2.00098 13.5s-1.66699 6.5 -3 8.5s-3 3.66699 -5 5s-4.66699 2.33301 -8 3c-2.66699 1.33301 -6 2.16602 -10 2.49902s-8.66699 0.5 -14 0.5l-37 2v28
c0.666992 -1.33301 1.33398 -2 2.00098 -2h2h0.5c0.333008 0 0.833008 0.333008 1.5 1h0.5h0.5c11.333 1.33301 22.666 3 33.999 5s22.333 4.33301 33 7l31.5 9.5c9.66699 3 18.834 6.16699 27.501 9.5l6 2l6 2l3 1.5l3 1.5c0.666992 0 1.5 0.166992 2.5 0.5
s1.83301 0.833008 2.5 1.5l9 -2v-94h2l80 73c4 2.66699 9.16699 5.33398 15.5 8.00098s13.5 5.33398 21.5 8.00098c8 2 16.833 3.66699 26.5 5s19.834 2 30.501 2c26.667 0 51.667 -4.66699 75 -14s45.333 -23.333 66 -42s36.167 -40.334 46.5 -65.001
s15.5 -52.334 15.5 -83.001c0 -4.66699 -0.333008 -9.83398 -1 -15.501s-1.66699 -11.167 -3 -16.5c-0.666992 -6 -1.83398 -11.833 -3.50098 -17.5s-3.5 -11.167 -5.5 -16.5c-2.66699 -8 -5.66699 -16 -9 -24s-7 -15.667 -11 -23l-6 -11.5
c-2 -3.66699 -3.66699 -7.16699 -5 -10.5c-2 -3.33301 -4 -6.5 -6 -9.5s-4 -5.83301 -6 -8.5c-2.66699 -4 -5.33398 -7.66699 -8.00098 -11l-8 -10c-2.66699 -2.66699 -5.33398 -5.16699 -8.00098 -7.5s-5 -4.16602 -7 -5.49902l-114 -72
c-4.66699 -2.66699 -9.5 -5 -14.5 -7s-10.5 -3.66699 -16.5 -5s-12.167 -2.33301 -18.5 -3s-12.833 -1 -19.5 -1h-6h-7c-2 0.666992 -4.16699 1 -6.5 1h-7.5c-2.66699 0 -5.16699 0.166992 -7.5 0.5s-4.5 0.833008 -6.5 1.5c-2.66699 0 -5.16699 0.166992 -7.5 0.5
s-4.83301 0.833008 -7.5 1.5s-5.16699 1.33398 -7.5 2.00098s-4.5 1 -6.5 1c-2.66699 0.666992 -5.16699 1.33398 -7.5 2.00098s-4.5 1.33398 -6.5 2.00098c-4.66699 0.666992 -9 2 -13 4s-8 4.33301 -12 7v-187v-19c0 -6 0.333008 -11.333 1 -16
c0 -5.33301 0.5 -9.83301 1.5 -13.5s1.83301 -6.83398 2.5 -9.50098c1.33301 -2 2.83301 -4 4.5 -6s3.83398 -3.33301 6.50098 -4c2.66699 -1.33301 5.66699 -2.16602 9 -2.49902s7.33301 -0.833008 12 -1.5l46 -3v-30h-4.5h-4.5c-2 0.666992 -3.83301 1 -5.5 1h-4.5h-4.5
h-4.5h-5.5h-4.5c-6.66699 0.666992 -13.334 1.16699 -20.001 1.5s-13.667 0.5 -21 0.5h-22h-24h-23.5h-22.5c-7.33301 0 -14.5 -0.166992 -21.5 -0.5s-13.5 -0.833008 -19.5 -1.5h-10h-10h-4.5c-1.66699 0 -3.16699 -0.333008 -4.5 -1h-4.5h-4.5v30l46 3
c4 0.666992 7.83301 1.16699 11.5 1.5s6.83398 1.16602 9.50098 2.49902c2.66699 0.666992 5 2 7 4s3.33301 4 4 6c1.33301 2.66699 2.16602 5.83398 2.49902 9.50098s0.833008 8.16699 1.5 13.5v8c0 2.66699 0.333008 5.33398 1 8.00098v9.5v9.5v0v0zM175.002 300.996
l-0.00195312 -203c9.33301 -12 19.333 -22 30 -30s22 -14 34 -18c11.333 -4.66699 23.5 -8 36.5 -10s26.833 -3 41.5 -3c20 0 38.833 4.5 56.5 13.5s33.834 22.833 48.501 41.5c15.333 18.667 26.666 39.667 33.999 63s11 49.333 11 78c0 23.333 -3.16699 45 -9.5 65
s-16.166 38.333 -29.499 55c-12.667 16 -28.834 28.167 -48.501 36.5s-42.5 12.5 -68.5 12.5c-14 0 -27 -1.5 -39 -4.5s-22.667 -7.16699 -32 -12.5s-17.666 -11 -24.999 -17s-13.666 -12 -18.999 -18c-2 -2 -3.66699 -4 -5 -6l-4 -6c-1.33301 -2 -2.5 -4 -3.5 -6
s-2.16699 -4 -3.5 -6c-1.33301 -2.66699 -2.5 -5.16699 -3.5 -7.5s-1.5 -4.5 -1.5 -6.5v-3v-3v-3.5v-3.5v2v0z" />
    <glyph glyph-name="q" unicode="q" horiz-adv-x="560" 
d="M393 -176v242l-104 -66c-2.66699 -2 -5.66699 -3.66699 -9 -5s-7 -2.33301 -11 -3c-4 -1.33301 -7.83301 -2.16602 -11.5 -2.49902s-7.16699 -0.833008 -10.5 -1.5h-2h-2h-2h-2h-1.5h-1.5h-1.5h-1.5c-34.667 2 -64.334 8.16699 -89.001 18.5
s-44.334 25.166 -59.001 44.499s-26.167 39.666 -34.5 60.999s-13.166 43.333 -14.499 66c-0.666992 1.33301 -1 2.83301 -1 4.5v5.5v6v6c0 25.333 2.33301 48.166 7 68.499s11.667 38.5 21 54.5c9.33301 15.333 19.666 29.166 30.999 41.499s24 22.833 38 31.5l84 56
c3.33301 0.666992 7.5 1.83398 12.5 3.50098s10.833 3.5 17.5 5.5c6 1.33301 12.333 2.5 19 3.5s13.334 1.83301 20.001 2.5h1.5h1.5h1.5h1.5c12 0 24 -0.666992 36 -2s24 -3.66602 36 -6.99902c12 -2.66699 23.833 -6 35.5 -10s22.834 -8.66699 33.501 -14l49 33l19 -11
c-2.66699 -6 -5.16699 -12 -7.5 -18s-4.16602 -12.333 -5.49902 -19s-2.5 -13.167 -3.5 -19.5s-1.83301 -12.833 -2.5 -19.5l-2 -17.5c-0.666992 -5.66699 -1 -11.167 -1 -16.5c-0.666992 -5.33301 -1 -10.5 -1 -15.5v-14.5v-492v-19c0 -6 0.333008 -11.333 1 -16
c0 -5.33301 0.5 -9.83301 1.5 -13.5s1.83301 -6.83398 2.5 -9.50098c1.33301 -2 2.83301 -4 4.5 -6s3.83398 -3.33301 6.50098 -4c2.66699 -1.33301 5.66699 -2.16602 9 -2.49902s7.33301 -0.833008 12 -1.5l46 -3v-30h-4.5h-4.5c-2 0.666992 -3.83301 1 -5.5 1h-4.5h-4.5
h-4.5h-5.5h-4.5c-6.66699 0.666992 -13.334 1.16699 -20.001 1.5s-13.667 0.5 -21 0.5h-22h-24h-19h-18h-8.5c-3 0 -6.16699 -0.333008 -9.5 -1h-8.5h-9.5h-4.5h-4.5h-2c-0.666992 0 -1.33398 -0.333008 -2.00098 -1h-3h-2h-6h-5h-6h-6h-6c-2 0 -3.66699 -0.333008 -5 -1h-6
h-6v30l58 3c4 0.666992 7.83301 1.16699 11.5 1.5s6.83398 1.16602 9.50098 2.49902c2.66699 0.666992 5 2 7 4s3.33301 4 4 6c1.33301 2.66699 2.16602 5.83398 2.49902 9.50098s0.833008 8.16699 1.5 13.5v8c0 2.66699 0.333008 5.33398 1 8.00098v9.5v9.5v0v0zM393 120
l0.00390625 260.998c-6.66699 5.33301 -13.834 10.333 -21.501 15s-15.5 8.33398 -23.5 11.001c-8.66699 3.33301 -17.167 5.83301 -25.5 7.5s-16.5 2.83398 -24.5 3.50098h-4c-1.33301 0 -2.66602 0.333008 -3.99902 1h-4h-4h-4c-1.33301 0 -2.66602 0.333008 -3.99902 1
h-4h-4h-4h-4c-2 -0.666992 -3.66699 -1 -5 -1h-4c-2.66699 -0.666992 -5.33398 -1.16699 -8.00098 -1.5s-5.33398 -0.833008 -8.00098 -1.5c-14 -3.33301 -27.5 -9 -40.5 -17s-25.167 -18.667 -36.5 -32c-11.333 -12.667 -19.833 -28.667 -25.5 -48s-8.5 -42 -8.5 -68v-2.5
v-2.5v-3v-3v-5.5c0 -1.66699 0.333008 -3.16699 1 -4.5c1.33301 -23.333 5 -45.833 11 -67.5s14.667 -42.167 26 -61.5s26.833 -33.833 46.5 -43.5s43.167 -14.5 70.5 -14.5h5h6h3c0.666992 0 1.66699 0.333008 3 1c0.666992 0 1.5 0.166992 2.5 0.5
s1.83301 0.833008 2.5 1.5c3.33301 0.666992 6.66602 1.5 9.99902 2.5s7 2.16699 11 3.5c3.33301 1.33301 6.66602 2.83301 9.99902 4.5s6.66602 3.5 9.99902 5.5c6.66699 4 12.667 8 18 12s10.333 8.33301 15 13c3.33301 2.66699 6 5.33398 8 8.00098l6 8
c2 3.33301 3.5 6.16602 4.5 8.49902s1.5 4.5 1.5 6.5v2v0z" />
    <glyph glyph-name="r" unicode="r" horiz-adv-x="395" 
d="M104 102l-0.00292969 224.997c0 6.66699 -0.166992 13.334 -0.5 20.001s-0.833008 12.667 -1.5 18s-1.33398 9.83301 -2.00098 13.5s-1.66699 6.5 -3 8.5s-3 3.66699 -5 5s-4.66699 2.33301 -8 3c-2.66699 1.33301 -6 2.16602 -10 2.49902s-8.66699 0.5 -14 0.5l-37 2v28
c0.666992 -1.33301 1.33398 -2 2.00098 -2h2h0.5c0.333008 0 0.833008 0.333008 1.5 1h0.5h0.5c11.333 1.33301 22.666 3 33.999 5s22.333 4.33301 33 7l31.5 9.5c9.66699 3 18.834 6.16699 27.501 9.5l6 2l6 2l3 1.5l3 1.5c0.666992 0 1.5 0.166992 2.5 0.5
s1.83301 0.833008 2.5 1.5l9 -2v-101h2l54 64c3.33301 2.66699 6.83301 5.66699 10.5 9s7.5 6.33301 11.5 9c4 3.33301 8 6 12 8s8 3.66699 12 5c1.33301 0.666992 2.83301 1.16699 4.5 1.5s3.5 0.833008 5.5 1.5c1.33301 0.666992 2.83301 1.16699 4.5 1.5
s3.16699 0.833008 4.5 1.5c1.33301 0 2.83301 0.166992 4.5 0.5s3.5 0.5 5.5 0.5c1.33301 0.666992 2.83301 1 4.5 1h4.5h3.5h2.5h1.5h1.5c0.666992 -0.666992 1.16699 -1 1.5 -1h1.5c3.33301 -0.666992 6.83301 -1.16699 10.5 -1.5s6.83398 -1.16602 9.50098 -2.49902
c3.33301 -0.666992 6 -1.5 8 -2.5s4 -2.16699 6 -3.5l-9 -118h-21c-2.66699 4.66699 -6.16699 9.66699 -10.5 15s-9.16602 10.333 -14.499 15s-11.5 8.16699 -18.5 10.5s-15.167 3.5 -24.5 3.5c-10.667 0 -21.167 -2.66699 -31.5 -8s-20.166 -13 -29.499 -23
c-8.66699 -10.667 -15.334 -22.5 -20.001 -35.5s-7 -27.5 -7 -43.5v-170v-20c0 -6 0.333008 -11.667 1 -17c0 -4.66699 0.5 -9 1.5 -13l2.5 -10c1.33301 -2.66699 3 -4.66699 5 -6s5 -2.66602 9 -3.99902l12 -2.5c4.66699 -1 10 -1.5 16 -1.5l52 -1v-30h-6.5h-6.5
c-2 0.666992 -4 1 -6 1h-6h-12h-12h-4h-4c-1.33301 0.666992 -2.66602 1 -3.99902 1h-4h-8h-8c-4.66699 0.666992 -9.5 1 -14.5 1h-15.5h-14.5h-15.5h-23.5h-22.5c-7.33301 0 -14.5 -0.166992 -21.5 -0.5s-13.5 -0.833008 -19.5 -1.5h-10h-10h-4.5
c-1.66699 0 -3.16699 -0.333008 -4.5 -1h-4.5h-4.5v30l46 3c4 -0.666992 7.83301 -0.666992 11.5 0s6.83398 1.33398 9.50098 2.00098c2.66699 1.33301 5 2.66602 7 3.99902s3.33301 3.33301 4 6c1.33301 2.66699 2.16602 6 2.49902 10s0.833008 8.33301 1.5 13v8
c0 2.66699 0.333008 5.33398 1 8.00098v9v10v2v0z" />
    <glyph glyph-name="s" unicode="s" horiz-adv-x="424" 
d="M41 143l29.999 0.00488281v-41c0 -14 2.5 -26 7.5 -36s12.833 -18.333 23.5 -25s21.834 -12 33.501 -16s23.834 -6.66699 36.501 -8c2 -0.666992 4.16699 -1.16699 6.5 -1.5s4.83301 -0.5 7.5 -0.5h6.5h7.5c15.333 0 29.833 2 43.5 6s26.5 10.333 38.5 19
c11.333 8.66699 20 18.5 26 29.5s9 23.167 9 36.5c0 8 -1.16699 15.5 -3.5 22.5s-5.5 13.5 -9.5 19.5s-9 11 -15 15s-12.667 7 -20 9c-6.66699 1.33301 -13.667 2.83301 -21 4.5s-14.666 3.5 -21.999 5.5l-23.5 6l-22.5 6l-14.5 4l-15.5 4
c-4.66699 1.33301 -9.33398 2.83301 -14.001 4.5s-9.33398 3.5 -14.001 5.5c-12 4.66699 -23.167 10.167 -33.5 16.5s-19.5 13.5 -27.5 21.5s-14 18 -18 30s-6 25.667 -6 41c0 27.333 4.83301 50.333 14.5 69s24.5 33.334 44.5 44.001
c19.333 11.333 39.833 19.666 61.5 24.999s44.167 8 67.5 8c11.333 0 22.666 -0.666992 33.999 -2s22.333 -3 33 -5c11.333 -2.66699 22 -5.5 32 -8.5s20 -6.16699 30 -9.5c-0.666992 -4.66699 -1.16699 -9.33398 -1.5 -14.001s-0.5 -9 -0.5 -13
c-0.666992 -4.66699 -1 -9.33398 -1 -14.001v-14c-0.666992 -9.33301 -1.16699 -18.833 -1.5 -28.5s-0.5 -19.5 -0.5 -29.5l-28 2v23c0 11.333 -3 22 -9 32s-14.667 18.333 -26 25c-11.333 7.33301 -23.333 12.833 -36 16.5s-25.667 5.83398 -39 6.50098h-2h-2h-1.5h-0.5
c-16.667 0 -30.834 -1.5 -42.501 -4.5s-21.167 -7.5 -28.5 -13.5c-6.66699 -6 -12.167 -12.333 -16.5 -19s-7.16602 -13.667 -8.49902 -21c-0.666992 -2 -1.16699 -4 -1.5 -6s-0.5 -4 -0.5 -6v-2.5v-2.5v-3v-3c0 -10.667 2.16699 -20.334 6.5 -29.001s10.833 -16 19.5 -22
s20 -11.333 34 -16s30.333 -8.66699 49 -12c29.333 -4.66699 55 -10.5 77 -17.5s40.333 -15.167 55 -24.5c14 -8.66699 24.667 -20.334 32 -35.001s11 -31.667 11 -51c0 -27.333 -5.66699 -51.5 -17 -72.5s-28.666 -38.5 -51.999 -52.5
c-22.667 -13.333 -46.834 -23.5 -72.501 -30.5s-52.167 -10.5 -79.5 -10.5h-8h-8c-2.66699 0.666992 -5.33398 1 -8.00098 1h-8c-5.33301 0.666992 -10.5 1.16699 -15.5 1.5s-10.167 1.16602 -15.5 2.49902c-6.66699 0.666992 -13.167 1.66699 -19.5 3l-18.5 4
c-3.33301 0.666992 -6.66602 1.5 -9.99902 2.5s-6.33301 1.83301 -9 2.5c-3.33301 1.33301 -6.66602 2.33301 -9.99902 3l-10 2c2 8.66699 3.66699 17.5 5 26.5s2.33301 18.167 3 27.5s1.16699 18.666 1.5 27.999s0.833008 19 1.5 29v6.5v7.5v6.5v7.5v2v0z" />
    <glyph glyph-name="t" unicode="t" horiz-adv-x="326" 
d="M98 382l-75.999 -4.00391v21l78 35v70v8.5v9.5c-0.666992 2.66699 -1 5.66699 -1 9v10c-0.666992 6.66699 -1.16699 13.334 -1.5 20.001s-0.833008 13.334 -1.5 20.001l13.5 4c4.33301 1.33301 8.5 3 12.5 5c4 1.33301 8 2.83301 12 4.5s8 3.5 12 5.5
c3.33301 1.33301 6.83301 2.83301 10.5 4.5s6.83398 3.5 9.50098 5.5c3.33301 1.33301 6.16602 2.83301 8.49902 4.5l6.5 4.5l12 -9l-2 -17.5l-2 -16.5l-2 -17.5c-0.666992 -5.66699 -1 -11.167 -1 -16.5l-2 -20c-0.666992 -6.66699 -1 -13.334 -1 -20.001
c-0.666992 -6.66699 -1 -13 -1 -19v-17v-36l137 6l-9 -54h-128v-262c0 -12.667 1 -23.334 3 -32.001s5 -16 9 -22s9.5 -10.333 16.5 -13s15.833 -4 26.5 -4c5.33301 0 10.166 0.333008 14.499 1s8.5 1.66699 12.5 3s8 2.83301 12 4.5s7.33301 3.5 10 5.5h1.5
c0.333008 0 0.833008 0.333008 1.5 1l0.5 0.5c0.333008 0.333008 0.833008 0.5 1.5 0.5s1.16699 0.166992 1.5 0.5l1.5 1.5l0.5 0.5c0.333008 0.333008 0.833008 0.5 1.5 0.5l13 -15l-48 -53c-1.33301 -1.33301 -3.33301 -2.66602 -6 -3.99902s-6 -2.33301 -10 -3
c-4 -1.33301 -8 -2.16602 -12 -2.49902s-8 -0.833008 -12 -1.5h-3c-1.33301 0 -2.33301 -0.333008 -3 -1h-3.5h-3.5h-6h-6c-13.333 0 -25.833 1.83301 -37.5 5.5s-22.167 8.83398 -31.5 15.501c-10 7.33301 -17.333 17.833 -22 31.5s-7 30.834 -7 51.501v290v0v0z" />
    <glyph glyph-name="u" unicode="u" horiz-adv-x="603" 
d="M503 465l-0.000976562 -362.997v-20c0 -6 0.333008 -11.667 1 -17c0 -4.66699 0.5 -9 1.5 -13l2.5 -10c1.33301 -2.66699 2.83301 -4.66699 4.5 -6s3.83398 -2.66602 6.50098 -3.99902c2.66699 -0.666992 5.66699 -1.5 9 -2.5s7.33301 -1.5 12 -1.5l41 -1v-30h-3h-3
c-1.33301 0.666992 -2.5 1 -3.5 1h-3.5h-3h-3h-3.5h-3.5c-3.33301 0.666992 -6.66602 1.16699 -9.99902 1.5s-6.66602 0.5 -9.99902 0.5h-4.5h-4.5h-5.5h-4.5h-4.5h-4.5h-4h-4h-7.5h-6.5h-7.5h-7.5c-4.66699 0 -9.33398 -0.166992 -14.001 -0.5
s-9.33398 -0.833008 -14.001 -1.5h-7.5h-6.5h-3c-1.33301 0 -2.33301 -0.333008 -3 -1h-3.5h-3.5v2v1v1c0 0.666992 0.333008 1.33398 1 2.00098c0 6 0.166992 12.333 0.5 19s0.833008 13.334 1.5 20.001v10c0 3.33301 0.333008 7 1 11v12v12l-67 -60
c-6.66699 -7.33301 -14.167 -13.5 -22.5 -18.5s-17.166 -8.5 -26.499 -10.5c-8.66699 -3.33301 -18.334 -5.83301 -29.001 -7.5s-22 -2.5 -34 -2.5c-32 0 -57.833 3.66699 -77.5 11s-33.167 18.666 -40.5 33.999s-13 31.5 -17 48.5s-6 34.833 -6 53.5v4.5v5.5v6v6v170
c0 6.66699 -0.166992 13.334 -0.5 20.001s-0.833008 12.667 -1.5 18s-1.33398 9.83301 -2.00098 13.5s-1.66699 6.5 -3 8.5s-3 3.66699 -5 5s-4.66699 2.33301 -8 3c-2.66699 1.33301 -6 2.16602 -10 2.49902s-8.66699 0.5 -14 0.5l-37 2v28
c0.666992 -1.33301 1.33398 -2 2.00098 -2h2h0.5c0.333008 0 0.833008 0.333008 1.5 1h0.5h0.5c11.333 1.33301 22.666 3 33.999 5s22.333 4.33301 33 7l31.5 9.5c9.66699 3 18.834 6.16699 27.501 9.5l6 2l6 2l3 1.5l3 1.5c0.666992 0 1.5 0.166992 2.5 0.5
s1.83301 0.833008 2.5 1.5l9 -2v-295c0 -20.667 1.66699 -38.667 5 -54s8.33301 -28 15 -38c6.66699 -10.667 17.5 -18.5 32.5 -23.5s33.833 -7.5 56.5 -7.5c12.667 0 25 2 37 6s23.333 10.333 34 19c11.333 8.66699 21 17.667 29 27s14.333 19 19 29
c0.666992 1.33301 1.16699 2.66602 1.5 3.99902s0.833008 3 1.5 5c0.666992 1.33301 1.16699 2.66602 1.5 3.99902s0.833008 2.66602 1.5 3.99902c0 1.33301 0.166992 2.66602 0.5 3.99902s0.5 3 0.5 5c0.666992 1.33301 1 2.66602 1 3.99902v4v165
c0 6.66699 -0.166992 13.334 -0.5 20.001s-0.833008 12.667 -1.5 18s-1.33398 9.83301 -2.00098 13.5s-1.66699 6.5 -3 8.5s-3 3.66699 -5 5s-4.66699 2.33301 -8 3c-2.66699 1.33301 -6 2.16602 -10 2.49902s-8.66699 0.5 -14 0.5l-37 2v28
c0.666992 -1.33301 1.33398 -2 2.00098 -2h2h0.5c0.333008 0 0.833008 0.333008 1.5 1h0.5h0.5c11.333 1.33301 22.666 3 33.999 5s22.333 4.33301 33 7l31.5 9.5c9.66699 3 18.834 6.16699 27.501 9.5l6 2l6 2l3 1.5l3 1.5c0.666992 0 1.5 0.166992 2.5 0.5
s1.83301 0.833008 2.5 1.5l9 -2v0v0z" />
    <glyph glyph-name="v" unicode="v" horiz-adv-x="565" 
d="M452 362l-117.988 -260.008c-0.666992 -3.33301 -1.5 -6 -2.5 -8s-1.83301 -4 -2.5 -6s-1.33398 -3.83301 -2.00098 -5.5s-1.33398 -3.16699 -2.00098 -4.5c-0.666992 -2 -1.5 -4 -2.5 -6s-1.83301 -4 -2.5 -6c-1.33301 -2.66699 -2.33301 -5 -3 -7l-2 -6l-4 -12l-4 -12
c-0.666992 -1.33301 -1.33398 -2.83301 -2.00098 -4.5s-1 -3.16699 -1 -4.5c-0.666992 -2 -1.33398 -3.83301 -2.00098 -5.5s-1.33398 -3.16699 -2.00098 -4.5c-0.666992 -2 -1.33398 -3.66699 -2.00098 -5s-1 -2.66602 -1 -3.99902
c-0.666992 -0.666992 -1 -1.16699 -1 -1.5s-0.333008 -0.5 -1 -0.5c0 -1.33301 -0.166992 -2.5 -0.5 -3.5s-0.833008 -1.83301 -1.5 -2.5h-50l-172 403c-0.666992 -0.666992 -1.16699 -0.666992 -1.5 0s-0.5 1.33398 -0.5 2.00098
c-0.666992 0.666992 -1.16699 1.33398 -1.5 2.00098s-0.5 1.33398 -0.5 2.00098c-0.666992 3.33301 -1.83398 6.16602 -3.50098 8.49902l-5.5 7.5c-2 2.66699 -4.5 4.66699 -7.5 6s-6.5 2.33301 -10.5 3l-34 4v28c1.33301 -0.666992 2.83301 -1.16699 4.5 -1.5
s3.5 -0.5 5.5 -0.5c1.33301 -0.666992 2.83301 -1 4.5 -1h4.5h10h10c6.66699 -0.666992 13.167 -1.16699 19.5 -1.5s12.833 -0.5 19.5 -0.5h19.5h19.5h7.5h7.5h6.5h7.5h7.5c2.33301 0 4.83301 0.333008 7.5 1h6.5h7.5h4.5h4.5h2c0.666992 0 1.66699 0.333008 3 1h2.5h2.5
h4.5h5.5h4.5h4.5h4.5c1.66699 0 3.5 0.333008 5.5 1h4.5h5.5v-26l-49 -2c-4 -1.33301 -7.66699 -2.66602 -11 -3.99902s-6 -2.66602 -8 -3.99902s-3.5 -3.33301 -4.5 -6s-1.5 -5.66699 -1.5 -9c0 -2.66699 0.166992 -5.16699 0.5 -7.5s0.833008 -5.16602 1.5 -8.49902
c1.33301 -2.66699 2.5 -5.83398 3.5 -9.50098s2.16699 -7.16699 3.5 -10.5l119 -286c1.33301 2 2.66602 4.33301 3.99902 7l4 8c1.33301 3.33301 2.66602 6.5 3.99902 9.5s2.66602 5.83301 3.99902 8.5l6 12.5l6 13.5c1.33301 4 3 8.16699 5 12.5l6 13.5l6 13.5l6 13.5
c1.33301 4 3 8.16699 5 12.5l6 13.5l42 108c3.33301 7.33301 6.16602 14.5 8.49902 21.5s4.16602 13.5 5.49902 19.5s2.5 11.5 3.5 16.5s1.5 9.5 1.5 13.5s-0.5 7.66699 -1.5 11s-2.5 6 -4.5 8s-4.5 3.5 -7.5 4.5s-6.5 1.83301 -10.5 2.5l-41 4v28
c2.66699 -1.33301 5.16699 -2.16602 7.5 -2.49902s4.83301 -0.5 7.5 -0.5h8h8h2h2c0.666992 -0.666992 1.33398 -1 2.00098 -1h2h4h4h6h6c1.33301 -0.666992 3 -1 5 -1h6h12h12h6h6h5h6h6c2 0 4 0.333008 6 1h6h6h4h4h2c0.666992 0 1.33398 0.333008 2.00098 1h2h2h7.5h7.5
h4c1.33301 0 2.66602 0.333008 3.99902 1h4h4v-26l-31 -2c-5.33301 -1.33301 -10.5 -3.66602 -15.5 -6.99902s-9.5 -7.66602 -13.5 -12.999c-4 -6 -7.66699 -12 -11 -18s-6.66602 -12.333 -9.99902 -19c-0.666992 -0.666992 -1.33398 -1.5 -2.00098 -2.5
s-1.33398 -2.16699 -2.00098 -3.5c-0.666992 -0.666992 -1.16699 -1.5 -1.5 -2.5s-0.5 -2.16699 -0.5 -3.5v2v0z" />
    <glyph glyph-name="w" unicode="w" horiz-adv-x="834" 
d="M290 185l123.003 284.006h23c2 -8.66699 4.16699 -16.5 6.5 -23.5s4.83301 -13.833 7.5 -20.5l7.5 -19.5l7.5 -19.5l115 -288c1.33301 2.66699 2.66602 5.5 3.99902 8.5s2.66602 6.16699 3.99902 9.5l4 10.5l4 10.5l4 10c1.33301 3.33301 2.66602 7 3.99902 11l4 10l4 10
c3.33301 7.33301 6.16602 14.5 8.49902 21.5s4.83301 13.833 7.5 20.5l50 142c0.666992 0.666992 1.16699 1.66699 1.5 3s0.833008 3 1.5 5c0.666992 1.33301 1.16699 2.66602 1.5 3.99902s0.5 2.66602 0.5 3.99902c0.666992 3.33301 1.16699 6.16602 1.5 8.49902
s0.5 4.83301 0.5 7.5c0 5.33301 -0.833008 10 -2.5 14s-4.16699 7.33301 -7.5 10c-2.66699 2.66699 -6.5 4.66699 -11.5 6s-10.833 2.33301 -17.5 3l-34 4v28c2.66699 -1.33301 5.33398 -2.16602 8.00098 -2.49902s5.33398 -0.5 8.00098 -0.5h4h5h4h4h2h2
c0.666992 -0.666992 1.33398 -1 2.00098 -1h2h4h4h6h6c2 -0.666992 4 -1 6 -1h6h6h7h6h6h12h12h6c2 0 4.33301 0.333008 7 1h6h6h4h4h2c0.666992 0 1.33398 0.333008 2.00098 1h2h2h8h8h4c1.33301 0 3 0.333008 5 1h4h4v-26l-26 -2
c-2.66699 -1.33301 -5.33398 -2.5 -8.00098 -3.5s-5 -2.16699 -7 -3.5c-0.666992 -0.666992 -1.66699 -1.5 -3 -2.5s-2.33301 -1.83301 -3 -2.5l-3.5 -3.5l-3.5 -3.5l-4 -6c-1.33301 -2 -2.66602 -4.33301 -3.99902 -7c-2 -2.66699 -3.66699 -5.16699 -5 -7.5
s-2.66602 -5.16602 -3.99902 -8.49902c-2.66699 -6 -5.66699 -12.333 -9 -19s-6.66602 -14 -9.99902 -22l-68 -154c-2 -5.33301 -4.16699 -10.666 -6.5 -15.999l-6.5 -15c-2 -5.33301 -3.83301 -10.5 -5.5 -15.5s-3.5 -10.167 -5.5 -15.5l-10 -30l-10 -30
c-0.666992 -0.666992 -1.16699 -1.33398 -1.5 -2.00098s-0.5 -1.33398 -0.5 -2.00098v-1.5v-0.5c-0.666992 -0.666992 -1 -1.16699 -1 -1.5v-0.5c-0.666992 -2.66699 -1.5 -5.5 -2.5 -8.5s-1.83301 -5.83301 -2.5 -8.5c-1.33301 -2.66699 -2.33301 -5.33398 -3 -8.00098
s-1.66699 -5.33398 -3 -8.00098c-0.666992 -2.66699 -1.5 -5.33398 -2.5 -8.00098s-1.83301 -5.33398 -2.5 -8.00098c-1.33301 -2.66699 -2.33301 -5 -3 -7s-1.66699 -4.33301 -3 -7h-46l-136 342c-0.666992 -2.66699 -1.5 -5 -2.5 -7s-1.83301 -4 -2.5 -6
c-1.33301 -2 -2.33301 -4 -3 -6s-1.66699 -4 -3 -6c-2 -4 -3.83301 -7.83301 -5.5 -11.5s-3.16699 -7.16699 -4.5 -10.5c-0.666992 -0.666992 -1.16699 -1.5 -1.5 -2.5s-0.833008 -2.16699 -1.5 -3.5c0 -0.666992 -0.166992 -1.16699 -0.5 -1.5l-0.5 -0.5
c-0.666992 -0.666992 -1 -1.16699 -1 -1.5v-1.5c-2.66699 -4.66699 -5.16699 -9.33398 -7.5 -14.001s-4.5 -9.33398 -6.5 -14.001l-6 -14l-6 -14l-98 -228h-47l-102 336l-9.5 27.5c-3 8.33301 -6.16699 15.833 -9.5 22.5c-2.66699 6.66699 -5.33398 12.5 -8.00098 17.5
s-5.33398 9.5 -8.00098 13.5c-2.66699 3.33301 -5.16699 6 -7.5 8s-4.83301 3.33301 -7.5 4c-2.66699 1.33301 -5.16699 2.33301 -7.5 3s-5.16602 1.33398 -8.49902 2.00098l-28 4v28c3.33301 -1.33301 6.66602 -2.16602 9.99902 -2.49902s6.66602 -0.5 9.99902 -0.5h10h10
h2h3c0.666992 -0.666992 1.5 -1 2.5 -1h2.5h4.5h5.5h6.5h7.5c2.66699 -0.666992 5.16699 -1 7.5 -1h7.5h15.5h14.5h15.5h14.5h7.5c2.33301 0 4.83301 0.333008 7.5 1h7.5h7.5h4h5h2c0.666992 0 1.66699 0.333008 3 1h2.5h2.5h10h10h4.5c1.66699 0 3.5 0.333008 5.5 1h4.5
h5.5v-26l-40 -2c-6.66699 -1.33301 -12.334 -2.66602 -17.001 -3.99902s-8.66699 -3 -12 -5c-2.66699 -2 -4.83398 -4.66699 -6.50098 -8s-2.5 -7.33301 -2.5 -12v-4.5c0 -1.66699 0.333008 -3.5 1 -5.5c0 -2 0.333008 -4 1 -6l2 -6l84 -274c2 3.33301 4 7.16602 6 11.499
l6 13.5l6 13.5l6 13.5c0.666992 1.33301 1.16699 2.5 1.5 3.5s0.833008 2.16699 1.5 3.5c0.666992 0.666992 1.16699 1.66699 1.5 3s0.833008 2.33301 1.5 3c1.33301 2 2.5 4.16699 3.5 6.5s1.83301 4.83301 2.5 7.5v2v0z" />
    <glyph glyph-name="x" unicode="x" horiz-adv-x="516" 
d="M288 254l147.998 -199.996c2 -3.33301 4.33301 -6.5 7 -9.5s5.33398 -5.5 8.00098 -7.5c3.33301 -2.66699 6.5 -4.66699 9.5 -6s6.5 -2.33301 10.5 -3l25 -1v-30h-2.5h-2.5c-1.33301 0.666992 -2.33301 1 -3 1h-2h-5.5h-4.5h-1.5h-1.5
c-0.666992 0.666992 -1.16699 1 -1.5 1h-1.5h-2h-2h-4h-4c-1.33301 0.666992 -2.66602 1 -3.99902 1h-4h-7.5h-7.5h-10.5h-10.5c-3.33301 0 -6.83301 -0.166992 -10.5 -0.5s-7.16699 -0.833008 -10.5 -1.5h-5.5h-4.5h-2.5c-1 0 -1.83301 -0.333008 -2.5 -1h-3h-2l-6 4
c-2 1.33301 -4 3.33301 -6 6c-2 2 -3.83301 4.33301 -5.5 7s-3.16699 5.33398 -4.5 8.00098c-0.666992 0 -1.16699 0.333008 -1.5 1s-0.5 1.33398 -0.5 2.00098l-1.5 1.5c-0.333008 0.333008 -0.5 0.833008 -0.5 1.5l-107 164l-74 -98l-10 -15.5l-10 -15.5
c-1.33301 -2.66699 -2.83301 -5.16699 -4.5 -7.5l-4.5 -6.5c-1.33301 -2.66699 -2.83301 -5.16699 -4.5 -7.5s-3.16699 -4.83301 -4.5 -7.5l-1.5 -1.5l-0.5 -0.5v-1.5v-0.5c-2 -2.66699 -3.83301 -5.33398 -5.5 -8.00098s-3.16699 -5.33398 -4.5 -8.00098
c-2 -2.66699 -3.83301 -5.33398 -5.5 -8.00098s-3.16699 -4.66699 -4.5 -6h-86v27h17l1.5 -1.5c0.333008 -0.333008 0.833008 -0.5 1.5 -0.5h0.5h1.5h1.5c0.333008 0 0.833008 0.333008 1.5 1l0.5 0.5c0.333008 0.333008 0.833008 0.5 1.5 0.5
c1.33301 0 2.33301 0.166992 3 0.5l3 1.5c0.666992 0.666992 1.5 1.16699 2.5 1.5s1.83301 0.833008 2.5 1.5c1.33301 1.33301 2.83301 2.66602 4.5 3.99902s3.16699 2.66602 4.5 3.99902l149 178l-120 174c-2.66699 2.66699 -5.66699 5.5 -9 8.5s-7.33301 5.83301 -12 8.5
c-2.66699 1.33301 -5.16699 2.66602 -7.5 3.99902s-4.5 2.33301 -6.5 3c-2.66699 0.666992 -5.16699 1.33398 -7.5 2.00098s-4.83301 1 -7.5 1l-21 4l-5 26l116 20c5.33301 -6.66699 10.833 -12.834 16.5 -18.501s10.834 -11.167 15.501 -16.5c5.33301 -6 10.333 -12 15 -18
s9 -12 13 -18l76 -114l124 175h82v-28h-14c-3.33301 -1.33301 -6.5 -2.16602 -9.5 -2.49902s-6.16699 -0.833008 -9.5 -1.5c-2.66699 -0.666992 -5.33398 -1.83398 -8.00098 -3.50098s-5 -3.5 -7 -5.5l-142 -164v0v0z" />
    <glyph glyph-name="y" unicode="y" horiz-adv-x="556" 
d="M297 86l118.995 291.995c0.666992 0.666992 1.16699 1.5 1.5 2.5s0.5 2.16699 0.5 3.5c0.666992 0.666992 1.16699 1.66699 1.5 3s0.5 2.33301 0.5 3c0.666992 2 1.16699 3.83301 1.5 5.5s0.5 3.16699 0.5 4.5c0 4.66699 -1 8.66699 -3 12s-4.66699 6 -8 8
c-4 2 -8.5 3.5 -13.5 4.5s-10.833 1.83301 -17.5 2.5l-26 4v28c2.66699 -1.33301 5.33398 -2.16602 8.00098 -2.49902s5.33398 -0.5 8.00098 -0.5h8h8h2h2c0.666992 -0.666992 1.33398 -1 2.00098 -1h2h4h4h5.5h5.5c2 -0.666992 4 -1 6 -1h6h12h12h12h12h6
c2 0 4 0.333008 6 1h6h6h3.5h3.5h2c0.666992 0 1.33398 0.333008 2.00098 1h2h2h8h8h4c1.33301 0 2.66602 0.333008 3.99902 1h4h4v-26l-28 -2c-0.666992 -1.33301 -1.33398 -2.16602 -2.00098 -2.49902s-1.33398 -0.5 -2.00098 -0.5h-1.5h-0.5
c-0.666992 -0.666992 -1.16699 -1 -1.5 -1h-0.5c-5.33301 -2 -10.833 -5.66699 -16.5 -11s-11.5 -12.666 -17.5 -21.999c-6 -8.66699 -12.5 -20.334 -19.5 -35.001s-14.5 -31.667 -22.5 -51l-203 -466c-8 -18 -16.667 -34.5 -26 -49.5s-19.666 -28.167 -30.999 -39.5
c-10.667 -11.333 -23.834 -19.833 -39.501 -25.5s-34.167 -8.5 -55.5 -8.5h-2h-2c-1.33301 0.666992 -2.33301 1 -3 1h-2h-2h-2c-0.666992 0.666992 -1.33398 1 -2.00098 1h-2c-1.33301 0.666992 -2.66602 1.16699 -3.99902 1.5s-2.66602 0.5 -3.99902 0.5
c-1.33301 0.666992 -2.66602 1.16699 -3.99902 1.5s-2.66602 0.833008 -3.99902 1.5c-2.66699 0.666992 -5 1.5 -7 2.5s-4 2.16699 -6 3.5h-0.5h-0.5l-1 1v0h-0.5h-0.5l-1 1v0l24 75h13c1.33301 -1.33301 3 -2.83301 5 -4.5s4.33301 -3.5 7 -5.5
c2.66699 -1.33301 5.33398 -2.83301 8.00098 -4.5s5.33398 -2.83398 8.00098 -3.50098c1.33301 0 2.33301 -0.166992 3 -0.5l3 -1.5c0.666992 0 1.5 -0.166992 2.5 -0.5s1.83301 -0.5 2.5 -0.5c1.33301 0 2.33301 -0.166992 3 -0.5s1.66699 -0.5 3 -0.5
c0.666992 -0.666992 1.5 -1 2.5 -1h2.5v0v0v0h1v0v0v0v0c10 0.666992 19.333 3.33398 28 8.00098s16.334 11 23.001 19c7.33301 8.66699 14 17.5 20 26.5s11.333 18.167 16 27.5l6 13.5l6 12.5l5.5 13l4.5 11l23 61c-0.666992 2.66699 -1.5 5.16699 -2.5 7.5
s-1.83301 4.5 -2.5 6.5c-1.33301 2.66699 -2.33301 5 -3 7s-1.66699 4 -3 6c-0.666992 2 -1.5 4.16699 -2.5 6.5s-1.83301 4.83301 -2.5 7.5c-1.33301 2 -2.33301 4.16699 -3 6.5s-1.66699 4.83301 -3 7.5c-0.666992 2 -1.5 4 -2.5 6s-1.83301 4.33301 -2.5 7
c-1.33301 2 -2.33301 4 -3 6l-2 6c-0.666992 2 -1.5 4 -2.5 6s-1.83301 4.33301 -2.5 7c-1.33301 2 -2.33301 4 -3 6l-2 6l-2 4c-0.666992 1.33301 -1 3 -1 5l-2 4l-2 4c-0.666992 1.33301 -1.33398 2.83301 -2.00098 4.5s-1 3.16699 -1 4.5
c-0.666992 1.33301 -1.33398 2.83301 -2.00098 4.5s-1.33398 3.16699 -2.00098 4.5l-109 264c-0.666992 0 -1.16699 0.333008 -1.5 1s-0.5 1.66699 -0.5 3c-0.666992 0.666992 -1.16699 1.33398 -1.5 2.00098s-0.833008 1.33398 -1.5 2.00098
c-0.666992 1.33301 -1.33398 2.83301 -2.00098 4.5s-1.33398 3.16699 -2.00098 4.5c-3.33301 5.33301 -6.66602 10 -9.99902 14s-6.66602 7 -9.99902 9s-7 3.5 -11 4.5s-8 1.83301 -12 2.5l-18 4v28c1.33301 -0.666992 2.83301 -1.16699 4.5 -1.5s3.5 -0.5 5.5 -0.5
c1.33301 -0.666992 2.83301 -1 4.5 -1h4.5h10h10h2h3c0.666992 -0.666992 1.33398 -1 2.00098 -1h2h4.5h5.5h6.5h7.5c2 -0.666992 4.16699 -1 6.5 -1h7.5h15.5h14.5h7.5h7.5h6.5h7.5h7.5c2.33301 0 4.83301 0.333008 7.5 1h6.5h7.5h4.5h4.5h2
c0.666992 0 1.66699 0.333008 3 1h2.5h2.5h4.5h5.5h4.5h4.5h4.5c1.66699 0 3.5 0.333008 5.5 1h4.5h5.5v-26l-38 -2c-4.66699 -1.33301 -9 -2.66602 -13 -3.99902s-7.66699 -2.66602 -11 -3.99902c-3.33301 -2 -5.83301 -4.66699 -7.5 -8s-2.16699 -7.66602 -1.5 -12.999
c0 -2.66699 0.166992 -5.33398 0.5 -8.00098s0.833008 -5.66699 1.5 -9c1.33301 -2.66699 2.5 -5.83398 3.5 -9.50098s2.16699 -7.5 3.5 -11.5l64 -166c3.33301 -10.667 7 -20.667 11 -30l12 -28c4 -8.66699 8.33301 -17.5 13 -26.5s9.66699 -18.167 15 -27.5v2v0z" />
    <glyph glyph-name="z" unicode="z" horiz-adv-x="500" 
d="M455 432l-314.002 -397.005h135c18 -1.33301 35 -1.66602 51 -0.999023s31 1.66699 45 3s24.833 3.83301 32.5 7.5s12.167 8.16699 13.5 13.5l18 81h30c-0.666992 -5.33301 -1.16699 -10 -1.5 -14s-0.833008 -8 -1.5 -12c0 -2 -0.166992 -4 -0.5 -6
s-0.5 -3.66699 -0.5 -5c-0.666992 -2 -1.16699 -4 -1.5 -6s-0.5 -4 -0.5 -6c-0.666992 -2 -1.16699 -4 -1.5 -6s-0.5 -4 -0.5 -6c-0.666992 -2 -1 -4 -1 -6v-6c-0.666992 -6 -1.5 -12 -2.5 -18s-1.83301 -12 -2.5 -18s-1 -11.833 -1 -17.5v-15.5h-13.5h-12.5
c-4.66699 0.666992 -9.16699 1 -13.5 1h-12.5h-25.5h-25.5h-6.5h-6.5c-2.66699 0.666992 -5 1 -7 1h-6h-13.5h-12.5h-19.5h-19.5c-6.66699 0.666992 -13.167 1 -19.5 1h-19.5h-19.5h-18.5h-19.5h-19.5h-14.5h-15.5h-7.5c-2.33301 0 -4.83301 -0.333008 -7.5 -1h-7.5h-6.5
h-5.5h-4.5h-2.5c-1 0 -1.83301 -0.333008 -2.5 -1h-3h-2h-10h-10h-5.5c-1.66699 0 -3.16699 -0.333008 -4.5 -1h-5.5h-4.5l-6 20c2.66699 2 5.16699 4.33301 7.5 7s4.83301 5.33398 7.5 8.00098c2.66699 3.33301 5.33398 6.5 8.00098 9.5s5.33398 5.83301 8.00098 8.5
c5.33301 5.33301 10.5 10.833 15.5 16.5s9.83301 11.5 14.5 17.5l7.5 9.5c2.33301 3 4.83301 5.83301 7.5 8.5c2 3.33301 4.16699 6.5 6.5 9.5s4.83301 5.83301 7.5 8.5l170 214c2 1.33301 4 3.16602 6 5.49902s4 4.83301 6 7.5c1.33301 2.66699 3 5.16699 5 7.5
s4 4.83301 6 7.5c3.33301 5.33301 6.83301 10.5 10.5 15.5s7.5 9.83301 11.5 14.5l4.5 7c1.66699 2.66699 3.5 5.33398 5.5 8.00098c1.33301 2.66699 2.83301 5.16699 4.5 7.5l5.5 7.5l-143 2c-18 -1.33301 -33.167 -2.5 -45.5 -3.5s-21.833 -2.16699 -28.5 -3.5
s-11.667 -3.83301 -15 -7.5s-5.66602 -8.16699 -6.99902 -13.5l-12 -66h-30c1.33301 8.66699 2.16602 16.334 2.49902 23.001s0.833008 12 1.5 16c0 4 0.166992 7.66699 0.5 11s0.833008 6.33301 1.5 9v1.5v1.5v0.5v1.5v2.5v2.5v4c0 1.33301 0.333008 3 1 5v6v6
c0 4.66699 0.166992 10.334 0.5 17.001s0.833008 14.334 1.5 23.001h11.5h11.5c3.33301 -0.666992 7 -1 11 -1h12h12h12h11h12h6h6c1.33301 -0.666992 3 -1 5 -1h6h12h12h17.5h17.5c5.33301 -0.666992 11 -1 17 -1h18h34.5h35.5h12.5h13.5h6.5
c2.33301 0 4.83301 0.333008 7.5 1h6.5h6.5h4h4h2c0.666992 0 1.66699 0.333008 3 1h2.5h2.5h4h5h4h4h4.5c1.66699 0 3.16699 0.333008 4.5 1h4.5h4.5v-28v0v0z" />
    <glyph glyph-name="braceleft" unicode="{" horiz-adv-x="333" 
d="M206 128l0.00195312 -173c0 -18 1.5 -34.333 4.5 -49s7.5 -27.334 13.5 -38.001c6 -11.333 14.333 -20.5 25 -27.5s24 -12.167 40 -15.5c-28.667 0 -53 2.5 -73 7.5s-35.667 12.5 -47 22.5c-12 10 -20.833 25.5 -26.5 46.5s-8.5 48.167 -8.5 81.5v168
c0 16.667 -1.16699 31.834 -3.5 45.501s-5.5 24.834 -9.5 33.501c-4.66699 9.33301 -12.167 17.333 -22.5 24s-23.833 12.334 -40.5 17.001c15.333 4.66699 28.166 10.5 38.499 17.5s17.833 15.167 22.5 24.5c5.33301 9.33301 9.16602 20.333 11.499 33
s3.5 27.334 3.5 44.001v188c0 30.667 3.33301 56 10 76s16.667 34.333 30 43c13.333 9.33301 29.666 16.166 48.999 20.499s41.333 6.5 66 6.5c-16.667 -4.66699 -30.5 -10.834 -41.5 -18.501s-19.167 -16.834 -24.5 -27.501c-6 -10.667 -10.333 -23 -13 -37s-4 -30 -4 -48
v-184c0 -19.333 -1.16699 -36.333 -3.5 -51s-6.16602 -27.667 -11.499 -39c-4.66699 -10.667 -12.5 -20 -23.5 -28s-25.167 -14.333 -42.5 -19v0c18 -5.33301 32.5 -12.333 43.5 -21s18.833 -19 23.5 -31s8.16699 -25.833 10.5 -41.5s3.5 -33.167 3.5 -52.5v2v0z" />
    <glyph glyph-name="bar" unicode="|" horiz-adv-x="606" 
d="M275 0v726h56v-726h-56v0v0z" />
    <glyph glyph-name="braceright" unicode="}" horiz-adv-x="333" 
d="M127 -45l-0.000976562 172.998c0 18.667 1 35.667 3 51s5.33301 29 10 41s12.667 22.167 24 30.5s26 14.833 44 19.5v4c-17.333 3.33301 -31.5 9 -42.5 17s-19.167 17.333 -24.5 28c-4.66699 11.333 -8.16699 24.166 -10.5 38.499s-3.5 30.833 -3.5 49.5v188
c0 16.667 -1.5 32 -4.5 46s-7.16699 26.333 -12.5 37c-6 10.667 -14.5 19.834 -25.5 27.501s-24.5 13.834 -40.5 18.501c25.333 0 47.5 -2.16699 66.5 -6.5s35.167 -11.166 48.5 -20.499c13.333 -8.66699 23.333 -23.167 30 -43.5s10 -46.166 10 -77.499v-184
c0 -17.333 1.33301 -32.5 4 -45.5s6.33398 -24.167 11.001 -33.5c5.33301 -9.33301 13 -17.5 23 -24.5s22.667 -12.833 38 -17.5c-16.667 -4.66699 -30.167 -10.334 -40.5 -17.001s-17.833 -14.667 -22.5 -24c-4.66699 -8.66699 -8 -19.834 -10 -33.501s-3 -29.5 -3 -47.5
v-166c0 -33.333 -3 -60.5 -9 -81.5s-14.667 -36.5 -26 -46.5c-12 -10 -28 -17.5 -48 -22.5s-44 -7.5 -72 -7.5c15.333 3.33301 28.5 8.5 39.5 15.5s19.5 16.167 25.5 27.5c6 10.667 10.5 23.334 13.5 38.001s4.5 31 4.5 49v0v0z" />
    <glyph glyph-name="asciitilde" unicode="~" horiz-adv-x="606" 
d="M520 347l34.9893 -39.9922c-0.666992 -1.33301 -1.16699 -2.5 -1.5 -3.5s-0.5 -1.83301 -0.5 -2.5c-0.666992 -0.666992 -1.16699 -1.33398 -1.5 -2.00098s-0.5 -1.33398 -0.5 -2.00098c-7.33301 -12.667 -15.833 -24.834 -25.5 -36.501s-20.167 -22.834 -31.5 -33.501
s-23.666 -18.5 -36.999 -23.5s-27.666 -7.5 -42.999 -7.5c-4.66699 0 -9.5 0.333008 -14.5 1s-10.5 1.66699 -16.5 3c-2.66699 0.666992 -5.5 1.5 -8.5 2.5s-5.83301 1.83301 -8.5 2.5l-9 3.5l-9 3.5c-0.666992 0 -1.66699 0.166992 -3 0.5s-2.33301 0.833008 -3 1.5
c-1.33301 0 -2.5 0.166992 -3.5 0.5s-2.16699 0.833008 -3.5 1.5c-2 1.33301 -4 2.5 -6 3.5s-4 1.83301 -6 2.5c-4 1.33301 -8 2.83301 -12 4.5s-8 3.16699 -12 4.5s-7.5 2.83301 -10.5 4.5s-6.16699 3.16699 -9.5 4.5c-1.33301 0.666992 -2.83301 1.16699 -4.5 1.5
s-3.16699 0.833008 -4.5 1.5l-4 2l-4 2c-2.66699 1.33301 -5.5 2.5 -8.5 3.5s-5.83301 2.16699 -8.5 3.5c-3.33301 0.666992 -6.33301 1.66699 -9 3s-5.66699 2.33301 -9 3c-2.66699 1.33301 -5.5 2.33301 -8.5 3s-5.83301 1.33398 -8.5 2.00098
c-3.33301 0 -6.33301 0.166992 -9 0.5s-5.66699 0.5 -9 0.5c-11.333 0 -21.666 -2 -30.999 -6s-17.666 -9.66699 -24.999 -17s-14.166 -15 -20.499 -23s-12.166 -16.333 -17.499 -25c-0.666992 -2 -1.5 -4 -2.5 -6s-2.16699 -3.66699 -3.5 -5
c-0.666992 -2 -1.5 -3.83301 -2.5 -5.5s-2.16699 -3.16699 -3.5 -4.5l-35 42c0.666992 0.666992 1.33398 1.5 2.00098 2.5s1.33398 1.83301 2.00098 2.5c0.666992 1.33301 1.5 2.66602 2.5 3.99902s1.83301 2.66602 2.5 3.99902c7.33301 12.667 15.333 24.667 24 36
s18.334 22.333 29.001 33s22.667 18.667 36 24s28 8 44 8c6.66699 0 13.5 -0.666992 20.5 -2s14.5 -3 22.5 -5l12 -4l12 -4l11 -4.5c4 -1.66699 8 -3.16699 12 -4.5c1.33301 -0.666992 2.83301 -1.33398 4.5 -2.00098s3.5 -1.33398 5.5 -2.00098l3 -1.5
c0.666992 -0.333008 1.66699 -0.5 3 -0.5c0.666992 -0.666992 1.5 -1.16699 2.5 -1.5s1.83301 -0.5 2.5 -0.5c0 -0.666992 0.166992 -1.16699 0.5 -1.5s0.833008 -0.5 1.5 -0.5h0.5h1.5c0 -0.666992 0.166992 -1 0.5 -1h1.5c1.33301 -0.666992 2.5 -1.16699 3.5 -1.5
s1.83301 -0.833008 2.5 -1.5c0.666992 0 1.16699 -0.166992 1.5 -0.5s0.833008 -0.5 1.5 -0.5c0 -0.666992 0.166992 -1 0.5 -1h1.5l26.5 -11.5l24.5 -10.5c8 -2.66699 15.667 -4.83398 23 -6.50098s14 -2.5 20 -2.5c9.33301 0 18.5 1.66699 27.5 5s17.5 8.33301 25.5 15
c8 7.33301 15.333 14.666 22 21.999s12.667 15.333 18 24l2 2c0.666992 0.666992 1.33398 1.66699 2.00098 3c0 0.666992 0.333008 1.5 1 2.5s1.33398 1.83301 2.00098 2.5s1.16699 1.33398 1.5 2.00098l1.5 3c0 0.666992 0.166992 1.5 0.5 2.5s0.833008 1.83301 1.5 2.5v2
v0z" />
    <glyph glyph-name="exclamdown" unicode="&#xa1;" horiz-adv-x="278" 
d="M115 -225l-34.001 -0.00195312v25v18c0 6 0.333008 12 1 18l2 18c0.666992 6 1.33398 11.667 2.00098 17v6v6c0 2 0.166992 4 0.5 6s0.833008 4 1.5 6c0 4 0.166992 8 0.5 12s0.833008 8 1.5 12s1.16699 8 1.5 12s0.833008 8 1.5 12l24 278v25l28 23l10 -5v-12v-10
c0 -3.33301 0.166992 -6.66602 0.5 -9.99902s0.833008 -6.66602 1.5 -9.99902l26 -303c0 -4 0.166992 -8.16699 0.5 -12.5s0.833008 -8.83301 1.5 -13.5c0 -4.66699 0.166992 -9.16699 0.5 -13.5s0.833008 -8.83301 1.5 -13.5v-6c0 -2 0.333008 -4.33301 1 -7v-6.5v-6.5
c0 -4.66699 0.166992 -9.16699 0.5 -13.5s0.833008 -8.83301 1.5 -13.5l-75 -38v0v0zM137.999 352.998c-8 -1.33301 -15.333 -0.5 -22 2.5s-12.667 7.5 -18 13.5c-6 6 -10.333 12.333 -13 19s-4 13.667 -4 21s1.33301 14.333 4 21s7 13 13 19s12.333 10.5 19 13.5
s13.667 4.5 21 4.5s14.5 -1.5 21.5 -4.5s13.5 -7.5 19.5 -13.5s10.5 -12.333 13.5 -19s4.5 -13.667 4.5 -21s-1.5 -14.333 -4.5 -21s-7.5 -13 -13.5 -19s-12.333 -10.5 -19 -13.5s-14 -4.5 -22 -4.5v2v0z" />
    <glyph glyph-name="cent" unicode="&#xa2;" horiz-adv-x="500" 
d="M347 411l-106 -353.001c1.33301 -2 3 -3.5 5 -4.5s4 -2.16699 6 -3.5l3 -1.5c0.666992 -0.333008 1.66699 -0.5 3 -0.5c0.666992 -0.666992 1.5 -1.16699 2.5 -1.5s1.83301 -0.833008 2.5 -1.5c5.33301 -2 10.833 -3.66699 16.5 -5l16.5 -4
c5.33301 -0.666992 10.333 -1.16699 15 -1.5s9.33398 -0.5 14.001 -0.5c8.66699 0 17 0.333008 25 1s16 2 24 4c4 1.33301 8 2.5 12 3.5s8 2.16699 12 3.5c3.33301 1.33301 7 2.66602 11 3.99902l12 4l4 2l4 2c1.33301 0.666992 2.83301 1.33398 4.5 2.00098
s3.5 1.33398 5.5 2.00098l9 -9l-20 -33c-6.66699 -4.66699 -13.667 -8.5 -21 -11.5s-15 -5.83301 -23 -8.5l-12 -2c-4 -0.666992 -7.66699 -1.66699 -11 -3c-4 -0.666992 -8 -1.5 -12 -2.5s-8 -1.83301 -12 -2.5s-8 -1.16699 -12 -1.5s-8 -0.833008 -12 -1.5h-6
c-2 0 -3.66699 -0.333008 -5 -1h-6h-6h-8.5h-8.5c-3.33301 0.666992 -6.33301 1 -9 1h-9c-6 0.666992 -11.833 1.16699 -17.5 1.5s-11.167 1.16602 -16.5 2.49902l-28 -92h-41l32 104c-20.667 8.66699 -38.834 20.167 -54.501 34.5s-28.5 30.833 -38.5 49.5
c-10 19.333 -17.5 39.166 -22.5 59.499s-7.5 41.833 -7.5 64.5c0 24 1.83301 46.333 5.5 67s9.16699 39.334 16.5 56.001c7.33301 17.333 17.833 32.666 31.5 45.999s29.834 24.666 48.501 33.999l80 42c2 0 4.16699 0.333008 6.5 1s4.83301 1.33398 7.5 2.00098
c1.33301 0.666992 2.66602 1.16699 3.99902 1.5s2.66602 0.833008 3.99902 1.5c1.33301 0 2.66602 0.166992 3.99902 0.5s2.66602 0.833008 3.99902 1.5c2.66699 0.666992 5.16699 1.16699 7.5 1.5s4.83301 0.5 7.5 0.5c2 0.666992 4.16699 1 6.5 1h7.5h6.5
c2.33301 0 4.5 0.333008 6.5 1h5.5h4.5l27 94h40l-27 -92c2 -1.33301 4.33301 -2.16602 7 -2.49902s5.33398 -0.5 8.00098 -0.5c2.66699 -0.666992 5.33398 -1.16699 8.00098 -1.5s5.33398 -1.16602 8.00098 -2.49902c4 -0.666992 8.16699 -1.83398 12.5 -3.50098
s8.83301 -3.5 13.5 -5.5l12 -6c4 -2 7.66699 -4 11 -6c-0.666992 -6.66699 -1.5 -13 -2.5 -19s-2.16699 -12 -3.5 -18l-2 -17.5c-0.666992 -5.66699 -1 -11.167 -1 -16.5c-0.666992 -4 -1.16699 -8 -1.5 -12s-0.5 -8 -0.5 -12v-6v-5v-6v-6v-2.5v-3.5v-2.5v-3.5l-28 2l-9 66
c-3.33301 2.66699 -7 5.33398 -11 8.00098l-12 8c-4.66699 2.66699 -9.16699 5 -13.5 7l-13.5 6v2v0zM208 83.999l100.997 335c-3.33301 -0.666992 -6.66602 -0.833984 -9.99902 -0.500977s-6.66602 0.833008 -9.99902 1.5c-1.33301 0 -2.83301 0.166992 -4.5 0.5
s-3.16699 0.5 -4.5 0.5c-2 0.666992 -3.83301 1 -5.5 1h-4.5c-17.333 -0.666992 -33.166 -4.5 -47.499 -11.5s-27.166 -17.167 -38.499 -30.5c-11.333 -14 -19.833 -31.667 -25.5 -53s-8.5 -46.666 -8.5 -75.999v-7.5v-6.5v-3v-3c0 -1.33301 0.166992 -2.5 0.5 -3.5
s0.5 -2.16699 0.5 -3.5c1.33301 -14 3.16602 -27.5 5.49902 -40.5s5.83301 -26.167 10.5 -39.5c4 -12.667 9.5 -24.167 16.5 -34.5s15.167 -19.5 24.5 -27.5v2v0z" />
    <glyph glyph-name="sterling" unicode="&#xa3;" horiz-adv-x="500" 
d="M374 360l-3.99707 -47.999c-14.667 -0.666992 -29.5 -0.833984 -44.5 -0.500977s-30.167 0.833008 -45.5 1.5h-22.5c-7.66699 0 -15.167 0.333008 -22.5 1c-8 0 -15.833 0.166992 -23.5 0.5s-15.167 0.5 -22.5 0.5c-0.666992 -22.667 -3.33398 -44.834 -8.00098 -66.501
s-11.667 -43.167 -21 -64.5c-8.66699 -20.667 -18.334 -40.834 -29.001 -60.501s-22.667 -38.5 -36 -56.5c8.66699 1.33301 17.167 2.33301 25.5 3l25.5 2c8.66699 0.666992 17.334 1.16699 26.001 1.5s17.334 0.5 26.001 0.5h12.5h13.5c4 -0.666992 8.16699 -1 12.5 -1
h12.5h12.5h13.5c4 -0.666992 8.16699 -1 12.5 -1h13.5c5.33301 -0.666992 10.5 -1.16699 15.5 -1.5s9.83301 -0.5 14.5 -0.5h8h8c2.66699 -0.666992 5.33398 -1 8.00098 -1h8c3.33301 -0.666992 6.66602 -1.16699 9.99902 -1.5s6.66602 -0.5 9.99902 -0.5h10.5h10.5v0h1v0v0
h0.5h1.5c5.33301 0 9.83301 0.833008 13.5 2.5s6.5 4.16699 8.5 7.5s3.66699 7.16602 5 11.499s2.33301 9.5 3 15.5l7 54h26v-148c-3.33301 -4 -6.66602 -7 -9.99902 -9l-10 -6c-3.33301 -1.33301 -6.66602 -2.5 -9.99902 -3.5s-6.66602 -1.5 -9.99902 -1.5
c-16.667 0 -33.334 0.333008 -50.001 1s-33 1.66699 -49 3s-31.5 3 -46.5 5s-29.5 4.66699 -43.5 8c-1.33301 0 -2.83301 0.166992 -4.5 0.5s-3.16699 0.833008 -4.5 1.5c-2 0 -3.83301 0.166992 -5.5 0.5s-3.16699 0.833008 -4.5 1.5
c-2.66699 0.666992 -5.5 1.33398 -8.5 2.00098s-6.16699 1.33398 -9.5 2.00098c-10.667 2 -21.334 3.83301 -32.001 5.5s-21.334 2.83398 -32.001 3.50098c-10.667 1.33301 -21.167 2.5 -31.5 3.5s-20.166 1.83301 -29.499 2.5l-45 -43h-22v49
c1.33301 0.666992 2.5 1.33398 3.5 2.00098s2.16699 1.66699 3.5 3c1.33301 0.666992 2.66602 1.5 3.99902 2.5s2.66602 1.83301 3.99902 2.5c1.33301 1.33301 2.66602 2.33301 3.99902 3s2.66602 1.66699 3.99902 3c1.33301 0.666992 2.83301 1.5 4.5 2.5
s3.16699 1.83301 4.5 2.5c0.666992 0.666992 1.33398 1.16699 2.00098 1.5s1.33398 0.833008 2.00098 1.5c0.666992 0 1.33398 0.166992 2.00098 0.5s1.33398 0.833008 2.00098 1.5l4 2l4 2c1.33301 0.666992 2.66602 2 3.99902 4s3 4.33301 5 7c2 3.33301 4 7 6 11
s4 8.33301 6 13c3.33301 9.33301 6.5 20 9.5 32s5.83301 25.667 8.5 41c3.33301 15.333 5.66602 32.166 6.99902 50.499s2 38.166 2 59.499v32c-5.33301 -1.33301 -10.666 -2.16602 -15.999 -2.49902s-10.666 -0.5 -15.999 -0.5h-8h-8
c-2.66699 -0.666992 -5.33398 -1 -8.00098 -1h-8h-4h-4c-1.33301 -0.666992 -2.66602 -1 -3.99902 -1h-4h-8h-8l8 47c3.33301 -1.33301 6.83301 -2.16602 10.5 -2.49902s7.5 -0.5 11.5 -0.5h10.5h11.5h2h2c0 -0.666992 0.333008 -1 1 -1h2h4h4h3.5h3.5
c0.666992 -0.666992 1.66699 -1 3 -1h4h7.5h7.5v108c0 6.66699 0.333008 13.334 1 20.001s2 13.334 4 20.001l6 18c2 6 4.33301 11.667 7 17c2 5.33301 4.5 10.833 7.5 16.5s6.5 10.834 10.5 15.501c3.33301 5.33301 7.33301 10.5 12 15.5s9.66699 9.83301 15 14.5
s11.166 9.5 17.499 14.5s12.833 9.83301 19.5 14.5c7.33301 5.33301 15.166 10.666 23.499 15.999s17.166 10.666 26.499 15.999s18.666 10 27.999 14s19 7.33301 29 10c10 3.33301 20.167 5.66602 30.5 6.99902s20.833 2 31.5 2h2h2h1h2h4h4
c7.33301 -0.666992 14.833 -1.66699 22.5 -3s15.167 -3 22.5 -5s14.333 -4.5 21 -7.5s13.334 -6.5 20.001 -10.5c-1.33301 -6 -2.5 -12.5 -3.5 -19.5s-2.16699 -14.167 -3.5 -21.5l-2 -22.5c-0.666992 -7.66699 -1 -15.167 -1 -22.5v-5.5v-4.5v-5.5v-4.5v-7.5v-7.5v-7.5
c0 -2.33301 0.333008 -4.83301 1 -7.5l-33 2c0 15.333 -1 29.166 -3 41.499s-5 22.833 -9 31.5s-10 16 -18 22s-18.667 10.667 -32 14c-2 0 -3.83301 0.166992 -5.5 0.5s-3.16699 0.833008 -4.5 1.5h-2.5c-1 0 -1.83301 0.333008 -2.5 1h-3h-2h-2.5
c-1 0 -1.83301 0.333008 -2.5 1h-3h-3h-3h-3h-3.5h-3.5c-22.667 0 -42.167 -4 -58.5 -12s-29.5 -19.667 -39.5 -35c-10 -16 -18 -32.5 -24 -49.5s-10.333 -35.167 -13 -54.5c-0.666992 -4.66699 -1.16699 -9.16699 -1.5 -13.5s-0.5 -8.83301 -0.5 -13.5
c-0.666992 -4.66699 -1 -9.16699 -1 -13.5v-12.5v-87c7.33301 -0.666992 14.833 -1 22.5 -1h22.5c7.33301 0 14.833 0.166992 22.5 0.5s15.5 0.833008 23.5 1.5h11.5c3.66699 0 7.5 0.333008 11.5 1h11h12c7.33301 0 14.833 0.166992 22.5 0.5s15.167 0.833008 22.5 1.5v2v0
z" />
    <glyph glyph-name="currency" unicode="&#xa4;" horiz-adv-x="500" 
d="M77 531l48.0068 -48.001c6.66699 4.66699 14.167 9.16699 22.5 13.5s17.5 8.5 27.5 12.5c10 3.33301 20.167 6.16602 30.5 8.49902s20.833 3.83301 31.5 4.5h3.5h2.5h2h2h1h2h3.5h2.5h2h2h1h2c10.667 -0.666992 21.167 -2.16699 31.5 -4.5s20.5 -5.16602 30.5 -8.49902
c10 -4 19.167 -8.33301 27.5 -13s15.833 -9.66699 22.5 -15l48 50l47 -47l-49 -49c7.33301 -8.66699 13.666 -17.5 18.999 -26.5s9.66602 -19.167 12.999 -30.5c3.33301 -10.667 5.83301 -21.834 7.5 -33.501s2.5 -23.167 2.5 -34.5c0 -12 -1 -23.5 -3 -34.5
s-4.66699 -21.833 -8 -32.5s-7.5 -20.5 -12.5 -29.5s-11.167 -17.5 -18.5 -25.5l49 -47l-45 -45l-48 48c-8 -8 -16.5 -14.833 -25.5 -20.5s-19.167 -10.167 -30.5 -13.5c-10.667 -3.33301 -22 -5.83301 -34 -7.5s-24.333 -2.5 -37 -2.5s-24.834 0.833008 -36.501 2.5
s-23.167 4.16699 -34.5 7.5c-10.667 3.33301 -20.834 7.83301 -30.501 13.5s-18.167 11.834 -25.5 18.501l-48 -46l-45 45l49 49c-6.66699 6.66699 -12.834 14.5 -18.501 23.5s-10.167 18.833 -13.5 29.5s-5.83301 21.5 -7.5 32.5s-2.5 22.5 -2.5 34.5
c0 11.333 0.833008 22.833 2.5 34.5s4.16699 22.834 7.5 33.501c3.33301 11.333 7.66602 21.5 12.999 30.5s11.666 17.167 18.999 24.5l-49 51l47 47v0v0zM250.007 464.999c-20.667 -1.33301 -40.167 -5.66699 -58.5 -13s-35.166 -18.666 -50.499 -33.999
c-14.667 -14.667 -25.834 -31 -33.501 -49s-11.5 -37.667 -11.5 -59c0 -20.667 3.83301 -39.834 11.5 -57.501s18.834 -34.167 33.501 -49.5c15.333 -14.667 32.166 -25.667 50.499 -33s37.833 -11 58.5 -11c21.333 0 41 3.66699 59 11s34.333 18.333 49 33
c15.333 15.333 26.833 31.833 34.5 49.5s11.5 36.834 11.5 57.501c0 21.333 -3.83301 41 -11.5 59s-19.167 34.333 -34.5 49c-14.667 15.333 -31 26.666 -49 33.999s-37.667 11 -59 11v2v0z" />
    <glyph glyph-name="yen" unicode="&#xa5;" horiz-adv-x="500" 
d="M334 382l122 -0.000976562v-39h-139l-1.5 -3c-0.333008 -0.666992 -0.5 -1.33398 -0.5 -2.00098v-1.5v-1.5c-2 -4 -4 -8.33301 -6 -13s-3.66699 -9.66699 -5 -15l-2 -8c-0.666992 -2.66699 -1 -5 -1 -7c-0.666992 -2.66699 -1 -5.33398 -1 -8.00098v-8v-30h156v-39h-156
v-87c0 -10.667 0.166992 -20 0.5 -28s0.833008 -15.333 1.5 -22s1.5 -12.167 2.5 -16.5s2.16699 -7.83301 3.5 -10.5s3 -4.83398 5 -6.50098s4.33301 -3.16699 7 -4.5l10 -2.5c4 -1 8.66699 -1.5 14 -1.5l41 -1v-30c-11.333 0.666992 -22.5 1.16699 -33.5 1.5
s-21.5 0.5 -31.5 0.5c-10 0.666992 -20 1 -30 1h-30h-31.5c-10.333 0 -20.5 -0.333008 -30.5 -1c-10 0 -19.667 -0.166992 -29 -0.5s-18.333 -0.833008 -27 -1.5v30l41 3c5.33301 -0.666992 10 -0.666992 14 0s7.33301 1.33398 10 2.00098c2.66699 1.33301 5 2.83301 7 4.5
s3.66699 3.83398 5 6.50098s2.5 6.16699 3.5 10.5s1.83301 9.83301 2.5 16.5s1.16699 14 1.5 22s0.5 16.667 0.5 26v89h-156v39h156v16v0v1c-0.666992 0.666992 -1 1.33398 -1 2.00098v2v4.5v5.5c0 0.666992 -0.166992 1.33398 -0.5 2.00098s-0.5 1.33398 -0.5 2.00098
c-0.666992 0 -1 0.333008 -1 1v2c0 0.666992 -0.166992 1.33398 -0.5 2.00098s-0.5 1.33398 -0.5 2.00098c-0.666992 0 -1.16699 0.333008 -1.5 1s-0.5 1.33398 -0.5 2.00098l-21 52h-129v39h111l-75 160c-1.33301 2 -2.83301 4.5 -4.5 7.5s-3.16699 5.83301 -4.5 8.5
c-1.33301 3.33301 -2.83301 6.66602 -4.5 9.99902s-3.16699 6.66602 -4.5 9.99902c-4.66699 9.33301 -9.66699 18 -15 26s-11 15.667 -17 23s-12.667 12.833 -20 16.5s-15.333 5.5 -24 5.5h-1.5h-0.5h-1.5h-0.5c-0.666992 -0.666992 -1.16699 -1 -1.5 -1h-0.5h-1.5h-0.5v31
l92 21c0 -1.33301 0.166992 -2 0.5 -2h1.5h0.5c0.333008 0 0.833008 0.333008 1.5 1h0.5h0.5h0.5h1.5h1.5h1.5c5.33301 0 10 -0.833008 14 -2.5s8 -4.16699 12 -7.5c3.33301 -3.33301 6.5 -7 9.5 -11s5.5 -8.33301 7.5 -13c1.33301 -2.66699 2.66602 -5.66699 3.99902 -9
l5 -12c1.33301 -4.66699 2.83301 -9.16699 4.5 -13.5s3.5 -8.83301 5.5 -13.5c0 -1.33301 0.166992 -2.83301 0.5 -4.5s0.833008 -3.16699 1.5 -4.5l2 -4l2 -4l104 -259l70 163l10.5 21.5c3.66699 7.66699 6.83398 15.5 9.50098 23.5l10 24l10 24
c1.33301 4 2.83301 8 4.5 12s3.5 8 5.5 12l4.5 11c1.66699 4 3.16699 8 4.5 12c3.33301 8 6.5 16 9.5 24s5.83301 16 8.5 24l70 2v-15l-10 -15.5l-10 -15.5c-2 -2.66699 -3.83301 -5.33398 -5.5 -8.00098l-4.5 -7c-2 -2.66699 -3.83301 -5.33398 -5.5 -8.00098
s-3.16699 -5.33398 -4.5 -8.00098c-4.66699 -8.66699 -9.5 -17.167 -14.5 -25.5l-15.5 -26.5l-7.5 -13.5c-2.33301 -4.33301 -4.83301 -8.5 -7.5 -12.5l-7.5 -13.5c-2.33301 -4.33301 -4.5 -8.83301 -6.5 -13.5l-8 -16l-8 -16l-8 -16
c-2.66699 -5.33301 -5 -10.666 -7 -15.999l-32 -66v0v0z" />
    <glyph glyph-name="brokenbar" unicode="&#xa6;" 
 />
    <glyph glyph-name="section" unicode="&#xa7;" horiz-adv-x="500" 
d="M403 521l-30.9902 -0.0126953l-5 87c-9.33301 7.33301 -18.833 14 -28.5 20s-19.167 11 -28.5 15c-10 4 -20.5 7 -31.5 9s-22.5 3 -34.5 3c-18.667 0 -35.834 -2.66699 -51.501 -8s-30.167 -13.333 -43.5 -24s-23.333 -23.667 -30 -39s-10 -32.666 -10 -51.999
c0 -16 3.66699 -30 11 -42s18.333 -22 33 -30s30.5 -15.5 47.5 -22.5s35.167 -13.5 54.5 -19.5c1.33301 -0.666992 2.66602 -1.16699 3.99902 -1.5s2.66602 -0.5 3.99902 -0.5c1.33301 -0.666992 2.66602 -1.16699 3.99902 -1.5s2.66602 -0.833008 3.99902 -1.5
s2.66602 -1.16699 3.99902 -1.5s2.66602 -0.5 3.99902 -0.5c1.33301 -0.666992 2.66602 -1.16699 3.99902 -1.5s2.66602 -0.833008 3.99902 -1.5c22 -6.66699 43.167 -14.5 63.5 -23.5s39.833 -19.167 58.5 -30.5c18.667 -10.667 32.667 -24.667 42 -42
s14 -37.666 14 -60.999c0 -14.667 -2 -28.667 -6 -42s-9.66699 -26 -17 -38s-15.5 -23.167 -24.5 -33.5s-19.167 -19.833 -30.5 -28.5c11.333 -5.33301 20.666 -11.666 27.999 -18.999s13.333 -15.666 18 -24.999s8.16699 -19.333 10.5 -30s3.5 -21.667 3.5 -33v-1.5v-2.5
c-0.666992 -0.666992 -1 -1.5 -1 -2.5v-2.5v-3.5v-2.5c-0.666992 -1.33301 -1 -2.5 -1 -3.5v-2.5c-4 -25.333 -12.833 -49.333 -26.5 -72s-32.5 -44.334 -56.5 -65.001c-24 -21.333 -49.167 -37.166 -75.5 -47.499s-53.833 -15.5 -82.5 -15.5h-5.5h-4.5
c-2 0.666992 -3.83301 1 -5.5 1h-4.5h-4.5c-1.66699 0 -3.16699 0.333008 -4.5 1c-2 0 -3.83301 0.166992 -5.5 0.5s-3.16699 0.5 -4.5 0.5c-11.333 1.33301 -22.5 3.33301 -33.5 6s-21.833 5.66699 -32.5 9c-10.667 4 -20.5 8 -29.5 12s-17.5 8.66699 -25.5 14
c0.666992 4.66699 1.16699 9.5 1.5 14.5s0.833008 9.83301 1.5 14.5c0 4.66699 0.166992 9.33398 0.5 14.001s0.833008 9.33398 1.5 14.001s1.16699 9.33398 1.5 14.001s0.833008 9.33398 1.5 14.001c0 4.66699 0.166992 9.33398 0.5 14.001s0.833008 9.33398 1.5 14.001
v11.5c0 3.66699 0.333008 7.16699 1 10.5v6c0 2 0.333008 3.66699 1 5v5.5v5.5h32l5 -90c9.33301 -10.667 19.166 -19.667 29.499 -27s20.833 -13.333 31.5 -18c11.333 -4.66699 24 -8.16699 38 -10.5s29.333 -3.5 46 -3.5c18.667 0 36.5 2.5 53.5 7.5
s32.833 12.5 47.5 22.5c15.333 10 26.666 22.5 33.999 37.5s11 32.833 11 53.5c0 18.667 -4.16699 34.667 -12.5 48s-20.833 24.333 -37.5 33c-16.667 9.33301 -34.167 17.833 -52.5 25.5s-37.833 14.834 -58.5 21.501c-2 0.666992 -3.83301 1.16699 -5.5 1.5
s-3.16699 0.833008 -4.5 1.5s-2.66602 1.16699 -3.99902 1.5s-2.66602 0.833008 -3.99902 1.5h-1.5h-0.5v0v1h-1v0c-22 7.33301 -43.167 15.166 -63.5 23.499s-39.5 17.833 -57.5 28.5c-18.667 10 -32.5 23.5 -41.5 40.5s-13.5 37.5 -13.5 61.5v1.5v1.5v1.5v1.5
c0.666992 13.333 3.16699 26 7.5 38s10.5 24 18.5 36c8 11.333 16.833 21.833 26.5 31.5s19.834 18.167 30.501 25.5c-8.66699 5.33301 -16.5 11.833 -23.5 19.5s-13.167 15.834 -18.5 24.501c-5.33301 9.33301 -9.33301 18.833 -12 28.5s-4 19.834 -4 30.501
c0 29.333 5.5 56.833 16.5 82.5s27.833 49.834 50.5 72.501c22 23.333 46.5 40.666 73.5 51.999s55.833 17 86.5 17h6h6c1.33301 -0.666992 3 -1 5 -1h6h6c2 0 4 -0.333008 6 -1c1.33301 0 3 -0.166992 5 -0.5s4 -0.5 6 -0.5c7.33301 -0.666992 14.833 -2 22.5 -4
s15.5 -4.33301 23.5 -7s15.833 -5.83398 23.5 -9.50098s15.167 -7.83398 22.5 -12.501l-2 -12c-0.666992 -4 -1 -8.33301 -1 -13l-2 -13.5c-0.666992 -4.33301 -1.33398 -9.16602 -2.00098 -14.499c-0.666992 -10 -1.5 -20 -2.5 -30s-1.5 -20 -1.5 -30
c-0.666992 -3.33301 -1.16699 -6.66602 -1.5 -9.99902s-0.5 -6.66602 -0.5 -9.99902v-4.5v-4.5v-5.5v-4.5v2v0zM135.01 368.987c-4 -4 -7.50684 -7.66504 -10.5068 -10.998s-5.83301 -6.66602 -8.5 -9.99902c-3.33301 -4 -6 -7.66699 -8 -11l-6 -10
c-3.33301 -6.66699 -5.83301 -14.334 -7.5 -23.001s-2.5 -17.667 -2.5 -27c0 -11.333 2.83301 -22 8.5 -32s13.834 -19 24.501 -27c11.333 -8 23.333 -15.5 36 -22.5s26.334 -13.167 41.001 -18.5l10 -4l10 -4c3.33301 -0.666992 6.66602 -1.5 9.99902 -2.5
s6.66602 -2.16699 9.99902 -3.5c11.333 -4 22.833 -7.83301 34.5 -11.5l33.5 -10.5c11.333 -3.33301 21.666 -6.66602 30.999 -9.99902s17.333 -6.66602 24 -9.99902c5.33301 7.33301 10 14.833 14 22.5s7.33301 15.167 10 22.5c3.33301 7.33301 5.83301 14.666 7.5 21.999
s2.5 14.666 2.5 21.999c0 13.333 -2.16699 25.166 -6.5 35.499s-11.166 19.166 -20.499 26.499c-8.66699 7.33301 -18.5 14.333 -29.5 21s-23.167 12.667 -36.5 18c-3.33301 1.33301 -6.66602 2.5 -9.99902 3.5s-6.66602 2.16699 -9.99902 3.5
c-3.33301 0.666992 -6.66602 1.66699 -9.99902 3s-6.66602 2.33301 -9.99902 3c-3.33301 1.33301 -6.66602 2.5 -9.99902 3.5s-6.66602 2.16699 -9.99902 3.5c-4 0.666992 -7.66699 1.66699 -11 3s-6.66602 2.33301 -9.99902 3v0v0h-1v0v0v1h-1v0l-23.5 6
c-7.66699 2 -15.167 4.33301 -22.5 7c-7.33301 2 -14.5 4.5 -21.5 7.5l-20.5 8.5v2v0z" />
    <glyph glyph-name="dieresis" unicode="&#xa8;" horiz-adv-x="333" 
d="M67 637c7.33301 -1.33301 14 -3.16699 20 -5.5s11.333 -5.83301 16 -10.5s8.16699 -10 10.5 -16s3.5 -12.667 3.5 -20s-1.16699 -14 -3.5 -20s-5.83301 -11.333 -10.5 -16s-10 -8.16699 -16 -10.5s-12.667 -3.5 -20 -3.5s-14 1.16699 -20 3.5s-11.333 5.83301 -16 10.5
s-8.16699 10 -10.5 16s-3.5 12.667 -3.5 20s1.16699 14 3.5 20s5.83301 11.333 10.5 16s10 8.16699 16 10.5s12.667 3.5 20 3.5v2v0zM266 636.999c7.33301 -1.33301 14 -3.16699 20 -5.5s11.333 -5.83301 16 -10.5s8.16699 -10 10.5 -16s3.5 -12.667 3.5 -20
s-1.16699 -14 -3.5 -20s-5.83301 -11.333 -10.5 -16s-10 -8.16699 -16 -10.5s-12.667 -3.5 -20 -3.5s-14 1.16699 -20 3.5s-11.333 5.83301 -16 10.5s-8.16699 10 -10.5 16s-3.5 12.667 -3.5 20s1.16699 14 3.5 20s5.83301 11.333 10.5 16s10 8.16699 16 10.5
s12.667 3.5 20 3.5v2v0z" />
    <glyph glyph-name="copyright" unicode="&#xa9;" horiz-adv-x="747" 
d="M371 706c50 -1.33301 96.502 -10.8301 139.502 -28.4971s82.5 -44.167 118.5 -79.5c35.333 -34.667 62 -73.5 80 -116.5s27 -89.5 27 -139.5s-9 -96.333 -27 -139s-44.667 -81.667 -80 -117c-36 -34.667 -75.333 -60.667 -118 -78s-89 -26 -139 -26
c-49.333 0 -95.333 8.66699 -138 26s-81.667 43.666 -117 78.999s-61.833 74.166 -79.5 116.499s-26.5 88.166 -26.5 137.499s8.83301 95.333 26.5 138s44.167 82 79.5 118c35.333 35.333 74.166 62 116.499 80s88.166 27 137.499 27v2v0zM371.002 662.003
c-43.333 -1.33301 -83.498 -9.83398 -120.498 -25.501s-71.167 -39.167 -102.5 -70.5c-30.667 -31.333 -53.834 -65.833 -69.501 -103.5s-23.5 -78.167 -23.5 -121.5s7.83301 -83.666 23.5 -120.999s38.834 -71.666 69.501 -102.999
c31.333 -30.667 65.666 -53.834 102.999 -69.501s77.666 -23.5 120.999 -23.5s83.833 7.83301 121.5 23.5s72.167 38.834 103.5 69.501c31.333 31.333 55 65.666 71 102.999s24 78 24 122s-8 84.833 -24 122.5s-39.667 71.834 -71 102.501
c-31.333 31.333 -65.833 54.666 -103.5 69.999s-78.5 23 -122.5 23v2v0zM527.004 522.002v-106.998h-26c-0.666992 15.333 -3.16699 29.5 -7.5 42.5s-11.166 24.167 -20.499 33.5c-8.66699 9.33301 -19.834 16.5 -33.501 21.5s-29.167 7.5 -46.5 7.5
c-24.667 0 -46.334 -4.5 -65.001 -13.5s-34 -22.167 -46 -39.5s-21 -36 -27 -56s-9 -41.333 -9 -64v-7.5v-6.5v-3c0 -1.33301 0.333008 -2.33301 1 -3c0 -1.33301 0.166992 -2.5 0.5 -3.5s0.5 -2.16699 0.5 -3.5c2 -19.333 6.5 -38 13.5 -56s16.833 -35 29.5 -51
c12 -16.667 26.5 -29 43.5 -37s36.5 -12 58.5 -12c13.333 0 26.166 1.66699 38.499 5s23.833 8.33301 34.5 15c11.333 6.66699 21 14.667 29 24s15 20.333 21 33l21 -7c-6 -15.333 -13.833 -29 -23.5 -41s-21.5 -22 -35.5 -30c-14 -8.66699 -28.333 -15.334 -43 -20.001
s-29.667 -7.66699 -45 -9c-1.33301 -0.666992 -2.66602 -1 -3.99902 -1h-4h-4h-4c-30 0 -56.833 4.83301 -80.5 14.5s-44.5 24.167 -62.5 43.5s-31.333 41.333 -40 66s-13 51.667 -13 81c0 31.333 4.83301 59.5 14.5 84.5s23.834 46.833 42.501 65.5
c19.333 19.333 41.5 33.833 66.5 43.5s53.167 14.5 84.5 14.5h6h6c2 -0.666992 4 -1 6 -1h6c4 -0.666992 8 -1.16699 12 -1.5s8 -0.5 12 -0.5l12 -2c4 -0.666992 8 -1.66699 12 -3c3.33301 -0.666992 7 -1.33398 11 -2.00098s8 -1.66699 12 -3l23.5 -6
c7.66699 -2 15.167 -4.33301 22.5 -7v2v0z" />
    </font>
</defs>
</svg>
