<?xml version="1.0" standalone="no"?>
<!DOCTYPE svg PUBLIC "-//W3C//DTD SVG 1.1//EN" "http://www.w3.org/Graphics/SVG/1.1/DTD/svg11.dtd" >
<svg>
<metadata>
Created by FontForge 20090914 at Tue Oct  5 01:58:06 2021
 By www-data
</metadata>
<defs>
<font id="Palatino-Italic" horiz-adv-x="250" >
  <font-face 
    font-family="Palatino-Italic"
    font-weight="500"
    font-style="italic"
    font-stretch="normal"
    units-per-em="1000"
    panose-1="0 0 0 0 0 0 0 0 0 0"
    ascent="800"
    descent="-200"
    x-height="480.999"
    cap-height="692"
    bbox="-170 -276.002 1010 917.995"
    underline-thickness="50"
    underline-position="-55"
    unicode-range="U+0020-U+F002"
  />
<missing-glyph 
 />
    <glyph glyph-name=".notdef" 
 />
    <glyph glyph-name="space" unicode=" " 
 />
    <glyph glyph-name="space" unicode="&#xa0;" 
 />
    <glyph glyph-name="exclam" unicode="!" horiz-adv-x="333" 
d="M136 109c13.333 -0.666992 24.166 -5.66797 32.499 -15.001s12.5 -20.666 12.5 -33.999c0 -2.66699 -0.166992 -5.16699 -0.5 -7.5s-0.833008 -4.83301 -1.5 -7.5c-2.66699 -13.333 -9 -25.5 -19 -36.5s-23 -16.5 -39 -16.5c-12 0 -22.5 3.5 -31.5 10.5
s-13.5 19.167 -13.5 36.5v4v4c2 15.333 8.33301 29.333 19 42s24.334 19 41.001 19v1zM196 706.999l84.999 26l11 -9l-19.5 -74c-6.33301 -24 -12.166 -48 -17.499 -72l-86 -370l-30 -17l-6 3l21 154c2 16.667 4.16699 33.5 6.5 50.5s4.5 34.167 6.5 51.5l15.5 129
c5 42.667 9.5 85 13.5 127v1z" />
    <glyph glyph-name="quotedbl" unicode="&#x22;" horiz-adv-x="500" 
d="M170 508h-29.999l62 187l0.5 1.5c0.333008 1 0.833008 1.83301 1.5 2.5c3.33301 8 8.33301 15.5 15 22.5s15.667 10.5 27 10.5c13.333 0 23.666 -3.83301 30.999 -11.5s11 -16.5 11 -26.5v-3.5v-3.5c-0.666992 -5.33301 -1.66699 -10.333 -3 -15
s-3.33301 -8.66699 -6 -12l-109 -152v0zM337.001 508h-29.999l62 187l0.5 1.5c0.333008 1 0.833008 1.83301 1.5 2.5c3.33301 8 8.33301 15.5 15 22.5s15.667 10.5 27 10.5c13.333 0 23.666 -3.83301 30.999 -11.5s11 -16.5 11 -26.5v-3.5v-3.5
c-0.666992 -5.33301 -1.66699 -10.333 -3 -15s-3.33301 -8.66699 -6 -12l-109 -152v0z" />
    <glyph glyph-name="numbersign" unicode="#" horiz-adv-x="500" 
d="M470 283v-56h-109l-31 -227h-58l31 227h-134l-33 -227h-58l33 227h-107v56h116l21 140h-110v56h118l31 213h58l-31 -213h133l30 213h58l-30 -213h97v-56h-105l-20 -140h100v0zM332 423h-133l-21 -140h134l20 140v0z" />
    <glyph glyph-name="dollar" unicode="$" horiz-adv-x="500" 
d="M289 733l37.002 -0.000976562l-10 -60c2.66699 -0.666992 5.16699 -1 7.5 -1h6.5c21.333 -0.666992 42.333 -3.5 63 -8.5s39.667 -13.5 57 -25.5l2 -9c-0.666992 -4 -1.5 -7.66699 -2.5 -11s-1.83301 -7 -2.5 -11c-2.66699 -8.66699 -5.16699 -18 -7.5 -28
s-4.5 -20.333 -6.5 -31c-1.33301 -6 -2.5 -11.833 -3.5 -17.5s-1.83301 -11.5 -2.5 -17.5l-24 1v72c-6 6.66699 -14.167 13 -24.5 19s-21.166 10.667 -32.499 14c-6.66699 2 -13.334 3.66699 -20.001 5s-12.667 2.33301 -18 3l-41 -256
c46 -7.33301 85.333 -20.833 118 -40.5s49 -56.167 49 -109.5c0 -54 -20.167 -102.167 -60.5 -144.5s-84.5 -69.5 -132.5 -81.5c-6 -1.33301 -12 -2.5 -18 -3.5s-12 -1.83301 -18 -2.5l-14 -102h-41l20 101c-30.667 3.33301 -59.834 7.5 -87.501 12.5
s-50.167 14.5 -67.5 28.5c4 16 7.33301 32.833 10 50.5l8 53.5l2 21l2 20l26 1v-90c10.667 -13.333 23.334 -23.666 38.001 -30.999s29.667 -12.666 45 -15.999l16 -4c5.33301 -1.33301 10.666 -2.33301 15.999 -3l44 274c-40.667 7.33301 -75.834 21 -105.501 41
s-44.5 53.667 -44.5 101c0 61.333 21 110.666 63 147.999s90.333 62.333 145 75l9 63v0zM255.002 300.999l-43.001 -269.002c42 -0.666992 77.167 15.333 105.5 48s42.5 69.334 42.5 110.001c0 34.667 -8.66699 59.834 -26 75.501s-43.666 27.167 -78.999 34.5v1z
M234.001 376.997l40 251.001c0 -0.666992 -0.166992 -1 -0.5 -1h-1.5h-1.5h-0.5c-40 0 -71.833 -15.5 -95.5 -46.5s-35.5 -65.167 -35.5 -102.5c0 -30 9.16699 -52.833 27.5 -68.5s40.833 -26.834 67.5 -33.501v1z" />
    <glyph glyph-name="percent" unicode="%" horiz-adv-x="889" 
d="M247 -7h-41l424 717h44l-427 -717v0zM677 320c7.33301 -0.666992 15.167 -1.83203 23.5 -3.49902s17.166 -4.16699 26.499 -7.5c20.667 -8 39.5 -22 56.5 -42s25.5 -48 25.5 -84c0 -48.667 -15.833 -91.334 -47.5 -128.001s-73.167 -55 -124.5 -55
c-40.667 0 -74.167 13.667 -100.5 41s-39.5 61.333 -39.5 102c0 47.333 18.333 88.5 55 123.5s78.334 52.5 125.001 52.5v1zM677.001 297.002c-28.667 -0.666992 -51.167 -12.5029 -67.5 -35.5029s-27.833 -48.5 -34.5 -76.5c-2.66699 -12 -4.66699 -23.667 -6 -35
s-2 -21.666 -2 -30.999c0 -33.333 6.33301 -57.166 19 -71.499s26.334 -22.5 41.001 -24.5c2 -0.666992 3.83301 -1 5.5 -1h4.5c26 0 46.667 11.167 62 33.5s26.333 46.833 33 73.5c4 14.667 6.83301 28.834 8.5 42.501s2.5 25.5 2.5 35.5c0 35.333 -6.83301 59 -20.5 71
s-28.834 18 -45.501 18v1zM254.001 698.999c7.33301 -0.666992 15.167 -1.83398 23.5 -3.50098s17.166 -4.16699 26.499 -7.5c20.667 -8 39.5 -22 56.5 -42s25.5 -48 25.5 -84c0 -48.667 -15.833 -91.5 -47.5 -128.5s-73.167 -55.5 -124.5 -55.5
c-40.667 0 -74.167 13.833 -100.5 41.5s-39.5 61.834 -39.5 102.501c0 47.333 18.333 88.5 55 123.5s78.334 52.5 125.001 52.5v1zM254.002 675.999c-28.667 -0.666992 -51.167 -12.5029 -67.5 -35.5029s-27.833 -48.5 -34.5 -76.5c-2.66699 -12 -4.66699 -23.667 -6 -35
s-2 -21.666 -2 -30.999c0 -33.333 6.33301 -57.166 19 -71.499s26.334 -22.5 41.001 -24.5c2 -0.666992 3.83301 -1 5.5 -1h4.5c26 0 46.667 11.167 62 33.5s26.333 46.833 33 73.5c4 14.667 6.83301 28.834 8.5 42.501s2.5 25.5 2.5 35.5c0 35.333 -6.83301 59 -20.5 71
s-28.834 18 -45.501 18v1z" />
    <glyph glyph-name="ampersand" unicode="&#x26;" horiz-adv-x="778" 
d="M512 659l-5 -22.9971l-19 -88h-23v62c-11.333 7.33301 -24.666 14.333 -39.999 21s-31 10 -47 10c-34.667 0 -64.834 -10.833 -90.501 -32.5s-38.5 -50.834 -38.5 -87.501s13.167 -63.167 39.5 -79.5s55.166 -24.5 86.499 -24.5h3.5c1 0 2.16699 0.333008 3.5 1h3.5h3.5
c-0.666992 -2.66699 -1.66699 -5.33398 -3 -8.00098l-4 -8l-0.5 -1l-0.5 -1c-2.66699 -4.66699 -5.16699 -9.5 -7.5 -14.5s-3.83301 -10.167 -4.5 -15.5v-1h-36c-52.667 -0.666992 -99.667 -15.667 -141 -45s-62 -73 -62 -131c0 -56.667 20.833 -98 62.5 -124
s87.5 -39.667 137.5 -41h5h4c6.66699 0 13.667 0.333008 21 1s14.333 1.66699 21 3c46 8 88 27 126 57s57 66.333 57 109c0 26 -8.16699 47.333 -24.5 64s-37.833 25 -64.5 25c-28.667 0 -47.334 -7.33301 -56.001 -22s-15.334 -31.667 -20.001 -51
c0 -2 -0.166992 -3.66699 -0.5 -5s-0.833008 -3 -1.5 -5l-23 3l8 99c12.667 12.667 26.334 22.167 41.001 28.5s29.334 11.166 44.001 14.499c6 1.33301 11.667 2.5 17 3.5s10.666 1.83301 15.999 2.5c1.33301 0 2.5 0.166992 3.5 0.5s2.16699 0.5 3.5 0.5l111 19
c6 0.666992 12.667 1.66699 20 3s15 3.33301 23 6c17.333 5.33301 33.333 13.166 48 23.499s22 25.166 22 44.499c0 10.667 -1.33301 19.334 -4 26.001s-8.33398 13 -17.001 19c-2.66699 2 -5.33398 3.66699 -8.00098 5s-5.66699 3 -9 5l21 17
c18.667 -8 32 -18.833 40 -32.5s12 -30.167 12 -49.5c0 -37.333 -12.667 -65.666 -38 -84.999s-54.666 -31.666 -87.999 -36.999l-77 -10v-2c1.33301 -0.666992 2.83301 -1 4.5 -1s3.16699 -0.333008 4.5 -1c19.333 -6 34.5 -16.333 45.5 -31s16.5 -32.334 16.5 -53.001
c0 -39.333 -14.833 -75 -44.5 -107s-62.167 -58.333 -97.5 -79c-10.667 -6 -21.167 -11.5 -31.5 -16.5s-20.5 -9.5 -30.5 -13.5c-9.33301 -3.33301 -20.166 -6.5 -32.499 -9.5s-24.833 -5.5 -37.5 -7.5c-12 -2 -23.667 -3.66699 -35 -5s-21.666 -2 -30.999 -2h-4h-5
c-59.333 1.33301 -113.833 16 -163.5 44s-74.5 76.667 -74.5 146c0 65.333 21.333 113.333 64 144s91 55 145 73c-23.333 10 -42.333 23 -57 39s-22 37.333 -22 64c0 32.667 13 63.834 39 93.501s54.667 53.834 86 72.501c9.33301 5.33301 18.833 10.166 28.5 14.499
s18.834 7.83301 27.501 10.5c9.33301 3.33301 19 5.5 29 6.5s20 1.5 30 1.5c4.66699 0 9.5 -0.166992 14.5 -0.5s9.83301 -0.833008 14.5 -1.5c12 -1.33301 24 -4 36 -8s22.667 -9 32 -15c-0.666992 -0.666992 -1.16699 -1.83398 -1.5 -3.50098s-0.5 -3.16699 -0.5 -4.5v1z
" />
    <glyph glyph-name="quotesingle" unicode="'" horiz-adv-x="333" 
d="M170 508h-29.999l62 187l0.5 1.5c0.333008 1 0.833008 1.83301 1.5 2.5c3.33301 8 8.33301 15.5 15 22.5s15.667 10.5 27 10.5c13.333 0 23.666 -3.83301 30.999 -11.5s11 -16.5 11 -26.5v-3.5v-3.5c-0.666992 -5.33301 -1.66699 -10.333 -3 -15
s-3.33301 -8.66699 -6 -12l-109 -152v0z" />
    <glyph glyph-name="parenleft" unicode="(" horiz-adv-x="333" 
d="M308 733l23.001 -21.0029l-36 -41.5c-11.333 -13.667 -22 -27.167 -32 -40.5c-48 -63.333 -82.833 -129 -104.5 -197s-32.5 -145.333 -32.5 -232c0 -11.333 0.333008 -22.666 1 -33.999l2 -34c3.33301 -30 8.66602 -59.5 15.999 -88.5s17 -56.5 29 -82.5l26 -55l-22 -13
c-14.667 22.667 -28 44.667 -40 66s-22.667 42 -32 62c-17.333 36.667 -30.333 74.334 -39 113.001s-13 82.334 -13 131.001c0 94 24.833 179 74.5 255s109.5 146.333 179.5 211v1z" />
    <glyph glyph-name="parenright" unicode=")" horiz-adv-x="333" 
d="M25 -106l-23.001 21.0029c12.667 13.333 24.667 26.833 36 40.5s22 27.167 32 40.5c48 62.667 82.833 128 104.5 196s32.5 145.333 32.5 232c0 11.333 -0.333008 22.666 -1 33.999l-2 34c-3.33301 30 -8.66602 59.5 -15.999 88.5s-17 56.833 -29 83.5l-26 56l22 13
c14.667 -23.333 28 -45.666 40 -66.999s22.667 -42.333 32 -63c17.333 -36.667 30.333 -74.334 39 -113.001s13 -82.334 13 -131.001c0 -94 -24.833 -178.833 -74.5 -254.5s-109.5 -145.834 -179.5 -210.501v0z" />
    <glyph glyph-name="asterisk" unicode="*" horiz-adv-x="389" 
d="M76 608l33 57l10 -1l104 -104l22 141l10 5l62 -18l1 -8l-71 -131l140 25l7 -5l6 -58l-6 -6l-145 19l65 -120l-4 -8l-58 -28l-7 4l-22 142l-107 -98l-12 1l-26 57l4 7l127 56l-128 62l-5 9v0z" />
    <glyph glyph-name="plus" unicode="+" horiz-adv-x="606" 
d="M275 280v224h56v-224h224v-56h-224v-224h-56v224h-224v56h224v0z" />
    <glyph glyph-name="comma" unicode="," 
d="M95 62l8.00098 32.001l91 29l9 -13c-18.667 -44 -41.334 -85.833 -68.001 -125.5s-55 -77.834 -85 -114.501l-35 -13l-7 10c23.333 28 41.5 58.667 54.5 92s23.833 67.333 32.5 102v1z" />
    <glyph glyph-name="hyphen" unicode="-" horiz-adv-x="333" 
d="M19 223l19 58h266l-18 -58h-267v0z" />
    <glyph glyph-name="period" unicode="." 
d="M113 112c13.333 -0.666992 24.166 -5.66797 32.499 -15.001s12.5 -20.666 12.5 -33.999c0 -2.66699 -0.166992 -5.16699 -0.5 -7.5s-0.833008 -4.83301 -1.5 -7.5c-2.66699 -13.333 -9 -25.5 -19 -36.5s-23 -16.5 -39 -16.5c-12 0 -22.5 3.5 -31.5 10.5
s-13.5 19.167 -13.5 36.5v4v4c2 15.333 8.33301 29.333 19 42s24.334 19 41.001 19v1z" />
    <glyph glyph-name="slash" unicode="/" horiz-adv-x="296" 
d="M392 733l-372 -852h-60l372 852h60v0z" />
    <glyph glyph-name="zero" unicode="0" horiz-adv-x="500" 
d="M306 699c62 -0.666992 105.997 -23.501 131.997 -68.501s40 -94.167 42 -147.5v-7.5v-6.5c0 -26.667 -1.83301 -56.834 -5.5 -90.501s-9.5 -68.5 -17.5 -104.5c-4.66699 -18 -9.66699 -36 -15 -54s-11.666 -35.333 -18.999 -52c-20.667 -50 -48.334 -92.333 -83.001 -127
s-78.334 -52 -131.001 -52c-64 0 -108 22.5 -132 67.5s-37.333 94.5 -40 148.5c-0.666992 4.66699 -1 9.33398 -1 14.001v14c0 26 1.83301 55.5 5.5 88.5s9.83398 66.833 18.501 101.5c4.66699 17.333 9.83398 34.5 15.501 51.5s11.834 33.5 18.501 49.5
c21.333 48.667 49.333 89.834 84 123.501s77.334 50.5 128.001 50.5v1zM216.997 17.999c37.333 -0.666992 67.835 18.835 91.502 58.502s42.5 85.834 56.5 138.501c2 8.66699 4.16699 17.5 6.5 26.5s4.16602 17.833 5.49902 26.5c10 45.333 17 88.666 21 129.999s6 73 6 95
c0 8 -0.166992 16.5 -0.5 25.5s-0.833008 17.833 -1.5 26.5c-2.66699 31.333 -10.834 59.833 -24.501 85.5s-39.834 38.5 -78.501 38.5c-36 0 -64.833 -16.5 -86.5 -49.5s-38.5 -69.167 -50.5 -108.5c-6.66699 -22.667 -12.167 -44.667 -16.5 -66l-11.5 -55
c-3.33301 -16.667 -6.33301 -34 -9 -52s-5 -36 -7 -54c-2 -18.667 -3.5 -37 -4.5 -55s-1.5 -35.333 -1.5 -52v-14c0 -4.66699 0.333008 -9.33398 1 -14.001c1.33301 -32.667 8.83301 -62.834 22.5 -90.501s40.834 -41.5 81.501 -41.5v1z" />
    <glyph glyph-name="one" unicode="1" horiz-adv-x="500" 
d="M350 573l-74.0029 -437l-5.5 -33.5c-1.66699 -10.333 -2.5 -19.166 -2.5 -26.499c0 -18 3.83301 -30.333 11.5 -37s23.5 -10.667 47.5 -12l71 -3l-5 -27c-14 0.666992 -28 1.16699 -42 1.5s-28 0.5 -42 0.5c-14 0.666992 -28.167 1 -42.5 1h-42.5h-42.5
c-14.333 0 -28.5 -0.333008 -42.5 -1c-14 0 -28.167 -0.166992 -42.5 -0.5s-28.5 -0.833008 -42.5 -1.5l5 27l85 10c17.333 1.33301 28.833 7.33301 34.5 18s10.167 27 13.5 49l86 528c-5.33301 -2.66699 -11 -5.16699 -17 -7.5s-11.667 -4.83301 -17 -7.5
c-1.33301 0 -2.66602 -0.333008 -3.99902 -1s-2.33301 -1 -3 -1c-10.667 -4 -21.167 -8.16699 -31.5 -12.5s-20.5 -8.83301 -30.5 -13.5l-84 -40l-7 5l11 59c4.66699 0.666992 9.33398 1.5 14.001 2.5s9.33398 2.16699 14.001 3.5c23.333 5.33301 46.333 11.166 69 17.499
s45 14.166 67 23.499l100 42l15 -11l-4 -20c-1.33301 -6.66699 -2.66602 -13 -3.99902 -19c-1.33301 -3.33301 -2.33301 -6.66602 -3 -9.99902s-1.33398 -6.33301 -2.00098 -9l-6 -29.5c-2 -9.66699 -3.66699 -19.167 -5 -28.5v1z" />
    <glyph glyph-name="two" unicode="2" horiz-adv-x="500" 
d="M108 63l202.999 -0.00195312c6.66699 -0.666992 13.5 -0.833984 20.5 -0.500977s14.167 0.833008 21.5 1.5c12.667 0.666992 25.334 1.83398 38.001 3.50098s24.334 3.5 35.001 5.5l6 -7l-17 -69c-16.667 0.666992 -33.5 1.16699 -50.5 1.5s-33.5 0.5 -49.5 0.5
c-16.667 0.666992 -33.334 1 -50.001 1h-51h-50.5c-17 0 -33.833 -0.333008 -50.5 -1c-16.667 0 -33.334 -0.166992 -50.001 -0.5s-33.667 -0.833008 -51 -1.5v18l39.5 41.5l40.5 43.5l26.5 30l26.5 29l55.5 64l50.5 62c3.33301 4 6.66602 8.33301 9.99902 13l10 14
c12.667 18 25 38 37 60s21.667 44 29 66c4.66699 14 8.33398 27.5 11.001 40.5s4 25.833 4 38.5c0 36 -9.83301 64.333 -29.5 85s-47.5 31 -83.5 31c-31.333 0 -58.166 -10.167 -80.499 -30.5s-42.5 -46.166 -60.5 -77.499l-22 10l60 120c19.333 14.667 40 25.5 62 32.5
s45 10.5 69 10.5c51.333 0 92.5 -14.167 123.5 -42.5s46.5 -68.5 46.5 -120.5c0 -38 -8.5 -74.667 -25.5 -110s-38.167 -66.666 -63.5 -93.999l-241 -261l1 -7v0z" />
    <glyph glyph-name="three" unicode="3" horiz-adv-x="500" 
d="M22 33l28 144.998l24 -5c-0.666992 -7.33301 -1.5 -14.833 -2.5 -22.5s-1.5 -15.167 -1.5 -22.5c0 -38 12.667 -65.167 38 -81.5s55 -24.5 89 -24.5c44 0 79.833 16.833 107.5 50.5s45.167 70.834 52.5 111.501c1.33301 6.66699 2.33301 13.5 3 20.5s1 13.833 1 20.5
c0 46 -12.167 80.167 -36.5 102.5s-58.833 33.5 -103.5 33.5c-12.667 0 -25.167 -1.66699 -37.5 -5s-24.166 -7 -35.499 -11l-6 13l18 43c4 -0.666992 7.83301 -1.16699 11.5 -1.5s7.5 -0.5 11.5 -0.5c4 -0.666992 7.83301 -1 11.5 -1h11.5c41.333 0 77.333 14 108 42
s46 63.333 46 106c0 27.333 -9.33301 49.333 -28 66s-41.334 25 -68.001 25c-20 0 -36.333 -2.33301 -49 -7s-24.334 -12 -35.001 -22c-4.66699 -4 -9.16699 -8.33301 -13.5 -13l-14.5 -16l-21 -23l-19 13l58 99c16.667 7.33301 32.167 13.5 46.5 18.5
s28.833 8.16699 43.5 9.5c4 0.666992 8 1.16699 12 1.5s8 0.5 12 0.5c39.333 0 75 -10.5 107 -31.5s48 -53.5 48 -97.5c0 -42 -13 -76.167 -39 -102.5s-54.667 -47.833 -86 -64.5c-3.33301 -1.33301 -6.5 -2.83301 -9.5 -4.5s-5.83301 -3.16699 -8.5 -4.5v-1
c45.333 -9.33301 81.833 -25.666 109.5 -48.999s41.5 -59.666 41.5 -108.999c0 -72 -28.333 -130.833 -85 -176.5s-119.334 -68.5 -188.001 -68.5c-7.33301 0 -14.666 0.166992 -21.999 0.5s-14.666 1.16602 -21.999 2.49902c-18.667 2 -37 6 -55 12s-35.667 15.333 -53 28
v1z" />
    <glyph glyph-name="four" unicode="4" horiz-adv-x="500" 
d="M15 223l336.998 461.001l69 15l8 -5l-83 -446h128l4 -5l-16 -55c-2.66699 -0.666992 -5.5 -0.833984 -8.5 -0.500977s-6.16699 0.5 -9.5 0.5c-1.33301 0 -2.66602 0.166992 -3.99902 0.5s-2.66602 0.5 -3.99902 0.5c-4.66699 0 -9.16699 0.166992 -13.5 0.5
s-8.83301 0.5 -13.5 0.5l-73 1l-9 -53c-3.33301 -18.667 -5.66602 -34 -6.99902 -46s-2 -23.333 -2 -34v-3.5v-3.5c0 -5.33301 3.5 -9.33301 10.5 -12s15.5 -4.66699 25.5 -6l87 -9l-5 -27c-14 0.666992 -27.833 1.16699 -41.5 1.5s-27.167 0.5 -40.5 0.5
c-14 0.666992 -27.833 1 -41.5 1h-41.5h-41.5c-13.667 0 -27.5 -0.333008 -41.5 -1c-14 0 -27.833 -0.166992 -41.5 -0.5s-27.5 -0.833008 -41.5 -1.5l5 27l86 10c15.333 0.666992 26.666 4.5 33.999 11.5s13.333 21.5 18 43.5l20 103h-253v31v0zM338.998 613.001l-260 -360
l2 -5h197l65 363l-4 2v0z" />
    <glyph glyph-name="five" unicode="5" horiz-adv-x="500" 
d="M115 329l-20.998 9.00293l64 350l8 5c5.33301 -0.666992 10.5 -1.16699 15.5 -1.5s10.167 -0.833008 15.5 -1.5c20.667 -1.33301 42 -2.5 64 -3.5s44.333 -1.5 67 -1.5c25.333 0 51.166 0.5 77.499 1.5s52.833 1.83301 79.5 2.5l6 -8l-35 -58
c-24.667 -2 -49.5 -3.5 -74.5 -4.5s-50.167 -1.5 -75.5 -1.5c-10 0 -19.833 0.166992 -29.5 0.5s-19.5 0.5 -29.5 0.5l-29.5 2l-29.5 2l-50 -236l2 -2c10.667 10.667 23.5 19.5 38.5 26.5s30.167 12.5 45.5 16.5c8.66699 2 17.167 3.5 25.5 4.5s16.5 1.5 24.5 1.5
c51.333 0 92.666 -14.833 123.999 -44.5s47 -71.167 47 -124.5c0 -24.667 -3.5 -48.334 -10.5 -71.001s-16.167 -44.667 -27.5 -66c-20.667 -40 -51 -72.167 -91 -96.5s-82 -38.166 -126 -41.499h-7.5h-7.5c-29.333 0 -57.666 3.5 -84.999 10.5s-52.666 20.5 -75.999 40.5
c4 14 8 30.333 12 49l12 58c0.666992 5.33301 1.5 10.666 2.5 15.999s1.83301 10.666 2.5 15.999l23 -4c-0.666992 -6.66699 -1.33398 -12.834 -2.00098 -18.501s-1 -11.167 -1 -16.5c0 -36 11 -64.333 33 -85s53.333 -31 94 -31c49.333 0 87.5 18.5 114.5 55.5
s43.833 77.833 50.5 122.5c1.33301 7.33301 2.33301 14.833 3 22.5s1 15.167 1 22.5c0 41.333 -10 75.166 -30 101.499s-52.333 39.5 -97 39.5c-26 0 -48.333 -6.16699 -67 -18.5s-35.334 -26.166 -50.001 -41.499v1z" />
    <glyph glyph-name="six" unicode="6" horiz-adv-x="500" 
d="M469 694l-16.0029 -58.998l-8 -1c-9.33301 4.66699 -19 8.83398 -29 12.501s-20.667 5.5 -32 5.5c-39.333 0 -73.5 -11.667 -102.5 -35s-53.167 -52.333 -72.5 -87c-8 -13.333 -15.167 -27.333 -21.5 -42s-12.166 -29.334 -17.499 -44.001c-8 -22.667 -15 -45 -21 -67
s-11 -42.333 -15 -61l2 -1c20.667 26 45.5 49.333 74.5 70s61.833 31 98.5 31c47.333 0 82.333 -14.167 105 -42.5s34 -64.833 34 -109.5c0 -24.667 -2.83301 -48.5 -8.5 -71.5s-14.5 -45.833 -26.5 -68.5c-16 -30 -40.167 -57.833 -72.5 -83.5
s-66.166 -41.834 -101.499 -48.501c-6 -0.666992 -11.667 -1.33398 -17 -2.00098s-10.666 -1 -15.999 -1c-58.667 0 -99.167 21 -121.5 63s-34.166 88 -35.499 138v5v4c0 66.667 11.667 132 35 196s56 121.333 98 172c33.333 40 68.333 71.833 105 95.5s81 35.5 133 35.5
c8.66699 0 17.167 -0.333008 25.5 -1s16.166 -2 23.499 -4v1zM263.997 362.002c-40 -0.666992 -70.8311 -15.8311 -92.498 -45.498s-35.834 -62.167 -42.501 -97.5c-1.33301 -8.66699 -2.33301 -17 -3 -25s-1 -16 -1 -24c0 -34.667 9 -66 27 -94s45.333 -42 82 -42
c38.667 0 68.5 14.667 89.5 44s35.167 61.333 42.5 96c2 10.667 3.5 21.167 4.5 31.5s1.5 20.166 1.5 29.499c0 35.333 -8.33301 65.166 -25 89.499s-44.334 36.5 -83.001 36.5v1z" />
    <glyph glyph-name="seven" unicode="7" horiz-adv-x="500" 
d="M154 164l278.003 449h-242l-37.5 -2l-36.5 -2c-4 -0.666992 -8.16699 -1.16699 -12.5 -1.5s-8.5 -0.5 -12.5 -0.5l-6 5l16 80l22.5 -2c7.66699 -0.666992 15.167 -1 22.5 -1c3.33301 -0.666992 6.83301 -1 10.5 -1s7.5 -0.333008 11.5 -1
c11.333 -0.666992 22.5 -1.16699 33.5 -1.5s22.167 -0.5 33.5 -0.5l160 1c9.33301 -0.666992 18.333 -1 27 -1s17.667 0.333008 27 1c8.66699 0 17.5 0.166992 26.5 0.5s17.833 0.5 26.5 0.5v-34l-126 -203l-24 -40.5l-25 -41.5l-48.5 -88.5l-47.5 -91.5l-48 -98.5
l-43 -92.5c-2 0 -4.16699 0.166992 -6.5 0.5s-4.5 0.5 -6.5 0.5c-4 0.666992 -8.16699 1.16699 -12.5 1.5s-8.83301 0.5 -13.5 0.5c-4 -0 -8.33301 -0.166992 -13 -0.5s-9.33398 -0.833008 -14.001 -1.5c-2.66699 0 -5.33398 -0.166992 -8.00098 -0.5
s-5.33398 -0.5 -8.00098 -0.5l-5 8l51.5 79.5l49.5 78.5v1z" />
    <glyph glyph-name="eight" unicode="8" horiz-adv-x="500" 
d="M333 699c38 -0.666992 70.168 -11.001 96.501 -31.001s39.5 -50.667 39.5 -92c0 -48.667 -15.167 -87.667 -45.5 -117s-63.833 -56 -100.5 -80l-1.5 -1.5c-0.333008 -0.333008 -0.833008 -0.5 -1.5 -0.5c3.33301 -2 6.66602 -3.83301 9.99902 -5.5
s6.66602 -3.5 9.99902 -5.5c28.667 -16.667 51 -35 67 -55s24 -49 24 -87c0 -61.333 -24.667 -115.833 -74 -163.5s-104.666 -71.5 -165.999 -71.5c-44 0 -80.833 11.833 -110.5 35.5s-44.5 58.834 -44.5 105.501c0 51.333 18 95.333 54 132s75.667 65 119 85l4 2l4 2
c-26.667 14 -50 32.5 -70 55.5s-30 50.833 -30 83.5c0 46.667 19 90 57 130s80 64.667 126 74c5.33301 1.33301 10.833 2.33301 16.5 3s11.167 1 16.5 1v1zM273.001 320.999l-28.999 17.002c-36.667 -17.333 -67.834 -43 -93.501 -77s-38.5 -70 -38.5 -108
c0 -38.667 9 -68.834 27 -90.501s46.333 -32.5 85 -32.5s69 14.5 91 43.5s35 60.833 39 95.5c0 4 0.166992 7.83301 0.5 11.5s0.5 7.16699 0.5 10.5c0 30 -4.66699 53.167 -14 69.5s-24 31.166 -44 44.499c-3.33301 2.66699 -7 5.16699 -11 7.5l-13 7.5v1zM257.002 413.001
l34 -19.0029c2 0 3.83301 0.666992 5.5 2s3.16699 2.33301 4.5 3c25.333 16 48.333 37.833 69 65.5s31 56.834 31 87.501c0 31.333 -8.33301 56.5 -25 75.5s-40.667 28.5 -72 28.5c-38.667 0 -68.167 -14.167 -88.5 -42.5s-30.5 -60.166 -30.5 -95.499
c0 -24.667 7 -45.167 21 -61.5s31 -31.166 51 -44.499v1z" />
    <glyph glyph-name="nine" unicode="9" horiz-adv-x="500" 
d="M32 111l21.0049 7.99902c11.333 -24.667 26.333 -44.667 45 -60s41.667 -23 69 -23c37.333 0 68.666 12.167 93.999 36.5s46.333 53.833 63 88.5c5.33301 11.333 10.333 23 15 35s8.66699 24 12 36c8 25.333 14.667 50 20 74l14 64l-2 3
c-18.667 -25.333 -41.334 -48 -68.001 -68s-57 -30 -91 -30c-50.667 0 -88.834 15.667 -114.501 47s-38.5 71.666 -38.5 120.999v1.5v1.5c0.666992 62.667 24.334 120.334 71.001 173.001s103 79 169 79c60.667 0 102 -21.667 124 -65s33 -91 33 -143v-1.5v-1.5v-13.5v-13.5
c-2.66699 -61.333 -12.834 -121.5 -30.501 -180.5s-45.167 -113.167 -82.5 -162.5c-26 -34.667 -57.667 -64.667 -95 -90s-76 -38 -116 -38c-3.33301 0 -6.5 0.166992 -9.5 0.5s-6.16699 0.5 -9.5 0.5c-10.667 1.33301 -21.5 3.33301 -32.5 6s-20.833 6.33398 -29.5 11.001
c-0.666992 2 -1.33398 4.16699 -2.00098 6.5s-1.33398 4.83301 -2.00098 7.5c-1.33301 6.66699 -3 13.5 -5 20.5l-6 21.5c-2 8 -4.33301 16 -7 24s-5.66699 15.667 -9 23v1zM282.005 653.999c-38.667 -0.666992 -68.666 -15.667 -89.999 -45s-35 -61.333 -41 -96
c-1.33301 -7.33301 -2.33301 -14.666 -3 -21.999s-1 -14.333 -1 -21c0 -38.667 8.5 -71.834 25.5 -99.501s46.833 -41.5 89.5 -41.5c36 0 66.667 16.667 92 50s38 76 38 128v8v7c-2.66699 32.667 -12.334 62.667 -29.001 90s-43.667 41 -81 41v1z" />
    <glyph glyph-name="colon" unicode=":" 
d="M104 112c13.333 -0.666992 24.166 -5.66797 32.499 -15.001s12.5 -20.666 12.5 -33.999c0 -2.66699 -0.166992 -5.16699 -0.5 -7.5s-0.833008 -4.83301 -1.5 -7.5c-2.66699 -13.333 -9 -25.5 -19 -36.5s-23 -16.5 -39 -16.5c-12 0 -22.5 3.5 -31.5 10.5
s-13.5 19.167 -13.5 36.5v4v4c2 15.333 8.33301 29.333 19 42s24.334 19 41.001 19v1zM162 457.999c13.333 -0.666992 24.166 -5.66797 32.499 -15.001s12.5 -20.666 12.5 -33.999c0 -2.66699 -0.166992 -5.16699 -0.5 -7.5s-0.833008 -4.83301 -1.5 -7.5
c-2.66699 -13.333 -9 -25.666 -19 -36.999s-23 -17 -39 -17c-12 0 -22.5 3.66699 -31.5 11s-13.5 19.666 -13.5 36.999v4v4c2 15.333 8.33301 29.333 19 42s24.334 19 41.001 19v1z" />
    <glyph glyph-name="semicolon" unicode=";" 
d="M78 59l8.00098 32.001l91 29l9 -13c-18.667 -44 -41.334 -85.833 -68.001 -125.5s-55 -77.834 -85 -114.501l-35 -13l-7 10c23.333 28 41.5 58.667 54.5 92s23.833 67.333 32.5 102v1zM174.001 456.001c13.333 -0.666992 24.166 -5.66797 32.499 -15.001
s12.5 -20.666 12.5 -33.999c0 -2.66699 -0.166992 -5.16699 -0.5 -7.5s-0.833008 -4.83301 -1.5 -7.5c-2.66699 -13.333 -9 -25.666 -19 -36.999s-23 -17 -39 -17c-12 0 -22.5 3.66699 -31.5 11s-13.5 19.666 -13.5 36.999v4v4c2 15.333 8.33301 29.333 19 42
s24.334 19 41.001 19v1z" />
    <glyph glyph-name="less" unicode="&#x3c;" horiz-adv-x="606" 
d="M554 54v-60l-501 234v54l501 234v-60l-432 -203l432 -199v0z" />
    <glyph glyph-name="equal" unicode="=" horiz-adv-x="606" 
d="M555 182v-56h-504v56h504v0zM555 378v-56h-504v56h504v0z" />
    <glyph glyph-name="greater" unicode="&#x3e;" horiz-adv-x="606" 
d="M53 -6v60l432 199l-432 203v60l501 -234v-54l-501 -234v0z" />
    <glyph glyph-name="question" unicode="?" horiz-adv-x="500" 
d="M174 109c13.333 -0.666992 24.166 -5.66797 32.499 -15.001s12.5 -20.666 12.5 -33.999c0 -2.66699 -0.166992 -5.16699 -0.5 -7.5s-0.833008 -4.83301 -1.5 -7.5c-2.66699 -13.333 -9 -25.5 -19 -36.5s-23 -16.5 -39 -16.5c-12 0 -22.5 3.5 -31.5 10.5
s-13.5 19.167 -13.5 36.5v4v4c2 15.333 8.33301 29.333 19 42s24.334 19 41.001 19v1zM137 564.999l-21.9941 5.99805c1.33301 4 2.83301 8 4.5 12s3.5 8 5.5 12c0.666992 2 1.5 4 2.5 6s1.83301 4 2.5 6l25 62c17.333 10.667 35.166 19.334 53.499 26.001
s37.833 10 58.5 10c42 0 79.167 -10.833 111.5 -32.5s48.5 -55.5 48.5 -101.5c0 -30.667 -7 -57.5 -21 -80.5s-31.667 -44.5 -53 -64.5l-104 -99c-2.66699 -3.33301 -5.33398 -6.16602 -8.00098 -8.49902s-5.33398 -5.16602 -8.00098 -8.49902
c-8.66699 -8 -16.5 -17.333 -23.5 -28s-10.5 -21.667 -10.5 -33c0 -9.33301 2.5 -18.166 7.5 -26.499s11.5 -16.5 19.5 -24.5l-25 -5c-12 6.66699 -21.333 15.5 -28 26.5s-10 22.833 -10 35.5c0 21.333 5.66699 41.333 17 60s24 35.667 38 51l70 80
c1.33301 0.666992 2.66602 1.66699 3.99902 3s2.33301 3 3 5c12.667 14.667 24.167 31.167 34.5 49.5s15.5 37.166 15.5 56.499c0 25.333 -9.16699 46 -27.5 62s-39.5 24 -63.5 24c-20.667 0 -36.834 -2.16699 -48.501 -6.5s-22.5 -12.5 -32.5 -24.5
c-2.66699 -2.66699 -5.33398 -5.83398 -8.00098 -9.50098l-8 -11.5l-20 -29v0z" />
    <glyph glyph-name="at" unicode="@" horiz-adv-x="747" 
d="M666 176l46.998 -0.00195312c-29.333 -59.333 -72.833 -106.5 -130.5 -141.5s-119.167 -52.5 -184.5 -52.5c-100.667 0 -187.667 32.833 -261 98.5s-110 150.834 -110 255.501c0 102.667 34.5 189.834 103.5 261.501s155.833 107.5 260.5 107.5
c82.667 0 157.834 -26.333 225.501 -79s101.5 -122.667 101.5 -210c0 -36.667 -5.83301 -71.834 -17.5 -105.501s-30.167 -63.834 -55.5 -90.501l-8 -8l-8 -8c-12.667 -10.667 -27 -21.167 -43 -31.5s-32.333 -18.833 -49 -25.5c-8 -3.33301 -16.167 -5.83301 -24.5 -7.5
s-16.5 -2.5 -24.5 -2.5c-24.667 0 -43 9 -55 27s-18.333 37.667 -19 59l-2 1l-8 -11.5l-8 -10.5c-14 -17.333 -28.833 -31.5 -44.5 -42.5s-35.167 -16.5 -58.5 -16.5c-40.667 0 -73 15 -97 45s-36 64 -36 102c0 27.333 5.33301 53.833 16 79.5s25 48.834 43 69.501
c17.333 20 38.5 37.333 63.5 52s50.833 23 77.5 25c2.66699 0.666992 5.16699 1 7.5 1h6.5c26 0 46.167 -7.5 60.5 -22.5s23.5 -34.5 27.5 -58.5l2 1l19 72h75l-77 -282l-1.5 -6c-0.333008 -1.33301 -0.5 -2.66602 -0.5 -3.99902
c-0.666992 -2.66699 -1.16699 -5.33398 -1.5 -8.00098s-0.5 -5.66699 -0.5 -9c0 -10 3 -18.5 9 -25.5s14 -10.5 24 -10.5c7.33301 0 18.333 3.66699 33 11s30.334 18.666 47.001 33.999c21.333 20 41.166 47.167 59.499 81.5s27.5 75.833 27.5 124.5
c0 68.667 -27 125.334 -81 170.001s-113 69.334 -177 74.001c-4 0.666992 -7.83301 1 -11.5 1h-10.5c-91.333 0 -168.333 -29.5 -231 -88.5s-94 -135.167 -94 -228.5c0 -94.667 32.167 -171.167 96.5 -229.5s142.5 -87.5 234.5 -87.5c54.667 0 104.834 13.5 150.501 40.5
s83.167 63.167 112.5 108.5v1zM303.998 167.998c29.333 -0.666992 54.3359 13.668 75.0029 43.001s36.667 61.333 48 96c6 20.667 10.667 40.5 14 59.5s5 35.167 5 48.5c0 3.33301 -0.166992 6.66602 -0.5 9.99902s-0.833008 6.66602 -1.5 9.99902
c-2.66699 14 -8.33398 27.167 -17.001 39.5s-21.334 18.5 -38.001 18.5c-30.667 0 -57.5 -14 -80.5 -42s-40.833 -59 -53.5 -93c-6 -16.667 -10.667 -33.167 -14 -49.5s-5 -30.833 -5 -43.5v-7.5c0 -2.33301 0.333008 -4.5 1 -6.5
c1.33301 -21.333 7.16602 -40.666 17.499 -57.999s26.833 -26 49.5 -26v1z" />
    <glyph glyph-name="A" unicode="A" horiz-adv-x="722" 
d="M462 705l45.998 -0.00488281l87 -625c0 -1.33301 0.166992 -2.66602 0.5 -3.99902s0.5 -2.33301 0.5 -3c1.33301 -6 2.83301 -11.833 4.5 -17.5s3.5 -10.5 5.5 -14.5c2 -3.33301 7 -6.16602 15 -8.49902s18 -4.16602 30 -5.49902l26 -2v-28
c-6.66699 0 -13.5 0.166992 -20.5 0.5s-13.833 0.5 -20.5 0.5c-3.33301 0 -6.66602 0.166992 -9.99902 0.5s-6.66602 0.5 -9.99902 0.5c-10 0 -20.167 0.166992 -30.5 0.5s-20.5 0.5 -30.5 0.5c-13.333 0 -26.833 -0.166992 -40.5 -0.5s-27.167 -0.833008 -40.5 -1.5
c-6.66699 0 -13.5 -0.166992 -20.5 -0.5s-13.833 -0.5 -20.5 -0.5v28l44 3c14.667 0.666992 25.5 3.33398 32.5 8.00098s10.5 10.667 10.5 18c0 2 -0.166992 4.16699 -0.5 6.5s-0.5 4.83301 -0.5 7.5c0 1.33301 -0.166992 2.5 -0.5 3.5s-0.5 2.16699 -0.5 3.5
c-0.666992 2 -1.16699 4.16699 -1.5 6.5s-0.5 4.5 -0.5 6.5l-25 189h-246l-102 -175l-19 -35c-4.66699 -8.66699 -7 -15.667 -7 -21c0 -4.66699 3 -8.66699 9 -12s12.333 -5.66602 19 -6.99902h1.5h1.5l52 -2v-28c-6 0 -12 0.166992 -18 0.5s-12 0.5 -18 0.5
c-12 0.666992 -24 1.16699 -36 1.5s-24 0.5 -36 0.5s-24.167 -0.166992 -36.5 -0.5s-24.5 -0.833008 -36.5 -1.5c-6.66699 0 -13 -0.166992 -19 -0.5s-12 -0.5 -18 -0.5l-1 30l20 5c10 2 21.667 7 35 15s31 29.333 53 64l373 594v0zM446.998 597.995l-177 -285h216l-37 285
h-2v0z" />
    <glyph glyph-name="B" unicode="B" horiz-adv-x="611" 
d="M97 664l3 27.999c8.66699 -0.666992 17.167 -1.16699 25.5 -1.5s16.5 -0.5 24.5 -0.5c8.66699 -0.666992 17.167 -1 25.5 -1h24.5c8.66699 -0.666992 17.167 -1 25.5 -1h24.5h25c8 0 16.333 0.333008 25 1h24.5c8.33301 0 16.833 0.333008 25.5 1
c8 0 16.167 0.166992 24.5 0.5s16.833 0.5 25.5 0.5c8 0 16.333 -0.333008 25 -1s17.334 -1.66699 26.001 -3c26.667 -6 51.334 -18.5 74.001 -37.5s34 -49.5 34 -91.5c0 -44 -16 -82 -48 -114s-67.333 -55.667 -106 -71l-12 -4l-12 -4v-1c44 -5.33301 82 -16.833 114 -34.5
s48 -52.5 48 -104.5c0 -57.333 -21.667 -106 -65 -146s-91 -66.333 -143 -79c-3.33301 0 -6.5 -0.333008 -9.5 -1s-6.16699 -1.33398 -9.5 -2.00098c-6 -1.33301 -12.167 -2.16602 -18.5 -2.49902s-12.833 -0.5 -19.5 -0.5c-7.33301 0 -14.833 0.166992 -22.5 0.5
s-15.167 0.833008 -22.5 1.5c-4 0 -7.83301 0.166992 -11.5 0.5s-7.16699 0.5 -10.5 0.5c-5.33301 0 -10.5 0.166992 -15.5 0.5s-10.167 0.5 -15.5 0.5c-2.66699 0 -5.33398 0.166992 -8.00098 0.5s-5.33398 0.5 -8.00098 0.5c-8 0 -15.833 0.166992 -23.5 0.5
s-15.5 0.5 -23.5 0.5h-6h-6c-8 0 -15.833 -0.166992 -23.5 -0.5s-15.5 -0.833008 -23.5 -1.5c-4.66699 0 -9.66699 -0.166992 -15 -0.5s-11 -0.5 -17 -0.5l5 26c1.33301 -0.666992 2.5 -0.833984 3.5 -0.500977s1.83301 0.5 2.5 0.5h0.5h0.5
c12 2.66699 23 5.83398 33 9.50098s16 10.834 18 21.501l87 505c3.33301 18.667 5.5 33.667 6.5 45l2.5 28v1.5v1.5c0 8 -2.66699 14.167 -8 18.5s-14.333 6.83301 -27 7.5l-53 3v0zM217 339.999l-50.998 -299c4 -0.666992 8 -1.16699 12 -1.5s8 -0.833008 12 -1.5
c13.333 -0.666992 26.166 -1.5 38.499 -2.5s24.833 -1.83301 37.5 -2.5h6.5h6.5c55.333 0 98.5 17.167 129.5 51.5s46.5 75.833 46.5 124.5c0 51.333 -14.833 85.833 -44.5 103.5s-65.834 26.5 -108.501 26.5l-85 1v0zM272.002 649.999l-49.002 -274h52
c52 -0.666992 98 11.833 138 37.5s60 69.5 60 131.5c0 41.333 -11.5 70 -34.5 86s-52.5 23.667 -88.5 23h-7.5h-7.5c-4.66699 0 -9.66699 -0.333008 -15 -1s-10.666 -1 -15.999 -1l-16 -2c-5.33301 -0.666992 -10.666 -1 -15.999 -1v1z" />
    <glyph glyph-name="C" unicode="C" horiz-adv-x="667" 
d="M597 519l-0.00195312 84c-22 14.667 -45.833 25.834 -71.5 33.501s-51.834 12.5 -78.501 14.5c-5.33301 0 -11 0.166992 -17 0.5s-11.667 0.5 -17 0.5c-98.667 0 -170 -35.667 -214 -107s-66 -152.333 -66 -243c0 -77.333 19.333 -141.333 58 -192
s99.334 -76 182.001 -76c29.333 0 55.833 2.66699 79.5 8s46.834 13.333 69.501 24c12.667 5.33301 25.334 11.666 38.001 18.999l40 24l10 -6l-10 -36c-38.667 -29.333 -79.334 -50.833 -122.001 -64.5s-87.667 -20.5 -135 -20.5c-95.333 0 -168.833 25.833 -220.5 77.5
s-77.5 125.167 -77.5 220.5c0 25.333 1.83301 52.5 5.5 81.5s11.167 58.5 22.5 88.5c12.667 32 30.667 63.667 54 95s55 60.666 95 87.999l6 4c2 1.33301 4.33301 2.66602 7 3.99902c42.667 27.333 84 44.833 124 52.5s72 11.5 96 11.5c34 0 67.5 -3.66699 100.5 -11
s64.833 -17.333 95.5 -30c-7.33301 -23.333 -13.166 -47.166 -17.499 -71.499s-7.5 -49.166 -9.5 -74.499l-27 1v0z" />
    <glyph glyph-name="D" unicode="D" horiz-adv-x="778" 
d="M86 55l86.9971 504.001c3.33301 18.667 5.5 33.667 6.5 45l2.5 28v1.5v1.5c0 8 -2.66699 14.167 -8 18.5s-14.333 6.83301 -27 7.5l-53 3l3 28c6.66699 -0.666992 13.334 -1.16699 20.001 -1.5s13.667 -0.5 21 -0.5c6.66699 -0.666992 13.334 -1 20.001 -1h21
c6.66699 -0.666992 13.5 -1 20.5 -1h20.5c22.667 0 45.334 0.166992 68.001 0.5s45.334 0.833008 68.001 1.5c11.333 0 22.666 0.166992 33.999 0.5s22.666 0.5 33.999 0.5c95.333 1.33301 172 -16.334 230 -53.001s87 -107 87 -211c0 -79.333 -20.333 -152 -61 -218
s-94.667 -119.333 -162 -160c-12.667 -7.33301 -24.667 -13.833 -36 -19.5s-23 -10.5 -35 -14.5c-21.333 -7.33301 -43.166 -12.166 -65.499 -14.499s-47.166 -3.5 -74.499 -3.5c-10 0 -20.167 0.166992 -30.5 0.5s-20.833 0.5 -31.5 0.5
c-20.667 0.666992 -41.334 1.16699 -62.001 1.5s-41.334 0.5 -62.001 0.5c-10 0 -20.333 -0.166992 -31 -0.5s-21 -0.833008 -31 -1.5c-5.33301 0 -10.5 -0.166992 -15.5 -0.5s-10.167 -0.5 -15.5 -0.5l5 26c0.666992 -0.666992 1.5 -0.833984 2.5 -0.500977
s2.16699 0.5 3.5 0.5c1.33301 0.666992 2.83301 1.16699 4.5 1.5s3.16699 0.5 4.5 0.5c8.66699 2 16.834 5 24.501 9s12.167 10.667 13.5 20v1zM267.997 650.001l-95.999 -557.001c-0.666992 -3.33301 -1.16699 -6.66602 -1.5 -9.99902s-0.833008 -6.33301 -1.5 -9
c0 -3.33301 -0.166992 -6.5 -0.5 -9.5s-0.5 -6.16699 -0.5 -9.5c28.667 -4.66699 56.667 -8.33398 84 -11.001s54.333 -4 81 -4c106.667 0 186 38.5 238 115.5s78 164.167 78 261.5c0 88.667 -23.667 150.334 -71 185.001s-113.333 52 -198 52
c-10.667 0 -21.334 -0.333008 -32.001 -1l-32 -2c-8 0 -16 -0.333008 -24 -1s-16 -1 -24 -1v1z" />
    <glyph glyph-name="E" unicode="E" horiz-adv-x="611" 
d="M221 334l-43.0039 -253c-0.666992 -6.66699 -1.16699 -13 -1.5 -19s-0.5 -11.667 -0.5 -17l48.5 -4c15.667 -1.33301 31.5 -2 47.5 -2c4.66699 -0.666992 9.66699 -1 15 -1h16c22.667 0 45 0.5 67 1.5s44 2.5 66 4.5c18.667 1.33301 31.667 5.5 39 12.5
s13.666 19.167 18.999 36.5c0.666992 1.33301 1.16699 2.5 1.5 3.5s0.5 2.16699 0.5 3.5l16 61h27c-0.666992 -5.33301 -1.5 -10.5 -2.5 -15.5s-2.16699 -9.83301 -3.5 -14.5c0 -2.66699 -0.166992 -5.16699 -0.5 -7.5s-0.833008 -4.5 -1.5 -6.5l-7.5 -45
c-2.33301 -14.667 -4.16602 -27 -5.49902 -37c-0.666992 -4.66699 -1.16699 -10.167 -1.5 -16.5s-1.16602 -12.5 -2.49902 -18.5c-5.33301 -0 -10.833 -0.166992 -16.5 -0.5s-11.5 -0.5 -17.5 -0.5h-1.5h-1.5c-11.333 -0.666992 -22.333 -1.16699 -33 -1.5
s-20.667 -0.5 -30 -0.5c-20 0 -40.167 0.166992 -60.5 0.5s-40.5 0.5 -60.5 0.5c-20 0.666992 -40.167 1.16699 -60.5 1.5s-40.5 0.5 -60.5 0.5s-37.833 -0.166992 -53.5 -0.5s-30.834 -0.833008 -45.501 -1.5h-4h-5c-5.33301 0 -10.833 -0.166992 -16.5 -0.5
s-11.5 -0.5 -17.5 -0.5l5 26c1.33301 -0.666992 2.5 -0.833984 3.5 -0.500977s1.83301 0.5 2.5 0.5h0.5h0.5c12.667 2.66699 24.167 5.83398 34.5 9.50098s16.5 10.834 18.5 21.501l87 505c3.33301 18.667 5.5 33.667 6.5 45l2.5 28v1.5v1.5c0 8 -2.66699 14.167 -8 18.5
s-14.333 6.83301 -27 7.5l-54 3l3 28c6 -0.666992 11.833 -1.16699 17.5 -1.5s11.5 -0.5 17.5 -0.5h5.5h5.5c15.333 -0.666992 31.166 -1.16699 47.499 -1.5s33.5 -0.5 51.5 -0.5c32 0 61.833 0.166992 89.5 0.5s54.5 0.833008 80.5 1.5c13.333 0 26.333 0.166992 39 0.5
s25.334 0.5 38.001 0.5h4.5h5.5c11.333 0 22.5 -0.333008 33.5 -1s20.833 -1.33398 29.5 -2.00098c-6 -21.333 -10.667 -45.166 -14 -71.499s-5.66602 -53.166 -6.99902 -80.499l-24 1l-8 89c-0.666992 7.33301 -9 12.666 -25 15.999s-33.333 5.33301 -52 6
c-9.33301 0.666992 -18.166 1 -26.499 1h-23.5h-10.5h-11.5c-6.66699 -0.666992 -13.667 -1.16699 -21 -1.5s-14.666 -0.5 -21.999 -0.5c-7.33301 -0.666992 -14.666 -1.16699 -21.999 -1.5s-15 -0.5 -23 -0.5c-2.66699 -4.66699 -4.5 -9.83398 -5.5 -15.501
s-2.16699 -11.167 -3.5 -16.5l-42 -237h37c37.333 -0.666992 74.333 -0.5 111 0.5s72.667 2.5 108 4.5l4 -6l-19 -45l-66 2c-22 0.666992 -44 1 -66 1l-117 1v0z" />
    <glyph glyph-name="F" unicode="F" horiz-adv-x="556" 
d="M260 614l-46.0039 -270.999h37c37.333 -0.666992 74.333 -0.5 111 0.5s72.667 2.5 108 4.5l4 -6l-19 -45l-66 2c-22 0.666992 -44 1 -66 1l-117 1l-34 -208c-0.666992 -6 -1.5 -12 -2.5 -18s-1.5 -12.333 -1.5 -19c0 -8 2.16699 -14.667 6.5 -20
s14.166 -8.33301 29.499 -9l64 -2l-3 -28c-8 0 -16 0.166992 -24 0.5s-16 0.5 -24 0.5c-15.333 0.666992 -30.5 1.16699 -45.5 1.5s-29.833 0.5 -44.5 0.5s-29.334 -0.166992 -44.001 -0.5s-29 -0.833008 -43 -1.5c-7.33301 0 -14.166 -0.166992 -20.499 -0.5
s-12.833 -0.5 -19.5 -0.5l4 28l36 3c9.33301 0 16.5 0.666992 21.5 2s8.83301 3.33301 11.5 6c1.33301 1.33301 2.5 2.66602 3.5 3.99902s2.16699 3.33301 3.5 6c2.66699 6 5.33398 14.833 8.00098 26.5s6 28.834 10 51.501l75 435c3.33301 18.667 5.5 33.667 6.5 45l2.5 28
v1.5v1.5c0 8 -2.66699 14.167 -8 18.5s-14.333 6.83301 -27 7.5l-56 3l3 28c8 -0.666992 15.833 -1.16699 23.5 -1.5s15.167 -0.5 22.5 -0.5c14.667 -0.666992 29.334 -1.16699 44.001 -1.5s29 -0.5 43 -0.5c32 0 61.833 0.166992 89.5 0.5s54.5 0.833008 80.5 1.5
c13.333 0 26.333 0.166992 39 0.5s25.334 0.5 38.001 0.5h5.5h5.5c11.333 0 22.5 -0.333008 33.5 -1s20.833 -1.33398 29.5 -2.00098c-6 -21.333 -10.667 -45.166 -14 -71.499s-5.66602 -53.166 -6.99902 -80.499l-24 1l-8 89c-0.666992 7.33301 -9 12.666 -25 15.999
s-33.333 5.33301 -52 6c-9.33301 0.666992 -18.166 1 -26.499 1h-23.5c-14.667 0 -30 -0.333008 -46 -1s-33.667 -1.66699 -53 -3c-2.66699 -4.66699 -4.5 -9.83398 -5.5 -15.501s-2.16699 -11.167 -3.5 -16.5v1z" />
    <glyph glyph-name="G" unicode="G" horiz-adv-x="722" 
d="M528 60l18 93c2 9.33301 3.66699 19 5 29s2 20.333 2 31c0 5.33301 -1.16699 10.166 -3.5 14.499s-5.83301 6.83301 -10.5 7.5c-8 2 -17.833 3.66699 -29.5 5s-25.167 2.33301 -40.5 3l-34 3l5 28c22.667 -2.66699 44.667 -4.33398 66 -5.00098s42.333 -1 63 -1h31.5
c10.333 0 20.833 0.333008 31.5 1l30.5 2l31.5 2l-2 -27l-32 -6c-6.66699 -2 -12.5 -5 -17.5 -9s-8.16699 -8.33301 -9.5 -13l-23 -134c-0.666992 -2.66699 -1 -5 -1 -7v-6c0 -2 0.166992 -4.16699 0.5 -6.5s0.5 -4.83301 0.5 -7.5c0 -0.666992 0.166992 -1.5 0.5 -2.5
s0.5 -1.83301 0.5 -2.5c0 -1.33301 0.166992 -2.83301 0.5 -4.5s0.5 -3.16699 0.5 -4.5l-4 -6c-4.66699 -1.33301 -9.83398 -2.66602 -15.501 -3.99902s-11.5 -3 -17.5 -5c-2.66699 -0.666992 -5 -1.33398 -7 -2.00098s-4.33301 -1.33398 -7 -2.00098
c-1.33301 -0.666992 -2.83301 -1.16699 -4.5 -1.5s-3.16699 -0.833008 -4.5 -1.5c-6.66699 -2 -13.5 -4.33301 -20.5 -7s-14.833 -5 -23.5 -7c-20 -6 -42.5 -11.667 -67.5 -17s-51.833 -8 -80.5 -8c-96 0 -171.667 23.833 -227 71.5s-83 120.834 -83 219.501
c0 72 14.5 138.5 43.5 199.5s74.167 113.833 135.5 158.5c43.333 31.333 84.833 51.5 124.5 60.5s78.167 13.5 115.5 13.5c36 0 71.167 -3.66699 105.5 -11s67.833 -17.333 100.5 -30c-7.33301 -23.333 -13.166 -47.166 -17.499 -71.499s-7.5 -49.166 -9.5 -74.499l-27 1v84
c-26.667 18.667 -56.5 31.5 -89.5 38.5s-68.833 10.5 -107.5 10.5c-88 0 -157.667 -32.833 -209 -98.5s-77 -154.167 -77 -265.5c0 -82 21 -146.167 63 -192.5s105 -69.5 189 -69.5c6 0 12 0.166992 18 0.5s12 0.833008 18 1.5c17.333 2 34.833 5.5 52.5 10.5
s34.167 11.833 49.5 20.5v1z" />
    <glyph glyph-name="H" unicode="H" horiz-adv-x="778" 
d="M221 385h369.991l30 174c3.33301 18.667 5.5 33.667 6.5 45l2.5 28v1.5v1.5c0 8 -2.66699 14.167 -8 18.5s-14.333 6.83301 -27 7.5l-48 3l3 28c9.33301 -0.666992 18.333 -1.16699 27 -1.5s17 -0.5 25 -0.5c16 -0.666992 31.167 -1.16699 45.5 -1.5s28.5 -0.5 42.5 -0.5
s27.667 0.166992 41 0.5s26 0.833008 38 1.5c6 0 11.5 0.166992 16.5 0.5s9.83301 0.5 14.5 0.5l-3 -27l-36 -3c-18.667 -2 -31 -5.83301 -37 -11.5s-10.667 -18.167 -14 -37.5l-92 -519c-0.666992 -6 -1.5 -12 -2.5 -18s-1.5 -12.333 -1.5 -19
c0 -8 2.16699 -14.5 6.5 -19.5s14.166 -8.16699 29.499 -9.5l58 -2l-3 -28c-7.33301 0 -14.666 0.166992 -21.999 0.5s-14.666 0.5 -21.999 0.5c-7.33301 0.666992 -14.666 1 -21.999 1h-22c-7.33301 0.666992 -14.666 1 -21.999 1h-22h-7.5h-7.5
c-12.667 -0 -25.167 -0.166992 -37.5 -0.5s-25.166 -0.833008 -38.499 -1.5c-8 0 -16.167 -0.166992 -24.5 -0.5s-16.833 -0.5 -25.5 -0.5l4 28l50 3c9.33301 0 16.5 0.666992 21.5 2s8.83301 3.33301 11.5 6c1.33301 1.33301 2.5 2.83301 3.5 4.5
s2.16699 3.83398 3.5 6.50098c2 5.33301 4.5 14 7.5 26s6.5 29 10.5 51l40 216c-10 -0.666992 -20.167 -0.833984 -30.5 -0.500977s-20.5 0.5 -30.5 0.5c-5.33301 0 -10.5 0.166992 -15.5 0.5s-10.167 0.5 -15.5 0.5c-15.333 0 -30.666 0.166992 -45.999 0.5
s-30.666 0.5 -45.999 0.5s-30.666 -0.166992 -45.999 -0.5s-30.666 -0.5 -45.999 -0.5c-5.33301 0 -10.5 -0.166992 -15.5 -0.5s-10.167 -0.5 -15.5 -0.5c-10 0 -20.167 -0.166992 -30.5 -0.5s-20.5 -0.5 -30.5 -0.5l-42 -246c-0.666992 -6 -1.5 -12 -2.5 -18
s-1.5 -12.333 -1.5 -19c0 -8 2.16699 -14.5 6.5 -19.5s14.166 -8.16699 29.499 -9.5l49 -2l-3 -28c-5.33301 0 -11.166 0.166992 -17.499 0.5s-12.833 0.5 -19.5 0.5c-12 0.666992 -24.333 1.16699 -37 1.5s-25.334 0.5 -38.001 0.5h-5.5h-5.5
c-14.667 -0 -29.5 -0.166992 -44.5 -0.5s-29.833 -0.833008 -44.5 -1.5c-7.33301 0 -14.5 -0.166992 -21.5 -0.5s-13.833 -0.5 -20.5 -0.5l3 28l41 3c9.33301 0 16.5 0.666992 21.5 2s8.83301 3.33301 11.5 6c1.33301 1.33301 2.5 2.66602 3.5 3.99902
s2.16699 3.33301 3.5 6c2.66699 6 5.33398 14.833 8.00098 26.5s6 28.834 10 51.501l74 435c3.33301 18.667 5.5 33.667 6.5 45l2.5 28v1.5v1.5c0 8 -2.66699 14.167 -8 18.5s-14.333 6.83301 -27 7.5l-47 3l3 28c9.33301 -0.666992 18.333 -1.16699 27 -1.5
s17.334 -0.5 26.001 -0.5c16 -0.666992 31.167 -1.16699 45.5 -1.5s28.5 -0.5 42.5 -0.5s27.833 0.166992 41.5 0.5s26.5 0.833008 38.5 1.5c6 0 11.833 0.166992 17.5 0.5s11.167 0.5 16.5 0.5l-3 -27l-42 -3c-18.667 -2 -31 -5.83301 -37 -11.5s-10.667 -18.167 -14 -37.5
l-42 -227v0z" />
    <glyph glyph-name="I" unicode="I" horiz-adv-x="333" 
d="M104 125l72.0039 434c3.33301 18.667 5.5 33.667 6.5 45l2.5 28v1.5v1.5c0 8 -2.66699 14.167 -8 18.5s-14.333 6.83301 -27 7.5l-47 3l3 28c9.33301 -0.666992 18.333 -1.16699 27 -1.5s17.334 -0.5 26.001 -0.5c16 -0.666992 31.167 -1.16699 45.5 -1.5
s28.5 -0.5 42.5 -0.5s27.667 0.166992 41 0.5s25.666 0.833008 36.999 1.5c5.33301 0 10.5 0.166992 15.5 0.5s9.5 0.5 13.5 0.5l-3 -27l-35 -3c-18.667 -2 -31 -5.83301 -37 -11.5s-10.667 -18.167 -14 -37.5l-87 -519c-0.666992 -6 -1.5 -12 -2.5 -18
s-1.5 -12.333 -1.5 -19c0 -8 2.16699 -14.5 6.5 -19.5s14.166 -8.16699 29.499 -9.5l52 -2l-3 -28c-6 0 -12.333 0.166992 -19 0.5s-13.334 0.5 -20.001 0.5c-12 0.666992 -24 1.16699 -36 1.5s-24 0.5 -36 0.5h-7.5h-7.5c-14.667 -0 -29.334 -0.166992 -44.001 -0.5
s-29 -0.833008 -43 -1.5c-6.66699 0 -13.334 -0.166992 -20.001 -0.5s-13 -0.5 -19 -0.5l3 28l36 3c9.33301 0 16.5 0.666992 21.5 2s8.83301 3.33301 11.5 6c1.33301 1.33301 2.33301 2.5 3 3.5l3 4.5c2.66699 6 5.5 15 8.5 27s6.5 29.667 10.5 53v1z" />
    <glyph glyph-name="J" unicode="J" horiz-adv-x="333" 
d="M262 613l-85.001 -559.001c-2 -14.667 -4.33301 -28.834 -7 -42.501s-6 -27.5 -10 -41.5c-14 -48.667 -34.667 -90.167 -62 -124.5s-59.333 -51.5 -96 -51.5h-3h-3c-5.33301 0.666992 -10.333 1.83398 -15 3.50098s-8.66699 3.83398 -12 6.50098l-4 26
c5.33301 -2 11 -3.16699 17 -3.5s12.333 -0.5 19 -0.5c17.333 0 33.833 12 49.5 36s27.5 63 35.5 117l87 580c3.33301 18.667 5.5 33.667 6.5 45l2.5 28v1.5v1.5c0 8 -2.66699 14.167 -8 18.5s-14.333 6.83301 -27 7.5l-47 3l3 28
c9.33301 -0.666992 18.333 -1.16699 27 -1.5s17.334 -0.5 26.001 -0.5c16 -0.666992 31.167 -1.16699 45.5 -1.5s28.5 -0.5 42.5 -0.5s27.833 0.166992 41.5 0.5s26.5 0.833008 38.5 1.5c6 0 11.833 0.166992 17.5 0.5s11.167 0.5 16.5 0.5l-3 -27l-42 -3
c-18.667 -2 -31 -5.83301 -37 -11.5s-10.667 -18.167 -14 -37.5v1z" />
    <glyph glyph-name="K" unicode="K" horiz-adv-x="667" 
d="M278 613l-45.0029 -260.002l52 41c18 14.667 36 30.334 54 47.001l21.5 20.5l21.5 21.5l128 131c2 1.33301 4 3 6 5l7 7c0.666992 1.33301 1.66699 2.66602 3 3.99902l4 4c4.66699 5.33301 8.83398 10.5 12.501 15.5s5.5 9.16699 5.5 12.5v30
c3.33301 -0.666992 6.83301 -1.16699 10.5 -1.5s7.5 -0.5 11.5 -0.5c7.33301 -0.666992 14.833 -1.16699 22.5 -1.5s15.167 -0.5 22.5 -0.5c6 0 11.833 0.166992 17.5 0.5s11.167 0.5 16.5 0.5c2 0 3.83301 0.166992 5.5 0.5s3.5 0.5 5.5 0.5c4 0 7.83301 0.166992 11.5 0.5
s7.5 0.5 11.5 0.5v-26h-21c-1.33301 -0.666992 -2.5 -1 -3.5 -1h-3.5c-8 -1.33301 -15.833 -4.16602 -23.5 -8.49902s-14.5 -8.83301 -20.5 -13.5l-1.5 -1.5l-1.5 -1.5l-292 -272l246 -302c2.66699 -4 5.33398 -7.33301 8.00098 -10l8 -8
c7.33301 -7.33301 15 -12.666 23 -15.999s16.333 -5 25 -5l20 1v-30c-4 0 -7.83301 0.166992 -11.5 0.5s-7.5 0.5 -11.5 0.5c-2 0 -3.83301 0.166992 -5.5 0.5s-3.5 0.5 -5.5 0.5c-5.33301 0 -10.833 0.166992 -16.5 0.5s-11.5 0.5 -17.5 0.5
c-7.33301 -0 -15 -0.166992 -23 -0.5s-15.667 -0.833008 -23 -1.5c-4 0 -7.83301 -0.166992 -11.5 -0.5s-7.5 -0.5 -11.5 -0.5c-3.33301 4 -6.5 8.16699 -9.5 12.5s-6.16699 8.5 -9.5 12.5c-0.666992 1.33301 -1.5 2.5 -2.5 3.5s-1.83301 2.16699 -2.5 3.5l-36 49.5
c-12 16.333 -24.667 32.5 -38 48.5l-180 213l-41 -247c-0.666992 -6 -1.5 -12 -2.5 -18s-1.5 -12.333 -1.5 -19c0 -8 2.16699 -14.5 6.5 -19.5s14.166 -8.16699 29.499 -9.5l49 -2l-3 -28c-5.33301 0 -11.166 0.166992 -17.499 0.5s-12.833 0.5 -19.5 0.5
c-12 0.666992 -24.333 1.16699 -37 1.5s-25.334 0.5 -38.001 0.5h-5.5h-5.5c-14.667 -0 -29.5 -0.166992 -44.5 -0.5s-29.833 -0.833008 -44.5 -1.5c-7.33301 0 -14.5 -0.166992 -21.5 -0.5s-14.167 -0.5 -21.5 -0.5l4 28l41 3c9.33301 0 16.5 0.666992 21.5 2
s8.83301 3.33301 11.5 6c1.33301 1.33301 2.5 2.66602 3.5 3.99902s2.16699 3.33301 3.5 6c2.66699 6 5.33398 14.833 8.00098 26.5s6 28.834 10 51.501l73 435c3.33301 18.667 5.5 33.667 6.5 45l2.5 28v1.5v1.5c0 8 -2.66699 14.167 -8 18.5s-14.333 6.83301 -27 7.5
l-47 3l3 28c9.33301 -0.666992 18.333 -1.16699 27 -1.5s17.334 -0.5 26.001 -0.5c16 -0.666992 31.167 -1.16699 45.5 -1.5s28.5 -0.5 42.5 -0.5s27.833 0.166992 41.5 0.5s26.5 0.833008 38.5 1.5c6 0 11.833 0.166992 17.5 0.5s11.167 0.5 16.5 0.5l-3 -27l-42 -3
c-18.667 -2 -31 -5.83301 -37 -11.5s-10.667 -18.167 -14 -37.5v1z" />
    <glyph glyph-name="L" unicode="L" horiz-adv-x="556" 
d="M256 613l-91.999 -532.001c-0.666992 -6.66699 -1.16699 -13 -1.5 -19s-0.5 -11.667 -0.5 -17l48.5 -4c15.667 -1.33301 31.5 -2 47.5 -2c4.66699 -0.666992 9.66699 -1 15 -1h16h32c12 0 24 0.333008 36 1c17.333 0.666992 33.833 1.66699 49.5 3s28.167 3 37.5 5
c4 1.33301 8.66699 5.16602 14 11.499s11 20.833 17 43.5l17 63h31c-1.33301 -6 -2.5 -11.5 -3.5 -16.5s-1.83301 -10.167 -2.5 -15.5l-9 -54c-2.66699 -16.667 -4.33398 -28.667 -5.00098 -36c-0.666992 -5.33301 -1.16699 -10.166 -1.5 -14.499
s-0.833008 -8.83301 -1.5 -13.5v-8v-7c-5.33301 0 -10.833 -0.166992 -16.5 -0.5s-11.5 -0.5 -17.5 -0.5h-1.5h-1.5c-11.333 -0.666992 -22.333 -1.16699 -33 -1.5s-20.667 -0.5 -30 -0.5c-20 0 -40.167 0.166992 -60.5 0.5s-40.5 0.5 -60.5 0.5
c-20 0.666992 -40.167 1.16699 -60.5 1.5s-40.5 0.5 -60.5 0.5s-37.833 -0.166992 -53.5 -0.5s-30.834 -0.833008 -45.501 -1.5h-4h-5c-5.33301 0 -10.833 -0.166992 -16.5 -0.5s-11.5 -0.5 -17.5 -0.5l5 26c1.33301 -0.666992 2.5 -0.833984 3.5 -0.500977
s1.83301 0.5 2.5 0.5h0.5h0.5c12.667 2.66699 24.167 5.83398 34.5 9.50098s16.5 10.834 18.5 21.501l86 505c3.33301 18.667 5.5 33.667 6.5 45l2.5 28v1.5v1.5c0 8 -2.66699 14.167 -8 18.5s-14.333 6.83301 -27 7.5l-47 3l3 28
c9.33301 -0.666992 18.333 -1.16699 27 -1.5s17.334 -0.5 26.001 -0.5c16 -0.666992 31.167 -1.16699 45.5 -1.5s28.5 -0.5 42.5 -0.5s27.833 0.166992 41.5 0.5s26.5 0.833008 38.5 1.5c6 0 11.833 0.166992 17.5 0.5s11.167 0.5 16.5 0.5l-3 -27l-42 -3
c-18.667 -2 -31 -5.83301 -37 -11.5s-10.667 -18.167 -14 -37.5v1z" />
    <glyph glyph-name="M" unicode="M" horiz-adv-x="944" 
d="M853 631l-41.0078 -531.001c-0.666992 -8.66699 -1 -15.834 -1 -21.501v-16.5v-2v-2c0 -8 4.83301 -14.833 14.5 -20.5s22.834 -9.16699 39.501 -10.5l37 -2l-3 -28c-7.33301 0 -14.666 0.166992 -21.999 0.5s-14.666 0.5 -21.999 0.5
c-7.33301 0.666992 -14.666 1 -21.999 1h-22c-7.33301 0.666992 -14.666 1 -21.999 1h-22h-22.5c-7.66699 0 -15.167 -0.333008 -22.5 -1h-22c-7.33301 0 -15 -0.333008 -23 -1c-7.33301 0 -14.666 -0.166992 -21.999 -0.5s-15 -0.5 -23 -0.5l3 28l31 3
c0.666992 -0.666992 1.5 -1 2.5 -1h2.5c15.333 2 29.166 4.83301 41.499 8.5s19.166 13.834 20.499 30.501l37 515l-2 2l-50 -83l-114 -194.5l-110 -194.5l-36 -65.5l-36 -63.5h-23l-148 574h-2l-123 -460c-2.66699 -9.33301 -4.5 -17.5 -5.5 -24.5s-1.5 -13.5 -1.5 -19.5
c0 -6.66699 4.83301 -12.167 14.5 -16.5s21.167 -7.16602 34.5 -8.49902l38 -2l-3 -28c-6 0 -12 0.166992 -18 0.5s-12 0.5 -18 0.5c-12 0.666992 -24.167 1.16699 -36.5 1.5s-24.833 0.5 -37.5 0.5c-12 -0 -24.333 -0.166992 -37 -0.5s-25 -0.833008 -37 -1.5
c-6.66699 0 -13 -0.166992 -19 -0.5s-12 -0.5 -18 -0.5l2 26c27.333 2 46.833 7.83301 58.5 17.5s20.834 26.834 27.501 51.501l145 510c1.33301 2.66699 2.16602 5.66699 2.49902 9s0.5 6.33301 0.5 9c0 14 -5 23.667 -15 29s-20.667 8.66602 -32 9.99902
c-4 0.666992 -8 1.16699 -12 1.5s-7.66699 0.5 -11 0.5l-26 3l3 28c4.66699 -0.666992 9.33398 -1.16699 14.001 -1.5s9.33398 -0.5 14.001 -0.5c9.33301 -0.666992 18.666 -1.16699 27.999 -1.5s18.666 -0.5 27.999 -0.5c7.33301 0 14.333 0.166992 21 0.5
s13.667 0.5 21 0.5c2 0 4.16699 0.166992 6.5 0.5s4.5 0.5 6.5 0.5c4.66699 0 9.33398 0.166992 14.001 0.5s9.33398 0.5 14.001 0.5l150 -577l246 422l29.5 51l28.5 52l13.5 26l13.5 26c4.66699 0 9.33398 -0.166992 14.001 -0.5s9.33398 -0.5 14.001 -0.5
c9.33301 -0.666992 18.666 -1.16699 27.999 -1.5s18.666 -0.5 27.999 -0.5c7.33301 0 14.333 0.166992 21 0.5s13.667 0.5 21 0.5c2 0 4.16699 0.166992 6.5 0.5s4.5 0.5 6.5 0.5c4.66699 0 9.33398 0.166992 14.001 0.5s9.33398 0.5 14.001 0.5l-3 -27l-38 -2
c-13.333 -1.33301 -24 -4.5 -32 -9.5s-12.667 -12.5 -14 -22.5v1z" />
    <glyph glyph-name="N" unicode="N" horiz-adv-x="778" 
d="M237 692l342.999 -586h2l80 486c0 1.33301 0.166992 2.83301 0.5 4.5s0.833008 3.83398 1.5 6.50098v4c0 1.33301 0.333008 2.66602 1 3.99902c0.666992 4.66699 1.16699 9.33398 1.5 14.001s0.5 8.66699 0.5 12c0 8.66699 -2.83301 14.667 -8.5 18
s-14.834 5.33301 -27.501 6l-47 3l5 28c4.66699 -0.666992 9.66699 -1.16699 15 -1.5s10.666 -0.5 15.999 -0.5c11.333 -0.666992 23.5 -1.16699 36.5 -1.5s26.167 -0.5 39.5 -0.5h4.5h5.5c11.333 0 22.5 0.166992 33.5 0.5s21.833 0.833008 32.5 1.5
c6 0 11.667 0.166992 17 0.5s10.333 0.5 15 0.5l-5 -27l-37 -2c-1.33301 -0.666992 -2.83301 -1.16699 -4.5 -1.5s-3.16699 -0.5 -4.5 -0.5c-5.33301 -0.666992 -10.166 -1.83398 -14.499 -3.50098s-7.16602 -3.83398 -8.49902 -6.50098s-4.16602 -10.334 -8.49902 -23.001
s-8.83301 -30.334 -13.5 -53.001c-0.666992 -4.66699 -1.5 -9.83398 -2.5 -15.501s-2.16699 -11.5 -3.5 -17.5l-94 -552h-50l-336 575h-2l-80 -462c-0.666992 -6.66699 -1.33398 -12.5 -2.00098 -17.5s-1 -9.83301 -1 -14.5s0.333008 -9.16699 1 -13.5
s1.66699 -8.16602 3 -11.499c2.66699 -6.66699 7.83398 -11 15.501 -13s17.5 -3.66699 29.5 -5l42 -2l-5 -28c-6 0 -12.167 0.166992 -18.5 0.5s-12.5 0.5 -18.5 0.5c-2.66699 0 -5.5 0.166992 -8.5 0.5s-6.16699 0.5 -9.5 0.5c-9.33301 0 -18.5 0.166992 -27.5 0.5
s-18.167 0.5 -27.5 0.5c-12 0 -24.167 -0.166992 -36.5 -0.5s-24.833 -0.833008 -37.5 -1.5c-6 0 -12.167 -0.166992 -18.5 -0.5s-12.5 -0.5 -18.5 -0.5l5 28l31 3c8 0.666992 15 1.83398 21 3.50098s10.667 4.83398 14 9.50098s6.5 11.834 9.5 21.501
s5.83301 19.834 8.5 30.501c0 1.33301 0.166992 2.66602 0.5 3.99902s0.5 2.66602 0.5 3.99902l88 475c0 0.666992 0.166992 1.5 0.5 2.5s0.5 2.16699 0.5 3.5c0 0.666992 0.166992 1.16699 0.5 1.5l0.5 0.5l2 13.5c0.666992 4.33301 1 8.16602 1 11.499
c0 1.33301 -1.33301 3.83301 -4 7.5s-5.66699 7.5 -9 11.5l-3.5 3.5l-3.5 3.5c-2.66699 2.66699 -5.16699 5 -7.5 7s-4.5 3.66699 -6.5 5c-4 2.66699 -8.5 4.83398 -13.5 6.50098s-9.83301 3.16699 -14.5 4.5c-3.33301 0.666992 -6.5 1.33398 -9.5 2.00098
s-5.83301 1 -8.5 1l-35 3l5 28c4.66699 -0.666992 9.16699 -1.16699 13.5 -1.5s8.83301 -0.5 13.5 -0.5c9.33301 -0.666992 18.5 -1.16699 27.5 -1.5s17.833 -0.5 26.5 -0.5c9.33301 0 18.5 0.166992 27.5 0.5s17.833 0.833008 26.5 1.5
c4.66699 0 9.16699 0.166992 13.5 0.5s8.83301 0.5 13.5 0.5v1z" />
    <glyph glyph-name="O" unicode="O" horiz-adv-x="778" 
d="M330 -18c-100 0 -171.167 26.1689 -213.5 78.502s-63.5 126.166 -63.5 221.499c0 117.333 38.667 217.166 116 299.499s175 123.5 293 123.5c88.667 0 158.5 -23.833 209.5 -71.5s76.5 -116.167 76.5 -205.5c0 -120 -38.5 -224.333 -115.5 -313
s-177.833 -133 -302.5 -133v0zM428 664.002c-92 -0.666992 -159.833 -34.333 -203.5 -101s-70.167 -140 -79.5 -220c-1.33301 -12 -2.33301 -24 -3 -36s-1 -24 -1 -36c0 -74 17.167 -133.833 51.5 -179.5s91.166 -68.5 170.499 -68.5c98.667 0 171.334 36.667 218.001 110
s72.667 154.333 78 243c0.666992 5.33301 1 10.833 1 16.5v17.5c0 78.667 -18 140.5 -54 185.5s-95.333 67.5 -178 67.5v1z" />
    <glyph glyph-name="P" unicode="P" horiz-adv-x="611" 
d="M112 125l74.001 433.998c3.33301 18.667 5.5 33.667 6.5 45l2.5 28v1.5v1.5c0 8 -2.66699 14.167 -8 18.5s-14.333 6.83301 -27 7.5l-55 3l3 28c9.33301 -0.666992 18.5 -1.16699 27.5 -1.5s18.167 -0.5 27.5 -0.5c18 -0.666992 36.333 -1.16699 55 -1.5
s37.334 -0.5 56.001 -0.5c15.333 0 30.666 0.166992 45.999 0.5s30.666 0.833008 45.999 1.5c8 0 15.833 0.166992 23.5 0.5s15.167 0.5 22.5 0.5h4.5h3.5c49.333 0 90.666 -11 123.999 -33s50 -61.667 50 -119c0 -65.333 -23.333 -123.666 -70 -174.999
s-103.334 -77 -170.001 -77c-10 0 -19.5 0.833008 -28.5 2.5s-17.5 4.16699 -25.5 7.5c-5.33301 1.33301 -10.5 3.16602 -15.5 5.49902l-15.5 7.5l-2 32c15.333 -6.66699 29.333 -11.667 42 -15s24.667 -5 36 -5c44 0 80 17 108 51s45 71.333 51 112
c0.666992 5.33301 1.16699 10.333 1.5 15s0.5 9.33398 0.5 14.001c0 52.667 -13.167 89.334 -39.5 110.001s-64.166 31 -113.499 31c-8 0 -15.833 -0.333008 -23.5 -1s-15.167 -1.66699 -22.5 -3l-11.5 -2l-11.5 -2c-0.666992 -4.66699 -1.66699 -9.16699 -3 -13.5l-4 -13.5
c0 -1.33301 -0.166992 -2.5 -0.5 -3.5s-0.5 -2.16699 -0.5 -3.5c-2 -5.33301 -3.5 -10.833 -4.5 -16.5s-2.16699 -11.5 -3.5 -17.5l-82 -486c-0.666992 -6 -1.5 -12 -2.5 -18s-1.5 -12.333 -1.5 -19c0 -8 2.16699 -14.5 6.5 -19.5s14.166 -8.16699 29.499 -9.5l65 -2l-3 -28
c-8 0 -16.167 0.166992 -24.5 0.5s-16.166 0.5 -23.499 0.5c-16 0.666992 -31.5 1.16699 -46.5 1.5s-29.833 0.5 -44.5 0.5s-29.5 -0.166992 -44.5 -0.5s-29.833 -0.833008 -44.5 -1.5c-7.33301 0 -14.5 -0.166992 -21.5 -0.5s-14.167 -0.5 -21.5 -0.5l4 28l41 3
c9.33301 0 16.5 0.666992 21.5 2s8.83301 3.33301 11.5 6c1.33301 1.33301 2.5 2.66602 3.5 3.99902s2.16699 3.33301 3.5 6c2.66699 6 5.33398 14.833 8.00098 26.5s6 28.834 10 51.501v1z" />
    <glyph glyph-name="Q" unicode="Q" horiz-adv-x="778" 
d="M151 -172l-23.998 13.002c-0.666992 2.66699 -1 5.5 -1 8.5v8.5c0 34 10.667 63.667 32 89s50.666 38 87.999 38c8 0 15 -0.333008 21 -1s12.333 -1.66699 19 -3c4.66699 -0.666992 9.5 -1.83398 14.5 -3.50098s10.5 -3.83398 16.5 -6.50098l236 -96
c10 -4 20.167 -7.5 30.5 -10.5s20.833 -4.5 31.5 -4.5c23.333 0 40.166 8.16699 50.499 24.5s16.166 34.5 17.499 54.5h25v-2.5v-3.5c-2.66699 -33.333 -12.667 -64 -30 -92s-45.666 -42 -84.999 -42c-16 0 -29.667 1 -41 3s-22.333 5 -33 9c-8 3.33301 -16 7 -24 11
s-16.667 8.66699 -26 14l-145 76c-14.667 8 -30 14.833 -46 20.5s-32.667 8.5 -50 8.5c-27.333 0 -46.5 -9.33301 -57.5 -28s-17.5 -39 -19.5 -61v-7.5v-7.5v-4.5v-4.5v0zM330.002 -17.998c-97.333 0 -167.833 25.501 -211.5 76.501s-65.5 125.5 -65.5 223.5
c0 117.333 38.667 217.166 116 299.499s175 123.5 293 123.5c88.667 0 158.5 -23.833 209.5 -71.5s76.5 -116.167 76.5 -205.5c0 -120 -38.5 -224.333 -115.5 -313s-177.833 -133 -302.5 -133v0zM428.002 664.003c-92 -0.666992 -159.833 -34.333 -203.5 -101
s-70.167 -140 -79.5 -220c-1.33301 -12 -2.33301 -24 -3 -36s-1 -24 -1 -36c0 -74 17.167 -133.833 51.5 -179.5s91.166 -68.5 170.499 -68.5c98.667 0 171.334 36.667 218.001 110s72.667 154.333 78 243c0.666992 5.33301 1 10.833 1 16.5v17.5
c0 78.667 -18 140.5 -54 185.5s-95.333 67.5 -178 67.5v1z" />
    <glyph glyph-name="R" unicode="R" horiz-adv-x="667" 
d="M112 125l74.9932 434.001c3.33301 18.667 5.5 33.667 6.5 45l2.5 28v1.5v1.5c0 8 -2.66699 14.167 -8 18.5s-14.333 6.83301 -27 7.5l-56 3l3 28c8.66699 -0.666992 17.167 -1.16699 25.5 -1.5s16.5 -0.5 24.5 -0.5c4.66699 0 9 -0.166992 13 -0.5s8.33301 -0.5 13 -0.5
c12 0 24.333 -0.166992 37 -0.5s25.334 -0.5 38.001 -0.5c16.667 0 33.334 0.166992 50.001 0.5s33.334 0.833008 50.001 1.5c8 0 16.333 0.166992 25 0.5s17 0.5 25 0.5h4.5h3.5c43.333 0 82 -9.5 116 -28.5s51 -53.833 51 -104.5c0 -52.667 -20.333 -97.334 -61 -134.001
s-85.334 -59.667 -134.001 -69c-2.66699 0 -5.16699 -0.333008 -7.5 -1s-4.5 -1 -6.5 -1l184 -274l9 -14.5c2.66699 -4.33301 5.66699 -8.16602 9 -11.499c7.33301 -9.33301 15.5 -16.333 24.5 -21s21.5 -7.66699 37.5 -9v-26c-3.33301 0 -7 0.166992 -11 0.5
s-7.66699 0.5 -11 0.5c-7.33301 0.666992 -14.666 1.16699 -21.999 1.5s-14.666 0.5 -21.999 0.5s-14.666 -0.166992 -21.999 -0.5s-14.666 -0.833008 -21.999 -1.5c-3.33301 0 -6.83301 -0.166992 -10.5 -0.5s-7.5 -0.5 -11.5 -0.5c-3.33301 4.66699 -6.5 9.66699 -9.5 15
s-6.16699 10.666 -9.5 15.999l-4 8c-1.33301 2.66699 -3 5.33398 -5 8.00098l-14 23.5l-15 23.5l-183 276l3 11h44c50.667 -0.666992 93.667 14.333 129 45s53 70 53 118c0 39.333 -11.833 68.166 -35.5 86.499s-54.167 27.5 -91.5 27.5c-10.667 0 -22.667 -0.333008 -36 -1
s-28.666 -3 -45.999 -7c-0.666992 -4.66699 -1.66699 -9.16699 -3 -13.5l-4 -13.5c0 -1.33301 -0.166992 -2.5 -0.5 -3.5s-0.5 -2.16699 -0.5 -3.5c-2 -5.33301 -3.5 -10.833 -4.5 -16.5s-2.16699 -11.5 -3.5 -17.5l-85 -486c-0.666992 -6 -1.5 -12 -2.5 -18
s-1.5 -12.333 -1.5 -19c0 -8 2.16699 -14.5 6.5 -19.5s14.166 -8.16699 29.499 -9.5l49 -2l-3 -28c-5.33301 0 -11.166 0.166992 -17.499 0.5s-12.833 0.5 -19.5 0.5c-12 0.666992 -24.333 1.16699 -37 1.5s-25.334 0.5 -38.001 0.5h-5.5h-5.5
c-14.667 -0 -29.5 -0.166992 -44.5 -0.5s-29.833 -0.833008 -44.5 -1.5c-7.33301 0 -14.5 -0.166992 -21.5 -0.5s-14.167 -0.5 -21.5 -0.5l4 28l41 3c9.33301 0 16.5 0.666992 21.5 2s8.83301 3.33301 11.5 6c1.33301 1.33301 2.5 2.66602 3.5 3.99902
s2.16699 3.33301 3.5 6c2.66699 6 5.33398 14.833 8.00098 26.5s6 28.834 10 51.501v1z" />
    <glyph glyph-name="S" unicode="S" horiz-adv-x="556" 
d="M451 537l-0.000976562 75.9951c-12 14 -26.833 24.5 -44.5 31.5s-36.167 11.167 -55.5 12.5h-6.5h-6.5c-42.667 0 -79.667 -13.5 -111 -40.5s-47 -62.833 -47 -107.5c0 -34 7.66699 -60.5 23 -79.5s39.666 -32.167 72.999 -39.5l65 -13
c39.333 -9.33301 73.166 -23.833 101.499 -43.5s42.5 -52.834 42.5 -99.501c0 -72 -27.833 -130.5 -83.5 -175.5s-116.834 -70.167 -183.501 -75.5c-4 -0.666992 -8 -1 -12 -1h-12c-10 0 -20.833 0.666992 -32.5 2s-23.5 3.33301 -35.5 6
c-15.333 3.33301 -30.333 7.33301 -45 12s-27.667 10.334 -39 17.001c2.66699 12.667 5.16699 25.334 7.5 38.001s4.5 25.334 6.5 38.001s3.83301 25.334 5.5 38.001s3.16699 25.334 4.5 38.001l30 1v-99c21.333 -16.667 43.5 -28.167 66.5 -34.5s47.5 -9.5 73.5 -9.5
c48.667 0 89.167 14.833 121.5 44.5s48.5 69.167 48.5 118.5c0 28 -6.66699 50.5 -20 67.5s-33.666 28.833 -60.999 35.5l-95 24c-44.667 10.667 -76.167 28.334 -94.5 53.001s-27.5 59.334 -27.5 104.001c0 60 23.333 110.5 70 151.5s98.334 65.833 155.001 74.5l20 2
c6.66699 0.666992 13.334 1 20.001 1h8.5c3 0 5.83301 -0.333008 8.5 -1c20.667 -0.666992 40.834 -3.83398 60.501 -9.50098s38.167 -13.5 55.5 -23.5c-6.66699 -20.667 -12 -42 -16 -64s-7 -45.667 -9 -71l-30 1v0z" />
    <glyph glyph-name="T" unicode="T" horiz-adv-x="611" 
d="M390 646l-94 -553.001c-0.666992 -6 -1.5 -12 -2.5 -18s-1.5 -12.333 -1.5 -19c0 -8 2.16699 -14.5 6.5 -19.5s14.166 -8.16699 29.499 -9.5l59 -2l-3 -28c-7.33301 0 -14.666 0.166992 -21.999 0.5s-14.666 0.5 -21.999 0.5c-4 0 -7.83301 0.166992 -11.5 0.5
s-7.16699 0.5 -10.5 0.5c-11.333 0 -22.5 0.166992 -33.5 0.5s-22.167 0.5 -33.5 0.5h-6.5h-6.5c-13.333 0 -26.333 -0.166992 -39 -0.5s-26 -0.833008 -40 -1.5c-8 0 -16.167 -0.166992 -24.5 -0.5s-16.833 -0.5 -25.5 -0.5l4 28l51 3c9.33301 0 16.5 0.666992 21.5 2
s8.83301 3.33301 11.5 6c1.33301 1.33301 2.33301 2.5 3 3.5l3 4.5c2.66699 6 5.5 15 8.5 27s6.5 29.667 10.5 53l86 522h-112c-4.66699 -0.666992 -9.5 -1.16699 -14.5 -1.5s-10.167 -0.5 -15.5 -0.5c-12 -1.33301 -23 -3 -33 -5s-16 -4.33301 -18 -7
c-4 -5.33301 -7.5 -12 -10.5 -20s-5.5 -16.333 -7.5 -25l-15 -59h-29l18 164c16 -0.666992 31.833 -1.16699 47.5 -1.5s31.5 -0.5 47.5 -0.5c31.333 -0.666992 62.833 -1.16699 94.5 -1.5s63.167 -0.5 94.5 -0.5s62.666 0.166992 93.999 0.5s62.333 0.833008 93 1.5
c16 0 31.667 0.166992 47 0.5s30.666 0.5 45.999 0.5l-27 -163h-28l4 64v3.5v3.5c0 8 -0.5 14.833 -1.5 20.5s-2.16699 9.83398 -3.5 12.501c-2 4 -13.667 7 -35 9s-44.666 3.33301 -69.999 4h-5.5h-5.5l-73 1v0z" />
    <glyph glyph-name="U" unicode="U" horiz-adv-x="778" 
d="M708 613l-83.0039 -499l-2 -10c-0.666992 -3.33301 -1.33398 -7 -2.00098 -11c-0.666992 -6 -1.5 -12.833 -2.5 -20.5s-1.5 -15.5 -1.5 -23.5c0 -6.66699 2.33301 -11.5 7 -14.5s13 -5.16699 25 -6.5l60 -3l-5 -28c-5.33301 0 -10.5 0.166992 -15.5 0.5
s-9.83301 0.5 -14.5 0.5c-10 0.666992 -19.833 1.16699 -29.5 1.5s-19.5 0.5 -29.5 0.5s-20 -0.166992 -30 -0.5s-19.667 -0.833008 -29 -1.5c-4 0 -8.33301 -0.166992 -13 -0.5s-9 -0.5 -13 -0.5l-5 5c2.66699 9.33301 5.16699 19.166 7.5 29.499s4.5 20.5 6.5 30.5l6 30.5
l6 30.5l-2 3c-21.333 -28 -49.166 -54.167 -83.499 -78.5s-70.166 -41.833 -107.499 -52.5c-13.333 -4 -26.333 -7.16699 -39 -9.5s-25 -3.5 -37 -3.5c-52.667 0 -96.667 12.667 -132 38s-53 66.666 -53 123.999c0 5.33301 0.166992 10.5 0.5 15.5s0.833008 10.167 1.5 15.5
c0.666992 4.66699 1.33398 9.66699 2.00098 15s1.33398 10.333 2.00098 15l64 376c0 0.666992 0.166992 1.83398 0.5 3.50098s0.833008 3.5 1.5 5.5c1.33301 10 2.5 19.5 3.5 28.5s1.5 15.167 1.5 18.5c0 10 -2.66699 16.333 -8 19s-14 4.33398 -26 5.00098l-52 3l3 28
c5.33301 -0.666992 10.5 -1.16699 15.5 -1.5s10.167 -0.5 15.5 -0.5c10 -0.666992 20 -1.16699 30 -1.5s20 -0.5 30 -0.5s19.833 0.166992 29.5 0.5s19.167 0.833008 28.5 1.5c5.33301 0 10.5 0.166992 15.5 0.5s9.83301 0.5 14.5 0.5l-88 -476
c-2 -10.667 -3.66699 -21 -5 -31s-2 -20.333 -2 -31c0 -40.667 14.333 -70 43 -88s61.334 -27 98.001 -27c47.333 0 92.5 14 135.5 42s77.833 60 104.5 96l63 383c3.33301 18.667 5.5 33.667 6.5 45l2.5 28v1.5v1.5c0 8 -2.66699 14.167 -8 18.5s-14.333 6.83301 -27 7.5
l-48 3l3 28c9.33301 -0.666992 18.333 -1.16699 27 -1.5s17 -0.5 25 -0.5c16 -0.666992 31.167 -1.16699 45.5 -1.5s28.5 -0.5 42.5 -0.5s27.667 0.166992 41 0.5s26 0.833008 38 1.5c6 0 11.5 0.166992 16.5 0.5s9.83301 0.5 14.5 0.5l-3 -27l-36 -3
c-18.667 -2 -31 -5.83301 -37 -11.5s-10.667 -18.167 -14 -37.5v1z" />
    <glyph glyph-name="V" unicode="V" horiz-adv-x="722" 
d="M312 100l289.004 488c0.666992 0.666992 1.33398 1.5 2.00098 2.5s1.33398 2.16699 2.00098 3.5c1.33301 2.66699 2.83301 5.5 4.5 8.5s2.83398 5.83301 3.50098 8.5c1.33301 3.33301 2.33301 6.33301 3 9s1 5.33398 1 8.00098c0 9.33301 -3.66699 16.166 -11 20.499
s-15.333 7.5 -24 9.5l-11.5 2c-3.66699 0.666992 -7.16699 1 -10.5 1l-26 3v28c7.33301 -0.666992 14.666 -1.16699 21.999 -1.5s14.666 -0.5 21.999 -0.5c7.33301 -0.666992 14.666 -1 21.999 -1h22c7.33301 -0.666992 14.666 -1 21.999 -1h22
c7.33301 0 14.666 0.166992 21.999 0.5s14.666 0.5 21.999 0.5c2.66699 0 5.16699 0.166992 7.5 0.5s4.83301 0.5 7.5 0.5c4.66699 0 9.5 0.166992 14.5 0.5s9.83301 0.5 14.5 0.5v-27l-18 -2c-10.667 -2 -19.334 -5 -26.001 -9s-13 -9.66699 -19 -17l-8 -12l-9 -14
l-378 -618h-49l-88 622c-2.66699 20.667 -8.66699 33.334 -18 38.001s-23 7.66699 -41 9l-25 3v28c6.66699 -0.666992 13.5 -1.16699 20.5 -1.5s13.833 -0.5 20.5 -0.5c3.33301 0 6.83301 -0.166992 10.5 -0.5s7.16699 -0.5 10.5 -0.5c10.667 0 21.167 -0.166992 31.5 -0.5
s20.5 -0.5 30.5 -0.5s20.167 0.166992 30.5 0.5s20.833 0.5 31.5 0.5c3.33301 0 6.83301 0.166992 10.5 0.5s7.16699 0.5 10.5 0.5c6.66699 0 13.5 0.166992 20.5 0.5s13.833 0.5 20.5 0.5v-27l-42 -2c-15.333 -1.33301 -26.333 -4.33301 -33 -9s-10 -12 -10 -22v-2
c0 -0.666992 0.333008 -1.33398 1 -2.00098v-2v-2l70 -523h3v0z" />
    <glyph glyph-name="W" unicode="W" horiz-adv-x="944" 
d="M303 692l-0.000976562 -28.0039l-37 -2c-18 -1.33301 -30 -6.16602 -36 -14.499s-9 -18.166 -9 -29.499v-1.5v-1.5l31 -479h2l222 452c4.66699 8.66699 9.16699 17.667 13.5 27l13.5 28l12.5 28l12.5 28l18 1l157 -569h2l146 459c0.666992 0.666992 1.16699 1.5 1.5 2.5
s0.5 2.16699 0.5 3.5c2 6 3.66699 12.667 5 20s2 15 2 23c0 6.66699 -3 11.5 -9 14.5s-12.667 5.16699 -20 6.5c-2 0 -4 0.166992 -6 0.5s-4 0.5 -6 0.5l-39 3l5 28c5.33301 -0.666992 10.833 -1.16699 16.5 -1.5s11.167 -0.5 16.5 -0.5
c2.66699 0 5.33398 -0.166992 8.00098 -0.5s5.33398 -0.5 8.00098 -0.5c8 0 16.167 -0.166992 24.5 -0.5s16.5 -0.5 24.5 -0.5s16 0.166992 24 0.5s16.333 0.5 25 0.5c2.66699 0 5.33398 0.166992 8.00098 0.5s5.33398 0.5 8.00098 0.5
c5.33301 0 10.666 0.166992 15.999 0.5s10.666 0.5 15.999 0.5v-27l-20 -2c-10.667 -1.33301 -19.834 -5 -27.501 -11s-12.834 -13 -15.501 -21l-171 -506l-14 -44.5c-4.66699 -15 -9 -29.833 -13 -44.5c-2 -7.33301 -3.83301 -14.666 -5.5 -21.999s-3.5 -14.333 -5.5 -21
h-51c-2 8 -4 16.667 -6 26l-6 27l-12.5 54.5c-4.33301 18.333 -9.16602 36.166 -14.499 53.499l-112 393l-224 -444l-26 -55.5c-8.66699 -18.333 -16.667 -36.5 -24 -54.5h-50c0 13.333 -0.333008 26.833 -1 40.5l-2 41.5l-2 41.5c-0.666992 13.667 -1.66699 27.5 -3 41.5
l-32 431c-2 26.667 -6 44.834 -12 54.501s-19.667 15.834 -41 18.501l-18 3v28c6.66699 -0.666992 13.167 -1.16699 19.5 -1.5s12.833 -0.5 19.5 -0.5c12.667 -0.666992 25.5 -1.16699 38.5 -1.5s25.833 -0.5 38.5 -0.5c10 0 19.833 0.166992 29.5 0.5s19.167 0.5 28.5 0.5
c3.33301 0 6.5 0.166992 9.5 0.5s6.16699 0.5 9.5 0.5c6.66699 0 13.167 0.166992 19.5 0.5s12.833 0.5 19.5 0.5v1z" />
    <glyph glyph-name="X" unicode="X" horiz-adv-x="722" 
d="M488 80l-118.997 226.006l-182 -231c-2 -2.66699 -3.66699 -5.33398 -5 -8.00098s-2.33301 -5.33398 -3 -8.00098c-0.666992 -1.33301 -1.16699 -3 -1.5 -5s-0.5 -3.66699 -0.5 -5c0 -5.33301 3.5 -9.5 10.5 -12.5s14.833 -5.16699 23.5 -6.5l11.5 -2
c3.66699 -0.666992 6.83398 -1 9.50098 -1l32 -2v-28c-10 0.666992 -20 1.16699 -30 1.5s-19.667 0.5 -29 0.5c-10 0.666992 -20 1 -30 1h-30c-19.333 0 -39.166 -0.333008 -59.499 -1s-42.166 -1.33398 -65.499 -2.00098v28l28 3c12 0.666992 23.333 3.83398 34 9.50098
s20 13.167 28 22.5l238 283l-146 270c-0.666992 0.666992 -1.5 1.83398 -2.5 3.50098s-1.83301 3.16699 -2.5 4.5c-7.33301 12.667 -16 22 -26 28s-26.667 10 -50 12l-26 3v28c7.33301 -0.666992 14.833 -1.16699 22.5 -1.5s15.167 -0.5 22.5 -0.5
c3.33301 0 6.83301 -0.166992 10.5 -0.5s7.5 -0.5 11.5 -0.5c11.333 0 22.5 -0.166992 33.5 -0.5s22.167 -0.5 33.5 -0.5h22c7.33301 0 14.666 0.333008 21.999 1h22c7.33301 0 14.666 0.333008 21.999 1c7.33301 0 14.666 0.166992 21.999 0.5s14.666 0.5 21.999 0.5v-27
l-37 -2c-1.33301 -0.666992 -3 -1 -5 -1s-3.66699 -0.333008 -5 -1c-8 -0.666992 -15.5 -2.33398 -22.5 -5.00098s-10.5 -7.33398 -10.5 -14.001c0 -4.66699 1.5 -10.334 4.5 -17.001l9.5 -21l104 -198l161 196c6 6.66699 11.333 13.5 16 20.5s7 13.833 7 20.5
c0 7.33301 -4.33301 12.166 -13 14.499s-18.334 3.83301 -29.001 4.5h-1.5h-1.5l-33 3v28c6.66699 -0.666992 13.167 -1.16699 19.5 -1.5s12.5 -0.5 18.5 -0.5c3.33301 0 6.66602 -0.166992 9.99902 -0.5s6.66602 -0.5 9.99902 -0.5c9.33301 0 18.833 -0.166992 28.5 -0.5
s19.167 -0.5 28.5 -0.5c12.667 0 25.334 0.166992 38.001 0.5s25.334 0.833008 38.001 1.5c6.66699 0 13.167 0.166992 19.5 0.5s12.5 0.5 18.5 0.5v-27l-28 -2c-8 -1.33301 -14.833 -3 -20.5 -5s-11.167 -5 -16.5 -9c-4 -3.33301 -8.33301 -7.5 -13 -12.5l-15 -16.5
l-221 -251l171 -307c6.66699 -12 14.5 -20.5 23.5 -25.5s23.833 -8.16699 44.5 -9.5l25 -1v-28l-67 2c-22 0.666992 -44 1 -66 1c-22.667 0 -45.167 -0.333008 -67.5 -1l-67.5 -2v28l38 3c2.66699 -0.666992 5.5 -0.833984 8.5 -0.500977s5.83301 0.5 8.5 0.5
c8.66699 0 16 0.666992 22 2s9 4.33301 9 9c0 5.33301 -1 10.833 -3 16.5s-4.33301 11.167 -7 16.5c-0.666992 0.666992 -1.33398 1.66699 -2.00098 3l-2 4v1z" />
    <glyph glyph-name="Y" unicode="Y" horiz-adv-x="667" 
d="M127 702l4.00488 3.00098c0.666992 -0.666992 1.33398 -1 2.00098 -1h2c29.333 0 53.166 -10.333 71.499 -31s33.833 -43.334 46.5 -68.001l8 -18l8 -18c4 -9.33301 8.16699 -20.5 12.5 -33.5l13.5 -41.5l6 -20.5c2 -7 4.33301 -13.833 7 -20.5l24 -88.5
c7.33301 -27.667 11.666 -45.167 12.999 -52.5l2 1c8.66699 22.667 18.667 45 30 67s23.666 44 36.999 66c8.66699 14.667 18.167 29.5 28.5 44.5l31.5 44.5c1.33301 2 2.66602 3.83301 3.99902 5.5s2.66602 3.5 3.99902 5.5c25.333 32.667 53.5 63.5 84.5 92.5
s67.167 48.167 108.5 57.5l-6 -70c-35.333 -5.33301 -66.333 -20.166 -93 -44.499s-50.667 -50.166 -72 -77.499l-13.5 -18l-12.5 -17c-1.33301 -1.33301 -2.5 -2.83301 -3.5 -4.5s-1.83301 -3.16699 -2.5 -4.5l-25.5 -37c-8.33301 -12.667 -16.166 -25.667 -23.499 -39
c-15.333 -26.667 -28.666 -52.334 -39.999 -77.001s-18.333 -45.334 -21 -62.001l-24 -152c-0.666992 -6 -1.5 -12 -2.5 -18s-1.5 -12.333 -1.5 -19c0 -8 2.16699 -14.5 6.5 -19.5s14.166 -8.16699 29.499 -9.5l49 -2l-3 -28c-5.33301 0 -11.166 0.166992 -17.499 0.5
s-12.833 0.5 -19.5 0.5c-12 0.666992 -24.333 1.16699 -37 1.5s-25.334 0.5 -38.001 0.5h-5.5h-5.5h-9.5h-9.5c-12 -0 -23.833 -0.166992 -35.5 -0.5s-23.834 -0.833008 -36.501 -1.5c-7.33301 0 -15 -0.166992 -23 -0.5s-16.333 -0.5 -25 -0.5l4 28l48 3
c9.33301 0 16.5 0.666992 21.5 2s8.83301 3.33301 11.5 6c1.33301 1.33301 2.5 2.66602 3.5 3.99902s2.16699 3.33301 3.5 6c2.66699 6 5.33398 14.833 8.00098 26.5s6 28.834 10 51.501l21 127v1.5v2.5c0 12 -3.83301 32.5 -11.5 61.5s-16.834 59.833 -27.501 92.5l-8 24.5
l-8 24.5l-22.5 58.5c-7 17.667 -13.167 31.5 -18.5 41.5c-0.666992 0.666992 -1.16699 1.5 -1.5 2.5s-0.833008 1.83301 -1.5 2.5c-10 18 -21.833 34.333 -35.5 49s-31.5 22 -53.5 22c-4.66699 0 -10.667 -1.16699 -18 -3.5s-15.333 -5.16602 -24 -8.49902l-3 25
c3.33301 1.33301 6.66602 3.16602 9.99902 5.49902l9 6.5c10 6.66699 19.667 13.5 29 20.5s18.333 14.167 27 21.5v1z" />
    <glyph glyph-name="Z" unicode="Z" horiz-adv-x="667" 
d="M20 -3v22.001l502 633h-180c-10 -0.666992 -20 -1 -30 -1s-20 -0.333008 -30 -1c-20 -0.666992 -40 -1.83398 -60 -3.50098s-40 -4.5 -60 -8.5c-1.33301 -3.33301 -2.5 -7 -3.5 -11s-2.16699 -8 -3.5 -12l-6 -21l-6 -22c-1.33301 -6.66699 -2.83301 -13.334 -4.5 -20.001
s-2.83398 -13.334 -3.50098 -20.001l-26 1c3.33301 26.667 6 53.167 8 79.5s3 52.5 3 78.5c20 0 39.833 -0.166992 59.5 -0.5s39.167 -0.5 58.5 -0.5c10 0 20 -0.166992 30 -0.5s20 -0.5 30 -0.5c29.333 0 58.833 -0.166992 88.5 -0.5s59.167 -0.5 88.5 -0.5
c18 0 36 0.166992 54 0.5s36 0.833008 54 1.5c9.33301 0 18.5 0.166992 27.5 0.5s17.833 0.5 26.5 0.5v-19l-504 -633h281c4 -0.666992 8 -1 12 -1h12c18 1.33301 35.833 3 53.5 5s34.167 4.66699 49.5 8c2 6 4.16699 12.167 6.5 18.5s4.5 12.5 6.5 18.5
c1.33301 3.33301 2.5 6.5 3.5 9.5s2.16699 6.16699 3.5 9.5l10 28.5c3.33301 9.66699 6.33301 18.834 9 27.501l26 1c-1.33301 -8.66699 -2.83301 -17 -4.5 -25s-3.16699 -16 -4.5 -24c-3.33301 -21.333 -6.33301 -42.166 -9 -62.499s-4.33398 -38.833 -5.00098 -55.5
c-27.333 0.666992 -54.666 1.16699 -81.999 1.5s-54.666 0.5 -81.999 0.5c-28 0.666992 -55.667 1 -83 1h-82c-38.667 0 -77.5 -0.333008 -116.5 -1l-117.5 -2v0z" />
    <glyph glyph-name="bracketleft" unicode="[" horiz-adv-x="333" 
d="M326 733v-28l-88 -7c-7.33301 -1.33301 -12.166 -4.83301 -14.499 -10.5s-4.16602 -11.834 -5.49902 -18.501c-0.666992 -0.666992 -1 -1.16699 -1 -1.5v-1.5c-11.333 -57.333 -21.5 -114.166 -30.5 -170.499l-26.5 -167.5l-12.5 -84.5l-12.5 -84.5l-12.5 -84.5
l-12.5 -83.5c-0.666992 -4.66699 -1.33398 -8.83398 -2.00098 -12.501s-1 -7.5 -1 -11.5c-0.666992 -2 -1 -4 -1 -6v-6c0 -5.33301 2 -9.83301 6 -13.5s11.333 -5.83398 22 -6.50098l79 -7l-5 -28c-6 0 -11.833 0.166992 -17.5 0.5s-11.167 0.5 -16.5 0.5
c-10.667 0.666992 -20.5 1.16699 -29.5 1.5s-17.833 0.5 -26.5 0.5c-10.667 0 -21.5 -0.166992 -32.5 -0.5s-21.833 -0.833008 -32.5 -1.5c-5.33301 0 -10.833 -0.166992 -16.5 -0.5s-11.167 -0.5 -16.5 -0.5l-2 5c6 26.667 11.333 53 16 79s9 51.667 13 77
c2 12.667 4.16699 25.334 6.5 38.001s4.5 25.334 6.5 38.001c4.66699 25.333 9.16699 51.166 13.5 77.499l12.5 78.5c7.33301 44 14.166 87.667 20.499 131l17.5 125c2 16.667 4.16699 33.5 6.5 50.5s4.5 34.167 6.5 51.5c2 12.667 3.66699 25.5 5 38.5l4 38.5l8 5
c14.667 -1.33301 29.167 -2.16602 43.5 -2.49902s28.5 -0.5 42.5 -0.5c14.667 0 29.167 0.166992 43.5 0.5s28.5 0.833008 42.5 1.5v1z" />
    <glyph glyph-name="backslash" unicode="\" horiz-adv-x="606" 
d="M453 0l-372 733h60l372 -733h-60v0z" />
    <glyph glyph-name="bracketright" unicode="]" horiz-adv-x="333" 
d="M7 -100v27.9941l88 7c7.33301 0.666992 12.166 3.83398 14.499 9.50098s4.16602 11.834 5.49902 18.501c0.666992 0.666992 1 1.16699 1 1.5v1.5c11.333 56.667 21.5 113.167 30.5 169.5l26.5 167.5l12.5 84.5l12.5 84.5l12.5 84.5l12.5 84.5
c0.666992 4.66699 1.33398 8.83398 2.00098 12.501s1 7.5 1 11.5c0.666992 2 1 4 1 6v6c0 5.33301 -2 9.83301 -6 13.5s-11.333 5.83398 -22 6.50098l-79 8l5 28c6 -0.666992 11.833 -1.16699 17.5 -1.5s11.167 -0.5 16.5 -0.5c10.667 -0.666992 20.5 -1.16699 29.5 -1.5
s17.833 -0.5 26.5 -0.5c10.667 0 21.5 0.166992 32.5 0.5s21.833 0.833008 32.5 1.5c5.33301 0 10.833 0.166992 16.5 0.5s11.167 0.5 16.5 0.5l2 -4c-6 -27.333 -11.333 -54.166 -16 -80.499s-9 -52.166 -13 -77.499l-6 -38c-2 -12.667 -4.33301 -25.334 -7 -38.001
c-4.66699 -25.333 -9.16699 -51.166 -13.5 -77.499l-12.5 -78.5c-7.33301 -44 -14.166 -87.667 -20.499 -131l-17.5 -125c-2 -16.667 -4.16699 -33.5 -6.5 -50.5s-4.5 -33.833 -6.5 -50.5c-2 -12.667 -3.66699 -25.5 -5 -38.5l-4 -38.5l-8 -4
c-14.667 0.666992 -29.167 1.16699 -43.5 1.5s-28.5 0.5 -42.5 0.5c-14.667 0 -29.167 -0.166992 -43.5 -0.5s-28.5 -0.833008 -42.5 -1.5v0z" />
    <glyph glyph-name="asciicircum" unicode="^" horiz-adv-x="606" 
d="M112 283h-61l219 406h66l218 -406h-61l-190 344l-191 -344v0z" />
    <glyph glyph-name="underscore" unicode="_" horiz-adv-x="500" 
d="M500 -125h-500v50h500v-50v0z" />
    <glyph glyph-name="grave" unicode="`" horiz-adv-x="333" 
d="M157 669l152.997 -151.001h-34l-162 101c-1.33301 0 -2.5 0.333008 -3.5 1s-1.83301 1.33398 -2.5 2.00098c-6.66699 4 -12 8.5 -16 13.5s-6 12.167 -6 21.5c0 7.33301 4 14 12 20s17 9 27 9c2.66699 0 5.33398 -0.5 8.00098 -1.5s5.33398 -2.16699 8.00098 -3.5l8 -6
c2.66699 -2 5.33398 -4.33301 8.00098 -7v1z" />
    <glyph glyph-name="a" unicode="a" horiz-adv-x="444" 
d="M402 472l-91.999 -378.996c-0.666992 -2 -1 -4 -1 -6v-6v-1.5v-1.5c0 -4.66699 1.16699 -9.16699 3.5 -13.5s6.16602 -6.5 11.499 -6.5c11.333 0 22.833 4.66699 34.5 14l37.5 30c0 0.666992 0.333008 1.16699 1 1.5s1.33398 0.833008 2.00098 1.5l7 -20
c-38.667 -33.333 -70 -57.333 -94 -72s-40.667 -22 -50 -22c-10 0 -16.833 3.16699 -20.5 9.5s-5.5 13.833 -5.5 22.5c0 4.66699 0.166992 9.16699 0.5 13.5s0.833008 8.83301 1.5 13.5c0 4 0.5 8.16699 1.5 12.5s1.83301 8.83301 2.5 13.5l27 121l-3 1l-17.5 -26
c-5.66699 -8 -11.5 -15.667 -17.5 -23c-22 -28.667 -43.167 -53.667 -63.5 -75s-37.5 -37 -51.5 -47c-22 -16 -38.667 -26.333 -50 -31s-20.666 -7 -27.999 -7c-8.66699 0 -15.334 4.5 -20.001 13.5s-8 19.167 -10 30.5c-2 7.33301 -3.16699 14.666 -3.5 21.999
s-0.5 13 -0.5 17c0 19.333 2.33301 42.166 7 68.499s11 53.5 19 81.5c10.667 38 23.5 74.167 38.5 108.5s30.5 59.833 46.5 76.5c2 2 3.83301 3.66699 5.5 5s3.5 2.66602 5.5 3.99902c25.333 18 46.166 31.667 62.499 41s31.5 15.666 45.5 18.999
c7.33301 2 14.5 3.33301 21.5 4s14.5 1 22.5 1c14.667 0 28.667 -1.83301 42 -5.5s26.333 -8.16699 39 -13.5l33 19l10 -9v0zM235.001 433.004c-28.667 -0.666992 -49.668 -7.83398 -63.001 -21.501s-25 -32.834 -35 -57.501c-1.33301 -2.66699 -2.5 -5.5 -3.5 -8.5
s-2.16699 -5.83301 -3.5 -8.5c-2.66699 -6 -5.16699 -12.667 -7.5 -20s-4.83301 -14.666 -7.5 -21.999l-12 -39c-4 -13.333 -7.66699 -27 -11 -41c-4.66699 -19.333 -8.5 -38.666 -11.5 -57.999s-4.5 -36.666 -4.5 -51.999c0 -16.667 1.33301 -28.667 4 -36
s7.66699 -11 15 -11c8.66699 0 18.5 3.66699 29.5 11s22.167 16.666 33.5 27.999c6.66699 6 13 12.167 19 18.5s12 13.166 18 20.499c6 6.66699 11.5 13.334 16.5 20.001l14.5 19c18 24 34.833 53 50.5 87s29.834 84.333 42.501 151c-16.667 6 -31.667 10.667 -45 14
s-26.333 5 -39 5v1z" />
    <glyph glyph-name="b" unicode="b" horiz-adv-x="463" 
d="M234 722l-85.0029 -392.004l2 -2c48 64.667 92.333 106.334 133 125.001s71.667 28 93 28c2 0 3.83301 -0.166992 5.5 -0.5s3.5 -0.5 5.5 -0.5c4.66699 -0.666992 9.16699 -2.16699 13.5 -4.5s7.83301 -5.16602 10.5 -8.49902c5.33301 -6.66699 9.33301 -15 12 -25
s4.66699 -20.333 6 -31c1.33301 -8 2.16602 -16 2.49902 -24s0.5 -15 0.5 -21c0 -16 -1.16699 -32.667 -3.5 -50s-6.16602 -34.666 -11.499 -51.999c-12 -44.667 -30.667 -87.5 -56 -128.5s-55.666 -73.5 -90.999 -97.5c-1.33301 -0.666992 -2.66602 -1.5 -3.99902 -2.5
s-2.66602 -1.83301 -3.99902 -2.5c-10.667 -7.33301 -22.5 -14.166 -35.5 -20.499s-26.167 -11.5 -39.5 -15.5c-8 -2.66699 -16 -4.66699 -24 -6s-15.667 -2 -23 -2c-4.66699 0 -9.33398 0.333008 -14.001 1l-14 2c-19.333 4 -37 11.667 -53 23s-24 26.333 -24 45v2.5v2.5
c0 0.666992 0.166992 1.5 0.5 2.5s0.5 1.83301 0.5 2.5l101 552c1.33301 4.66699 2 9.16699 2 13.5v10.5c0 10 -3.33301 16.333 -10 19s-14.667 4 -24 4l-48 1l4 21c12.667 0.666992 25.834 2 39.501 4s27.5 4.33301 41.5 7c10.667 2.66699 20.834 5.66699 30.501 9
s19.5 7.33301 29.5 12l9 4.5c3.33301 1.66699 6.66602 3.16699 9.99902 4.5l12 -10v0zM321.997 423.996c-8 -0.666992 -17.6689 -2.99512 -29.002 -6.99512s-23 -9.66699 -35 -17c-9.33301 -5.33301 -18.333 -11.333 -27 -18s-16.667 -14 -24 -22
c-6 -6 -11.5 -12.333 -16.5 -19s-9.5 -13 -13.5 -19c-16.667 -24.667 -28.667 -48.834 -36 -72.501s-13 -43.5 -17 -59.5c-0.666992 -1.33301 -1.16699 -2.83301 -1.5 -4.5s-0.5 -3.16699 -0.5 -4.5c-2 -9.33301 -4 -19.166 -6 -29.499s-3.33301 -20.833 -4 -31.5
c-0.666992 -3.33301 -1 -6.83301 -1 -10.5v-10.5c0 -22.667 6.83301 -39 20.5 -49s31.167 -15 52.5 -15c34 0 61.5 12.167 82.5 36.5s37.833 51.166 50.5 80.499c0.666992 1.33301 1.16699 2.66602 1.5 3.99902s0.833008 2.66602 1.5 3.99902
c6.66699 17.333 13 35.666 19 54.999s11 39 15 59c2 12 3.66699 24.167 5 36.5s2 24.166 2 35.499v13c0 4.66699 -0.333008 9.66699 -1 15c-1.33301 12 -4.66602 23.167 -9.99902 33.5s-14.666 15.5 -27.999 15.5v1z" />
    <glyph glyph-name="c" unicode="c" horiz-adv-x="407" 
d="M342 330l0.00390625 59.9971c0 6.66699 -2.33301 12.334 -7 17.001s-10.667 9 -18 13c-4.66699 2.66699 -10.5 5 -17.5 7s-14.5 3.33301 -22.5 4c-2 0.666992 -4.16699 1 -6.5 1h-6.5h-8h-8c-6.66699 -0.666992 -13.334 -1.83398 -20.001 -3.50098s-14 -4.16699 -22 -7.5
c-25.333 -11.333 -45.333 -31.666 -60 -60.999s-25.667 -60.666 -33 -93.999c-4 -19.333 -7 -38.333 -9 -57s-3 -35.667 -3 -51c0 -30.667 5.66699 -58.167 17 -82.5s35.333 -36.5 72 -36.5c9.33301 0 19.166 1.5 29.499 4.5s20.5 7.16699 30.5 12.5
c8 3.33301 15.833 7.33301 23.5 12s15.167 9 22.5 13c6.66699 4 12.834 8 18.501 12s11.167 7.66699 16.5 11l15 11l8 -20l-50 -41c-20.667 -17.333 -43.834 -32.5 -69.501 -45.5s-54.5 -19.5 -86.5 -19.5c-46 0 -78 14.167 -96 42.5s-27 62.833 -27 103.5
c0 8 0.166992 16.167 0.5 24.5s1.16602 16.5 2.49902 24.5c5.33301 46.667 17.333 91 36 133s41.667 72 69 90c32 20.667 57.5 36.5 76.5 47.5s36.5 18.5 52.5 22.5c5.33301 1.33301 10.666 2.33301 15.999 3s10.666 1 15.999 1c6 0 13.333 -0.5 22 -1.5
s17.667 -2.5 27 -4.5c8.66699 -2 17 -4.5 25 -7.5s15 -6.5 21 -10.5c-4 -10 -7.33301 -21.833 -10 -35.5s-5 -27.5 -7 -41.5c-1.33301 -9.33301 -2.66602 -18.166 -3.99902 -26.499s-2.33301 -16.5 -3 -24.5l-23 1v0z" />
    <glyph glyph-name="d" unicode="d" horiz-adv-x="500" 
d="M483 722l-125.002 -587c0 -2 -0.333008 -3.83301 -1 -5.5s-1 -3.5 -1 -5.5c-2 -8 -3.66699 -15.833 -5 -23.5s-2 -14.5 -2 -20.5v-3.5c0 -1 0.333008 -2.16699 1 -3.5c0.666992 -3.33301 2 -6.66602 4 -9.99902s5.33301 -5 10 -5c4 0 9.5 1.66699 16.5 5
s14.167 7.33301 21.5 12l44 32l10 -19l-81 -60c-14 -11.333 -27.5 -20.333 -40.5 -27s-23.5 -10 -31.5 -10c-10 0 -17.333 2.5 -22 7.5s-7 13.167 -7 24.5c0 6 0.166992 11.833 0.5 17.5s0.833008 11.167 1.5 16.5c2 11.333 4.16699 22.833 6.5 34.5
s4.83301 22.834 7.5 33.501l20 81l-4 1c-14.667 -24 -29.834 -46.5 -45.501 -67.5s-31.5 -39.833 -47.5 -56.5c-27.333 -29.333 -54.166 -52.333 -80.499 -69s-50.166 -25 -71.499 -25c-15.333 0 -26 7.16699 -32 21.5s-9.66699 30.5 -11 48.5c-0.666992 6 -1 12 -1 18v17
c0 15.333 1.83301 39.166 5.5 71.499s11.167 66.166 22.5 101.499c9.33301 28 22 55.333 38 82s36 49 60 67l41.5 31c11.667 8.66699 23.167 15.667 34.5 21c8.66699 4 17.667 7.16699 27 9.5s20 3.5 32 3.5c5.33301 0 11 -0.333008 17 -1l18 -2
c8.66699 -1.33301 17 -3 25 -5s15 -4 21 -6l28 155c1.33301 4.66699 2 9.16699 2 13.5v10.5c0 10 -3.33301 16.333 -10 19s-14.667 4 -24 4l-48 1l4 21c12.667 0.666992 25.834 2 39.501 4s27.5 4.33301 41.5 7c10.667 2.66699 20.834 5.66699 30.501 9
s19.5 7.33301 29.5 12l9 4.5c3.33301 1.66699 6.66602 3.16699 9.99902 4.5l12 -10v0zM242.998 433l-21 -1.99902c-7.33301 -0.666992 -15 -2.66699 -23 -6c-2.66699 -0.666992 -5.16699 -1.66699 -7.5 -3s-4.83301 -3 -7.5 -5c-17.333 -12 -33 -35.833 -47 -71.5
s-25 -73.834 -33 -114.501c-4.66699 -23.333 -8.33398 -46 -11.001 -68s-4 -42 -4 -60v-1.5v-1.5c0 -10.667 1.33301 -20.334 4 -29.001s10.334 -13 23.001 -13c6 0 16 3.66699 30 11s28.667 17.333 44 30c3.33301 2.66699 6.5 5.33398 9.5 8.00098
s5.83301 5.33398 8.5 8.00098c24 22.667 45.333 48.667 64 78s34 59.333 46 90c4 11.333 7.66699 22.666 11 33.999s6 22.333 8 33l12 60c-16 8.66699 -33 14.5 -51 17.5s-36.333 4.5 -55 4.5v1z" />
    <glyph glyph-name="e" unicode="e" horiz-adv-x="389" 
d="M181 234l-82 -19.9971c-2.66699 -16 -4.66699 -31 -6 -45s-2 -27.333 -2 -40c0 -26.667 6.33301 -49 19 -67s33 -27 61 -27c8.66699 0 17.834 1.33301 27.501 4s19.5 6 29.5 10c8.66699 4 17.167 8.33301 25.5 13l24.5 14c4.66699 2.66699 9.16699 5.5 13.5 8.5l12.5 8.5
l24 18l8 -19c-4.66699 -4.66699 -9.66699 -9.16699 -15 -13.5l-17 -13.5c-14 -10.667 -28.833 -21 -44.5 -31s-31.5 -18.667 -47.5 -26c-12.667 -5.33301 -25.334 -9.83301 -38.001 -13.5s-25 -5.5 -37 -5.5c-41.333 0 -72 11 -92 33s-30 53.333 -30 94c0 11.333 1 24 3 38
s4.33301 28 7 42c2 10.667 4.33301 21.167 7 31.5s5.33398 20.166 8.00098 29.499c0.666992 4 1.5 7.83301 2.5 11.5s2.16699 7.16699 3.5 10.5c7.33301 23.333 16.833 45.666 28.5 66.999s27.167 39.333 46.5 54l16.5 12.5c5.66699 4.33301 11.5 8.5 17.5 12.5
c12.667 8.66699 26 17.167 40 25.5s28 15.166 42 20.499c8.66699 3.33301 17.167 5.83301 25.5 7.5s16.5 2.5 24.5 2.5c23.333 0 43.666 -6.33301 60.999 -19s26 -31.667 26 -57c0 -38.667 -12.667 -69.334 -38 -92.001s-54 -41 -86 -55
c-11.333 -4.66699 -22.833 -9.16699 -34.5 -13.5s-23.167 -8.16602 -34.5 -11.499v1zM113 274.003l-9 -36.999c19.333 3.33301 38 7.83301 56 13.5s35.667 12.5 53 20.5c0.666992 0 1.16699 0.166992 1.5 0.5s0.833008 0.5 1.5 0.5
c20.667 10.667 39.834 26.334 57.501 47.001s26.5 43.334 26.5 68.001c0 16 -4.16699 28.667 -12.5 38s-21.166 14 -38.499 14c-2.66699 0 -5.83398 -0.333008 -9.50098 -1l-11.5 -2c-2.66699 -1.33301 -5.5 -2.33301 -8.5 -3s-5.5 -1.33398 -7.5 -2.00098
s-3.66699 -1.33398 -5 -2.00098l-4 -2c-18.667 -8.66699 -33.834 -22.334 -45.501 -41.001s-21.167 -38.334 -28.5 -59.001c-3.33301 -9.33301 -6.33301 -18.666 -9 -27.999s-5 -18 -7 -26v1z" />
    <glyph glyph-name="f" unicode="f" horiz-adv-x="278" 
d="M286 383l-103.997 0.00488281l-20 -93.5l-24 -114.5l-4 -18l-4 -18l-25 -107c-8 -33.333 -15 -60 -21 -80c-12.667 -40.667 -27.5 -75.334 -44.5 -104.001s-35.5 -52.334 -55.5 -71.001c-12 -10.667 -25.167 -20.5 -39.5 -29.5s-28.833 -15.5 -43.5 -19.5
c-4.66699 -1.33301 -9.16699 -2.33301 -13.5 -3s-8.83301 -1 -13.5 -1c-2 0 -4.33301 0.166992 -7 0.5s-5.33398 0.833008 -8.00098 1.5c-4 0.666992 -7.83301 1.5 -11.5 2.5s-6.5 2.16699 -8.5 3.5c1.33301 2 2.83301 5.83301 4.5 11.5l5.5 18.5
c0.666992 2 1.16699 3.66699 1.5 5s0.833008 3 1.5 5c2.66699 8.66699 5 17 7 25s3 13 3 15l13 4c6 -7.33301 12.833 -14 20.5 -20s17.167 -9 28.5 -9v0h1c7.33301 0 17 1.83301 29 5.5s24.333 16.167 37 37.5c3.33301 6 6.66602 12.833 9.99902 20.5
s6.66602 16.5 9.99902 26.5c5.33301 15.333 11.5 38.833 18.5 70.5l22.5 104.5l6 34c2 11.333 4.33301 23 7 35c11.333 60.667 21.166 117.167 29.499 169.5l14.5 91.5l-81 1l5 22c7.33301 2 14.5 4.33301 21.5 7s14.167 5.66699 21.5 9l21.5 10l21.5 10l15 80l2 8l2 8
c2 11.333 4.33301 21.333 7 30s5.66699 16.667 9 24c4.66699 10 9 17.667 13 23s8 10.333 12 15c2.66699 3.33301 9.66699 9.66602 21 18.999l38 30c2 1.33301 3.83301 2.66602 5.5 3.99902s3.5 2.66602 5.5 3.99902c11.333 8.66699 22.333 16.5 33 23.5
s19.334 12.167 26.001 15.5c1.33301 0.666992 2.83301 1.33398 4.5 2.00098s3.16699 1 4.5 1c4.66699 1.33301 9.16699 2.33301 13.5 3s8.5 1 12.5 1s9 -0.333008 15 -1l18 -2c7.33301 -1.33301 14.333 -2.83301 21 -4.5s12 -3.5 16 -5.5c-2 -4.66699 -4 -10.167 -6 -16.5
s-4.33301 -13.166 -7 -20.499c0 -0.666992 -0.166992 -1.5 -0.5 -2.5s-0.833008 -1.83301 -1.5 -2.5c-2.66699 -7.33301 -5 -14.5 -7 -21.5s-4 -13.167 -6 -18.5l-10 -3c-5.33301 8.66699 -13.5 16.5 -24.5 23.5s-22.5 11.5 -34.5 13.5c-2 0.666992 -4 1 -6 1h-6
c-16 0 -29.5 -4.16699 -40.5 -12.5s-20.167 -19.833 -27.5 -34.5c-2 -3.33301 -3.83301 -7.66602 -5.5 -12.999l-5.5 -18c-2 -6.66699 -4 -13.834 -6 -21.501s-4 -15.834 -6 -24.501l-21 -111c4 -0.666992 8.33301 -1 13 -1h13c9.33301 0 18.333 0.166992 27 0.5
s16 0.833008 22 1.5c5.33301 0.666992 10.5 1.66699 15.5 3s10.5 2.66602 16.5 3.99902l4 -6l-4 -10.5l-4 -11.5c-0.666992 -2.66699 -1.16699 -5 -1.5 -7s-0.833008 -4 -1.5 -6c-1.33301 -4 -2.5 -7.83301 -3.5 -11.5s-1.83301 -7.16699 -2.5 -10.5v1z" />
    <glyph glyph-name="g" unicode="g" horiz-adv-x="500" 
d="M145 -276c-9.33301 0 -19.0039 0.337891 -29.0039 1.00488s-20 2 -30 4c-30.667 5.33301 -58.667 16.5 -84 33.5s-38 42.833 -38 77.5c0 42 15 75.833 45 101.5s63 45.167 99 58.5c9.33301 4 18.333 7.33301 27 10l25 8c-0.666992 0.666992 -1.5 1.33398 -2.5 2.00098
s-2.16699 1.66699 -3.5 3c-3.33301 3.33301 -6.66602 7.5 -9.99902 12.5s-5 10.167 -5 15.5c0 7.33301 2.16699 14.5 6.5 21.5s9.16602 13.5 14.499 19.5l3 3l3 3l39 37l-2 2c-4 -1.33301 -7.83301 -2 -11.5 -2h-10.5c-35.333 0 -65.166 9.66699 -89.499 29
s-36.5 49.666 -36.5 90.999c0 36 7.16699 69 21.5 99s35.5 55 63.5 75c31.333 22 58 36.167 80 42.5s40 9.5 54 9.5c6.66699 0 15 -0.666992 25 -2s20 -3.33301 30 -6c13.333 -4.66699 25.833 -10.834 37.5 -18.501s20.5 -18.167 26.5 -31.5h4.5h4.5h24
c8 0 16 0.333008 24 1c7.33301 0.666992 14.666 1.66699 21.999 3s15 3 23 5l3 -5l-9 -45c-8 -1.33301 -16.167 -2.5 -24.5 -3.5s-16.833 -1.5 -25.5 -1.5h-8.5c-3 0 -5.83301 0.333008 -8.5 1c-2.66699 0 -5.5 0.166992 -8.5 0.5s-5.83301 0.5 -8.5 0.5
c1.33301 -6.66699 2.33301 -12.834 3 -18.501s1 -11.167 1 -16.5c0 -39.333 -9.66699 -72.5 -29 -99.5s-40.333 -48.5 -63 -64.5c-14.667 -10.667 -29 -18.834 -43 -24.501s-25.333 -9.16699 -34 -10.5c-1.33301 -2 -3.16602 -4.33301 -5.49902 -7s-4.5 -5.66699 -6.5 -9
c-1.33301 -1.33301 -2.66602 -3 -3.99902 -5l-4 -6c-2 -2.66699 -3.66699 -5.66699 -5 -9s-2 -6.33301 -2 -9c0 -12.667 4.66699 -24.334 14 -35.001s19.333 -20.334 30 -29.001c0.666992 0 1.16699 -0.166992 1.5 -0.5l1.5 -1.5l60 -48c16.667 -13.333 31.5 -29 44.5 -47
s19.5 -38 19.5 -60c0 -26.667 -9.33301 -50.5 -28 -71.5s-39.334 -37.167 -62.001 -48.5c-0.666992 0 -1.16699 -0.166992 -1.5 -0.5s-0.833008 -0.5 -1.5 -0.5c-14 -6 -28.667 -11.5 -44 -16.5s-30.666 -9.16699 -45.999 -12.5
c-9.33301 -1.33301 -18.666 -2.5 -27.999 -3.5s-18.666 -1.5 -27.999 -1.5v0zM252.996 -57.9951l-77.002 59.0029c-2 -0.666992 -4.16699 -1.33398 -6.5 -2.00098s-4.5 -1.33398 -6.5 -2.00098c-34 -10 -65.167 -26.5 -93.5 -49.5s-42.5 -54.167 -42.5 -93.5
c0 -30.667 11.167 -53.834 33.5 -69.501s46.833 -25.5 73.5 -29.5c6 -1.33301 11.833 -2.16602 17.5 -2.49902s11.5 -0.5 17.5 -0.5c8 0 17 0.666992 27 2s20 3.33301 30 6c23.333 6 44.5 16 63.5 30s28.5 32.667 28.5 56c0 20 -6 37.167 -18 51.5s-25 27.166 -39 38.499
c-1.33301 1.33301 -2.66602 2.5 -3.99902 3.5s-2.66602 1.83301 -3.99902 2.5v0zM247.994 448.008c-34 -0.666992 -62.834 -15.5 -86.501 -44.5s-35.5 -66.5 -35.5 -112.5c0 -36 6.66699 -65.667 20 -89s38.333 -35 75 -35c32.667 0 57.834 12.5 75.501 37.5
s29.5 52.5 35.5 82.5c2 8.66699 3.33301 17.167 4 25.5s1 16.5 1 24.5c0 35.333 -6.5 62.5 -19.5 81.5s-36.167 28.5 -69.5 28.5v1z" />
    <glyph glyph-name="h" unicode="h" horiz-adv-x="500" 
d="M236 722l-95.999 -446.997l4 -2c3.33301 3.33301 6.5 6.83301 9.5 10.5s5.83301 7.5 8.5 11.5l33.5 40.5c11 13 22.833 25.5 35.5 37.5l18 16c6 5.33301 12.333 10.666 19 15.999c28.667 22.667 56 41 82 55s46.333 21 61 21c12 0 20.167 -3.33301 24.5 -10
s6.83301 -14 7.5 -22v-1.5v-1.5c0 -12 -1 -24.167 -3 -36.5s-4.66699 -25.166 -8 -38.499l-64 -255c-2 -8 -3.66699 -15.333 -5 -22s-2 -13 -2 -19c0 -5.33301 1.33301 -10 4 -14s5.66699 -6 9 -6c4.66699 0 11.5 2.16699 20.5 6.5s18.5 9.5 28.5 15.5l6 4l6 4l26 18l10 -18
l-40 -31c-12.667 -9.33301 -25.334 -18 -38.001 -26l-15.5 -9.5l-15.5 -9.5c-0.666992 -0.666992 -1.33398 -1.16699 -2.00098 -1.5s-1.33398 -0.5 -2.00098 -0.5c-3.33301 -2 -6.83301 -3.83301 -10.5 -5.5s-7.16699 -3.16699 -10.5 -4.5c-4.66699 -2 -9 -3.5 -13 -4.5
s-8 -1.5 -12 -1.5c-10.667 0 -18.5 3.33301 -23.5 10s-7.5 16.334 -7.5 29.001c0 5.33301 0.333008 10.833 1 16.5l2 16.5l4 17.5l4 16.5c0 2 0.166992 3.66699 0.5 5s0.833008 2.66602 1.5 3.99902l51 197c5.33301 18.667 9.16602 36 11.499 52s3.5 28.333 3.5 37
c0 7.33301 -2.33301 12.666 -7 15.999s-9.66699 5 -15 5c-10.667 0 -24.667 -5.66699 -42 -17s-35.666 -26 -54.999 -44c-12.667 -12 -25 -25 -37 -39s-23.333 -28.333 -34 -43l-11.5 -17.5c-3.66699 -5.66699 -7.16699 -11.5 -10.5 -17.5c-8 -14 -15 -29 -21 -45
s-11 -32.333 -15 -49c-7.33301 -25.333 -12.833 -49.833 -16.5 -73.5l-9.5 -61.5l-69 -15l-7 11c5.33301 16 11.5 37 18.5 63s13.833 54 20.5 84l8 37l8 37c6.66699 29.333 12.834 58.166 18.501 86.499s10.5 54.166 14.5 77.499l42 235c1.33301 4.66699 2 9.16699 2 13.5
v10.5c0 10 -3.33301 16.333 -10 19s-14.667 4 -24 4l-48 1l4 21c12.667 0.666992 25.834 2 39.501 4s27.5 4.33301 41.5 7c10.667 2.66699 20.834 5.66699 30.501 9s19.5 7.33301 29.5 12l9 4.5c3.33301 1.66699 6.66602 3.16699 9.99902 4.5l12 -10v0z" />
    <glyph glyph-name="i" unicode="i" horiz-adv-x="278" 
d="M215 420l-76.9961 -304c-2 -8 -3.66699 -15.333 -5 -22s-2 -13 -2 -19c0 -5.33301 1.33301 -10 4 -14s5.66699 -6 9 -6c4.66699 0 11.5 2.16699 20.5 6.5s18.5 9.5 28.5 15.5l6 4l6 4l26 18l10 -18l-40 -31c-12.667 -9.33301 -25.334 -18 -38.001 -26l-15.5 -9.5
l-15.5 -9.5c-0.666992 -0.666992 -1.33398 -1.16699 -2.00098 -1.5s-1.33398 -0.5 -2.00098 -0.5c-3.33301 -2 -6.83301 -3.83301 -10.5 -5.5s-7.16699 -3.16699 -10.5 -4.5c-4.66699 -2 -9 -3.5 -13 -4.5s-8 -1.5 -12 -1.5c-10.667 0 -18.5 3.33301 -23.5 10
s-7.5 16.334 -7.5 29.001c0 5.33301 0.333008 10.833 1 16.5l2 16.5l4 17.5l4 16.5c0 2 0.166992 3.66699 0.5 5s0.833008 2.66602 1.5 3.99902l66 241c0.666992 1.33301 1.16699 3 1.5 5s0.833008 3.66699 1.5 5c1.33301 6.66699 2.5 13 3.5 19s1.5 10.667 1.5 14v2.5
c0 1 -0.333008 2.16699 -1 3.5c-0.666992 4 -2.33398 7.83301 -5.00098 11.5s-6.66699 5.5 -12 5.5s-12.166 -2.83301 -20.499 -8.5s-18.5 -12.167 -30.5 -19.5l-28 -17l-7 20l28 20c48.667 34 81.167 54.667 97.5 62s27.833 11 34.5 11
c9.33301 0 16.166 -2.16699 20.499 -6.5s6.5 -11.166 6.5 -20.499c0 -4.66699 -0.5 -9.83398 -1.5 -15.501s-2.5 -12.167 -4.5 -19.5v1zM210.004 604c-12.667 -0.666992 -22.5 2.83301 -29.5 10.5s-10.5 18.167 -10.5 31.5c0 2 0.166992 4 0.5 6s0.5 3.66699 0.5 5
c2.66699 14 9.5 26.5 20.5 37.5s23.167 16.5 36.5 16.5c10 0 18.5 -3.66699 25.5 -11s10.5 -16.333 10.5 -27c0 -20 -5 -36.667 -15 -50s-23 -20 -39 -20v1z" />
    <glyph glyph-name="j" unicode="j" horiz-adv-x="278" 
d="M-70 -269l8 56.999c6 -3.33301 12 -6.5 18 -9.5s12.333 -5.16699 19 -6.5c2.66699 -1.33301 5.5 -2.16602 8.5 -2.49902s6.16699 -0.5 9.5 -0.5c6.66699 0 13.167 5.33301 19.5 16s11.5 22.334 15.5 35.001c2 6.66699 3.83301 13.167 5.5 19.5l4.5 16.5l99 491
c0 0.666992 0.166992 1.5 0.5 2.5s0.5 2.16699 0.5 3.5c0.666992 1.33301 1.16699 2.5 1.5 3.5s0.5 2.16699 0.5 3.5c1.33301 5.33301 2.5 10.666 3.5 15.999s1.5 10 1.5 14v2.5c0 1 -0.333008 2.16699 -1 3.5c-0.666992 4 -2.33398 7.83301 -5.00098 11.5
s-6.66699 5.5 -12 5.5s-12.166 -2.83301 -20.499 -8.5s-18.5 -12.167 -30.5 -19.5l-28 -17l-7 20l28 20c48.667 34 81.167 54.667 97.5 62s27.833 11 34.5 11c9.33301 0 16.166 -2.16699 20.499 -6.5s6.5 -11.166 6.5 -20.499c0 -4.66699 -0.5 -9.83398 -1.5 -15.501
s-2.5 -12.167 -4.5 -19.5l-76 -349l-6 -29l-6 -28l-14 -55.5c-4.66699 -19 -9.66699 -37.5 -15 -55.5c-2.66699 -10 -6.5 -21.167 -11.5 -33.5s-10.5 -24.833 -16.5 -37.5c-13.333 -26.667 -29.166 -51.167 -47.499 -73.5s-36.833 -33.5 -55.5 -33.5
c-8 0 -15.833 0.333008 -23.5 1s-14.167 2.66699 -19.5 6h-1zM211 603.999c-12.667 -0.666992 -22.5 2.83301 -29.5 10.5s-10.5 18.167 -10.5 31.5c0 2 0.166992 4 0.5 6s0.5 3.66699 0.5 5c2.66699 14 9.5 26.5 20.5 37.5s23.167 16.5 36.5 16.5
c10 0 18.5 -3.66699 25.5 -11s10.5 -16.333 10.5 -27c0 -20 -5 -36.667 -15 -50s-23 -20 -39 -20v1z" />
    <glyph glyph-name="k" unicode="k" horiz-adv-x="444" 
d="M234 722l-106.004 -485.004l2 -2c5.33301 6.66699 10.833 14 16.5 22l17.5 24c14.667 20 30.334 40 47.001 60s33.334 38.333 50.001 55c24.667 24.667 48.834 45 72.501 61s45.167 24 64.5 24c5.33301 0 10.833 -0.333008 16.5 -1s11.5 -1.66699 17.5 -3
c2.66699 -0.666992 5.5 -1.33398 8.5 -2.00098s5.83301 -1.66699 8.5 -3l-17 -62c-6.66699 1.33301 -13.167 2.5 -19.5 3.5s-12.5 1.5 -18.5 1.5c-30 -0.666992 -57.667 -9.5 -83 -26.5s-48.333 -35.833 -69 -56.5l-1.5 -1.5l-1.5 -1.5l-14 -13l7.5 -23.5
c2.33301 -7.66699 4.5 -15.167 6.5 -22.5c11.333 -33.333 23.5 -66.666 36.5 -99.999s28.167 -65.333 45.5 -96l2 -4c0.666992 -1.33301 1.66699 -2.66602 3 -3.99902c2 -3.33301 4.66699 -6.66602 8 -9.99902s7.33301 -5 12 -5c4 0 7.5 0.5 10.5 1.5
s6.16699 2.16699 9.5 3.5c2 0.666992 3.83301 1.5 5.5 2.5s3.16699 1.83301 4.5 2.5l43 25l8 -19l-46 -32c-3.33301 -3.33301 -7.16602 -6.5 -11.499 -9.5s-9.16602 -6.16699 -14.499 -9.5c-2 -1.33301 -4 -2.5 -6 -3.5s-4 -2.16699 -6 -3.5
c-8 -5.33301 -15.833 -9.66602 -23.5 -12.999s-13.834 -5 -18.501 -5c-5.33301 0 -11 2.66699 -17 8s-12.667 14.333 -20 27c-4.66699 8 -11.334 22.5 -20.001 43.5l-27 68.5c-0.666992 2.66699 -1.5 5.5 -2.5 8.5s-2.16699 5.83301 -3.5 8.5l-21 56.5
c-6.66699 18.333 -12 33.833 -16 46.5c-16 -15.333 -30 -34.166 -42 -56.499s-20.333 -45.833 -25 -70.5l-23 -123l-67 -17l-9 10l36.5 146c11.667 46 22.167 91.333 31.5 136c2.66699 11.333 5.16699 22.833 7.5 34.5s4.5 23.5 6.5 35.5l48 269
c1.33301 4.66699 2 9.16699 2 13.5v10.5c0 10 -3.33301 16.333 -10 19s-14.667 4 -24 4l-48 1l4 21c12.667 0.666992 25.834 2 39.501 4s27.5 4.33301 41.5 7c10.667 2.66699 20.834 5.66699 30.501 9s19.5 7.33301 29.5 12l9 4.5
c3.33301 1.66699 6.66602 3.16699 9.99902 4.5l12 -10v0z" />
    <glyph glyph-name="l" unicode="l" horiz-adv-x="278" 
d="M251 722l-127.997 -606.002c0 -2 -0.166992 -3.83301 -0.5 -5.5s-0.833008 -3.16699 -1.5 -4.5c-1.33301 -5.33301 -2.5 -10.666 -3.5 -15.999s-1.5 -10.333 -1.5 -15c0 -5.33301 1.33301 -10 4 -14s5.66699 -6 9 -6c4.66699 0 11.5 2.16699 20.5 6.5s18.5 9.5 28.5 15.5
l6 4l6 4l26 18l10 -18l-40 -31c-12.667 -9.33301 -25.334 -18 -38.001 -26l-15.5 -9.5l-15.5 -9.5c-0.666992 -0.666992 -1.33398 -1.16699 -2.00098 -1.5s-1.33398 -0.5 -2.00098 -0.5c-3.33301 -2 -6.83301 -3.83301 -10.5 -5.5s-7.16699 -3.16699 -10.5 -4.5
c-4.66699 -2 -9 -3.5 -13 -4.5s-8 -1.5 -12 -1.5c-10.667 0 -18.5 3.33301 -23.5 10s-7.5 16.334 -7.5 29.001c0 12 2.16699 28.167 6.5 48.5s13.166 55.166 26.499 104.499c4.66699 17.333 10.167 40.833 16.5 70.5l19.5 95.5c2 6.66699 3.66699 13.667 5 21l4 22
c10 50 18.833 96.833 26.5 140.5s12.167 73.167 13.5 88.5c0 2 0.166992 3.66699 0.5 5s0.5 3 0.5 5c0.666992 2.66699 1.16699 5.33398 1.5 8.00098s0.5 5 0.5 7c0 10 -3.33301 16.333 -10 19s-14.667 4 -24 4l-48 1l4 21c12.667 0.666992 25.834 2 39.501 4
s27.5 4.33301 41.5 7c10.667 2.66699 20.834 5.66699 30.501 9s19.5 7.33301 29.5 12l9 4.5c3.33301 1.66699 6.66602 3.16699 9.99902 4.5l12 -10v0z" />
    <glyph glyph-name="m" unicode="m" horiz-adv-x="778" 
d="M387 113l-20.998 -107.003l-69 -15l-5 11c3.33301 12 6.5 24.5 9.5 37.5s5.83301 26.167 8.5 39.5c3.33301 12.667 6.33301 25.167 9 37.5s5.66699 24.833 9 37.5l20 95.5c6.66699 31.667 12.667 62.167 18 91.5c1.33301 8.66699 2.5 17.167 3.5 25.5
s1.5 15.833 1.5 22.5c0 7.33301 -0.666992 13.166 -2 17.499s-4 6.5 -8 6.5c-6 0 -12.167 -1 -18.5 -3s-12.833 -5 -19.5 -9c-8 -4 -15.833 -9 -23.5 -15l-22.5 -18c-6 -5.33301 -11.833 -10.833 -17.5 -16.5l-14.5 -14.5c-31.333 -32.667 -54.5 -68.334 -69.5 -107.001
s-27.167 -79.667 -36.5 -123l-22 -101l-68 -15l-3 11c5.33301 17.333 10.333 35 15 53l14 54l19.5 85.5c6.33301 28.333 12.166 55.833 17.499 82.5c4.66699 22 8.5 43 11.5 63s4.5 36.667 4.5 50v2.5c0 1 -0.333008 2.16699 -1 3.5
c-0.666992 4 -2.33398 7.83301 -5.00098 11.5s-6.66699 5.5 -12 5.5s-12.166 -2.83301 -20.499 -8.5s-18.5 -12.167 -30.5 -19.5l-28 -17l-7 20l28 20c48.667 34 81.167 54.667 97.5 62s27.833 11 34.5 11c8.66699 0 14.834 -2.83301 18.501 -8.5s5.5 -14.167 5.5 -25.5
c0 -5.33301 -0.5 -11.333 -1.5 -18s-2.5 -14 -4.5 -22l-31 -125l2 -2l24 30.5l22 28.5c10.667 13.333 21.667 25.833 33 37.5s24.333 23.5 39 35.5c4.66699 4 9.66699 7.83301 15 11.5l17 11.5c3.33301 2.66699 7.16602 5.33398 11.499 8.00098l12.5 8l20 10.5
c6.66699 3.66699 13.334 6.83398 20.001 9.50098c7.33301 3.33301 14.5 5.83301 21.5 7.5s13.5 2.5 19.5 2.5c10.667 0 17.834 -3.16699 21.501 -9.5s5.5 -13.833 5.5 -22.5v-3.5v-2.5l-2 -11.5l-2 -10.5c-0.666992 -2 -1.16699 -4.16699 -1.5 -6.5
s-0.833008 -4.5 -1.5 -6.5l-29 -129l2 -2c13.333 18.667 27.333 36.167 42 52.5s29.334 31.166 44.001 44.499c14 12.667 27.667 24 41 34s26.333 19 39 27c3.33301 2.66699 7.16602 5.33398 11.499 8.00098l12.5 8l20 10.5c6.66699 3.66699 13.334 6.83398 20.001 9.50098
c7.33301 3.33301 14.5 5.83301 21.5 7.5s13.5 2.5 19.5 2.5c10.667 0 17.834 -3 21.501 -9s5.5 -13 5.5 -21v-3.5v-3.5l-2 -10c-0.666992 -3.33301 -1.33398 -6.33301 -2.00098 -9s-1.16699 -5 -1.5 -7s-0.833008 -4 -1.5 -6l-75 -296c-2 -8 -3.66699 -15.333 -5 -22
s-2 -13 -2 -19c0 -5.33301 1.33301 -10 4 -14s5.66699 -6 9 -6c4.66699 0 11.5 2.16699 20.5 6.5s18.5 9.5 28.5 15.5l6 4l6 4l26 18l10 -18l-40 -31c-12.667 -9.33301 -25.334 -18 -38.001 -26l-15.5 -9.5l-15.5 -9.5c-0.666992 -0.666992 -1.33398 -1.16699 -2.00098 -1.5
s-1.33398 -0.5 -2.00098 -0.5c-3.33301 -2 -6.83301 -3.83301 -10.5 -5.5s-7.16699 -3.16699 -10.5 -4.5c-4.66699 -2 -9 -3.5 -13 -4.5s-8 -1.5 -12 -1.5c-10.667 0 -18.5 3.33301 -23.5 10s-7.5 16.334 -7.5 29.001c0 4.66699 0.166992 9.83398 0.5 15.501
s1.16602 11.167 2.49902 16.5c1.33301 8 2.83301 15.833 4.5 23.5s3.5 14.5 5.5 20.5l13 44.5l16 57.5c0.666992 2.66699 1.16699 5.16699 1.5 7.5s0.833008 4.83301 1.5 7.5c6.66699 23.333 12.667 45.666 18 66.999s9.33301 38.333 12 51
c0.666992 3.33301 1.33398 6.5 2.00098 9.5s1 6.16699 1 9.5c1.33301 4.66699 2.16602 9.33398 2.49902 14.001s0.5 9 0.5 13c0 7.33301 -0.833008 13.5 -2.5 18.5s-4.5 7.5 -8.5 7.5c-6.66699 0 -13.334 -1 -20.001 -3s-13 -4.66699 -19 -8
c-13.333 -6.66699 -26.5 -15.667 -39.5 -27l-41.5 -38c-7.33301 -6.66699 -15.166 -14.834 -23.499 -24.501s-16.833 -21.167 -25.5 -34.5c-12 -19.333 -23.833 -42.666 -35.5 -69.999s-21.167 -59.333 -28.5 -96v1z" />
    <glyph glyph-name="n" unicode="n" horiz-adv-x="556" 
d="M202 408l-35.999 -152.999h4l16.5 22l16.5 22c16 21.333 32.333 41.166 49 59.499s33.667 34.5 51 48.5c1.33301 1.33301 2.5 2.33301 3.5 3s2.16699 1.66699 3.5 3c27.333 21.333 53.5 38 78.5 50s45.833 18 62.5 18c12 0 20.167 -3.33301 24.5 -10s6.83301 -14 7.5 -22
v-1.5v-1.5c0 -12 -1 -24.167 -3 -36.5s-4.66699 -25.166 -8 -38.499l-61 -255c-2 -8 -3.66699 -15.333 -5 -22s-2 -13 -2 -19c0 -5.33301 1.33301 -10 4 -14s5.66699 -6 9 -6c4.66699 0 11.5 2.16699 20.5 6.5s18.5 9.5 28.5 15.5l6 4l6 4l26 18l10 -18l-40 -31
c-12.667 -9.33301 -25.334 -18 -38.001 -26l-15.5 -9.5l-15.5 -9.5c-0.666992 -0.666992 -1.33398 -1.16699 -2.00098 -1.5s-1.33398 -0.5 -2.00098 -0.5c-3.33301 -2 -6.83301 -3.83301 -10.5 -5.5s-7.16699 -3.16699 -10.5 -4.5c-4.66699 -2 -9 -3.5 -13 -4.5
s-8 -1.5 -12 -1.5c-10.667 0 -18.5 3.33301 -23.5 10s-7.5 16.334 -7.5 29.001c0 5.33301 0.333008 10.833 1 16.5s1.66699 11.167 3 16.5l2 12c0.666992 4 1.33398 7.66699 2.00098 11c1.33301 4 2.33301 7.66699 3 11s1.33398 6.33301 2.00098 9l52 213
c3.33301 12.667 6 25 8 37s3 23.333 3 34c0 6 -1.16699 11.333 -3.5 16s-6.83301 7 -13.5 7c-10 0 -20.833 -2.83301 -32.5 -8.5s-23.834 -12.834 -36.501 -21.501l-14 -10.5l-14 -11.5c-14 -12.667 -27.667 -27.334 -41 -44.001s-25.666 -33.334 -36.999 -50.001l-15.5 -26
c-5 -8.66699 -9.5 -17 -13.5 -25c-8 -16 -15 -33.167 -21 -51.5s-11.333 -36.833 -16 -55.5c-4 -18 -7.66699 -35.667 -11 -53s-6 -33.666 -8 -48.999c-11.333 -2 -22.833 -4.33301 -34.5 -7s-23.5 -5.66699 -35.5 -9l-7 11c5.33301 17.333 10.333 35 15 53l14 54l19.5 85.5
c6.33301 28.333 12.166 55.833 17.499 82.5c4.66699 22 8.5 43 11.5 63s4.5 36.667 4.5 50v2.5c0 1 -0.333008 2.16699 -1 3.5c-0.666992 4 -2.33398 7.83301 -5.00098 11.5s-6.66699 5.5 -12 5.5s-12.166 -2.83301 -20.499 -8.5s-18.5 -12.167 -30.5 -19.5l-28 -17l-7 20
l28 20c48.667 34 81.167 54.667 97.5 62s27.833 11 34.5 11c8.66699 0 14.834 -2.83301 18.501 -8.5s5.5 -14.167 5.5 -25.5c0 -5.33301 -0.5 -11.333 -1.5 -18s-2.5 -14 -4.5 -22v1z" />
    <glyph glyph-name="o" unicode="o" horiz-adv-x="444" 
d="M148 -11c-49.333 0 -83.501 15.668 -102.501 47.001s-28.5 68.666 -28.5 111.999c0 67.333 13.167 128 39.5 182s66.5 95 120.5 123l4 2l4 2c14.667 7.33301 29.334 13.166 44.001 17.499s31 6.5 49 6.5c47.333 0 81.333 -14.833 102 -44.5s31 -66.167 31 -109.5
c0 -13.333 -0.833008 -27.166 -2.5 -41.499s-4.16699 -28.833 -7.5 -43.5c-6.66699 -30 -16.5 -59.167 -29.5 -87.5s-28.167 -53.5 -45.5 -75.5c-16 -20 -36.5 -38 -61.5 -54s-50.833 -26.667 -77.5 -32c-6.66699 -1.33301 -13.167 -2.33301 -19.5 -3s-12.833 -1 -19.5 -1v0
zM186.999 27.001c15.333 -0.666992 29.1689 1.83496 41.502 7.50195s22.833 13.834 31.5 24.501c15.333 17.333 28.166 39.166 38.499 65.499s18.5 53.5 24.5 81.5c4 19.333 7 38.333 9 57s3 36 3 52v7.5v7.5c-2 28 -9.33301 53.833 -22 77.5s-36.334 35.5 -71.001 35.5
h-8.5c-3 0 -6.16699 -0.333008 -9.5 -1c-8 -0.666992 -15.667 -2.33398 -23 -5.00098s-14 -6.33398 -20 -11.001c-17.333 -14 -32 -34.667 -44 -62s-21.333 -56 -28 -86c-5.33301 -23.333 -9.33301 -45.833 -12 -67.5s-4 -40.5 -4 -56.5c0 -32 6.33301 -61.333 19 -88
s37.667 -40 75 -40v1z" />
    <glyph glyph-name="p" unicode="p" horiz-adv-x="500" 
d="M115 3l-42.002 -262.001c-6 -1.33301 -12 -2.5 -18 -3.5s-12 -2.16699 -18 -3.5c-6.66699 -1.33301 -13 -2.83301 -19 -4.5s-12 -3.5 -18 -5.5l-7 6c4.66699 17.333 10.334 42.166 17.001 74.499l22 106.5c3.33301 16 6.5 32 9.5 48s5.83301 32 8.5 48l46 271
c4 21.333 7.66699 42 11 62s5 36.667 5 50v1.5v1.5c-0.666992 4 -2.33398 8 -5.00098 12s-7 6 -13 6c-5.33301 0 -12.166 -2.5 -20.499 -7.5l-30.5 -18.5l-28 -17l-7 20l28 20c48.667 34 81.167 54.667 97.5 62s27.833 11 34.5 11c8 0 13.833 -2.83301 17.5 -8.5
s5.5 -13.834 5.5 -24.501c0 -5.33301 -0.5 -11.5 -1.5 -18.5s-2.16699 -14.5 -3.5 -22.5l-22 -111l2 -2c4.66699 8.66699 10.334 18 17.001 28s14.334 20.333 23.001 31c18.667 22.667 40.167 44.5 64.5 65.5s49.5 37.167 75.5 48.5c10 4 20.167 7.33301 30.5 10
s20.5 4 30.5 4c17.333 0 30 -7.5 38 -22.5s13.333 -31.167 16 -48.5c2 -10 3.16699 -19.5 3.5 -28.5s0.5 -16.833 0.5 -23.5c0 -14.667 -1.66699 -31.167 -5 -49.5s-7.66602 -37.166 -12.999 -56.499c-7.33301 -24 -16 -47.333 -26 -70s-20.333 -42 -31 -58
c-14 -20.667 -31.5 -39.5 -52.5 -56.5s-42.5 -31.5 -64.5 -43.5l-14 -8c-4.66699 -2.66699 -9.33398 -5 -14.001 -7c-10.667 -5.33301 -21.834 -10 -33.501 -14s-23.834 -6 -36.501 -6c-4 0 -8.66699 0.5 -14 1.5s-10.666 2.16699 -15.999 3.5l-6 2l-6 2
c-3.33301 0.666992 -6.5 1.33398 -9.5 2.00098s-5.83301 1.33398 -8.5 2.00098v1zM142.998 164.999l-17.998 -106.001c9.33301 -7.33301 19.333 -12.666 30 -15.999s21.667 -5.66602 33 -6.99902c4 0 7.83301 -0.166992 11.5 -0.5s7.16699 -0.5 10.5 -0.5
c17.333 0 34.166 3.66699 50.499 11s29.5 18.333 39.5 33c15.333 22.667 29.666 48.5 42.999 77.5s24.333 58.833 33 89.5c5.33301 18.667 9.5 37.334 12.5 56.001s4.5 36.667 4.5 54c0 4 -0.166992 8.33301 -0.5 13s-0.833008 9.66699 -1.5 15
c-2 9.33301 -5.33301 18.166 -10 26.499s-12 12.5 -22 12.5c-6 0 -11.833 -0.333008 -17.5 -1s-10.834 -1.66699 -15.501 -3c-4 -1.33301 -7.66699 -2.83301 -11 -4.5l-11 -5.5c-34 -19.333 -63.833 -46.666 -89.5 -81.999s-44.834 -72.333 -57.501 -111
c-3.33301 -8.66699 -6.16602 -17.334 -8.49902 -26.001s-4.16602 -17.334 -5.49902 -26.001v1z" />
    <glyph glyph-name="q" unicode="q" horiz-adv-x="463" 
d="M385 458l32.9941 22l14 -6c-3.33301 -11.333 -6.66602 -23.5 -9.99902 -36.5s-6.33301 -26.167 -9 -39.5l-4 -22l-4 -21l-74 -393c-2.66699 -14.667 -5.5 -29.334 -8.5 -44.001s-5.5 -29.334 -7.5 -44.001c-3.33301 -22 -6.33301 -44 -9 -66s-4.66699 -44.333 -6 -67
c-7.33301 -1.33301 -14.5 -2.5 -21.5 -3.5s-14.167 -2.16699 -21.5 -3.5c-7.33301 -2 -14.5 -3.66699 -21.5 -5s-14.167 -3 -21.5 -5l-9 14c4 4 7.5 8.33301 10.5 13s5.5 9.33398 7.5 14.001l5.5 16.5c1.66699 5 2.83398 9.5 3.50098 13.5l75 407l-2 2
c-6 -12 -13.833 -24.833 -23.5 -38.5s-20.5 -27.167 -32.5 -40.5c-12.667 -15.333 -26.5 -30.333 -41.5 -45s-30.167 -28 -45.5 -40l-10.5 -8l-10.5 -8l-6 -4l-6 -4c-9.33301 -7.33301 -19.666 -13.666 -30.999 -18.999s-24.666 -8 -39.999 -8c-10 0 -17.5 5.5 -22.5 16.5
s-8.16699 23.167 -9.5 36.5c-0.666992 6.66699 -1.16699 13.167 -1.5 19.5s-0.5 11.833 -0.5 16.5c0 28 2.16699 55.667 6.5 83s9.83301 53.333 16.5 78c2.66699 9.33301 5 18 7 26s4.33301 15.667 7 23c6 20 12.667 37.167 20 51.5s17 27.833 29 40.5
c7.33301 8 16.166 16.333 26.499 25l35.5 29c0.666992 0.666992 1.33398 1.16699 2.00098 1.5s1.33398 0.833008 2.00098 1.5c14.667 10.667 31 20.667 49 30s36.333 14 55 14c12 0 23.167 -0.833008 33.5 -2.5s20.5 -3.83398 30.5 -6.50098
c6.66699 -2 13.334 -4.16699 20.001 -6.5s13.667 -5.16602 21 -8.49902v1zM329.994 311l20.9971 94.9971l-37 14.5c-11.333 4.33301 -22.333 7.5 -33 9.5c-4 0.666992 -8.16699 1.16699 -12.5 1.5s-8.5 0.5 -12.5 0.5c-4.66699 0 -9.66699 -0.166992 -15 -0.5
s-10.666 -1.16602 -15.999 -2.49902c-8.66699 -1.33301 -17 -3.66602 -25 -6.99902s-14.333 -8 -19 -14c-13.333 -17.333 -25.666 -40 -36.999 -68s-20.666 -57.333 -27.999 -88c-6.66699 -25.333 -11.667 -50 -15 -74s-5 -45 -5 -63c0 -2.66699 0.166992 -6.5 0.5 -11.5
s0.833008 -9.83301 1.5 -14.5c0.666992 -8 2.66699 -15.167 6 -21.5s8 -9.5 14 -9.5c4.66699 0 9.33398 0.666992 14.001 2s9.33398 3.33301 14.001 6c5.33301 2.66699 10.5 5.66699 15.5 9s9.83301 7 14.5 11c4 2.66699 7.66699 5.5 11 8.5s6.33301 5.83301 9 8.5
c3.33301 3.33301 6.66602 6.5 9.99902 9.5s6.66602 6.16699 9.99902 9.5c12.667 12.667 24.834 25.667 36.501 39s22.167 27.333 31.5 42l14.5 24c4.33301 7.33301 8.16602 14.666 11.499 21.999c4 8.66699 7.66699 17.834 11 27.501s6.33301 20.834 9 33.501v1z" />
    <glyph glyph-name="r" unicode="r" horiz-adv-x="389" 
d="M368 365l-14.001 0.00195312c-4.66699 6 -9.83398 10.5 -15.501 13.5s-12.834 4.5 -21.501 4.5c-2 0 -3.83301 -0.166992 -5.5 -0.5s-3.5 -0.833008 -5.5 -1.5c-8.66699 -2.66699 -17.167 -7.5 -25.5 -14.5s-16.166 -14.5 -23.499 -22.5l-12 -14l-10 -12
c-22.667 -28.667 -40.667 -59.167 -54 -91.5s-23.666 -66.166 -30.999 -101.499l-26 -119c-10.667 -2.66699 -21.667 -5 -33 -7s-22.666 -4.66699 -33.999 -8l-10 7c5.33301 16 10.5 33 15.5 51s9.83301 36.333 14.5 55c10 39.333 18.667 77.833 26 115.5
s13.333 69.834 18 96.501c3.33301 21.333 5.66602 37.666 6.99902 48.999s2 19.666 2 24.999v1.5v1.5c-0.666992 4 -2.33398 8 -5.00098 12s-7 6 -13 6c-5.33301 0 -12.166 -2.5 -20.499 -7.5l-30.5 -18.5l-28 -17l-7 20l28 20c48.667 34 81.167 54.667 97.5 62
s27.833 11 34.5 11c8.66699 0 14.834 -2.83301 18.501 -8.5s5.5 -14.167 5.5 -25.5c0 -5.33301 -0.5 -11.333 -1.5 -18s-2.5 -14 -4.5 -22l-6 -25.5l-6 -24.5l-4 -20.5l-4 -21.5c-2 -8 -3.66699 -16 -5 -24s-3 -16.667 -5 -26l2 -1l7 13.5l8 14.5
c4 7.33301 8.16699 14.5 12.5 21.5l13.5 21.5c6 8 11.667 16 17 24l15 22l12.5 17.5l13.5 19.5c11.333 16 24.5 30.5 39.5 43.5s31.5 19.5 49.5 19.5c2 0 3.83301 -0.166992 5.5 -0.5s3.16699 -0.833008 4.5 -1.5s2.83301 -1.33398 4.5 -2.00098s3.5 -1.33398 5.5 -2.00098
c-3.33301 -16.667 -6.5 -34.5 -9.5 -53.5s-5.16699 -38.167 -6.5 -57.5v1z" />
    <glyph glyph-name="s" unicode="s" horiz-adv-x="389" 
d="M31 148l25.001 0.00292969v-84c8 -8 17.833 -14.833 29.5 -20.5s23.5 -9.83398 35.5 -12.501l13.5 -2c4.33301 -0.666992 8.83301 -1 13.5 -1c34 0 62.333 9.33301 85 28s34 45.667 34 81c0 22 -5 37.333 -15 46s-25 15 -45 19l-63 13c-28.667 4.66699 -52 14.667 -70 30
s-27 38.666 -27 69.999c0 18 3 34 9 48s15.333 27.333 28 40c19.333 19.333 42.166 36.666 68.499 51.999s53.833 24 82.5 26h4h4c6 0 11.667 -0.166992 17 -0.5s11 -1.16602 17 -2.49902c10.667 -2 21.667 -4.83301 33 -8.5s23 -8.83398 35 -15.501l-6 -28
c-2 -9.33301 -3.66699 -18.666 -5 -27.999l-4 -29l-4 -28l-23 1v55c-4.66699 9.33301 -12.5 17.333 -23.5 24s-22.5 11.667 -34.5 15c-6.66699 1.33301 -13 2.5 -19 3.5s-11.667 1.5 -17 1.5c-26.667 0 -50.5 -8.33301 -71.5 -25s-31.5 -39.334 -31.5 -68.001
c0 -26.667 8 -44 24 -52s34.333 -14 55 -18l43 -7c27.333 -5.33301 51.833 -14.666 73.5 -27.999s32.5 -36 32.5 -68c0 -29.333 -6.5 -53.833 -19.5 -73.5s-30.5 -38.167 -52.5 -55.5c-21.333 -16.667 -43.833 -30.334 -67.5 -41.001s-49.5 -16 -77.5 -16h-9.5
c-3 0 -6.16699 0.333008 -9.5 1c-15.333 1.33301 -30.5 4 -45.5 8s-29.5 9.66699 -43.5 17c5.33301 21.333 9.83301 43 13.5 65s6.5 44.333 8.5 67v1z" />
    <glyph glyph-name="t" unicode="t" horiz-adv-x="333" 
d="M125 390l-84.001 -0.00292969l2 13c6 0.666992 13 2.66699 21 6s16.333 7 25 11l6 2c2 0.666992 4 1.66699 6 3c5.33301 2 10.5 4.33301 15.5 7s9.83301 5 14.5 7l25 171c6 1.33301 12.833 3.66602 20.5 6.99902l23.5 10l17.5 9.5l16.5 8.5l11 -14
c-10.667 -32 -19.334 -64.167 -26.001 -96.5s-13 -66.166 -19 -101.499c9.33301 0 18.5 0.166992 27.5 0.5s18.167 0.833008 27.5 1.5c9.33301 0 18.5 0.5 27.5 1.5s18.167 1.83301 27.5 2.5l-11 -49h-107c-2 -12 -4.33301 -24 -7 -36s-5 -24.333 -7 -37
c-0.666992 -2 -1.33398 -4.16699 -2.00098 -6.5s-1 -4.83301 -1 -7.5l-22 -110.5c-6.66699 -35 -11 -60.833 -13 -77.5c-0.666992 -6.66699 -1.5 -13.5 -2.5 -20.5s-1.5 -13.5 -1.5 -19.5c0 -5.33301 1.16699 -10 3.5 -14s5.83301 -6 10.5 -6c6 0 13.833 2.5 23.5 7.5
s19.834 11.167 30.501 18.5c1.33301 0.666992 2.5 1.33398 3.5 2.00098s1.83301 1.33398 2.5 2.00098l45 32l10 -18l-69.5 -56.5c-19.667 -15.667 -38.5 -28.167 -56.5 -37.5c-3.33301 -1.33301 -6.66602 -2.5 -9.99902 -3.5s-6.66602 -2.16699 -9.99902 -3.5
c-5.33301 -2 -10.833 -3.66699 -16.5 -5s-10.834 -2 -15.501 -2c-10.667 0 -18.5 3.33301 -23.5 10s-7.5 16.334 -7.5 29.001c0 5.33301 0.333008 10.833 1 16.5s1.66699 11.167 3 16.5c0.666992 2.66699 1.33398 5.5 2.00098 8.5s1 5.83301 1 8.5
c1.33301 4.66699 2.5 9.16699 3.5 13.5s1.83301 8.5 2.5 12.5l56 284v0z" />
    <glyph glyph-name="u" unicode="u" horiz-adv-x="556" 
d="M71 77l56.9971 269.994c0.666992 0.666992 1.33398 2.5 2.00098 5.5s1.33398 6.16699 2.00098 9.5c0 1.33301 0.166992 2.5 0.5 3.5s0.5 2.16699 0.5 3.5l2 11.5c0.666992 3.66699 1 6.83398 1 9.50098v1.5v1.5c-0.666992 4 -2.33398 8 -5.00098 12s-7 6 -13 6
c-5.33301 0 -12.166 -2.5 -20.499 -7.5l-30.5 -18.5l-28 -17l-7 20l28 20c48.667 34 81.167 54.667 97.5 62s27.833 11 34.5 11c8.66699 0 14.834 -2.83301 18.501 -8.5s5.16699 -14.167 4.5 -25.5c0 -5.33301 -0.5 -11.333 -1.5 -18s-2.16699 -14 -3.5 -22l-57 -270
c-0.666992 -5.33301 -1.5 -10.166 -2.5 -14.499s-1.83301 -8.5 -2.5 -12.5c-0.666992 -4.66699 -1.16699 -9.16699 -1.5 -13.5s-0.5 -8.83301 -0.5 -13.5v-4v-4c0.666992 -4 2 -7.83301 4 -11.5s5 -5.5 9 -5.5s8.16699 0.5 12.5 1.5s8.83301 2.83301 13.5 5.5
c3.33301 0.666992 6.33301 1.83398 9 3.50098s5.33398 3.5 8.00098 5.5c8.66699 6 17.834 13.333 27.501 22s19.5 18 29.5 28c14 14 27.667 29.333 41 46s25.333 33.667 36 51c7.33301 11.333 14 22.5 20 33.5s11 21.833 15 32.5c9.33301 24 16.833 46.833 22.5 68.5
s10.167 40.834 13.5 57.501l10 52l68 17l7 -9l-10.5 -42c-3.66699 -14 -7.16699 -28.333 -10.5 -43l-6 -23l-6 -24c-10.667 -43.333 -20.5 -85.333 -29.5 -126l-21.5 -100l-4 -21c-1.33301 -6.66699 -2 -13 -2 -19c0 -5.33301 1.33301 -9.5 4 -12.5s5.66699 -4.5 9 -4.5
c4.66699 0 11.5 1.83301 20.5 5.5s18.5 8.16699 28.5 13.5l6 4l6 4l26 18l10 -18l-40 -31c-12.667 -9.33301 -25.334 -18 -38.001 -26l-15.5 -9.5l-15.5 -9.5c-0.666992 -0.666992 -1.33398 -1.16699 -2.00098 -1.5s-1.33398 -0.5 -2.00098 -0.5
c-3.33301 -2 -6.83301 -3.83301 -10.5 -5.5s-7.16699 -3.16699 -10.5 -4.5c-4.66699 -2 -9 -3.5 -13 -4.5s-8 -1.5 -12 -1.5c-10.667 0 -18.5 3.33301 -23.5 10s-7.5 16.334 -7.5 29.001c0 5.33301 0.333008 10.833 1 16.5s1.66699 11.167 3 16.5l2 12
c0.666992 4 1.33398 7.66699 2.00098 11c1.33301 4 2.33301 7.66699 3 11s1.33398 6.33301 2.00098 9l32 120l-4 1c-14.667 -25.333 -30.834 -48.666 -48.501 -69.999l-55.5 -64c-5.33301 -6 -11.333 -12.333 -18 -19l-22 -21c-9.33301 -8.66699 -19.333 -17.167 -30 -25.5
s-21.334 -15.5 -32.001 -21.5c-10 -4.66699 -19.667 -8.66699 -29 -12s-18.333 -5 -27 -5c-2 0 -4.16699 0.333008 -6.5 1s-4.5 1.66699 -6.5 3c-5.33301 2.66699 -10.166 6.66699 -14.499 12s-6.5 12 -6.5 20v8.5v8.5l2 17.5l2 16.5v1z" />
    <glyph glyph-name="v" unicode="v" horiz-adv-x="500" 
d="M332 423l50.001 46.999c4.66699 4 9.83398 6.83301 15.501 8.5s11.5 2.5 17.5 2.5c17.333 0 30.5 -6.5 39.5 -19.5s15.167 -27.5 18.5 -43.5c1.33301 -6 2.33301 -12 3 -18s1 -11.667 1 -17c0 -8 -0.5 -16.333 -1.5 -25s-2.5 -17.667 -4.5 -27
c-1.33301 -7.33301 -3 -14.666 -5 -21.999l-6 -21c0 -1.33301 -0.166992 -2.83301 -0.5 -4.5s-0.833008 -3.16699 -1.5 -4.5c-4.66699 -16 -11.5 -34.167 -20.5 -54.5s-20.167 -41.166 -33.5 -62.499c-26 -43.333 -58.167 -83 -96.5 -119s-77.833 -54 -118.5 -54
c-38 0 -66.333 13.333 -85 40s-28 57.334 -28 92.001c0 59.333 15.5 114 46.5 164s65.833 95.333 104.5 136l-1 3c-10.667 -2 -20.834 -3.33301 -30.501 -4s-19.167 -1 -28.5 -1c-8.66699 0 -16.834 0.166992 -24.501 0.5s-15.167 0.833008 -22.5 1.5h-2h-2h-2h-2
c-11.333 0 -21.833 -2.16699 -31.5 -6.5s-16.5 -11.5 -20.5 -21.5l-17 -41h-22c1.33301 6 3 12.667 5 20l6 22c3.33301 13.333 7.33301 26.666 12 39.999s9.66699 25 15 35c4.66699 2.66699 9.83398 4.5 15.501 5.5s11.5 1.5 17.5 1.5h3h3c0.666992 -0.666992 1.5 -1 2.5 -1
h2.5l21 -2l23 -2c3.33301 0 7 -0.166992 11 -0.5s7.66699 -0.5 11 -0.5c11.333 -0.666992 21.666 -1 30.999 -1h22h8c2.66699 0 5.33398 0.333008 8.00098 1c6.66699 0.666992 13.167 2 19.5 4s12.166 4.33301 17.499 7l10 -17
c-36.667 -44.667 -68.667 -93.834 -96 -147.501s-41 -110.167 -41 -169.5c0 -27.333 6 -52.333 18 -75s33.667 -34 65 -34c3.33301 0 6.66602 0.333008 9.99902 1l10 2c10.667 3.33301 21.334 8.83301 32.001 16.5s20 15.5 28 23.5c2.66699 2.66699 5 5.16699 7 7.5
s4 4.5 6 6.5c17.333 20.667 32.5 45 45.5 73s23.167 56.667 30.5 86c4 16 7.16699 32.167 9.5 48.5s3.5 31.833 3.5 46.5v7.5c0 2.33301 -0.333008 4.5 -1 6.5c-1.33301 12.667 -5 24 -11 34s-16.333 15 -31 15h-4.5c-1.66699 0 -3.16699 -0.333008 -4.5 -1
c-3.33301 -0.666992 -6.5 -1.66699 -9.5 -3s-5.83301 -3 -8.5 -5l-11 20v0z" />
    <glyph glyph-name="w" unicode="w" horiz-adv-x="722" 
d="M554 423l50.001 46.9951c4.66699 4 9.83398 6.83301 15.501 8.5s11.5 2.5 17.5 2.5c17.333 0 30.5 -6.5 39.5 -19.5s15.167 -27.5 18.5 -43.5c1.33301 -6 2.33301 -12 3 -18s1 -11.667 1 -17c0 -8 -0.5 -16.333 -1.5 -25s-2.5 -17.667 -4.5 -27
c-1.33301 -7.33301 -3 -14.666 -5 -21.999l-6 -21c0 -1.33301 -0.166992 -2.83301 -0.5 -4.5s-0.833008 -3.16699 -1.5 -4.5c-4.66699 -16 -11.5 -34.167 -20.5 -54.5s-20.167 -41.166 -33.5 -62.499c-26 -43.333 -58.167 -83 -96.5 -119s-77.833 -54 -118.5 -54
c-22.667 0 -40.5 10.167 -53.5 30.5s-19.5 44.833 -19.5 73.5c0 14.667 1 29.167 3 43.5s4.33301 27.833 7 40.5l-2 3c-5.33301 -11.333 -11.5 -23.666 -18.5 -36.999s-14.833 -27 -23.5 -41c-18 -28 -39.167 -53.833 -63.5 -77.5s-50.833 -35.5 -79.5 -35.5
c-26 0 -45.667 9.5 -59 28.5s-22 40.167 -26 63.5c-1.33301 7.33301 -2.33301 14.833 -3 22.5s-1 14.834 -1 21.501c0 42.667 8.5 81.667 25.5 117s35.833 66.333 56.5 93c13.333 18 26.166 34 38.499 48s22.5 26 30.5 36l3 5c-10.667 -2 -20.834 -3.33301 -30.501 -4
s-19.167 -1 -28.5 -1c-8.66699 0 -16.834 0.166992 -24.501 0.5s-15.167 0.833008 -22.5 1.5h-2h-2h-2h-2c-11.333 0 -21.833 -2.16699 -31.5 -6.5s-16.5 -11.5 -20.5 -21.5l-17 -41h-22c1.33301 6 3 12.667 5 20l6 22c3.33301 13.333 7.33301 26.666 12 39.999
s9.66699 25 15 35c4.66699 2.66699 9.83398 4.5 15.501 5.5s11.5 1.5 17.5 1.5h3h3c0.666992 -0.666992 1.5 -1 2.5 -1h2.5l21 -2l23 -2c3.33301 0 7 -0.166992 11 -0.5s7.66699 -0.5 11 -0.5c11.333 -0.666992 21.666 -1 30.999 -1h22h8
c2.66699 0 5.33398 0.333008 8.00098 1c6.66699 0.666992 13.167 2 19.5 4s12.166 4.33301 17.499 7l10 -17l-13.5 -15.5c-4.33301 -5 -8.5 -10.167 -12.5 -15.5c-22.667 -28 -42.167 -56.833 -58.5 -86.5s-30.166 -62.834 -41.499 -99.501
c-2.66699 -9.33301 -5 -19.5 -7 -30.5s-3.66699 -22.167 -5 -33.5c-0.666992 -10 -1.16699 -19.5 -1.5 -28.5s-0.5 -17.833 -0.5 -26.5c0 -4.66699 0.166992 -9.5 0.5 -14.5s1.16602 -9.83301 2.49902 -14.5c3.33301 -15.333 9.33301 -29.333 18 -42s21.334 -19 38.001 -19
c4 0 7.83301 0.666992 11.5 2s7.5 3 11.5 5c11.333 6.66699 22.833 17.334 34.5 32.001s22.167 30 31.5 46c9.33301 14.667 17.333 28.834 24 42.501l15 31.5c8 17.333 14.667 35.333 20 54s10 38.334 14 59.001l29 150l74 22l7 -8l-52 -184
c-4 -13.333 -7.33301 -27.833 -10 -43.5s-5 -31.5 -7 -47.5c-1.33301 -12 -2.33301 -24 -3 -36s-1 -23.333 -1 -34c0 -24.667 4.66699 -46 14 -64s21.333 -27 36 -27c3.33301 0 6.66602 0.333008 9.99902 1l10 2c10.667 3.33301 21.334 8.83301 32.001 16.5s20 15.5 28 23.5
c2.66699 2.66699 5 5.16699 7 7.5s4 4.5 6 6.5c17.333 20.667 32.5 45 45.5 73s23.167 56.667 30.5 86c4 16 7.16699 32.167 9.5 48.5s3.5 31.833 3.5 46.5v7.5c0 2.33301 -0.333008 4.5 -1 6.5c-1.33301 12.667 -5 24 -11 34s-16.333 15 -31 15h-4.5
c-1.66699 0 -3.16699 -0.333008 -4.5 -1c-3.33301 -0.666992 -6.5 -1.66699 -9.5 -3s-5.83301 -3 -8.5 -5l-11 20v0z" />
    <glyph glyph-name="x" unicode="x" horiz-adv-x="500" 
d="M21 88l20.001 3l11 -28c1.33301 -4 5 -6.66699 11 -8s12.667 -2 20 -2c5.33301 0 10.666 1.33301 15.999 4s11 6.33398 17 11.001c6.66699 5.33301 13.167 11.5 19.5 18.5s12.5 14.167 18.5 21.5c6.66699 8.66699 12.667 16.834 18 24.501s9.66602 14.167 12.999 19.5
l40 63l-11 62c-1.33301 6 -3 14.833 -5 26.5s-4.66699 23.834 -8 36.501c-5.33301 18.667 -12.833 35.834 -22.5 51.501s-22.167 23.5 -37.5 23.5c-4 0 -8.33301 -0.833008 -13 -2.5s-9.33398 -4.16699 -14.001 -7.5c-6 -3.33301 -11.667 -7.66602 -17 -12.999l-16 -16
c-1.33301 -1.33301 -2.66602 -2.83301 -3.99902 -4.5s-2.66602 -3.16699 -3.99902 -4.5l-17 11l58 83c4 5.33301 9.83301 9.5 17.5 12.5s15.5 5.16699 23.5 6.5c2.66699 0 5.33398 0.166992 8.00098 0.5s5.33398 0.5 8.00098 0.5c33.333 0 56.166 -11.167 68.499 -33.5
s20.833 -46.833 25.5 -73.5l2 -14l2 -14l6 -47l37 55l16.5 23.5l20.5 28.5c14.667 18.667 31 35.834 49 51.501s36.667 23.5 56 23.5c6 0 11.5 -1 16.5 -3s9.5 -4.33301 13.5 -7l-15 -84l-14 -4c-2 8 -6.5 13.667 -13.5 17s-14.5 5 -22.5 5h-1.5h-1.5
c-14 -1.33301 -27.167 -7.33301 -39.5 -18s-23.5 -22.334 -33.5 -35.001c-5.33301 -6 -10.166 -12.167 -14.499 -18.5l-11.5 -16.5l-35 -48l18 -101c1.33301 -7.33301 3.16602 -15.833 5.49902 -25.5s5.16602 -19.5 8.49902 -29.5
c0.666992 -2.66699 1.5 -5.33398 2.5 -8.00098s1.83301 -5.33398 2.5 -8.00098c4.66699 -12 10.334 -22.5 17.001 -31.5s16.334 -13.5 29.001 -13.5c4 0 8.83301 1.16699 14.5 3.5s11.5 5.5 17.5 9.5c2.66699 1.33301 5.16699 2.83301 7.5 4.5l7.5 5.5
c6.66699 4.66699 12.667 9.16699 18 13.5s8.66602 7.16602 9.99902 8.49902l9 -18l-49 -44c-2.66699 -3.33301 -5.83398 -6.33301 -9.50098 -9s-7.5 -5.66699 -11.5 -9c-4.66699 -4 -9.83398 -7.66699 -15.501 -11s-11.5 -6 -17.5 -8
c-5.33301 -2.66699 -10.666 -4.83398 -15.999 -6.50098s-10.333 -2.5 -15 -2.5c-17.333 0 -30.666 7.16699 -39.999 21.5s-16.666 30.5 -21.999 48.5c-2.66699 10 -4.83398 19.667 -6.50098 29s-3.16699 17.333 -4.5 24l-11 70l-76 -117c-14 -22 -30 -40.167 -48 -54.5
s-36.667 -21.5 -56 -21.5c-2.66699 0 -6.33398 0.5 -11.001 1.5s-9 2.16699 -13 3.5c-3.33301 0.666992 -6.5 1.66699 -9.5 3s-5.83301 2.33301 -8.5 3l2 10l2 10l2 12l2 12c1.33301 6.66699 2.33301 13.667 3 21s1 14.666 1 21.999v1z" />
    <glyph glyph-name="y" unicode="y" horiz-adv-x="500" 
d="M-7 -180l48.0078 33.999l10 -4c-0.666992 -3.33301 -1.16699 -6.66602 -1.5 -9.99902s-0.5 -6.33301 -0.5 -9c0 -20 6 -35.833 18 -47.5s26.667 -17.5 44 -17.5c26.667 0 49.334 9.66699 68.001 29s34.667 42.666 48 69.999l10 21
c3.33301 7.33301 6.33301 14.666 9 21.999c8 20.667 15 40.667 21 60l15 47l47 163l-2 2c-12.667 -19.333 -26.167 -38.166 -40.5 -56.499s-29.166 -36.166 -44.499 -53.499l-13 -14.5l-15 -16.5c-4.66699 -4 -9.16699 -8.16699 -13.5 -12.5s-8.83301 -8.5 -13.5 -12.5
c-9.33301 -7.33301 -18.333 -13.333 -27 -18s-16.334 -7 -23.001 -7c-12 0 -21.667 4.5 -29 13.5s-12 18.833 -14 29.5c-0.666992 3.33301 -1.16699 6.33301 -1.5 9s-0.5 5.33398 -0.5 8.00098v24.5c0 8.33301 0.333008 16.833 1 25.5l17 244v3v4v4v4c0 14 -1.5 26 -4.5 36
s-8.5 15 -16.5 15c-3.33301 0 -7 -1.16699 -11 -3.5s-8 -4.83301 -12 -7.5c-0.666992 0 -1.33398 -0.166992 -2.00098 -0.5s-1.33398 -0.833008 -2.00098 -1.5l-48 -28l-11 18l82 56c24 16 40.667 26.5 50 31.5s17 7.5 23 7.5h1.5h0.5c7.33301 0 13.166 -4.33301 17.499 -13
s6.5 -28 6.5 -58c0 -10.667 -0.333008 -23.334 -1 -38.001s-1.66699 -31.667 -3 -51l-15 -193v-7v-7c0 -12.667 1.5 -23.834 4.5 -33.501s8.16699 -14.5 15.5 -14.5s18.166 5.33301 32.499 16s29.5 25.334 45.5 44.001c4.66699 5.33301 9.33398 11 14.001 17s9 12 13 18
c2 3.33301 4.16699 6.66602 6.5 9.99902s4.5 6.66602 6.5 9.99902c7.33301 11.333 14.333 23.666 21 36.999l20 41c5.33301 12 10.166 24.167 14.499 36.5s8.16602 23.833 11.499 34.5l18 67l17 66c5.33301 0 10.666 0.333008 15.999 1s10.666 1.66699 15.999 3
c7.33301 2 14.5 4.16699 21.5 6.5s13.833 4.83301 20.5 7.5l11 -8l-141 -440c-12 -36.667 -25.833 -71.5 -41.5 -104.5s-35.5 -64.833 -59.5 -95.5c-1.33301 -1.33301 -2.5 -2.66602 -3.5 -3.99902s-2.16699 -2.66602 -3.5 -3.99902
c-20.667 -25.333 -44.834 -48.5 -72.501 -69.5s-58.834 -31.5 -93.501 -31.5c-22.667 0 -42 7.33301 -58 22s-24 34.334 -24 59.001v7.5c0 2.33301 0.333008 4.83301 1 7.5h-1z" />
    <glyph glyph-name="z" unicode="z" horiz-adv-x="444" 
d="M-1 21l347.996 395.002l-2 2c-11.333 -7.33301 -23.5 -12.5 -36.5 -15.5s-26.167 -4.83301 -39.5 -5.5h-6.5h-6.5c-6 0 -12.833 0.333008 -20.5 1s-15.834 1.66699 -24.501 3c-5.33301 0.666992 -10.833 1.5 -16.5 2.5s-11.167 2.16699 -16.5 3.5
c-7.33301 1.33301 -14.833 2.5 -22.5 3.5s-15.167 1.5 -22.5 1.5c-6.66699 0 -13.167 -0.333008 -19.5 -1s-12.833 -2 -19.5 -4l-30 -57h-21l32 122c10 2.66699 20.167 4.83398 30.5 6.50098s20.833 2.5 31.5 2.5s22.834 -1.66699 36.501 -5s27.834 -7 42.501 -11
c1.33301 -0.666992 2.83301 -1.16699 4.5 -1.5s3.16699 -0.833008 4.5 -1.5c9.33301 -2 19.333 -4 30 -6l32 -6c11.333 -2 22.333 -3.5 33 -4.5s20.667 -1.5 30 -1.5c5.33301 0 9.83301 0.5 13.5 1.5s7.5 2.83301 11.5 5.5c1.33301 0.666992 2.83301 1.66699 4.5 3
s3.16699 2.66602 4.5 3.99902l23 24l9 -9l-6 -32l-335 -378l2 -2c11.333 4.66699 23.5 8.5 36.5 11.5s26.167 5.16699 39.5 6.5h6.5h6.5c6.66699 0 13.834 -0.333008 21.501 -1s15.167 -1.66699 22.5 -3c6 -0.666992 11.833 -1.66699 17.5 -3s11.167 -2.33301 16.5 -3
c4.66699 -1.33301 9.16699 -2.5 13.5 -3.5s8.5 -1.83301 12.5 -2.5c10.667 -2.66699 19.834 -4.5 27.501 -5.5s14.834 -1.5 21.501 -1.5c11.333 0 20 2.16699 26 6.5s10.333 10.5 13 18.5l22 61h22c0 -1.33301 -0.166992 -2.16602 -0.5 -2.49902s-0.5 -0.833008 -0.5 -1.5
l-2 -8c-0.666992 -2.66699 -1 -5.33398 -1 -8.00098c-4 -15.333 -8 -32.5 -12 -51.5s-8.66699 -42.833 -14 -71.5c-9.33301 -2.66699 -17.333 -4.83398 -24 -6.50098s-13 -2.83398 -19 -3.50098h-3h-2c-7.33301 0 -14.833 0.333008 -22.5 1s-15.5 1.66699 -23.5 3l-23.5 4
l-22.5 4c-4.66699 1.33301 -9.5 2.5 -14.5 3.5s-9.83301 2.16699 -14.5 3.5c-17.333 4 -34.833 7.83301 -52.5 11.5s-35.167 5.5 -52.5 5.5c-7.33301 0 -15 -0.666992 -23 -2s-16.333 -3.33301 -25 -6c-7.33301 -2.66699 -14.5 -6 -21.5 -10s-13.833 -8.33301 -20.5 -13
l-9 27v0z" />
    <glyph glyph-name="braceleft" unicode="{" horiz-adv-x="333" 
d="M111 427l28.999 171.997c9.33301 56.667 29 93 59 109s70 24 120 24c-34 -8 -58.333 -21.667 -73 -41s-25 -45.666 -31 -78.999l-30 -171c-6 -35.333 -15.667 -63 -29 -83s-38 -34.333 -74 -43v-1c24.667 -7.33301 41.5 -17.5 50.5 -30.5s13.5 -29.167 13.5 -48.5
c0 -8 -0.666992 -16.5 -2 -25.5s-2.66602 -18.5 -3.99902 -28.5l-28 -161c-0.666992 -7.33301 -1.5 -14.166 -2.5 -20.499s-1.5 -12.166 -1.5 -17.499c0.666992 -22 6 -40 16 -54s27 -23.333 51 -28c-46.667 0 -81 5.83301 -103 17.5s-33 36.167 -33 73.5
c0 7.33301 0.5 15.5 1.5 24.5s2.5 18.833 4.5 29.5l27 157c1.33301 8 2.5 15.667 3.5 23s1.5 14 1.5 20c0 18 -4.5 32.333 -13.5 43s-25.167 19.334 -48.5 26.001c32.667 9.33301 55.667 22.666 69 39.999s22.333 41.333 27 72v1z" />
    <glyph glyph-name="bar" unicode="|" horiz-adv-x="606" 
d="M275 0v733h56v-733h-56v0z" />
    <glyph glyph-name="braceright" unicode="}" horiz-adv-x="333" 
d="M222 206l-28.999 -171.999c-9.33301 -57.333 -29 -94 -59 -110s-70 -24 -120 -24c34 8 58.333 21.667 73 41s25 45.333 31 78l30 173c6 34 15.667 61 29 81s38 34.333 74 43v3c-24.667 6 -41.5 15.5 -50.5 28.5s-13.5 29.167 -13.5 48.5c0 8 0.666992 16.5 2 25.5
s2.66602 18.5 3.99902 28.5l28 163c1.33301 6.66699 2.33301 13.167 3 19.5s1 12.166 1 17.499c-0.666992 22 -6 40 -16 54s-27 23.333 -51 28c47.333 0 81.833 -5.83301 103.5 -17.5s32.5 -36.167 32.5 -73.5c0 -8 -0.5 -16.5 -1.5 -25.5s-2.5 -18.833 -4.5 -29.5l-27 -155
l-3.5 -25c-1 -7.33301 -1.5 -14 -1.5 -20c0 -18 4.5 -32.333 13.5 -43s25.167 -19.334 48.5 -26.001c-32.667 -8.66699 -55.5 -21.667 -68.5 -39s-22.167 -41.666 -27.5 -72.999v1z" />
    <glyph glyph-name="asciitilde" unicode="~" horiz-adv-x="606" 
d="M520 339l35.0039 -39.999c-0.666992 -2 -1.33398 -3.66699 -2.00098 -5l-2 -4c-14.667 -25.333 -33.5 -48.5 -56.5 -69.5s-49.833 -31.5 -80.5 -31.5c-8.66699 0 -18.834 1.5 -30.501 4.5s-23.5 6.83301 -35.5 11.5c-4 1.33301 -8.16699 2.83301 -12.5 4.5
s-8.5 3.5 -12.5 5.5l-23.5 9.5c-7.66699 3 -14.5 5.83301 -20.5 8.5c-2.66699 1.33301 -5.5 2.5 -8.5 3.5s-5.83301 2.16699 -8.5 3.5c-11.333 4.66699 -22.833 9 -34.5 13s-23.5 6 -35.5 6c-22.667 0 -41.334 -7.5 -56.001 -22.5s-27.334 -31.167 -38.001 -48.5
c-2 -4 -4 -7.66699 -6 -11l-6 -10l-35 41c1.33301 2 2.66602 4.16699 3.99902 6.5s3 4.83301 5 7.5c14.667 25.333 32.5 48.5 53.5 69.5s47.5 31.5 79.5 31.5c13.333 0 27.833 -2.33301 43.5 -7s31.167 -10 46.5 -16l13.5 -6l13.5 -6l58 -24.5
c18.667 -7.66699 34.334 -11.5 47.001 -11.5c19.333 0 37 6.83301 53 20.5s29.333 28.834 40 45.501c2.66699 3.33301 5 6.66602 7 9.99902s3.66699 6.66602 5 9.99902v1z" />
    <glyph glyph-name="endash" unicode="&#xa1;" horiz-adv-x="333" 
d="M111 -250l-84.999 -26l-11 9l19.5 73c6.33301 24 12.166 48 17.499 72l86 371l30 17l6 -3l-21 -154c-2 -18 -4.16699 -35.5 -6.5 -52.5s-4.5 -34.167 -6.5 -51.5l-15.5 -128c-5 -42.667 -9.5 -85 -13.5 -127v0zM188.001 467
c13.333 -0.666992 24.166 -5.66797 32.499 -15.001s12.5 -20.666 12.5 -33.999c0 -2.66699 -0.166992 -5.16699 -0.5 -7.5s-0.833008 -4.83301 -1.5 -7.5c-2.66699 -13.333 -9 -25.666 -19 -36.999s-23 -17 -39 -17c-12 0 -22.5 3.66699 -31.5 11s-13.5 19.666 -13.5 36.999
v4v4c2 15.333 8.33301 29.333 19 42s24.334 19 41.001 19v1z" />
    <glyph glyph-name="cent" unicode="&#xa2;" horiz-adv-x="500" 
d="M316 480l27.0039 70.999h33l-27 -71c13.333 -0.666992 25.833 -3 37.5 -7s22.167 -9.33301 31.5 -16c-5.33301 -24 -9.83301 -46.333 -13.5 -67s-6.16699 -41 -7.5 -61l-23 1v64c0 6 -3 11.167 -9 15.5s-12.667 7.83301 -20 10.5
c-2.66699 1.33301 -5.33398 2.5 -8.00098 3.5s-5 1.83301 -7 2.5l-146 -381c4 -2 8.16699 -3.5 12.5 -4.5s8.83301 -1.5 13.5 -1.5c7.33301 0 14.666 0.5 21.999 1.5s14.666 2.5 21.999 4.5c22 6.66699 43.833 16.334 65.5 29.001s41.5 26 59.5 40l7 -19l-60 -49
c-0.666992 -1.33301 -1.33398 -2.16602 -2.00098 -2.49902s-1 -0.833008 -1 -1.5c-17.333 -13.333 -40 -25.5 -68 -36.5s-58.667 -16.5 -92 -16.5l-34 -85h-32l35 94c-22.667 4 -39.5 15.167 -50.5 33.5s-18.167 38.166 -21.5 59.499c-1.33301 8 -2.33301 15.833 -3 23.5
s-1 15.167 -1 22.5c0 34.667 4.33301 68.334 13 101.001s20.334 64.334 35.001 95.001c14 29.333 31.667 52.166 53 68.499s45.333 31.833 72 46.5c2 1.33301 4.16699 2.5 6.5 3.5s4.83301 2.16699 7.5 3.5c11.333 6 23.166 11.167 35.499 15.5s24.833 7.16602 37.5 8.49902
v1zM157.004 63.999l139.999 368.001h-6h-7c-2.66699 0 -5.66699 -0.166992 -9 -0.5s-6.33301 -0.833008 -9 -1.5c-9.33301 -1.33301 -18.5 -4 -27.5 -8s-16.833 -8.33301 -23.5 -13c-11.333 -8.66699 -19.666 -17.334 -24.999 -26.001s-10.333 -18.667 -15 -30l-4 -10.5
l-4 -11.5c-0.666992 -1.33301 -1.16699 -2.5 -1.5 -3.5s-0.833008 -2.16699 -1.5 -3.5c-4 -12 -8 -25.833 -12 -41.5s-7.66699 -31.5 -11 -47.5s-6 -31.833 -8 -47.5s-3 -29.5 -3 -41.5c0 -5.33301 0.333008 -10.833 1 -16.5s1.66699 -11.5 3 -17.5
c2 -9.33301 4.83301 -18.333 8.5 -27s8.5 -16 14.5 -22v1z" />
    <glyph glyph-name="sterling" unicode="&#xa3;" horiz-adv-x="500" 
d="M477 159l-36.001 -157.996c-6.66699 -4.66699 -15.167 -8.33398 -25.5 -11.001s-22.166 -4 -35.499 -4c-6.66699 0 -17.334 1.16699 -32.001 3.5l-45 7.5c-2.66699 0.666992 -5 1.16699 -7 1.5s-4 0.833008 -6 1.5c-14 1.33301 -26.833 3.16602 -38.5 5.49902
s-20.5 4.16602 -26.5 5.49902c-4.66699 0.666992 -10.167 1.5 -16.5 2.5s-12.833 2.16699 -19.5 3.5l-10.5 2c-3.66699 0.666992 -7.16699 1 -10.5 1c-8.66699 1.33301 -17.334 2.5 -26.001 3.5s-16.334 1.5 -23.001 1.5c-8.66699 0 -17 -0.333008 -25 -1
s-15 -3.33398 -21 -8.00098c-7.33301 -6 -15.166 -11.833 -23.499 -17.5s-17.166 -11.167 -26.499 -16.5c-5.33301 2.66699 -10.166 8.16699 -14.499 16.5s-6.5 17.5 -6.5 27.5c6.66699 3.33301 13.167 7.16602 19.5 11.499s12.5 8.83301 18.5 13.5
c4 3.33301 9 8.33301 15 15s12 15 18 25c6.66699 10.667 13.167 23.334 19.5 38.001s11.5 31.334 15.5 50.001c2 9.33301 4 19.666 6 30.999s3.66699 23 5 35c2 13.333 3.83301 26.666 5.5 39.999l4.5 36l-95 1l7 35h94c11.333 76.667 27.5 137 48.5 181
s45.833 80.333 74.5 109c18.667 18.667 38 33.334 58 44.001s42.333 16 67 16c20 0 36.333 -2 49 -6s25 -9.33301 37 -16c1.33301 -0.666992 2.83301 -1.5 4.5 -2.5s3.5 -2.16699 5.5 -3.5c-1.33301 -4.66699 -2.83301 -9.5 -4.5 -14.5s-2.83398 -10.167 -3.50098 -15.5
c-4 -14.667 -6.66699 -29.5 -8 -44.5s-2.33301 -30.833 -3 -47.5l-23 1v54c0 12.667 -8.5 24.167 -25.5 34.5s-39.5 15.5 -67.5 15.5c-3.33301 0 -6.5 -0.166992 -9.5 -0.5s-6.16699 -0.833008 -9.5 -1.5c-14.667 -4 -28.667 -13.167 -42 -27.5
s-22.666 -35.833 -27.999 -64.5l-15 -71l-16 -75c-0.666992 -4 -1.5 -7.83301 -2.5 -11.5s-1.83301 -7.5 -2.5 -11.5c-2 -7.33301 -3.83301 -14.5 -5.5 -21.5s-3.16699 -14.167 -4.5 -21.5l142 1l-7 -35h-143c-2.66699 -11.333 -6 -24.5 -10 -39.5
s-8.66699 -30.833 -14 -47.5l-6 -20.5c-2 -7 -4 -13.5 -6 -19.5l-10.5 -29c-3 -8.66699 -6.16699 -16 -9.5 -22c-1.33301 -3.33301 -3 -6.83301 -5 -10.5l-6 -10.5c-1.33301 -3.33301 -3 -6.66602 -5 -9.99902s-4 -6.33301 -6 -9c-6 -9.33301 -11.5 -17.5 -16.5 -24.5
s-8.83301 -11.167 -11.5 -12.5l2 -1c2 0 4.5 0.333008 7.5 1s5.83301 1.66699 8.5 3c8.66699 2 18.167 3.83301 28.5 5.5s20.833 2.5 31.5 2.5c6.66699 0 13.5 -0.166992 20.5 -0.5s13.833 -0.833008 20.5 -1.5c9.33301 -0.666992 18.333 -1.66699 27 -3s17 -2.33301 25 -3
c5.33301 -1.33301 10.5 -2.33301 15.5 -3s9.5 -1.33398 13.5 -2.00098s8.16699 -1.16699 12.5 -1.5s8.5 -0.833008 12.5 -1.5c10.667 -0.666992 21.167 -1 31.5 -1h24.5h5h3c9.33301 0 18 2.16699 26 6.5s15 14.5 21 30.5l22 61h24v0z" />
    <glyph glyph-name="Idieresis" unicode="&#xa4;" horiz-adv-x="500" 
d="M14 545l31.002 31.998l57 -56c18.667 16 40 28.5 64 37.5s48.667 14.167 74 15.5h5.5h4.5h4.5h5.5c25.333 -1.33301 50 -6.5 74 -15.5s45.333 -21.833 64 -38.5l57 57l31 -32l-56 -56c18.667 -19.333 32.167 -41.666 40.5 -66.999s12.5 -51.333 12.5 -78
s-4.33301 -52 -13 -76s-21.334 -46 -38.001 -66l54 -53l-31 -31l-55 53c-20.667 -19.333 -43.5 -33.666 -68.5 -42.999s-52.167 -14 -81.5 -14c-28.667 0 -55.5 4.66699 -80.5 14s-48.167 23.333 -69.5 42l-55 -52l-31 31l54 54c-16.667 19.333 -29.334 41 -38.001 65
s-13 49.333 -13 76s4.16699 52.667 12.5 78s21.833 47.333 40.5 66l-56 57v0zM250.002 522.998c-50.667 -0.666992 -93.5 -18 -128.5 -52s-52.5 -76.333 -52.5 -127c0 -50 17.667 -92.167 53 -126.5s78 -51.5 128 -51.5s92.667 17.167 128 51.5s53 76.5 53 126.5
c0 50.667 -17.5 93 -52.5 127s-77.833 51 -128.5 51v1z" />
    <glyph glyph-name="ae" unicode="&#xa5;" horiz-adv-x="500" 
d="M270 203l-15.999 -110.01l-2 -18c-0.666992 -6 -1 -12.333 -1 -19c0 -8 1.83301 -14.5 5.5 -19.5s12.167 -8.16699 25.5 -9.5l41 -2l-2 -28c-4.66699 0 -9.66699 0.166992 -15 0.5s-11 0.5 -17 0.5c-11.333 0.666992 -23.166 1.16699 -35.499 1.5s-24.833 0.5 -37.5 0.5
h-8h-8c-10 0 -20 -0.166992 -30 -0.5s-20.333 -0.833008 -31 -1.5c-6.66699 0 -13.334 -0.166992 -20.001 -0.5s-13.667 -0.5 -21 -0.5l3 28l41 3c8 0 14.167 0.666992 18.5 2s7.5 3.33301 9.5 6c1.33301 1.33301 2.33301 2.83301 3 4.5s1.66699 3.83398 3 6.50098
c2 5.33301 4.16699 14 6.5 26l9.5 51l13 79h-115l6 34h114c0.666992 2.66699 1.16699 5.83398 1.5 9.50098s0.5 7.5 0.5 11.5c0 8 -0.666992 16.333 -2 25s-3 17.334 -5 26.001l-99 1l6 34h84l-9 42c-7.33301 34.667 -14.833 66.167 -22.5 94.5s-15.5 52.5 -23.5 72.5
c-0.666992 0.666992 -1.16699 1.5 -1.5 2.5s-0.5 1.83301 -0.5 2.5c-7.33301 18 -16.5 34.333 -27.5 49s-24.833 22 -41.5 22c-4.66699 0 -9.83398 -1.16699 -15.501 -3.5s-12.167 -5.16602 -19.5 -8.49902v25c4.66699 2.66699 9.16699 6 13.5 10s8.5 7.66699 12.5 11
l17 16.5c6 5.66699 12 11.834 18 18.501c24 0 43.333 -10.667 58 -32s27 -44.666 37 -69.999c2 -5.33301 3.83301 -10.666 5.5 -15.999s3.5 -10.666 5.5 -15.999l6.5 -21l7.5 -23c2.66699 -11.333 5.66699 -23.166 9 -35.499s6.33301 -24.833 9 -37.5l15 -69.5
c4.66699 -22.333 8.33398 -41.166 11.001 -56.499l2 1l20.5 49.5l26.5 60.5c3.33301 6 6.33301 12 9 18l8 18c5.33301 11.333 10.833 22.333 16.5 33l15.5 29l2 4l2 4c19.333 33.333 41.166 64.666 65.499 93.999s52.5 48.666 84.5 57.999l-4 -69
c-26.667 -5.33301 -50.167 -19.5 -70.5 -42.5s-38.5 -47.833 -54.5 -74.5c-4 -6.66699 -7.66699 -13.167 -11 -19.5l-10 -18.5c-2 -3.33301 -3.83301 -6.66602 -5.5 -9.99902s-3.5 -6.66602 -5.5 -9.99902l-15.5 -30l-14.5 -30l-19 -42h96l-6 -34h-102
c-2.66699 -8 -5 -16.5 -7 -25.5s-3.66699 -18.167 -5 -27.5c-0.666992 -3.33301 -1.16699 -6.83301 -1.5 -10.5s-0.833008 -7.16699 -1.5 -10.5l111 1l-6 -34h-110v0z" />
    <glyph glyph-name="brokenbar" unicode="&#xa6;" 
 />
    <glyph glyph-name="section" unicode="&#xa7;" horiz-adv-x="500" 
d="M236 72l-51.001 28.0029c-5.33301 2 -10.666 4.5 -15.999 7.5s-10.666 6.16699 -15.999 9.5c-26 15.333 -49.833 33.666 -71.5 54.999s-32.5 48 -32.5 80c0 33.333 8.16699 61 24.5 83s37.833 42.667 64.5 62c3.33301 2.66699 6.66602 5.16699 9.99902 7.5
s6.66602 4.83301 9.99902 7.5c-6.66699 7.33301 -12.5 14.5 -17.5 21.5s-9.5 14.167 -13.5 21.5c-3.33301 6.66699 -5.83301 13.667 -7.5 21s-2.5 14.333 -2.5 21c0 5.33301 0.333008 10.833 1 16.5s1.66699 11.167 3 16.5c3.33301 13.333 7.83301 26.333 13.5 39
s12.167 24 19.5 34l13 15c5.33301 6 11.333 12.333 18 19l6 6l6 6l19.5 17c6.33301 5.33301 11.833 9.33301 16.5 12c15.333 9.33301 31.5 16.166 48.5 20.499s34.5 6.5 52.5 6.5h6h6c20.667 -0.666992 41.167 -4 61.5 -10s38.833 -16 55.5 -30l-31 -128h-25l5 80
c-10 11.333 -22.5 20.333 -37.5 27s-30.167 11.334 -45.5 14.001c-4.66699 0.666992 -9.16699 1.16699 -13.5 1.5s-8.5 0.5 -12.5 0.5c-34.667 0 -64.834 -11 -90.501 -33s-38.5 -51 -38.5 -87c0 -16.667 4.16699 -31.834 12.5 -45.501s19.5 -25.167 33.5 -34.5l42 -27
l81 -48c2.66699 -2 5.33398 -3.83301 8.00098 -5.5s5.33398 -3.5 8.00098 -5.5c24 -14.667 44.5 -30.834 61.5 -48.501s25.5 -42.834 25.5 -75.501c0 -34 -10.667 -64.5 -32 -91.5s-46.333 -48.5 -75 -64.5c6.66699 -5.33301 12.5 -10.666 17.5 -15.999
s9.5 -10.666 13.5 -15.999c7.33301 -10 12.5 -20.333 15.5 -31s4.5 -22.334 4.5 -35.001c0 -31.333 -7.66699 -59.166 -23 -83.499s-33.666 -46.833 -54.999 -67.5s-44.5 -36.667 -69.5 -48s-52.833 -17 -83.5 -17c-8 0 -16 0.5 -24 1.5s-16 2.16699 -24 3.5
c-18 4 -35.5 9.83301 -52.5 17.5s-31.833 17.5 -44.5 29.5l33 141l24 -2l-6 -86c17.333 -22.667 36.833 -38.167 58.5 -46.5s46.167 -12.5 73.5 -12.5c35.333 0 66.333 12.667 93 38s40 55.666 40 90.999c0 30.667 -9.16699 54 -27.5 70s-39.166 30.667 -62.499 44
c-0.666992 0 -1.33398 0.166992 -2.00098 0.5s-1.33398 0.833008 -2.00098 1.5v1zM201.999 177.003l115.999 -66.002c16.667 12.667 31.834 27.5 45.501 44.5s20.5 36.833 20.5 59.5c0 27.333 -9.16699 50 -27.5 68s-38.5 33 -60.5 45l-59 34l-60 37
c-17.333 -14 -32.5 -30.333 -45.5 -49s-19.5 -39.667 -19.5 -63c0 -24 7.83301 -44.167 23.5 -60.5s33.167 -30.5 52.5 -42.5c2 -1.33301 4.33301 -2.66602 7 -3.99902s5 -2.66602 7 -3.99902v1z" />
    <glyph glyph-name="dieresis" unicode="&#xa8;" horiz-adv-x="333" 
d="M128 637c13.333 -0.666992 25 -5.83301 35 -15.5s15 -21.167 15 -34.5c0 -12.667 -5 -24.334 -15 -35.001s-21.667 -16 -35 -16c-12.667 0 -24.167 5.33301 -34.5 16s-15.5 22.334 -15.5 35.001c0 13.333 5.16699 24.833 15.5 34.5s21.833 14.5 34.5 14.5v1zM328 637.001
c13.333 -0.666992 25 -5.83301 35 -15.5s15 -21.167 15 -34.5c0 -12.667 -5 -24.334 -15 -35.001s-21.667 -16 -35 -16c-12.667 0 -24.167 5.33301 -34.5 16s-15.5 22.334 -15.5 35.001c0 13.333 5.16699 24.833 15.5 34.5s21.833 14.5 34.5 14.5v1z" />
    <glyph glyph-name="copyright" unicode="&#xa9;" horiz-adv-x="747" 
d="M371 706c100.667 -0.666992 186.666 -36.167 257.999 -106.5s107 -155.833 107 -256.5c0 -100 -35.667 -185.167 -107 -255.5s-157 -105.5 -257 -105.5c-98.667 0 -183.5 35.333 -254.5 106s-106.5 155.334 -106.5 254.001c0 99.333 35.333 184.666 106 255.999
s155.334 107 254.001 107v1zM370.999 662c-86.667 -0.666992 -161 -32.334 -223 -95.001s-93 -137.667 -93 -225c0 -86.667 31.167 -161.167 93.5 -223.5s136.833 -93.5 223.5 -93.5c87.333 0 162.5 31 225.5 93s94.5 137 94.5 225c0 88.667 -31.5 163.834 -94.5 225.501
s-138.5 92.5 -226.5 92.5v1zM526.999 522l-0.000976562 -106.997h-26c-0.666992 32.667 -10 58.5 -28 77.5s-44.667 28.5 -80 28.5c-49.333 0 -86.166 -17.5 -110.499 -52.5s-36.5 -75.167 -36.5 -120.5c0 -4.66699 0.166992 -9.16699 0.5 -13.5
s0.833008 -8.83301 1.5 -13.5c4 -38.667 18.333 -74.334 43 -107.001s58.667 -49 102 -49c27.333 0 51.833 6.66699 73.5 20s38.167 32.333 49.5 57l21 -8c-11.333 -30 -30.833 -53.333 -58.5 -70s-57.167 -26.334 -88.5 -29.001
c-2.66699 -0.666992 -5.33398 -1 -8.00098 -1h-8c-59.333 0 -106.833 19.5 -142.5 58.5s-53.5 87.833 -53.5 146.5c0 62 19 112.167 57 150.5s88.333 57.5 151 57.5c8 0 16 -0.333008 24 -1l24 -2c16 -2.66699 31.833 -5.83398 47.5 -9.50098s30.834 -8.16699 45.501 -13.5
v1z" />
    <glyph glyph-name="ellipsis" unicode="&#xaa;" horiz-adv-x="333" 
d="M319 694l-60.0059 -227.999v-1.5v-1.5v-1.5v-0.5v-2v-2c0.666992 -2.66699 1.83398 -5.33398 3.50098 -8.00098s4.5 -4 8.5 -4c5.33301 0 11.5 2.5 18.5 7.5l23.5 16.5c0.666992 0.666992 1.33398 1.16699 2.00098 1.5s1.33398 0.833008 2.00098 1.5l4 -11
c-24.667 -19.333 -45 -33.833 -61 -43.5s-26.667 -14.5 -32 -14.5c-6.66699 0 -11.167 2.16699 -13.5 6.5s-3.5 9.16602 -3.5 14.499c0 2.66699 0.166992 5.33398 0.5 8.00098s0.5 5.33398 0.5 8.00098c0.666992 2.66699 1.16699 5.33398 1.5 8.00098
s0.833008 5.33398 1.5 8.00098l15 72l-1 -1l-2 2c-0.666992 -2 -1.33398 -3.5 -2.00098 -4.5s-1.66699 -1.83301 -3 -2.5c-16.667 -22.667 -34.167 -43.667 -52.5 -63s-40.833 -36 -67.5 -50c-2.66699 -1.33301 -5.83398 -2.66602 -9.50098 -3.99902s-7.16699 -2 -10.5 -2
c-5.33301 0 -9.5 2.83301 -12.5 8.5s-5.16699 11.5 -6.5 17.5c-1.33301 5.33301 -2.16602 10.166 -2.49902 14.499s-0.5 7.5 -0.5 9.5c0 11.333 1.33301 25 4 41s6.33398 32.333 11.001 49c6 20 12.833 39.167 20.5 57.5s15.834 32.833 24.501 43.5l5 5l4 4
c0.666992 0 1.16699 0.166992 1.5 0.5l1.5 1.5c1.33301 1.33301 2.83301 2.66602 4.5 3.99902s3.5 2.66602 5.5 3.99902c4 3.33301 8.16699 6.33301 12.5 9l13.5 8c2 0.666992 3.83301 1.5 5.5 2.5s3.16699 1.83301 4.5 2.5l13 5.5c4 1.66699 8 3.16699 12 4.5
c5.33301 1.33301 10.833 2.16602 16.5 2.49902s11.834 0.5 18.501 0.5c9.33301 0 18.333 -1 27 -3s17.334 -4.66699 26.001 -8l21 12l7 -5v0zM209.994 670.001c-20.667 -0.666992 -35.002 -4.49805 -43.002 -11.498s-14.667 -17.5 -20 -31.5
c-1.33301 -2 -2.33301 -4.33301 -3 -7s-1.66699 -5.33398 -3 -8.00098l-4 -10c-1.33301 -3.33301 -2.66602 -7 -3.99902 -11l-8.5 -25.5c-3 -9 -5.5 -18.167 -7.5 -27.5c-3.33301 -12 -5.83301 -23.5 -7.5 -34.5s-2.5 -21.167 -2.5 -30.5c0 -10 0.833008 -17 2.5 -21
s4.83398 -6 9.50098 -6c4 0 9.66699 2.33301 17 7s14.666 10 21.999 16c2.66699 2 5.16699 4 7.5 6s4.5 4.33301 6.5 7c6.66699 6 12.834 11.833 18.501 17.5s9.5 10.167 11.5 13.5l8 11.5l8 11.5c8.66699 14.667 16 29.667 22 45s12 32.666 18 51.999
c1.33301 4 2.5 8 3.5 12s2.16699 8.33301 3.5 13c-10.667 3.33301 -20.5 6 -29.5 8s-17.5 3 -25.5 3v1z" />
    <glyph glyph-name="ydieresis" unicode="&#xab;" horiz-adv-x="500" 
d="M129 170l-71.999 81.002v16l22 18c7.33301 6 14.666 12.333 21.999 19l32.5 28c11 9.33301 21.833 19 32.5 29l85 79l19 -16l-137 -168l95 -171l-20 -15c-3.33301 3.33301 -6.66602 7.16602 -9.99902 11.499s-6.33301 8.5 -9 12.5c-2 2.66699 -4 5.16699 -6 7.5
s-4 4.83301 -6 7.5l-23.5 30.5c-7.66699 10.333 -15.834 20.166 -24.501 29.499v1zM296.001 170.002l-71.999 81.002v16l22 18c7.33301 6 14.666 12.333 21.999 19l32.5 28c11 9.33301 21.833 19 32.5 29l85 79l19 -16l-137 -168l95 -171l-20 -15
c-3.33301 3.33301 -6.66602 7.16602 -9.99902 11.499s-6.33301 8.5 -9 12.5c-2 2.66699 -4 5.16699 -6 7.5s-4 4.83301 -6 7.5l-23.5 30.5c-7.66699 10.333 -15.834 20.166 -24.501 29.499v1z" />
    <glyph glyph-name="emdash" unicode="&#xac;" 
 />
    <glyph glyph-name="uni00AD" unicode="&#xad;" horiz-adv-x="500" 
 />
    <glyph glyph-name="registered" unicode="&#xae;" horiz-adv-x="747" 
d="M371 706c100.667 -0.666992 186.666 -36.167 257.999 -106.5s107 -155.833 107 -256.5c0 -100 -35.667 -185.167 -107 -255.5s-157 -105.5 -257 -105.5c-98.667 0 -183.5 35.333 -254.5 106s-106.5 155.334 -106.5 254.001c0 99.333 35.333 184.666 106 255.999
s155.334 107 254.001 107v1zM370.999 662c-86.667 -0.666992 -161 -32.334 -223 -95.001s-93 -137.667 -93 -225c0 -86.667 31.167 -161.167 93.5 -223.5s136.833 -93.5 223.5 -93.5c87.333 0 162.5 31 225.5 93s94.5 137 94.5 225c0 88.667 -31.5 163.834 -94.5 225.501
s-138.5 92.5 -226.5 92.5v1zM204.999 554h155.997c6 -0.666992 11.833 -1 17.5 -1s11.5 -0.333008 17.5 -1c30 -2 57.5 -9.5 82.5 -22.5s37.5 -38.167 37.5 -75.5c0 -32 -11.333 -56.5 -34 -73.5s-48.334 -27.167 -77.001 -30.5v-1c16 -2.66699 29.667 -10.5 41 -23.5
s21 -27.167 29 -42.5c3.33301 -6.66699 6.5 -13.334 9.5 -20.001s5.5 -12.667 7.5 -18l5 -12c2 -4.66699 4.33301 -9.66699 7 -15c2 -4.66699 4.33301 -9.33398 7 -14.001s5.33398 -9 8.00098 -13c0.666992 -1.33301 1.5 -2.5 2.5 -3.5l2.5 -2.5
c5.33301 -4.66699 11 -8 17 -10s13.333 -3 22 -3v-15h-27c-1.33301 -0.666992 -2.5 -1 -3.5 -1h-3.5h-9h-9c-6.66699 0.666992 -13.167 1.83398 -19.5 3.50098s-12.166 4.5 -17.499 8.5s-10.166 9.83301 -14.499 17.5s-8.5 15.5 -12.5 23.5
c-3.33301 6.66699 -6.16602 13 -8.49902 19s-4.5 11.333 -6.5 16l-7 17l-8 20c-4 8.66699 -8.16699 17 -12.5 25s-8.83301 14.333 -13.5 19c-6.66699 6.66699 -14 10.667 -22 12s-16.333 2 -25 2h-8.5h-8.5l-18 1v-129c0 -13.333 1.5 -22.833 4.5 -28.5
s10.833 -8.83398 23.5 -9.50098h21v-16h-152v16h16c12.667 -0.666992 21.167 0.833008 25.5 4.5s6.5 12.167 6.5 25.5v304c0 12.667 -3 20.334 -9 23.001s-13.667 4.33398 -23 5.00098l-17 2v17v0zM308.996 492v-132.001h27c31.333 -0.666992 59.833 4.5 85.5 15.5
s38.5 35.5 38.5 73.5c0 29.333 -8.66699 50.833 -26 64.5s-40 20.5 -68 20.5l-29 1c-14 -0.666992 -22.167 -4.66699 -24.5 -12s-3.5 -16.666 -3.5 -27.999v-2v-2v1z" />
    <glyph glyph-name="glyph263" unicode="&#xaf;" 
 />
    <glyph glyph-name="glyph264" unicode="&#xb0;" 
 />
    <glyph glyph-name="mu" unicode="&#xb1;" horiz-adv-x="606" 
d="M555 0h-504v56h504v-56v0zM275 333v171h56v-171h224v-56h-224v-168h-56v168h-224v56h224v0z" />
    <glyph glyph-name="uni00B2" unicode="&#xb2;" 
 />
    <glyph glyph-name="uni00B3" unicode="&#xb3;" 
 />
    <glyph glyph-name="acute" unicode="&#xb4;" horiz-adv-x="333" 
d="M122 518l152.998 151.002l8 6l8 6c2.66699 1.33301 5.33398 2.5 8.00098 3.5s5.33398 1.5 8.00098 1.5c10 0 19 -3 27 -9s12 -12.667 12 -20c0 -9.33301 -2 -16.5 -6 -21.5s-9.33301 -9.5 -16 -13.5c-0.666992 -0.666992 -1.5 -1.33398 -2.5 -2.00098
s-2.16699 -1.33398 -3.5 -2.00098l-162 -100h-34v0z" />
    <glyph glyph-name="oslash" unicode="&#xb5;" horiz-adv-x="556" 
d="M210 408l-57.0039 -271.006c-0.666992 -5.33301 -1.5 -10.166 -2.5 -14.499s-1.83301 -8.5 -2.5 -12.5c-0.666992 -4.66699 -1.16699 -9.16699 -1.5 -13.5s-0.5 -8.83301 -0.5 -13.5v-4v-4c0.666992 -4 2 -7.83301 4 -11.5s5 -5.5 9 -5.5s8.16699 0.5 12.5 1.5
s8.83301 2.83301 13.5 5.5c3.33301 0.666992 6.33301 1.83398 9 3.50098s5.33398 3.5 8.00098 5.5c8.66699 6 17.834 13.333 27.501 22s19.5 18 29.5 28c14 14 27.667 29.333 41 46s25.333 33.667 36 51c7.33301 11.333 14 22.5 20 33.5s11 21.833 15 32.5
c9.33301 24 16.833 46.833 22.5 68.5s10.167 40.834 13.5 57.501l10 52l68 17l7 -9l-10.5 -42c-3.66699 -14 -7.16699 -28.333 -10.5 -43l-6 -23l-6 -24c-10.667 -43.333 -20.5 -85.333 -29.5 -126l-21.5 -100l-4 -21c-1.33301 -6.66699 -2 -13 -2 -19
c0 -5.33301 1.33301 -9.5 4 -12.5s5.66699 -4.5 9 -4.5c4.66699 0 11.5 1.83301 20.5 5.5s18.5 8.16699 28.5 13.5l6 4l6 4l26 18l10 -18l-40 -31c-12.667 -9.33301 -25.334 -18 -38.001 -26l-15.5 -9.5l-15.5 -9.5c-0.666992 -0.666992 -1.33398 -1.16699 -2.00098 -1.5
s-1.33398 -0.5 -2.00098 -0.5c-3.33301 -2 -6.83301 -3.83301 -10.5 -5.5s-7.16699 -3.16699 -10.5 -4.5c-4.66699 -2 -9 -3.5 -13 -4.5s-8 -1.5 -12 -1.5c-10.667 0 -18.5 3.33301 -23.5 10s-7.5 16.334 -7.5 29.001c0 5.33301 0.333008 10.833 1 16.5
s1.66699 11.167 3 16.5l2 12c0.666992 4 1.33398 7.66699 2.00098 11c1.33301 4 2.33301 7.66699 3 11s1.33398 6.33301 2.00098 9l32 120l-4 1c-14.667 -25.333 -30.834 -48.666 -48.501 -69.999l-55.5 -64c-4 -4.66699 -8.16699 -9.16699 -12.5 -13.5l-13.5 -13.5
c-24 -22.667 -46.667 -41.167 -68 -55.5s-37 -21.5 -47 -21.5c-4 0 -8 0.333008 -12 1s-8 1.66699 -12 3l-7 -175c0 -7.33301 -3.16699 -13.5 -9.5 -18.5s-13.166 -9.16699 -20.499 -12.5c-0.666992 0 -1.16699 -0.166992 -1.5 -0.5s-0.833008 -0.5 -1.5 -0.5l-30 -12l-9 8
l113 565c0.666992 0.666992 1.33398 2.5 2.00098 5.5s1.33398 6.16699 2.00098 9.5c0 1.33301 0.166992 2.5 0.5 3.5s0.5 2.16699 0.5 3.5l2 11.5c0.666992 3.66699 1 6.83398 1 9.50098v1.5v1.5c-0.666992 4 -2.33398 8 -5.00098 12s-7 6 -13 6
c-5.33301 0 -12.166 -2.5 -20.499 -7.5l-30.5 -18.5l-28 -17l-7 20l28 20c48.667 34 81.167 54.667 97.5 62s27.833 11 34.5 11c8.66699 0 14.834 -2.83301 18.501 -8.5s5.16699 -14.167 4.5 -25.5c0 -5.33301 -0.5 -11.333 -1.5 -18s-2.16699 -14 -3.5 -22v1z" />
    <glyph glyph-name="paragraph" unicode="&#xb6;" horiz-adv-x="500" 
d="M180 -119l63.002 369.001c-2 -0.666992 -3.83301 -0.833984 -5.5 -0.500977s-3.5 0.5 -5.5 0.5c-50 8 -95.667 36.333 -137 85s-62 108.334 -62 179.001c0 69.333 18 116.333 54 141s76.333 36.667 121 36c12 0 23.833 -0.166992 35.5 -0.5s23.167 -0.5 34.5 -0.5
c23.333 -0.666992 46.666 -1.16699 69.999 -1.5s46.666 -0.5 69.999 -0.5c21.333 0 42.5 0.166992 63.5 0.5s42.5 0.833008 64.5 1.5c10.667 0 21.5 0.166992 32.5 0.5s21.833 0.5 32.5 0.5l-5 -29h-23c-20.667 -0.666992 -37.167 -4.33398 -49.5 -11.001
s-21.166 -26.667 -26.499 -60l-125 -728c-0.666992 -3.33301 -1.16699 -6.66602 -1.5 -9.99902s-0.5 -6.33301 -0.5 -9c0 -17.333 5.33301 -28 16 -32s22.667 -6 36 -6h43l-5 -30c-11.333 0 -22.833 0.166992 -34.5 0.5s-23.167 0.5 -34.5 0.5
c-22 0.666992 -43.833 1.16699 -65.5 1.5s-43.5 0.5 -65.5 0.5c-21.333 0 -42.833 -0.166992 -64.5 -0.5s-42.5 -0.833008 -62.5 -1.5c-10.667 0 -21 -0.166992 -31 -0.5s-20 -0.5 -30 -0.5l5 30h30c17.333 0 30.666 3.66699 39.999 11s17 28.666 23 63.999v0z
M451.002 657.001h-68l-147 -846h68l147 846v0zM249.002 288.001l62.998 363.999c-13.333 1.33301 -24.166 2.33301 -32.499 3s-16.166 1 -23.499 1c-32.667 0 -59.667 -11.167 -81 -33.5s-32 -67.166 -32 -134.499c0 -60 10.5 -107 31.5 -141s45.833 -54 74.5 -60v1z" />
    <glyph glyph-name="glyph265" unicode="&#xb7;" 
 />
    <glyph glyph-name="bullet" unicode="&#xb8;" horiz-adv-x="333" 
d="M50 -104l-9.00195 8.00098l61 96h38l-44 -64c4 0.666992 7.83301 1.16699 11.5 1.5s7.16699 0.5 10.5 0.5c22.667 0 42.334 -5.5 59.001 -16.5s25 -28.833 25 -53.5c0 -26.667 -9.5 -46 -28.5 -58s-40.167 -19.667 -63.5 -23c-6 -1.33301 -12 -2.16602 -18 -2.49902
s-12 -0.5 -18 -0.5c-3.33301 0 -6.83301 0.166992 -10.5 0.5s-7.16699 0.833008 -10.5 1.5c-10.667 1.33301 -21.167 3.66602 -31.5 6.99902s-20.166 7 -29.499 11l16 29c1.33301 -0.666992 2.83301 -1.16699 4.5 -1.5s3.16699 -0.833008 4.5 -1.5
c9.33301 -2.66699 19 -5.16699 29 -7.5s20.667 -3.5 32 -3.5c14 0 26.167 3.83301 36.5 11.5s15.5 19.167 15.5 34.5c0 10.667 -4 19.167 -12 25.5s-16.667 10.166 -26 11.499h-3.5h-3.5c-5.33301 0 -10 -0.333008 -14 -1s-7.66699 -1.66699 -11 -3
c-2 0 -3.83301 -0.333008 -5.5 -1s-3.16699 -1 -4.5 -1v0z" />
    <glyph glyph-name="uni00B9" unicode="&#xb9;" 
 />
    <glyph glyph-name="Agrave" unicode="&#xba;" horiz-adv-x="333" 
d="M151 404c-32 -0.666992 -54.166 8.50098 -66.499 27.501s-18.5 41.5 -18.5 67.5c0 6.66699 0.333008 13.5 1 20.5s1.66699 13.833 3 20.5c7.33301 39.333 24.833 75.5 52.5 108.5s65.5 49.5 113.5 49.5c30.667 0 52.667 -8.83301 66 -26.5s20 -39.5 20 -65.5
c0 -8.66699 -0.666992 -17.5 -2 -26.5s-3 -17.833 -5 -26.5c-4.66699 -17.333 -11 -34.333 -19 -51s-17.667 -31.334 -29 -44.001c-10 -12 -23 -22.667 -39 -32s-32.333 -16 -49 -20l-14 -2c-4.66699 -0.666992 -9.33398 -1 -14.001 -1v1zM212.001 676.001
c-25.333 -0.666992 -44.8359 -11.168 -58.5029 -31.501s-23.5 -42.5 -29.5 -66.5c-3.33301 -14 -5.66602 -27.667 -6.99902 -41s-2 -24.666 -2 -33.999c0 -19.333 4.16699 -37 12.5 -53s24.5 -24 48.5 -24s42.833 10.167 56.5 30.5s23.834 42.5 30.501 66.5
c3.33301 14 5.83301 27.833 7.5 41.5s2.5 25.167 2.5 34.5v2.5v2.5c-0.666992 18 -5.16699 34.333 -13.5 49s-24.166 22 -47.499 22v1z" />
    <glyph glyph-name="Ydieresis" unicode="&#xbb;" horiz-adv-x="500" 
d="M204 340l71.9971 -81.001v-16c-7.33301 -7.33301 -14.666 -14 -21.999 -20s-14.666 -12.333 -21.999 -19l-32.5 -28c-11 -9.33301 -21.833 -19 -32.5 -29l-85 -77l-19 16l137 168l-95 171l20 15l10 -13.5c3.33301 -4.33301 6.33301 -8.5 9 -12.5
c2 -2.66699 4 -5.16699 6 -7.5s4 -4.83301 6 -7.5l23.5 -30.5c7.66699 -10.333 15.834 -20.166 24.501 -29.499v1zM370.997 339.999l71.9971 -81.001v-16c-7.33301 -7.33301 -14.666 -14 -21.999 -20s-14.666 -12.333 -21.999 -19l-32.5 -28
c-11 -9.33301 -21.833 -19 -32.5 -29l-85 -77l-19 16l137 168l-95 171l20 15l10 -13.5c3.33301 -4.33301 6.33301 -8.5 9 -12.5c2 -2.66699 4 -5.16699 6 -7.5s4 -4.83301 6 -7.5l23.5 -30.5c7.66699 -10.333 15.834 -20.166 24.501 -29.499v1z" />
    <glyph glyph-name="onequarter" unicode="&#xbc;" 
 />
    <glyph glyph-name="glyph243" unicode="&#xbd;" horiz-adv-x="750" 
d="M663 199l-153.996 -151.998v-6h130c4.66699 -0.666992 9.5 -0.833984 14.5 -0.500977s10.167 0.5 15.5 0.5c8 1.33301 15.667 2.5 23 3.5s14.333 2.5 21 4.5l4 -10l-11 -41c-10.667 0 -21.5 0.166992 -32.5 0.5s-21.833 0.5 -32.5 0.5
c-10.667 0.666992 -21.334 1 -32.001 1h-33c-14.667 0 -29.334 -0.166992 -44.001 -0.5s-29.334 -0.5 -44.001 -0.5c-7.33301 0 -14.666 -0.166992 -21.999 -0.5s-14.666 -0.5 -21.999 -0.5v21c6 5.33301 11.833 10.833 17.5 16.5l17.5 17.5l19.5 20
c6.33301 6.66699 12.833 13 19.5 19l39.5 43.5l36.5 41.5c2 2 3.83301 4.16699 5.5 6.5l5.5 7.5c9.33301 12.667 18.333 26.167 27 40.5s15.334 29.166 20.001 44.499c1.33301 5.33301 2.5 10.833 3.5 16.5s1.5 11.167 1.5 16.5c0 20 -5 35.333 -15 46s-26.667 16 -50 16
c-19.333 0 -35.333 -4.5 -48 -13.5s-24.667 -22.833 -36 -41.5c-0.666992 -0.666992 -1.33398 -1.5 -2.00098 -2.5s-1.33398 -2.16699 -2.00098 -3.5l-18 11l39 72c12.667 8.66699 26.167 15 40.5 19s29.166 6 44.499 6c33.333 0 60.166 -8.5 80.499 -25.5
s30.5 -41.167 30.5 -72.5c0 -22.667 -5.5 -44.667 -16.5 -66s-24.833 -40 -41.5 -56v1zM186.004 0.00195312h-56l451 699h56l-451 -699v0zM227.004 624.002l-47.002 -254c-1.33301 -7.33301 -2.5 -14.166 -3.5 -20.499s-1.5 -11.833 -1.5 -16.5
c0 -10.667 2.5 -17.834 7.5 -21.501s15.167 -6.16699 30.5 -7.5l42 -2l-4 -24c-9.33301 -0.666992 -18.5 -0.833984 -27.5 -0.500977s-18.167 0.5 -27.5 0.5c-9.33301 0.666992 -18.5 1 -27.5 1h-27.5h-27.5c-9 0 -18.167 -0.333008 -27.5 -1
c-9.33301 0 -18.5 -0.166992 -27.5 -0.5s-18.167 -0.5 -27.5 -0.5l5 25l49 6c10.667 0.666992 17.834 4 21.501 10s6.5 14.667 8.5 26c0 0.666992 0.166992 1.33398 0.5 2.00098s0.5 1.33398 0.5 2.00098l54 301c-2 -1.33301 -4.16699 -2.5 -6.5 -3.5
s-4.5 -2.16699 -6.5 -3.5c-6 -2.66699 -12.333 -5.16699 -19 -7.5l-21 -7.5l-4 -2l-4 -2l-54 -23l-5 3l7 43c18.667 3.33301 36.834 7.16602 54.501 11.499s35.167 9.83301 52.5 16.5l69 25l10 -6c-2.66699 -12 -5.5 -23.833 -8.5 -35.5s-5.5 -23.167 -7.5 -34.5v1z" />
    <glyph glyph-name="threequarters" unicode="&#xbe;" 
 />
    <glyph glyph-name="oe" unicode="&#xbf;" horiz-adv-x="500" 
d="M347 -105l21.9971 -6.00195c-1.33301 -4.66699 -2.83301 -9 -4.5 -13s-3.5 -8 -5.5 -12c-0.666992 -2 -1.5 -4 -2.5 -6s-1.83301 -4 -2.5 -6l-25 -61c-16.667 -11.333 -34.334 -20.333 -53.001 -27s-38.334 -10 -59.001 -10c-42 0 -79.167 10.833 -111.5 32.5
s-48.5 55.5 -48.5 101.5c0 30.667 7.16699 57.334 21.5 80.001s31.833 44 52.5 64l104 101c2.66699 2 5.33398 4.16699 8.00098 6.5s5.33398 5.16602 8.00098 8.49902c8.66699 8 16.5 17.333 23.5 28s10.5 21.667 10.5 33c0 9.33301 -2.5 18.166 -7.5 26.499
s-11.5 16.5 -19.5 24.5l25 7c12 -7.33301 21.333 -16.666 28 -27.999s10 -23.333 10 -36c0 -21.333 -5.66699 -41.333 -17 -60s-24 -35.667 -38 -51l-70 -78c-1.33301 -2 -2.66602 -3.66699 -3.99902 -5s-2.33301 -3 -3 -5c-12.667 -14 -24.167 -30.167 -34.5 -48.5
s-15.5 -37.166 -15.5 -56.499c0 -25.333 9.16699 -46 27.5 -62s39.5 -24 63.5 -24c20.667 0 36.834 2.16699 48.501 6.5s22.5 12.5 32.5 24.5c2.66699 2.66699 5.33398 5.83398 8.00098 9.50098l8 11.5l20 30v0zM324.997 466.998
c13.333 -0.666992 24.166 -5.66797 32.499 -15.001s12.5 -20.666 12.5 -33.999c0 -2.66699 -0.166992 -5.16699 -0.5 -7.5s-0.833008 -4.83301 -1.5 -7.5c-2.66699 -13.333 -9 -25.666 -19 -36.999s-23 -17 -39 -17c-12 0 -22.5 3.66699 -31.5 11s-13.5 19.666 -13.5 36.999
v4v4c2 15.333 8.33301 29.333 19 42s24.334 19 41.001 19v1z" />
    <glyph glyph-name="currency" unicode="&#xc0;" horiz-adv-x="722" 
d="M462 705l45.998 -0.00488281l87 -625c0 -1.33301 0.166992 -2.66602 0.5 -3.99902s0.5 -2.33301 0.5 -3c1.33301 -6 2.83301 -11.833 4.5 -17.5s3.5 -10.5 5.5 -14.5c2 -3.33301 7 -6.16602 15 -8.49902s18 -4.16602 30 -5.49902l26 -2v-28
c-6.66699 0 -13.5 0.166992 -20.5 0.5s-13.833 0.5 -20.5 0.5c-3.33301 0 -6.66602 0.166992 -9.99902 0.5s-6.66602 0.5 -9.99902 0.5c-10 0 -20.167 0.166992 -30.5 0.5s-20.5 0.5 -30.5 0.5c-13.333 0 -26.833 -0.166992 -40.5 -0.5s-27.167 -0.833008 -40.5 -1.5
c-6.66699 0 -13.5 -0.166992 -20.5 -0.5s-13.833 -0.5 -20.5 -0.5v28l44 3c14.667 0.666992 25.5 3.33398 32.5 8.00098s10.5 10.667 10.5 18c0 2 -0.166992 4.16699 -0.5 6.5s-0.5 4.83301 -0.5 7.5c0 1.33301 -0.166992 2.5 -0.5 3.5s-0.5 2.16699 -0.5 3.5
c-0.666992 2 -1.16699 4.16699 -1.5 6.5s-0.5 4.5 -0.5 6.5l-25 189h-246l-102 -175l-19 -35c-4.66699 -8.66699 -7 -15.667 -7 -21c0 -4.66699 3 -8.66699 9 -12s12.333 -5.66602 19 -6.99902h1.5h1.5l52 -2v-28c-6 0 -12 0.166992 -18 0.5s-12 0.5 -18 0.5
c-12 0.666992 -24 1.16699 -36 1.5s-24 0.5 -36 0.5s-24.167 -0.166992 -36.5 -0.5s-24.5 -0.833008 -36.5 -1.5c-6.66699 0 -13 -0.166992 -19 -0.5s-12 -0.5 -18 -0.5l-1 30l20 5c10 2 21.667 7 35 15s31 29.333 53 64l373 594v0zM446.998 597.995l-177 -285h216l-37 285
h-2v0zM391.998 878.995l152.997 -151.001h-34l-162 101c-1.33301 0 -2.5 0.333008 -3.5 1s-1.83301 1.33398 -2.5 2.00098c-6.66699 4 -12 8.5 -16 13.5s-6 12.167 -6 21.5c0 7.33301 4 14 12 20s17 9 27 9c2.66699 0 5.33398 -0.5 8.00098 -1.5
s5.33398 -2.16699 8.00098 -3.5l8 -6c2.66699 -2 5.33398 -4.33301 8.00098 -7v1z" />
    <glyph glyph-name="breve" unicode="&#xc1;" horiz-adv-x="722" 
d="M462 705l45.998 -0.00488281l87 -625c0 -1.33301 0.166992 -2.66602 0.5 -3.99902s0.5 -2.33301 0.5 -3c1.33301 -6 2.83301 -11.833 4.5 -17.5s3.5 -10.5 5.5 -14.5c2 -3.33301 7 -6.16602 15 -8.49902s18 -4.16602 30 -5.49902l26 -2v-28
c-6.66699 0 -13.5 0.166992 -20.5 0.5s-13.833 0.5 -20.5 0.5c-3.33301 0 -6.66602 0.166992 -9.99902 0.5s-6.66602 0.5 -9.99902 0.5c-10 0 -20.167 0.166992 -30.5 0.5s-20.5 0.5 -30.5 0.5c-13.333 0 -26.833 -0.166992 -40.5 -0.5s-27.167 -0.833008 -40.5 -1.5
c-6.66699 0 -13.5 -0.166992 -20.5 -0.5s-13.833 -0.5 -20.5 -0.5v28l44 3c14.667 0.666992 25.5 3.33398 32.5 8.00098s10.5 10.667 10.5 18c0 2 -0.166992 4.16699 -0.5 6.5s-0.5 4.83301 -0.5 7.5c0 1.33301 -0.166992 2.5 -0.5 3.5s-0.5 2.16699 -0.5 3.5
c-0.666992 2 -1.16699 4.16699 -1.5 6.5s-0.5 4.5 -0.5 6.5l-25 189h-246l-102 -175l-19 -35c-4.66699 -8.66699 -7 -15.667 -7 -21c0 -4.66699 3 -8.66699 9 -12s12.333 -5.66602 19 -6.99902h1.5h1.5l52 -2v-28c-6 0 -12 0.166992 -18 0.5s-12 0.5 -18 0.5
c-12 0.666992 -24 1.16699 -36 1.5s-24 0.5 -36 0.5s-24.167 -0.166992 -36.5 -0.5s-24.5 -0.833008 -36.5 -1.5c-6.66699 0 -13 -0.166992 -19 -0.5s-12 -0.5 -18 -0.5l-1 30l20 5c10 2 21.667 7 35 15s31 29.333 53 64l373 594v0zM446.998 597.995l-177 -285h216l-37 285
h-2v0zM392.998 727.995l152.998 151.002l8 6l8 6c2.66699 1.33301 5.33398 2.5 8.00098 3.5s5.33398 1.5 8.00098 1.5c10 0 19 -3 27 -9s12 -12.667 12 -20c0 -9.33301 -2 -16.5 -6 -21.5s-9.33301 -9.5 -16 -13.5c-0.666992 -0.666992 -1.5 -1.33398 -2.5 -2.00098
s-2.16699 -1.33398 -3.5 -2.00098l-162 -100h-34v0z" />
    <glyph glyph-name="tilde" unicode="&#xc2;" horiz-adv-x="722" 
d="M462 705l45.998 -0.00488281l87 -625c0 -1.33301 0.166992 -2.66602 0.5 -3.99902s0.5 -2.33301 0.5 -3c1.33301 -6 2.83301 -11.833 4.5 -17.5s3.5 -10.5 5.5 -14.5c2 -3.33301 7 -6.16602 15 -8.49902s18 -4.16602 30 -5.49902l26 -2v-28
c-6.66699 0 -13.5 0.166992 -20.5 0.5s-13.833 0.5 -20.5 0.5c-3.33301 0 -6.66602 0.166992 -9.99902 0.5s-6.66602 0.5 -9.99902 0.5c-10 0 -20.167 0.166992 -30.5 0.5s-20.5 0.5 -30.5 0.5c-13.333 0 -26.833 -0.166992 -40.5 -0.5s-27.167 -0.833008 -40.5 -1.5
c-6.66699 0 -13.5 -0.166992 -20.5 -0.5s-13.833 -0.5 -20.5 -0.5v28l44 3c14.667 0.666992 25.5 3.33398 32.5 8.00098s10.5 10.667 10.5 18c0 2 -0.166992 4.16699 -0.5 6.5s-0.5 4.83301 -0.5 7.5c0 1.33301 -0.166992 2.5 -0.5 3.5s-0.5 2.16699 -0.5 3.5
c-0.666992 2 -1.16699 4.16699 -1.5 6.5s-0.5 4.5 -0.5 6.5l-25 189h-246l-102 -175l-19 -35c-4.66699 -8.66699 -7 -15.667 -7 -21c0 -4.66699 3 -8.66699 9 -12s12.333 -5.66602 19 -6.99902h1.5h1.5l52 -2v-28c-6 0 -12 0.166992 -18 0.5s-12 0.5 -18 0.5
c-12 0.666992 -24 1.16699 -36 1.5s-24 0.5 -36 0.5s-24.167 -0.166992 -36.5 -0.5s-24.5 -0.833008 -36.5 -1.5c-6.66699 0 -13 -0.166992 -19 -0.5s-12 -0.5 -18 -0.5l-1 30l20 5c10 2 21.667 7 35 15s31 29.333 53 64l373 594v0zM446.998 597.995l-177 -285h216l-37 285
h-2v0zM522.998 888.995l88 -169h-36l-82 104l-137 -104h-39l157 169h49v0z" />
    <glyph glyph-name="guilsinglleft" unicode="&#xc3;" horiz-adv-x="722" 
d="M462 705l45.998 -0.00488281l87 -625c0 -1.33301 0.166992 -2.66602 0.5 -3.99902s0.5 -2.33301 0.5 -3c1.33301 -6 2.83301 -11.833 4.5 -17.5s3.5 -10.5 5.5 -14.5c2 -3.33301 7 -6.16602 15 -8.49902s18 -4.16602 30 -5.49902l26 -2v-28
c-6.66699 0 -13.5 0.166992 -20.5 0.5s-13.833 0.5 -20.5 0.5c-3.33301 0 -6.66602 0.166992 -9.99902 0.5s-6.66602 0.5 -9.99902 0.5c-10 0 -20.167 0.166992 -30.5 0.5s-20.5 0.5 -30.5 0.5c-13.333 0 -26.833 -0.166992 -40.5 -0.5s-27.167 -0.833008 -40.5 -1.5
c-6.66699 0 -13.5 -0.166992 -20.5 -0.5s-13.833 -0.5 -20.5 -0.5v28l44 3c14.667 0.666992 25.5 3.33398 32.5 8.00098s10.5 10.667 10.5 18c0 2 -0.166992 4.16699 -0.5 6.5s-0.5 4.83301 -0.5 7.5c0 1.33301 -0.166992 2.5 -0.5 3.5s-0.5 2.16699 -0.5 3.5
c-0.666992 2 -1.16699 4.16699 -1.5 6.5s-0.5 4.5 -0.5 6.5l-25 189h-246l-102 -175l-19 -35c-4.66699 -8.66699 -7 -15.667 -7 -21c0 -4.66699 3 -8.66699 9 -12s12.333 -5.66602 19 -6.99902h1.5h1.5l52 -2v-28c-6 0 -12 0.166992 -18 0.5s-12 0.5 -18 0.5
c-12 0.666992 -24 1.16699 -36 1.5s-24 0.5 -36 0.5s-24.167 -0.166992 -36.5 -0.5s-24.5 -0.833008 -36.5 -1.5c-6.66699 0 -13 -0.166992 -19 -0.5s-12 -0.5 -18 -0.5l-1 30l20 5c10 2 21.667 7 35 15s31 29.333 53 64l373 594v0zM446.998 597.995l-177 -285h216l-37 285
h-2v0zM346.998 762.995h-28.999c0.666992 1.33301 1.16699 3 1.5 5s0.833008 4.33301 1.5 7c6.66699 22 17.167 42.5 31.5 61.5s35.5 28.5 63.5 28.5c11.333 0 22.166 -1.33301 32.499 -4s20.5 -6 30.5 -10l60 -23c4 -2 8.16699 -3.5 12.5 -4.5s8.83301 -1.5 13.5 -1.5h5.5
c1.66699 0 3.16699 0.333008 4.5 1c7.33301 1.33301 13.666 4.66602 18.999 9.99902s10 11 14 17c1.33301 2.66699 2.83301 5.33398 4.5 8.00098l4.5 7l28 1c-2 -13.333 -5.5 -26.333 -10.5 -39s-11.5 -23.667 -19.5 -33s-17.833 -17 -29.5 -23s-25.167 -9 -40.5 -9
c-4 0 -9.66699 0.833008 -17 2.5s-15 3.83398 -23 6.50098c-4 1.33301 -7.66699 2.5 -11 3.5s-6.66602 2.16699 -9.99902 3.5l-38 16c-0.666992 0 -1.5 0.166992 -2.5 0.5s-2.16699 0.5 -3.5 0.5c-2 0.666992 -3.83301 1.5 -5.5 2.5s-3.5 1.83301 -5.5 2.5l-14.5 4
c-5 1.33301 -10.167 2 -15.5 2c-14.667 0 -25.5 -3.83301 -32.5 -11.5s-13.167 -17.5 -18.5 -29.5l-0.5 -1c-0.333008 -0.666992 -0.5 -1.33398 -0.5 -2.00098v1z" />
    <glyph glyph-name="Adieresis" unicode="&#xc4;" horiz-adv-x="722" 
d="M462 705l45.998 -0.00488281l87 -625c0 -1.33301 0.166992 -2.66602 0.5 -3.99902s0.5 -2.33301 0.5 -3c1.33301 -6 2.83301 -11.833 4.5 -17.5s3.5 -10.5 5.5 -14.5c2 -3.33301 7 -6.16602 15 -8.49902s18 -4.16602 30 -5.49902l26 -2v-28
c-6.66699 0 -13.5 0.166992 -20.5 0.5s-13.833 0.5 -20.5 0.5c-3.33301 0 -6.66602 0.166992 -9.99902 0.5s-6.66602 0.5 -9.99902 0.5c-10 0 -20.167 0.166992 -30.5 0.5s-20.5 0.5 -30.5 0.5c-13.333 0 -26.833 -0.166992 -40.5 -0.5s-27.167 -0.833008 -40.5 -1.5
c-6.66699 0 -13.5 -0.166992 -20.5 -0.5s-13.833 -0.5 -20.5 -0.5v28l44 3c14.667 0.666992 25.5 3.33398 32.5 8.00098s10.5 10.667 10.5 18c0 2 -0.166992 4.16699 -0.5 6.5s-0.5 4.83301 -0.5 7.5c0 1.33301 -0.166992 2.5 -0.5 3.5s-0.5 2.16699 -0.5 3.5
c-0.666992 2 -1.16699 4.16699 -1.5 6.5s-0.5 4.5 -0.5 6.5l-25 189h-246l-102 -175l-19 -35c-4.66699 -8.66699 -7 -15.667 -7 -21c0 -4.66699 3 -8.66699 9 -12s12.333 -5.66602 19 -6.99902h1.5h1.5l52 -2v-28c-6 0 -12 0.166992 -18 0.5s-12 0.5 -18 0.5
c-12 0.666992 -24 1.16699 -36 1.5s-24 0.5 -36 0.5s-24.167 -0.166992 -36.5 -0.5s-24.5 -0.833008 -36.5 -1.5c-6.66699 0 -13 -0.166992 -19 -0.5s-12 -0.5 -18 -0.5l-1 30l20 5c10 2 21.667 7 35 15s31 29.333 53 64l373 594v0zM446.998 597.995l-177 -285h216l-37 285
h-2v0zM382.998 846.995c13.333 -0.666992 25 -5.83301 35 -15.5s15 -21.167 15 -34.5c0 -12.667 -5 -24.334 -15 -35.001s-21.667 -16 -35 -16c-12.667 0 -24.167 5.33301 -34.5 16s-15.5 22.334 -15.5 35.001c0 13.333 5.16699 24.833 15.5 34.5s21.833 14.5 34.5 14.5v1z
M582.998 846.996c13.333 -0.666992 25 -5.83301 35 -15.5s15 -21.167 15 -34.5c0 -12.667 -5 -24.334 -15 -35.001s-21.667 -16 -35 -16c-12.667 0 -24.167 5.33301 -34.5 16s-15.5 22.334 -15.5 35.001c0 13.333 5.16699 24.833 15.5 34.5s21.833 14.5 34.5 14.5v1z" />
    <glyph glyph-name="Aring" unicode="&#xc5;" horiz-adv-x="722" 
d="M462 705l45.998 -0.00488281l87 -625c0 -1.33301 0.166992 -2.66602 0.5 -3.99902s0.5 -2.33301 0.5 -3c1.33301 -6 2.83301 -11.833 4.5 -17.5s3.5 -10.5 5.5 -14.5c2 -3.33301 7 -6.16602 15 -8.49902s18 -4.16602 30 -5.49902l26 -2v-28
c-6.66699 0 -13.5 0.166992 -20.5 0.5s-13.833 0.5 -20.5 0.5c-3.33301 0 -6.66602 0.166992 -9.99902 0.5s-6.66602 0.5 -9.99902 0.5c-10 0 -20.167 0.166992 -30.5 0.5s-20.5 0.5 -30.5 0.5c-13.333 0 -26.833 -0.166992 -40.5 -0.5s-27.167 -0.833008 -40.5 -1.5
c-6.66699 0 -13.5 -0.166992 -20.5 -0.5s-13.833 -0.5 -20.5 -0.5v28l44 3c14.667 0.666992 25.5 3.33398 32.5 8.00098s10.5 10.667 10.5 18c0 2 -0.166992 4.16699 -0.5 6.5s-0.5 4.83301 -0.5 7.5c0 1.33301 -0.166992 2.5 -0.5 3.5s-0.5 2.16699 -0.5 3.5
c-0.666992 2 -1.16699 4.16699 -1.5 6.5s-0.5 4.5 -0.5 6.5l-25 189h-246l-102 -175l-19 -35c-4.66699 -8.66699 -7 -15.667 -7 -21c0 -4.66699 3 -8.66699 9 -12s12.333 -5.66602 19 -6.99902h1.5h1.5l52 -2v-28c-6 0 -12 0.166992 -18 0.5s-12 0.5 -18 0.5
c-12 0.666992 -24 1.16699 -36 1.5s-24 0.5 -36 0.5s-24.167 -0.166992 -36.5 -0.5s-24.5 -0.833008 -36.5 -1.5c-6.66699 0 -13 -0.166992 -19 -0.5s-12 -0.5 -18 -0.5l-1 30l20 5c10 2 21.667 7 35 15s31 29.333 53 64l373 594v0zM446.998 597.995l-177 -285h216l-37 285
h-2v0zM493.998 917.995c27.333 -0.666992 50.833 -10.667 70.5 -30s29.5 -42.666 29.5 -69.999v0v0v-1v0c0.666992 -27.333 -9 -50.833 -29 -70.5s-43.667 -29.5 -71 -29.5s-50.833 9.66699 -70.5 29s-29.5 42.666 -29.5 69.999v0v1v0v0c-0.666992 27.333 9 50.833 29 70.5
s43.667 29.5 71 29.5v1zM493.998 881.995c-18.667 -0.666992 -33.667 -6.83301 -45 -18.5s-17 -27.167 -17 -46.5s5.66699 -34.833 17 -46.5s26.333 -17.5 45 -17.5s33.667 5.83301 45 17.5s17 27.167 17 46.5s-5.66699 34.833 -17 46.5s-26.333 17.5 -45 17.5v1z" />
    <glyph glyph-name="Oslash" unicode="&#xc6;" horiz-adv-x="941" 
d="M486 279l-222.01 0.000976562c-2.66699 -5.33301 -5.33398 -10.166 -8.00098 -14.499l-8 -12.5l-8 -13.5l-8 -12.5l-76 -128c-1.33301 -2.66699 -2.66602 -5 -3.99902 -7s-2.66602 -4.33301 -3.99902 -7c-1.33301 -2 -2.5 -4.16699 -3.5 -6.5s-2.16699 -4.5 -3.5 -6.5
c-1.33301 -3.33301 -2.5 -6.5 -3.5 -9.5s-1.5 -5.83301 -1.5 -8.5c0 -8.66699 3.66699 -14.834 11 -18.501s15.333 -6.16699 24 -7.5c4.66699 -0.666992 9.33398 -1 14.001 -1h12l24 1v-30c-6 0 -12 0.166992 -18 0.5s-12 0.5 -18 0.5c-12 0.666992 -24 1.16699 -36 1.5
s-24 0.5 -36 0.5s-24.167 -0.166992 -36.5 -0.5s-25.166 -0.833008 -38.499 -1.5c-6.66699 0 -13.5 -0.166992 -20.5 -0.5s-13.833 -0.5 -20.5 -0.5l-1 30l34 5c6 0 11.833 2.5 17.5 7.5s10.5 10.5 14.5 16.5c0.666992 0.666992 1.33398 1.5 2.00098 2.5
s1.33398 1.83301 2.00098 2.5l368 546c4.66699 6.66699 8 13.167 10 19.5s3 11.833 3 16.5c0 4 -2.5 7.33301 -7.5 10s-10.5 4.66699 -16.5 6c-2 0.666992 -4.16699 1.16699 -6.5 1.5s-4.5 0.5 -6.5 0.5l-66 1v30c12 -0.666992 23.833 -1.16699 35.5 -1.5
s23.5 -0.5 35.5 -0.5c24.667 -0.666992 50.667 -1.16699 78 -1.5s57 -0.5 89 -0.5s61.833 0.166992 89.5 0.5s54.5 0.833008 80.5 1.5c13.333 0 26.333 0.166992 39 0.5s25.334 0.5 38.001 0.5h4.5h5.5c11.333 0 22.5 -0.333008 33.5 -1s20.833 -1.33398 29.5 -2.00098
c-6 -21.333 -10.667 -45.166 -14 -71.499s-5.66602 -53.166 -6.99902 -80.499l-24 1l-8 89c-0.666992 6 -6.83398 10.667 -18.501 14s-24.5 5.66602 -38.5 6.99902c-10 0.666992 -19.5 1.16699 -28.5 1.5s-16.167 0.5 -21.5 0.5h-10.5h-11.5
c-6.66699 -0.666992 -13.667 -1.16699 -21 -1.5s-14.666 -0.5 -21.999 -0.5c-7.33301 -0.666992 -14.666 -1.16699 -21.999 -1.5s-15 -0.5 -23 -0.5c-2.66699 -4.66699 -4.5 -9.83398 -5.5 -15.501s-2.16699 -11.167 -3.5 -16.5l-42 -237h17
c37.333 -0.666992 74.333 -0.5 111 0.5s72.667 2.5 108 4.5l4 -6l-19 -45l-66 2c-22 0.666992 -44 1 -66 1l-97 1l-43 -253c-0.666992 -6.66699 -1.16699 -13 -1.5 -19s-0.5 -11.667 -0.5 -17c22 -2 42.667 -3.66699 62 -5s34.333 -2 45 -2c22.667 0 45 0.666992 67 2l66 4
c18.667 1.33301 31.667 5.5 39 12.5s13.666 19.167 18.999 36.5c0.666992 1.33301 1.16699 2.5 1.5 3.5s0.5 2.16699 0.5 3.5l16 61h27c-0.666992 -5.33301 -1.5 -10.5 -2.5 -15.5s-2.16699 -9.83301 -3.5 -14.5c0 -2.66699 -0.166992 -5.16699 -0.5 -7.5
s-0.833008 -4.5 -1.5 -6.5l-7.5 -45c-2.33301 -14.667 -4.16602 -27 -5.49902 -37c-0.666992 -4.66699 -1.16699 -10.167 -1.5 -16.5s-1.16602 -12.5 -2.49902 -18.5c-5.33301 -0 -10.833 -0.166992 -16.5 -0.5s-11.5 -0.5 -17.5 -0.5h-1.5h-1.5
c-11.333 -0.666992 -22.333 -1.16699 -33 -1.5s-20.667 -0.5 -30 -0.5c-15.333 0 -31.666 0.166992 -48.999 0.5s-35.333 0.5 -54 0.5c-19.333 0.666992 -39 1.16699 -59 1.5s-40 0.5 -60 0.5c-19.333 -0 -36.833 -0.166992 -52.5 -0.5s-30.5 -0.833008 -44.5 -1.5h-3h-3
c-6 0 -12.167 -0.166992 -18.5 -0.5s-12.5 -0.5 -18.5 -0.5l5 26c1.33301 -0.666992 2.5 -0.833984 3.5 -0.500977s2.16699 0.5 3.5 0.5c12 2 23 5.33301 33 10s16.333 15.334 19 32.001l38 214v0zM289.99 319.001h202l54 336h-14c-6.66699 -0.666992 -13 -4.5 -19 -11.5
s-12 -15.167 -18 -24.5l-205 -300v0z" />
    <glyph glyph-name="Ccedilla" unicode="&#xc7;" horiz-adv-x="667" 
d="M257 -104l-9.00098 8.00098l61 96h38l-44 -64c4 0.666992 7.83301 1.16699 11.5 1.5s7.16699 0.5 10.5 0.5c22.667 0 42.334 -5.5 59.001 -16.5s25 -28.833 25 -53.5c0 -26.667 -9.5 -46 -28.5 -58s-40.167 -19.667 -63.5 -23c-6 -1.33301 -12 -2.16602 -18 -2.49902
s-12 -0.5 -18 -0.5c-3.33301 0 -6.83301 0.166992 -10.5 0.5s-7.16699 0.833008 -10.5 1.5c-10.667 1.33301 -21.167 3.66602 -31.5 6.99902s-20.5 7 -30.5 11l17 29c1.33301 -0.666992 2.83301 -1.16699 4.5 -1.5s3.16699 -0.833008 4.5 -1.5
c9.33301 -2.66699 19 -5.16699 29 -7.5s20.667 -3.5 32 -3.5c14 0 26.167 3.83301 36.5 11.5s15.5 19.167 15.5 34.5c0 10.667 -4 19.167 -12 25.5s-16.667 10.166 -26 11.499h-3.5h-3.5c-5.33301 0 -10 -0.333008 -14 -1s-7.66699 -1.66699 -11 -3
c-2 0 -3.83301 -0.333008 -5.5 -1s-3.16699 -1 -4.5 -1v0zM596.999 519.001l-0.00195312 84c-22 14.667 -45.833 25.834 -71.5 33.501s-51.834 12.5 -78.501 14.5c-5.33301 0 -11 0.166992 -17 0.5s-11.667 0.5 -17 0.5c-98.667 0 -170 -35.667 -214 -107
s-66 -152.333 -66 -243c0 -77.333 19.333 -141.333 58 -192s99.334 -76 182.001 -76c29.333 0 55.833 2.66699 79.5 8s46.834 13.333 69.501 24c12.667 5.33301 25.334 11.666 38.001 18.999l40 24l10 -6l-10 -36c-38.667 -29.333 -79.334 -50.833 -122.001 -64.5
s-87.667 -20.5 -135 -20.5c-95.333 0 -168.833 25.833 -220.5 77.5s-77.5 125.167 -77.5 220.5c0 25.333 1.83301 52.5 5.5 81.5s11.167 58.5 22.5 88.5c12.667 32 30.667 63.667 54 95s55 60.666 95 87.999l6 4c2 1.33301 4.33301 2.66602 7 3.99902
c42.667 27.333 84 44.833 124 52.5s72 11.5 96 11.5c34 0 67.5 -3.66699 100.5 -11s64.833 -17.333 95.5 -30c-7.33301 -23.333 -13.166 -47.166 -17.499 -71.499s-7.5 -49.166 -9.5 -74.499l-27 1v0z" />
    <glyph glyph-name="ring" unicode="&#xc8;" horiz-adv-x="611" 
d="M221 334l-43.0039 -253c-0.666992 -6.66699 -1.16699 -13 -1.5 -19s-0.5 -11.667 -0.5 -17l48.5 -4c15.667 -1.33301 31.5 -2 47.5 -2c4.66699 -0.666992 9.66699 -1 15 -1h16c22.667 0 45 0.5 67 1.5s44 2.5 66 4.5c18.667 1.33301 31.667 5.5 39 12.5
s13.666 19.167 18.999 36.5c0.666992 1.33301 1.16699 2.5 1.5 3.5s0.5 2.16699 0.5 3.5l16 61h27c-0.666992 -5.33301 -1.5 -10.5 -2.5 -15.5s-2.16699 -9.83301 -3.5 -14.5c0 -2.66699 -0.166992 -5.16699 -0.5 -7.5s-0.833008 -4.5 -1.5 -6.5l-7.5 -45
c-2.33301 -14.667 -4.16602 -27 -5.49902 -37c-0.666992 -4.66699 -1.16699 -10.167 -1.5 -16.5s-1.16602 -12.5 -2.49902 -18.5c-5.33301 -0 -10.833 -0.166992 -16.5 -0.5s-11.5 -0.5 -17.5 -0.5h-1.5h-1.5c-11.333 -0.666992 -22.333 -1.16699 -33 -1.5
s-20.667 -0.5 -30 -0.5c-20 0 -40.167 0.166992 -60.5 0.5s-40.5 0.5 -60.5 0.5c-20 0.666992 -40.167 1.16699 -60.5 1.5s-40.5 0.5 -60.5 0.5s-37.833 -0.166992 -53.5 -0.5s-30.834 -0.833008 -45.501 -1.5h-4h-5c-5.33301 0 -10.833 -0.166992 -16.5 -0.5
s-11.5 -0.5 -17.5 -0.5l5 26c1.33301 -0.666992 2.5 -0.833984 3.5 -0.500977s1.83301 0.5 2.5 0.5h0.5h0.5c12.667 2.66699 24.167 5.83398 34.5 9.50098s16.5 10.834 18.5 21.501l87 505c3.33301 18.667 5.5 33.667 6.5 45l2.5 28v1.5v1.5c0 8 -2.66699 14.167 -8 18.5
s-14.333 6.83301 -27 7.5l-54 3l3 28c6 -0.666992 11.833 -1.16699 17.5 -1.5s11.5 -0.5 17.5 -0.5h5.5h5.5c15.333 -0.666992 31.166 -1.16699 47.499 -1.5s33.5 -0.5 51.5 -0.5c32 0 61.833 0.166992 89.5 0.5s54.5 0.833008 80.5 1.5c13.333 0 26.333 0.166992 39 0.5
s25.334 0.5 38.001 0.5h4.5h5.5c11.333 0 22.5 -0.333008 33.5 -1s20.833 -1.33398 29.5 -2.00098c-6 -21.333 -10.667 -45.166 -14 -71.499s-5.66602 -53.166 -6.99902 -80.499l-24 1l-8 89c-0.666992 7.33301 -9 12.666 -25 15.999s-33.333 5.33301 -52 6
c-9.33301 0.666992 -18.166 1 -26.499 1h-23.5h-10.5h-11.5c-6.66699 -0.666992 -13.667 -1.16699 -21 -1.5s-14.666 -0.5 -21.999 -0.5c-7.33301 -0.666992 -14.666 -1.16699 -21.999 -1.5s-15 -0.5 -23 -0.5c-2.66699 -4.66699 -4.5 -9.83398 -5.5 -15.501
s-2.16699 -11.167 -3.5 -16.5l-42 -237h37c37.333 -0.666992 74.333 -0.5 111 0.5s72.667 2.5 108 4.5l4 -6l-19 -45l-66 2c-22 0.666992 -44 1 -66 1l-117 1v0zM323.996 879l152.997 -151.001h-34l-162 101c-1.33301 0 -2.5 0.333008 -3.5 1s-1.83301 1.33398 -2.5 2.00098
c-6.66699 4 -12 8.5 -16 13.5s-6 12.167 -6 21.5c0 7.33301 4 14 12 20s17 9 27 9c2.66699 0 5.33398 -0.5 8.00098 -1.5s5.33398 -2.16699 8.00098 -3.5l8 -6c2.66699 -2 5.33398 -4.33301 8.00098 -7v1z" />
    <glyph glyph-name="Eacute" unicode="&#xc9;" horiz-adv-x="611" 
d="M221 334l-43.0039 -253c-0.666992 -6.66699 -1.16699 -13 -1.5 -19s-0.5 -11.667 -0.5 -17l48.5 -4c15.667 -1.33301 31.5 -2 47.5 -2c4.66699 -0.666992 9.66699 -1 15 -1h16c22.667 0 45 0.5 67 1.5s44 2.5 66 4.5c18.667 1.33301 31.667 5.5 39 12.5
s13.666 19.167 18.999 36.5c0.666992 1.33301 1.16699 2.5 1.5 3.5s0.5 2.16699 0.5 3.5l16 61h27c-0.666992 -5.33301 -1.5 -10.5 -2.5 -15.5s-2.16699 -9.83301 -3.5 -14.5c0 -2.66699 -0.166992 -5.16699 -0.5 -7.5s-0.833008 -4.5 -1.5 -6.5l-7.5 -45
c-2.33301 -14.667 -4.16602 -27 -5.49902 -37c-0.666992 -4.66699 -1.16699 -10.167 -1.5 -16.5s-1.16602 -12.5 -2.49902 -18.5c-5.33301 -0 -10.833 -0.166992 -16.5 -0.5s-11.5 -0.5 -17.5 -0.5h-1.5h-1.5c-11.333 -0.666992 -22.333 -1.16699 -33 -1.5
s-20.667 -0.5 -30 -0.5c-20 0 -40.167 0.166992 -60.5 0.5s-40.5 0.5 -60.5 0.5c-20 0.666992 -40.167 1.16699 -60.5 1.5s-40.5 0.5 -60.5 0.5s-37.833 -0.166992 -53.5 -0.5s-30.834 -0.833008 -45.501 -1.5h-4h-5c-5.33301 0 -10.833 -0.166992 -16.5 -0.5
s-11.5 -0.5 -17.5 -0.5l5 26c1.33301 -0.666992 2.5 -0.833984 3.5 -0.500977s1.83301 0.5 2.5 0.5h0.5h0.5c12.667 2.66699 24.167 5.83398 34.5 9.50098s16.5 10.834 18.5 21.501l87 505c3.33301 18.667 5.5 33.667 6.5 45l2.5 28v1.5v1.5c0 8 -2.66699 14.167 -8 18.5
s-14.333 6.83301 -27 7.5l-54 3l3 28c6 -0.666992 11.833 -1.16699 17.5 -1.5s11.5 -0.5 17.5 -0.5h5.5h5.5c15.333 -0.666992 31.166 -1.16699 47.499 -1.5s33.5 -0.5 51.5 -0.5c32 0 61.833 0.166992 89.5 0.5s54.5 0.833008 80.5 1.5c13.333 0 26.333 0.166992 39 0.5
s25.334 0.5 38.001 0.5h4.5h5.5c11.333 0 22.5 -0.333008 33.5 -1s20.833 -1.33398 29.5 -2.00098c-6 -21.333 -10.667 -45.166 -14 -71.499s-5.66602 -53.166 -6.99902 -80.499l-24 1l-8 89c-0.666992 7.33301 -9 12.666 -25 15.999s-33.333 5.33301 -52 6
c-9.33301 0.666992 -18.166 1 -26.499 1h-23.5h-10.5h-11.5c-6.66699 -0.666992 -13.667 -1.16699 -21 -1.5s-14.666 -0.5 -21.999 -0.5c-7.33301 -0.666992 -14.666 -1.16699 -21.999 -1.5s-15 -0.5 -23 -0.5c-2.66699 -4.66699 -4.5 -9.83398 -5.5 -15.501
s-2.16699 -11.167 -3.5 -16.5l-42 -237h37c37.333 -0.666992 74.333 -0.5 111 0.5s72.667 2.5 108 4.5l4 -6l-19 -45l-66 2c-22 0.666992 -44 1 -66 1l-117 1v0zM320.996 728l152.998 151.002l8 6l8 6c2.66699 1.33301 5.33398 2.5 8.00098 3.5s5.33398 1.5 8.00098 1.5
c10 0 19 -3 27 -9s12 -12.667 12 -20c0 -9.33301 -2 -16.5 -6 -21.5s-9.33301 -9.5 -16 -13.5c-0.666992 -0.666992 -1.5 -1.33398 -2.5 -2.00098s-2.16699 -1.33398 -3.5 -2.00098l-162 -100h-34v0z" />
    <glyph glyph-name="macron" unicode="&#xca;" horiz-adv-x="611" 
d="M221 334l-43.0039 -253c-0.666992 -6.66699 -1.16699 -13 -1.5 -19s-0.5 -11.667 -0.5 -17l48.5 -4c15.667 -1.33301 31.5 -2 47.5 -2c4.66699 -0.666992 9.66699 -1 15 -1h16c22.667 0 45 0.5 67 1.5s44 2.5 66 4.5c18.667 1.33301 31.667 5.5 39 12.5
s13.666 19.167 18.999 36.5c0.666992 1.33301 1.16699 2.5 1.5 3.5s0.5 2.16699 0.5 3.5l16 61h27c-0.666992 -5.33301 -1.5 -10.5 -2.5 -15.5s-2.16699 -9.83301 -3.5 -14.5c0 -2.66699 -0.166992 -5.16699 -0.5 -7.5s-0.833008 -4.5 -1.5 -6.5l-7.5 -45
c-2.33301 -14.667 -4.16602 -27 -5.49902 -37c-0.666992 -4.66699 -1.16699 -10.167 -1.5 -16.5s-1.16602 -12.5 -2.49902 -18.5c-5.33301 -0 -10.833 -0.166992 -16.5 -0.5s-11.5 -0.5 -17.5 -0.5h-1.5h-1.5c-11.333 -0.666992 -22.333 -1.16699 -33 -1.5
s-20.667 -0.5 -30 -0.5c-20 0 -40.167 0.166992 -60.5 0.5s-40.5 0.5 -60.5 0.5c-20 0.666992 -40.167 1.16699 -60.5 1.5s-40.5 0.5 -60.5 0.5s-37.833 -0.166992 -53.5 -0.5s-30.834 -0.833008 -45.501 -1.5h-4h-5c-5.33301 0 -10.833 -0.166992 -16.5 -0.5
s-11.5 -0.5 -17.5 -0.5l5 26c1.33301 -0.666992 2.5 -0.833984 3.5 -0.500977s1.83301 0.5 2.5 0.5h0.5h0.5c12.667 2.66699 24.167 5.83398 34.5 9.50098s16.5 10.834 18.5 21.501l87 505c3.33301 18.667 5.5 33.667 6.5 45l2.5 28v1.5v1.5c0 8 -2.66699 14.167 -8 18.5
s-14.333 6.83301 -27 7.5l-54 3l3 28c6 -0.666992 11.833 -1.16699 17.5 -1.5s11.5 -0.5 17.5 -0.5h5.5h5.5c15.333 -0.666992 31.166 -1.16699 47.499 -1.5s33.5 -0.5 51.5 -0.5c32 0 61.833 0.166992 89.5 0.5s54.5 0.833008 80.5 1.5c13.333 0 26.333 0.166992 39 0.5
s25.334 0.5 38.001 0.5h4.5h5.5c11.333 0 22.5 -0.333008 33.5 -1s20.833 -1.33398 29.5 -2.00098c-6 -21.333 -10.667 -45.166 -14 -71.499s-5.66602 -53.166 -6.99902 -80.499l-24 1l-8 89c-0.666992 7.33301 -9 12.666 -25 15.999s-33.333 5.33301 -52 6
c-9.33301 0.666992 -18.166 1 -26.499 1h-23.5h-10.5h-11.5c-6.66699 -0.666992 -13.667 -1.16699 -21 -1.5s-14.666 -0.5 -21.999 -0.5c-7.33301 -0.666992 -14.666 -1.16699 -21.999 -1.5s-15 -0.5 -23 -0.5c-2.66699 -4.66699 -4.5 -9.83398 -5.5 -15.501
s-2.16699 -11.167 -3.5 -16.5l-42 -237h37c37.333 -0.666992 74.333 -0.5 111 0.5s72.667 2.5 108 4.5l4 -6l-19 -45l-66 2c-22 0.666992 -44 1 -66 1l-117 1v0zM440.996 889l88 -169h-36l-82 104l-137 -104h-39l157 169h49v0z" />
    <glyph glyph-name="dotaccent" unicode="&#xcb;" horiz-adv-x="611" 
d="M221 334l-43.0039 -253c-0.666992 -6.66699 -1.16699 -13 -1.5 -19s-0.5 -11.667 -0.5 -17l48.5 -4c15.667 -1.33301 31.5 -2 47.5 -2c4.66699 -0.666992 9.66699 -1 15 -1h16c22.667 0 45 0.5 67 1.5s44 2.5 66 4.5c18.667 1.33301 31.667 5.5 39 12.5
s13.666 19.167 18.999 36.5c0.666992 1.33301 1.16699 2.5 1.5 3.5s0.5 2.16699 0.5 3.5l16 61h27c-0.666992 -5.33301 -1.5 -10.5 -2.5 -15.5s-2.16699 -9.83301 -3.5 -14.5c0 -2.66699 -0.166992 -5.16699 -0.5 -7.5s-0.833008 -4.5 -1.5 -6.5l-7.5 -45
c-2.33301 -14.667 -4.16602 -27 -5.49902 -37c-0.666992 -4.66699 -1.16699 -10.167 -1.5 -16.5s-1.16602 -12.5 -2.49902 -18.5c-5.33301 -0 -10.833 -0.166992 -16.5 -0.5s-11.5 -0.5 -17.5 -0.5h-1.5h-1.5c-11.333 -0.666992 -22.333 -1.16699 -33 -1.5
s-20.667 -0.5 -30 -0.5c-20 0 -40.167 0.166992 -60.5 0.5s-40.5 0.5 -60.5 0.5c-20 0.666992 -40.167 1.16699 -60.5 1.5s-40.5 0.5 -60.5 0.5s-37.833 -0.166992 -53.5 -0.5s-30.834 -0.833008 -45.501 -1.5h-4h-5c-5.33301 0 -10.833 -0.166992 -16.5 -0.5
s-11.5 -0.5 -17.5 -0.5l5 26c1.33301 -0.666992 2.5 -0.833984 3.5 -0.500977s1.83301 0.5 2.5 0.5h0.5h0.5c12.667 2.66699 24.167 5.83398 34.5 9.50098s16.5 10.834 18.5 21.501l87 505c3.33301 18.667 5.5 33.667 6.5 45l2.5 28v1.5v1.5c0 8 -2.66699 14.167 -8 18.5
s-14.333 6.83301 -27 7.5l-54 3l3 28c6 -0.666992 11.833 -1.16699 17.5 -1.5s11.5 -0.5 17.5 -0.5h5.5h5.5c15.333 -0.666992 31.166 -1.16699 47.499 -1.5s33.5 -0.5 51.5 -0.5c32 0 61.833 0.166992 89.5 0.5s54.5 0.833008 80.5 1.5c13.333 0 26.333 0.166992 39 0.5
s25.334 0.5 38.001 0.5h4.5h5.5c11.333 0 22.5 -0.333008 33.5 -1s20.833 -1.33398 29.5 -2.00098c-6 -21.333 -10.667 -45.166 -14 -71.499s-5.66602 -53.166 -6.99902 -80.499l-24 1l-8 89c-0.666992 7.33301 -9 12.666 -25 15.999s-33.333 5.33301 -52 6
c-9.33301 0.666992 -18.166 1 -26.499 1h-23.5h-10.5h-11.5c-6.66699 -0.666992 -13.667 -1.16699 -21 -1.5s-14.666 -0.5 -21.999 -0.5c-7.33301 -0.666992 -14.666 -1.16699 -21.999 -1.5s-15 -0.5 -23 -0.5c-2.66699 -4.66699 -4.5 -9.83398 -5.5 -15.501
s-2.16699 -11.167 -3.5 -16.5l-42 -237h37c37.333 -0.666992 74.333 -0.5 111 0.5s72.667 2.5 108 4.5l4 -6l-19 -45l-66 2c-22 0.666992 -44 1 -66 1l-117 1v0zM306.996 847c13.333 -0.666992 25 -5.83301 35 -15.5s15 -21.167 15 -34.5c0 -12.667 -5 -24.334 -15 -35.001
s-21.667 -16 -35 -16c-12.667 0 -24.167 5.33301 -34.5 16s-15.5 22.334 -15.5 35.001c0 13.333 5.16699 24.833 15.5 34.5s21.833 14.5 34.5 14.5v1zM506.996 847.001c13.333 -0.666992 25 -5.83301 35 -15.5s15 -21.167 15 -34.5c0 -12.667 -5 -24.334 -15 -35.001
s-21.667 -16 -35 -16c-12.667 0 -24.167 5.33301 -34.5 16s-15.5 22.334 -15.5 35.001c0 13.333 5.16699 24.833 15.5 34.5s21.833 14.5 34.5 14.5v1z" />
    <glyph glyph-name="caron" unicode="&#xcc;" horiz-adv-x="333" 
d="M104 125l72.0039 434c3.33301 18.667 5.5 33.667 6.5 45l2.5 28v1.5v1.5c0 8 -2.66699 14.167 -8 18.5s-14.333 6.83301 -27 7.5l-47 3l3 28c9.33301 -0.666992 18.333 -1.16699 27 -1.5s17.334 -0.5 26.001 -0.5c16 -0.666992 31.167 -1.16699 45.5 -1.5
s28.5 -0.5 42.5 -0.5s27.667 0.166992 41 0.5s25.666 0.833008 36.999 1.5c5.33301 0 10.5 0.166992 15.5 0.5s9.5 0.5 13.5 0.5l-3 -27l-35 -3c-18.667 -2 -31 -5.83301 -37 -11.5s-10.667 -18.167 -14 -37.5l-87 -519c-0.666992 -6 -1.5 -12 -2.5 -18
s-1.5 -12.333 -1.5 -19c0 -8 2.16699 -14.5 6.5 -19.5s14.166 -8.16699 29.499 -9.5l52 -2l-3 -28c-6 0 -12.333 0.166992 -19 0.5s-13.334 0.5 -20.001 0.5c-12 0.666992 -24 1.16699 -36 1.5s-24 0.5 -36 0.5h-7.5h-7.5c-14.667 -0 -29.334 -0.166992 -44.001 -0.5
s-29 -0.833008 -43 -1.5c-6.66699 0 -13.334 -0.166992 -20.001 -0.5s-13 -0.5 -19 -0.5l3 28l36 3c9.33301 0 16.5 0.666992 21.5 2s8.83301 3.33301 11.5 6c1.33301 1.33301 2.33301 2.5 3 3.5l3 4.5c2.66699 6 5.5 15 8.5 27s6.5 29.667 10.5 53v1zM185.004 879
l152.997 -151.001h-34l-162 101c-1.33301 0 -2.5 0.333008 -3.5 1s-1.83301 1.33398 -2.5 2.00098c-6.66699 4 -12 8.5 -16 13.5s-6 12.167 -6 21.5c0 7.33301 4 14 12 20s17 9 27 9c2.66699 0 5.33398 -0.5 8.00098 -1.5s5.33398 -2.16699 8.00098 -3.5l8 -6
c2.66699 -2 5.33398 -4.33301 8.00098 -7v1z" />
    <glyph glyph-name="cedilla" unicode="&#xcd;" horiz-adv-x="333" 
d="M104 125l72.0039 434c3.33301 18.667 5.5 33.667 6.5 45l2.5 28v1.5v1.5c0 8 -2.66699 14.167 -8 18.5s-14.333 6.83301 -27 7.5l-47 3l3 28c9.33301 -0.666992 18.333 -1.16699 27 -1.5s17.334 -0.5 26.001 -0.5c16 -0.666992 31.167 -1.16699 45.5 -1.5
s28.5 -0.5 42.5 -0.5s27.667 0.166992 41 0.5s25.666 0.833008 36.999 1.5c5.33301 0 10.5 0.166992 15.5 0.5s9.5 0.5 13.5 0.5l-3 -27l-35 -3c-18.667 -2 -31 -5.83301 -37 -11.5s-10.667 -18.167 -14 -37.5l-87 -519c-0.666992 -6 -1.5 -12 -2.5 -18
s-1.5 -12.333 -1.5 -19c0 -8 2.16699 -14.5 6.5 -19.5s14.166 -8.16699 29.499 -9.5l52 -2l-3 -28c-6 0 -12.333 0.166992 -19 0.5s-13.334 0.5 -20.001 0.5c-12 0.666992 -24 1.16699 -36 1.5s-24 0.5 -36 0.5h-7.5h-7.5c-14.667 -0 -29.334 -0.166992 -44.001 -0.5
s-29 -0.833008 -43 -1.5c-6.66699 0 -13.334 -0.166992 -20.001 -0.5s-13 -0.5 -19 -0.5l3 28l36 3c9.33301 0 16.5 0.666992 21.5 2s8.83301 3.33301 11.5 6c1.33301 1.33301 2.33301 2.5 3 3.5l3 4.5c2.66699 6 5.5 15 8.5 27s6.5 29.667 10.5 53v1zM182.004 728
l152.998 151.002l8 6l8 6c2.66699 1.33301 5.33398 2.5 8.00098 3.5s5.33398 1.5 8.00098 1.5c10 0 19 -3 27 -9s12 -12.667 12 -20c0 -9.33301 -2 -16.5 -6 -21.5s-9.33301 -9.5 -16 -13.5c-0.666992 -0.666992 -1.5 -1.33398 -2.5 -2.00098
s-2.16699 -1.33398 -3.5 -2.00098l-162 -100h-34v0z" />
    <glyph glyph-name="hungarumlaut" unicode="&#xce;" horiz-adv-x="333" 
d="M104 125l72.0039 434c3.33301 18.667 5.5 33.667 6.5 45l2.5 28v1.5v1.5c0 8 -2.66699 14.167 -8 18.5s-14.333 6.83301 -27 7.5l-47 3l3 28c9.33301 -0.666992 18.333 -1.16699 27 -1.5s17.334 -0.5 26.001 -0.5c16 -0.666992 31.167 -1.16699 45.5 -1.5
s28.5 -0.5 42.5 -0.5s27.667 0.166992 41 0.5s25.666 0.833008 36.999 1.5c5.33301 0 10.5 0.166992 15.5 0.5s9.5 0.5 13.5 0.5l-3 -27l-35 -3c-18.667 -2 -31 -5.83301 -37 -11.5s-10.667 -18.167 -14 -37.5l-87 -519c-0.666992 -6 -1.5 -12 -2.5 -18
s-1.5 -12.333 -1.5 -19c0 -8 2.16699 -14.5 6.5 -19.5s14.166 -8.16699 29.499 -9.5l52 -2l-3 -28c-6 0 -12.333 0.166992 -19 0.5s-13.334 0.5 -20.001 0.5c-12 0.666992 -24 1.16699 -36 1.5s-24 0.5 -36 0.5h-7.5h-7.5c-14.667 -0 -29.334 -0.166992 -44.001 -0.5
s-29 -0.833008 -43 -1.5c-6.66699 0 -13.334 -0.166992 -20.001 -0.5s-13 -0.5 -19 -0.5l3 28l36 3c9.33301 0 16.5 0.666992 21.5 2s8.83301 3.33301 11.5 6c1.33301 1.33301 2.33301 2.5 3 3.5l3 4.5c2.66699 6 5.5 15 8.5 27s6.5 29.667 10.5 53v1zM302.004 889l88 -169
h-36l-82 104l-137 -104h-39l157 169h49v0z" />
    <glyph glyph-name="ogonek" unicode="&#xcf;" horiz-adv-x="333" 
d="M104 125l72.0039 434c3.33301 18.667 5.5 33.667 6.5 45l2.5 28v1.5v1.5c0 8 -2.66699 14.167 -8 18.5s-14.333 6.83301 -27 7.5l-47 3l3 28c9.33301 -0.666992 18.333 -1.16699 27 -1.5s17.334 -0.5 26.001 -0.5c16 -0.666992 31.167 -1.16699 45.5 -1.5
s28.5 -0.5 42.5 -0.5s27.667 0.166992 41 0.5s25.666 0.833008 36.999 1.5c5.33301 0 10.5 0.166992 15.5 0.5s9.5 0.5 13.5 0.5l-3 -27l-35 -3c-18.667 -2 -31 -5.83301 -37 -11.5s-10.667 -18.167 -14 -37.5l-87 -519c-0.666992 -6 -1.5 -12 -2.5 -18
s-1.5 -12.333 -1.5 -19c0 -8 2.16699 -14.5 6.5 -19.5s14.166 -8.16699 29.499 -9.5l52 -2l-3 -28c-6 0 -12.333 0.166992 -19 0.5s-13.334 0.5 -20.001 0.5c-12 0.666992 -24 1.16699 -36 1.5s-24 0.5 -36 0.5h-7.5h-7.5c-14.667 -0 -29.334 -0.166992 -44.001 -0.5
s-29 -0.833008 -43 -1.5c-6.66699 0 -13.334 -0.166992 -20.001 -0.5s-13 -0.5 -19 -0.5l3 28l36 3c9.33301 0 16.5 0.666992 21.5 2s8.83301 3.33301 11.5 6c1.33301 1.33301 2.33301 2.5 3 3.5l3 4.5c2.66699 6 5.5 15 8.5 27s6.5 29.667 10.5 53v1zM168.004 847
c13.333 -0.666992 25 -5.83301 35 -15.5s15 -21.167 15 -34.5c0 -12.667 -5 -24.334 -15 -35.001s-21.667 -16 -35 -16c-12.667 0 -24.167 5.33301 -34.5 16s-15.5 22.334 -15.5 35.001c0 13.333 5.16699 24.833 15.5 34.5s21.833 14.5 34.5 14.5v1zM368.004 847.001
c13.333 -0.666992 25 -5.83301 35 -15.5s15 -21.167 15 -34.5c0 -12.667 -5 -24.334 -15 -35.001s-21.667 -16 -35 -16c-12.667 0 -24.167 5.33301 -34.5 16s-15.5 22.334 -15.5 35.001c0 13.333 5.16699 24.833 15.5 34.5s21.833 14.5 34.5 14.5v1z" />
    <glyph glyph-name="glyph232" unicode="&#xd0;" horiz-adv-x="778" 
d="M142 378l30.9971 181.001c3.33301 18.667 5.5 33.667 6.5 45l2.5 28v1.5v1.5c0 8 -2.66699 14.167 -8 18.5s-14.333 6.83301 -27 7.5l-53 3l3 28c6.66699 -0.666992 13.334 -1.16699 20.001 -1.5s13.667 -0.5 21 -0.5c6.66699 -0.666992 13.334 -1 20.001 -1h21
c6.66699 -0.666992 13.5 -1 20.5 -1h20.5c22.667 0 45.334 0.166992 68.001 0.5s45.334 0.833008 68.001 1.5c11.333 0 22.666 0.166992 33.999 0.5s22.666 0.5 33.999 0.5c95.333 1.33301 172 -16.334 230 -53.001s87 -107 87 -211c0 -79.333 -20.333 -152 -61 -218
s-94.667 -119.333 -162 -160c-12.667 -7.33301 -24.667 -13.833 -36 -19.5s-23 -10.5 -35 -14.5c-21.333 -7.33301 -43.166 -12.166 -65.499 -14.499s-47.166 -3.5 -74.499 -3.5c-10 0 -20.167 0.166992 -30.5 0.5s-20.833 0.5 -31.5 0.5
c-20.667 0.666992 -41.334 1.16699 -62.001 1.5s-41.334 0.5 -62.001 0.5c-10 0 -20.333 -0.166992 -31 -0.5s-21 -0.833008 -31 -1.5c-5.33301 0 -10.5 -0.166992 -15.5 -0.5s-10.167 -0.5 -15.5 -0.5l5 26c0.666992 -0.666992 1.5 -0.833984 2.5 -0.500977
s2.16699 0.5 3.5 0.5c1.33301 0.666992 2.83301 1.16699 4.5 1.5s3.16699 0.5 4.5 0.5c8.66699 2 16.834 5 24.501 9s12.167 10.667 13.5 20l50 292h-117l6 32h117v0zM267.997 650.001l-45.999 -272.001h187l-6 -32h-187l-44 -253
c-0.666992 -3.33301 -1.16699 -6.66602 -1.5 -9.99902s-0.833008 -6.33301 -1.5 -9c0 -3.33301 -0.166992 -6.5 -0.5 -9.5s-0.5 -6.16699 -0.5 -9.5c28.667 -4.66699 56.667 -8.33398 84 -11.001s54.333 -4 81 -4c106.667 0 186 38.5 238 115.5s78 164.167 78 261.5
c0 88.667 -23.667 150.334 -71 185.001s-113.333 52 -198 52c-10.667 0 -21.334 -0.333008 -32.001 -1l-32 -2c-8 0 -16 -0.333008 -24 -1s-16 -1 -24 -1v1z" />
    <glyph glyph-name="Ntilde" unicode="&#xd1;" horiz-adv-x="778" 
d="M237 692l342.999 -586h2l80 486c0 1.33301 0.166992 2.83301 0.5 4.5s0.833008 3.83398 1.5 6.50098v4c0 1.33301 0.333008 2.66602 1 3.99902c0.666992 4.66699 1.16699 9.33398 1.5 14.001s0.5 8.66699 0.5 12c0 8.66699 -2.83301 14.667 -8.5 18
s-14.834 5.33301 -27.501 6l-47 3l5 28c4.66699 -0.666992 9.66699 -1.16699 15 -1.5s10.666 -0.5 15.999 -0.5c11.333 -0.666992 23.5 -1.16699 36.5 -1.5s26.167 -0.5 39.5 -0.5h4.5h5.5c11.333 0 22.5 0.166992 33.5 0.5s21.833 0.833008 32.5 1.5
c6 0 11.667 0.166992 17 0.5s10.333 0.5 15 0.5l-5 -27l-37 -2c-1.33301 -0.666992 -2.83301 -1.16699 -4.5 -1.5s-3.16699 -0.5 -4.5 -0.5c-5.33301 -0.666992 -10.166 -1.83398 -14.499 -3.50098s-7.16602 -3.83398 -8.49902 -6.50098s-4.16602 -10.334 -8.49902 -23.001
s-8.83301 -30.334 -13.5 -53.001c-0.666992 -4.66699 -1.5 -9.83398 -2.5 -15.501s-2.16699 -11.5 -3.5 -17.5l-94 -552h-50l-336 575h-2l-80 -462c-0.666992 -6.66699 -1.33398 -12.5 -2.00098 -17.5s-1 -9.83301 -1 -14.5s0.333008 -9.16699 1 -13.5
s1.66699 -8.16602 3 -11.499c2.66699 -6.66699 7.83398 -11 15.501 -13s17.5 -3.66699 29.5 -5l42 -2l-5 -28c-6 0 -12.167 0.166992 -18.5 0.5s-12.5 0.5 -18.5 0.5c-2.66699 0 -5.5 0.166992 -8.5 0.5s-6.16699 0.5 -9.5 0.5c-9.33301 0 -18.5 0.166992 -27.5 0.5
s-18.167 0.5 -27.5 0.5c-12 0 -24.167 -0.166992 -36.5 -0.5s-24.833 -0.833008 -37.5 -1.5c-6 0 -12.167 -0.166992 -18.5 -0.5s-12.5 -0.5 -18.5 -0.5l5 28l31 3c8 0.666992 15 1.83398 21 3.50098s10.667 4.83398 14 9.50098s6.5 11.834 9.5 21.501
s5.83301 19.834 8.5 30.501c0 1.33301 0.166992 2.66602 0.5 3.99902s0.5 2.66602 0.5 3.99902l88 475c0 0.666992 0.166992 1.5 0.5 2.5s0.5 2.16699 0.5 3.5c0 0.666992 0.166992 1.16699 0.5 1.5l0.5 0.5l2 13.5c0.666992 4.33301 1 8.16602 1 11.499
c0 1.33301 -1.33301 3.83301 -4 7.5s-5.66699 7.5 -9 11.5l-3.5 3.5l-3.5 3.5c-2.66699 2.66699 -5.16699 5 -7.5 7s-4.5 3.66699 -6.5 5c-4 2.66699 -8.5 4.83398 -13.5 6.50098s-9.83301 3.16699 -14.5 4.5c-3.33301 0.666992 -6.5 1.33398 -9.5 2.00098
s-5.83301 1 -8.5 1l-35 3l5 28c4.66699 -0.666992 9.16699 -1.16699 13.5 -1.5s8.83301 -0.5 13.5 -0.5c9.33301 -0.666992 18.5 -1.16699 27.5 -1.5s17.833 -0.5 26.5 -0.5c9.33301 0 18.5 0.166992 27.5 0.5s17.833 0.833008 26.5 1.5
c4.66699 0 9.16699 0.166992 13.5 0.5s8.83301 0.5 13.5 0.5v1zM354.999 763h-28.999c0.666992 1.33301 1.16699 3 1.5 5s0.833008 4.33301 1.5 7c6.66699 22 17.167 42.5 31.5 61.5s35.5 28.5 63.5 28.5c11.333 0 22.166 -1.33301 32.499 -4s20.5 -6 30.5 -10l60 -23
c4 -2 8.16699 -3.5 12.5 -4.5s8.83301 -1.5 13.5 -1.5h5.5c1.66699 0 3.16699 0.333008 4.5 1c7.33301 1.33301 13.666 4.66602 18.999 9.99902s10 11 14 17c1.33301 2.66699 2.83301 5.33398 4.5 8.00098l4.5 7l28 1c-2 -13.333 -5.5 -26.333 -10.5 -39
s-11.5 -23.667 -19.5 -33s-17.833 -17 -29.5 -23s-25.167 -9 -40.5 -9c-4 0 -9.66699 0.833008 -17 2.5s-15 3.83398 -23 6.50098c-4 1.33301 -7.66699 2.5 -11 3.5s-6.66602 2.16699 -9.99902 3.5l-38 16c-0.666992 0 -1.5 0.166992 -2.5 0.5s-2.16699 0.5 -3.5 0.5
c-2 0.666992 -3.83301 1.5 -5.5 2.5s-3.5 1.83301 -5.5 2.5l-14.5 4c-5 1.33301 -10.167 2 -15.5 2c-14.667 0 -25.5 -3.83301 -32.5 -11.5s-13.167 -17.5 -18.5 -29.5l-0.5 -1c-0.333008 -0.666992 -0.5 -1.33398 -0.5 -2.00098v1z" />
    <glyph glyph-name="scaron" unicode="&#xd2;" 
 />
    <glyph glyph-name="Lslash" unicode="&#xd3;" horiz-adv-x="778" 
d="M330 -18c-100 0 -171.167 26.1689 -213.5 78.502s-63.5 126.166 -63.5 221.499c0 117.333 38.667 217.166 116 299.499s175 123.5 293 123.5c88.667 0 158.5 -23.833 209.5 -71.5s76.5 -116.167 76.5 -205.5c0 -120 -38.5 -224.333 -115.5 -313
s-177.833 -133 -302.5 -133v0zM428 664.002c-92 -0.666992 -159.833 -34.333 -203.5 -101s-70.167 -140 -79.5 -220c-1.33301 -12 -2.33301 -24 -3 -36s-1 -24 -1 -36c0 -74 17.167 -133.833 51.5 -179.5s91.166 -68.5 170.499 -68.5c98.667 0 171.334 36.667 218.001 110
s72.667 154.333 78 243c0.666992 5.33301 1 10.833 1 16.5v17.5c0 78.667 -18 140.5 -54 185.5s-95.333 67.5 -178 67.5v1zM405 728.003l152.998 151.002l8 6l8 6c2.66699 1.33301 5.33398 2.5 8.00098 3.5s5.33398 1.5 8.00098 1.5c10 0 19 -3 27 -9s12 -12.667 12 -20
c0 -9.33301 -2 -16.5 -6 -21.5s-9.33301 -9.5 -16 -13.5c-0.666992 -0.666992 -1.5 -1.33398 -2.5 -2.00098s-2.16699 -1.33398 -3.5 -2.00098l-162 -100h-34v0z" />
    <glyph glyph-name="lslash" unicode="&#xd4;" horiz-adv-x="778" 
d="M330 -18c-100 0 -171.167 26.1689 -213.5 78.502s-63.5 126.166 -63.5 221.499c0 117.333 38.667 217.166 116 299.499s175 123.5 293 123.5c88.667 0 158.5 -23.833 209.5 -71.5s76.5 -116.167 76.5 -205.5c0 -120 -38.5 -224.333 -115.5 -313
s-177.833 -133 -302.5 -133v0zM428 664.002c-92 -0.666992 -159.833 -34.333 -203.5 -101s-70.167 -140 -79.5 -220c-1.33301 -12 -2.33301 -24 -3 -36s-1 -24 -1 -36c0 -74 17.167 -133.833 51.5 -179.5s91.166 -68.5 170.499 -68.5c98.667 0 171.334 36.667 218.001 110
s72.667 154.333 78 243c0.666992 5.33301 1 10.833 1 16.5v17.5c0 78.667 -18 140.5 -54 185.5s-95.333 67.5 -178 67.5v1zM525 889.003l88 -169h-36l-82 104l-137 -104h-39l157 169h49v0z" />
    <glyph glyph-name="guilsinglright" unicode="&#xd5;" horiz-adv-x="778" 
d="M330 -18c-100 0 -171.167 26.1689 -213.5 78.502s-63.5 126.166 -63.5 221.499c0 117.333 38.667 217.166 116 299.499s175 123.5 293 123.5c88.667 0 158.5 -23.833 209.5 -71.5s76.5 -116.167 76.5 -205.5c0 -120 -38.5 -224.333 -115.5 -313
s-177.833 -133 -302.5 -133v0zM428 664.002c-92 -0.666992 -159.833 -34.333 -203.5 -101s-70.167 -140 -79.5 -220c-1.33301 -12 -2.33301 -24 -3 -36s-1 -24 -1 -36c0 -74 17.167 -133.833 51.5 -179.5s91.166 -68.5 170.499 -68.5c98.667 0 171.334 36.667 218.001 110
s72.667 154.333 78 243c0.666992 5.33301 1 10.833 1 16.5v17.5c0 78.667 -18 140.5 -54 185.5s-95.333 67.5 -178 67.5v1zM355 763.003h-28.999c0.666992 1.33301 1.16699 3 1.5 5s0.833008 4.33301 1.5 7c6.66699 22 17.167 42.5 31.5 61.5s35.5 28.5 63.5 28.5
c11.333 0 22.166 -1.33301 32.499 -4s20.5 -6 30.5 -10l60 -23c4 -2 8.16699 -3.5 12.5 -4.5s8.83301 -1.5 13.5 -1.5h5.5c1.66699 0 3.16699 0.333008 4.5 1c7.33301 1.33301 13.666 4.66602 18.999 9.99902s10 11 14 17c1.33301 2.66699 2.83301 5.33398 4.5 8.00098
l4.5 7l28 1c-2 -13.333 -5.5 -26.333 -10.5 -39s-11.5 -23.667 -19.5 -33s-17.833 -17 -29.5 -23s-25.167 -9 -40.5 -9c-4 0 -9.66699 0.833008 -17 2.5s-15 3.83398 -23 6.50098c-4 1.33301 -7.66699 2.5 -11 3.5s-6.66602 2.16699 -9.99902 3.5l-38 16
c-0.666992 0 -1.5 0.166992 -2.5 0.5s-2.16699 0.5 -3.5 0.5c-2 0.666992 -3.83301 1.5 -5.5 2.5s-3.5 1.83301 -5.5 2.5l-14.5 4c-5 1.33301 -10.167 2 -15.5 2c-14.667 0 -25.5 -3.83301 -32.5 -11.5s-13.167 -17.5 -18.5 -29.5l-0.5 -1
c-0.333008 -0.666992 -0.5 -1.33398 -0.5 -2.00098v1z" />
    <glyph glyph-name="Odieresis" unicode="&#xd6;" horiz-adv-x="778" 
d="M330 -18c-100 0 -171.167 26.1689 -213.5 78.502s-63.5 126.166 -63.5 221.499c0 117.333 38.667 217.166 116 299.499s175 123.5 293 123.5c88.667 0 158.5 -23.833 209.5 -71.5s76.5 -116.167 76.5 -205.5c0 -120 -38.5 -224.333 -115.5 -313
s-177.833 -133 -302.5 -133v0zM428 664.002c-92 -0.666992 -159.833 -34.333 -203.5 -101s-70.167 -140 -79.5 -220c-1.33301 -12 -2.33301 -24 -3 -36s-1 -24 -1 -36c0 -74 17.167 -133.833 51.5 -179.5s91.166 -68.5 170.499 -68.5c98.667 0 171.334 36.667 218.001 110
s72.667 154.333 78 243c0.666992 5.33301 1 10.833 1 16.5v17.5c0 78.667 -18 140.5 -54 185.5s-95.333 67.5 -178 67.5v1zM383 847.003c13.333 -0.666992 25 -5.83301 35 -15.5s15 -21.167 15 -34.5c0 -12.667 -5 -24.334 -15 -35.001s-21.667 -16 -35 -16
c-12.667 0 -24.167 5.33301 -34.5 16s-15.5 22.334 -15.5 35.001c0 13.333 5.16699 24.833 15.5 34.5s21.833 14.5 34.5 14.5v1zM583 847.004c13.333 -0.666992 25 -5.83301 35 -15.5s15 -21.167 15 -34.5c0 -12.667 -5 -24.334 -15 -35.001s-21.667 -16 -35 -16
c-12.667 0 -24.167 5.33301 -34.5 16s-15.5 22.334 -15.5 35.001c0 13.333 5.16699 24.833 15.5 34.5s21.833 14.5 34.5 14.5v1z" />
    <glyph glyph-name="multiply" unicode="&#xd7;" 
 />
    <glyph glyph-name="plusminus" unicode="&#xd8;" horiz-adv-x="778" 
d="M330 -18c-8 0 -16.166 0.169922 -24.499 0.50293s-16.833 1.16602 -25.5 2.49902c-26.667 2.66699 -52.667 8.5 -78 17.5s-48 22.167 -68 39.5l-74 -81l-28 24l78 83c-20 25.333 -34 53.5 -42 84.5s-12.667 62.167 -14 93.5c-0.666992 6 -1 12 -1 18v18
c0 117.333 38.667 217.166 116 299.499s175 123.5 293 123.5h6h7c33.333 -1.33301 66 -6.83301 98 -16.5s61.333 -25.167 88 -46.5l72 79l29 -26l-74 -79c23.333 -27.333 39.166 -56.333 47.499 -87s12.5 -64.334 12.5 -101.001c0 -120 -38.5 -224.333 -115.5 -313
s-177.833 -133 -302.5 -133v0zM624.001 567.003l-435.002 -470.003c18 -23.333 41.333 -41.5 70 -54.5s63.334 -19.5 104.001 -19.5c98.667 0 171.334 36.667 218.001 110s72.667 154.333 78 243c0.666992 5.33301 1 10.833 1 16.5v17.5
c0 8.66699 -0.166992 17.334 -0.5 26.001s-0.833008 17.334 -1.5 26.001c-2 17.333 -5.5 34.833 -10.5 52.5s-12.833 34.834 -23.5 51.501v1zM167.999 131l433.999 469c-24.667 24 -51.167 40.5 -79.5 49.5s-59.833 13.5 -94.5 13.5c-92 0 -159.833 -33.333 -203.5 -100
s-70.167 -140 -79.5 -220c-1.33301 -12 -2.33301 -24 -3 -36s-1 -24 -1 -36c0 -27.333 2.33301 -52.833 7 -76.5s11.334 -45.167 20.001 -64.5v1z" />
    <glyph glyph-name="Thorn" unicode="&#xd9;" horiz-adv-x="778" 
d="M708 613l-83.0039 -499l-2 -10c-0.666992 -3.33301 -1.33398 -7 -2.00098 -11c-0.666992 -6 -1.5 -12.833 -2.5 -20.5s-1.5 -15.5 -1.5 -23.5c0 -6.66699 2.33301 -11.5 7 -14.5s13 -5.16699 25 -6.5l60 -3l-5 -28c-5.33301 0 -10.5 0.166992 -15.5 0.5
s-9.83301 0.5 -14.5 0.5c-10 0.666992 -19.833 1.16699 -29.5 1.5s-19.5 0.5 -29.5 0.5s-20 -0.166992 -30 -0.5s-19.667 -0.833008 -29 -1.5c-4 0 -8.33301 -0.166992 -13 -0.5s-9 -0.5 -13 -0.5l-5 5c2.66699 9.33301 5.16699 19.166 7.5 29.499s4.5 20.5 6.5 30.5l6 30.5
l6 30.5l-2 3c-21.333 -28 -49.166 -54.167 -83.499 -78.5s-70.166 -41.833 -107.499 -52.5c-13.333 -4 -26.333 -7.16699 -39 -9.5s-25 -3.5 -37 -3.5c-52.667 0 -96.667 12.667 -132 38s-53 66.666 -53 123.999c0 5.33301 0.166992 10.5 0.5 15.5s0.833008 10.167 1.5 15.5
c0.666992 4.66699 1.33398 9.66699 2.00098 15s1.33398 10.333 2.00098 15l64 376c0 0.666992 0.166992 1.83398 0.5 3.50098s0.833008 3.5 1.5 5.5c1.33301 10 2.5 19.5 3.5 28.5s1.5 15.167 1.5 18.5c0 10 -2.66699 16.333 -8 19s-14 4.33398 -26 5.00098l-52 3l3 28
c5.33301 -0.666992 10.5 -1.16699 15.5 -1.5s10.167 -0.5 15.5 -0.5c10 -0.666992 20 -1.16699 30 -1.5s20 -0.5 30 -0.5s19.833 0.166992 29.5 0.5s19.167 0.833008 28.5 1.5c5.33301 0 10.5 0.166992 15.5 0.5s9.83301 0.5 14.5 0.5l-88 -476
c-2 -10.667 -3.66699 -21 -5 -31s-2 -20.333 -2 -31c0 -40.667 14.333 -70 43 -88s61.334 -27 98.001 -27c47.333 0 92.5 14 135.5 42s77.833 60 104.5 96l63 383c3.33301 18.667 5.5 33.667 6.5 45l2.5 28v1.5v1.5c0 8 -2.66699 14.167 -8 18.5s-14.333 6.83301 -27 7.5
l-48 3l3 28c9.33301 -0.666992 18.333 -1.16699 27 -1.5s17 -0.5 25 -0.5c16 -0.666992 31.167 -1.16699 45.5 -1.5s28.5 -0.5 42.5 -0.5s27.667 0.166992 41 0.5s26 0.833008 38 1.5c6 0 11.5 0.166992 16.5 0.5s9.83301 0.5 14.5 0.5l-3 -27l-36 -3
c-18.667 -2 -31 -5.83301 -37 -11.5s-10.667 -18.167 -14 -37.5v1zM391.996 879l152.997 -151.001h-34l-162 101c-1.33301 0 -2.5 0.333008 -3.5 1s-1.83301 1.33398 -2.5 2.00098c-6.66699 4 -12 8.5 -16 13.5s-6 12.167 -6 21.5c0 7.33301 4 14 12 20s17 9 27 9
c2.66699 0 5.33398 -0.5 8.00098 -1.5s5.33398 -2.16699 8.00098 -3.5l8 -6c2.66699 -2 5.33398 -4.33301 8.00098 -7v1z" />
    <glyph glyph-name="Eth" unicode="&#xda;" horiz-adv-x="778" 
d="M708 613l-83.0039 -499l-2 -10c-0.666992 -3.33301 -1.33398 -7 -2.00098 -11c-0.666992 -6 -1.5 -12.833 -2.5 -20.5s-1.5 -15.5 -1.5 -23.5c0 -6.66699 2.33301 -11.5 7 -14.5s13 -5.16699 25 -6.5l60 -3l-5 -28c-5.33301 0 -10.5 0.166992 -15.5 0.5
s-9.83301 0.5 -14.5 0.5c-10 0.666992 -19.833 1.16699 -29.5 1.5s-19.5 0.5 -29.5 0.5s-20 -0.166992 -30 -0.5s-19.667 -0.833008 -29 -1.5c-4 0 -8.33301 -0.166992 -13 -0.5s-9 -0.5 -13 -0.5l-5 5c2.66699 9.33301 5.16699 19.166 7.5 29.499s4.5 20.5 6.5 30.5l6 30.5
l6 30.5l-2 3c-21.333 -28 -49.166 -54.167 -83.499 -78.5s-70.166 -41.833 -107.499 -52.5c-13.333 -4 -26.333 -7.16699 -39 -9.5s-25 -3.5 -37 -3.5c-52.667 0 -96.667 12.667 -132 38s-53 66.666 -53 123.999c0 5.33301 0.166992 10.5 0.5 15.5s0.833008 10.167 1.5 15.5
c0.666992 4.66699 1.33398 9.66699 2.00098 15s1.33398 10.333 2.00098 15l64 376c0 0.666992 0.166992 1.83398 0.5 3.50098s0.833008 3.5 1.5 5.5c1.33301 10 2.5 19.5 3.5 28.5s1.5 15.167 1.5 18.5c0 10 -2.66699 16.333 -8 19s-14 4.33398 -26 5.00098l-52 3l3 28
c5.33301 -0.666992 10.5 -1.16699 15.5 -1.5s10.167 -0.5 15.5 -0.5c10 -0.666992 20 -1.16699 30 -1.5s20 -0.5 30 -0.5s19.833 0.166992 29.5 0.5s19.167 0.833008 28.5 1.5c5.33301 0 10.5 0.166992 15.5 0.5s9.83301 0.5 14.5 0.5l-88 -476
c-2 -10.667 -3.66699 -21 -5 -31s-2 -20.333 -2 -31c0 -40.667 14.333 -70 43 -88s61.334 -27 98.001 -27c47.333 0 92.5 14 135.5 42s77.833 60 104.5 96l63 383c3.33301 18.667 5.5 33.667 6.5 45l2.5 28v1.5v1.5c0 8 -2.66699 14.167 -8 18.5s-14.333 6.83301 -27 7.5
l-48 3l3 28c9.33301 -0.666992 18.333 -1.16699 27 -1.5s17 -0.5 25 -0.5c16 -0.666992 31.167 -1.16699 45.5 -1.5s28.5 -0.5 42.5 -0.5s27.667 0.166992 41 0.5s26 0.833008 38 1.5c6 0 11.5 0.166992 16.5 0.5s9.83301 0.5 14.5 0.5l-3 -27l-36 -3
c-18.667 -2 -31 -5.83301 -37 -11.5s-10.667 -18.167 -14 -37.5v1zM398.996 728l152.998 151.002l8 6l8 6c2.66699 1.33301 5.33398 2.5 8.00098 3.5s5.33398 1.5 8.00098 1.5c10 0 19 -3 27 -9s12 -12.667 12 -20c0 -9.33301 -2 -16.5 -6 -21.5s-9.33301 -9.5 -16 -13.5
c-0.666992 -0.666992 -1.5 -1.33398 -2.5 -2.00098s-2.16699 -1.33398 -3.5 -2.00098l-162 -100h-34v0z" />
    <glyph glyph-name="eth" unicode="&#xdb;" horiz-adv-x="778" 
d="M708 613l-83.0039 -499l-2 -10c-0.666992 -3.33301 -1.33398 -7 -2.00098 -11c-0.666992 -6 -1.5 -12.833 -2.5 -20.5s-1.5 -15.5 -1.5 -23.5c0 -6.66699 2.33301 -11.5 7 -14.5s13 -5.16699 25 -6.5l60 -3l-5 -28c-5.33301 0 -10.5 0.166992 -15.5 0.5
s-9.83301 0.5 -14.5 0.5c-10 0.666992 -19.833 1.16699 -29.5 1.5s-19.5 0.5 -29.5 0.5s-20 -0.166992 -30 -0.5s-19.667 -0.833008 -29 -1.5c-4 0 -8.33301 -0.166992 -13 -0.5s-9 -0.5 -13 -0.5l-5 5c2.66699 9.33301 5.16699 19.166 7.5 29.499s4.5 20.5 6.5 30.5l6 30.5
l6 30.5l-2 3c-21.333 -28 -49.166 -54.167 -83.499 -78.5s-70.166 -41.833 -107.499 -52.5c-13.333 -4 -26.333 -7.16699 -39 -9.5s-25 -3.5 -37 -3.5c-52.667 0 -96.667 12.667 -132 38s-53 66.666 -53 123.999c0 5.33301 0.166992 10.5 0.5 15.5s0.833008 10.167 1.5 15.5
c0.666992 4.66699 1.33398 9.66699 2.00098 15s1.33398 10.333 2.00098 15l64 376c0 0.666992 0.166992 1.83398 0.5 3.50098s0.833008 3.5 1.5 5.5c1.33301 10 2.5 19.5 3.5 28.5s1.5 15.167 1.5 18.5c0 10 -2.66699 16.333 -8 19s-14 4.33398 -26 5.00098l-52 3l3 28
c5.33301 -0.666992 10.5 -1.16699 15.5 -1.5s10.167 -0.5 15.5 -0.5c10 -0.666992 20 -1.16699 30 -1.5s20 -0.5 30 -0.5s19.833 0.166992 29.5 0.5s19.167 0.833008 28.5 1.5c5.33301 0 10.5 0.166992 15.5 0.5s9.83301 0.5 14.5 0.5l-88 -476
c-2 -10.667 -3.66699 -21 -5 -31s-2 -20.333 -2 -31c0 -40.667 14.333 -70 43 -88s61.334 -27 98.001 -27c47.333 0 92.5 14 135.5 42s77.833 60 104.5 96l63 383c3.33301 18.667 5.5 33.667 6.5 45l2.5 28v1.5v1.5c0 8 -2.66699 14.167 -8 18.5s-14.333 6.83301 -27 7.5
l-48 3l3 28c9.33301 -0.666992 18.333 -1.16699 27 -1.5s17 -0.5 25 -0.5c16 -0.666992 31.167 -1.16699 45.5 -1.5s28.5 -0.5 42.5 -0.5s27.667 0.166992 41 0.5s26 0.833008 38 1.5c6 0 11.5 0.166992 16.5 0.5s9.83301 0.5 14.5 0.5l-3 -27l-36 -3
c-18.667 -2 -31 -5.83301 -37 -11.5s-10.667 -18.167 -14 -37.5v1zM516.996 889l88 -169h-36l-82 104l-137 -104h-39l157 169h49v0z" />
    <glyph glyph-name="Udieresis" unicode="&#xdc;" horiz-adv-x="778" 
d="M708 613l-83.0039 -499l-2 -10c-0.666992 -3.33301 -1.33398 -7 -2.00098 -11c-0.666992 -6 -1.5 -12.833 -2.5 -20.5s-1.5 -15.5 -1.5 -23.5c0 -6.66699 2.33301 -11.5 7 -14.5s13 -5.16699 25 -6.5l60 -3l-5 -28c-5.33301 0 -10.5 0.166992 -15.5 0.5
s-9.83301 0.5 -14.5 0.5c-10 0.666992 -19.833 1.16699 -29.5 1.5s-19.5 0.5 -29.5 0.5s-20 -0.166992 -30 -0.5s-19.667 -0.833008 -29 -1.5c-4 0 -8.33301 -0.166992 -13 -0.5s-9 -0.5 -13 -0.5l-5 5c2.66699 9.33301 5.16699 19.166 7.5 29.499s4.5 20.5 6.5 30.5l6 30.5
l6 30.5l-2 3c-21.333 -28 -49.166 -54.167 -83.499 -78.5s-70.166 -41.833 -107.499 -52.5c-13.333 -4 -26.333 -7.16699 -39 -9.5s-25 -3.5 -37 -3.5c-52.667 0 -96.667 12.667 -132 38s-53 66.666 -53 123.999c0 5.33301 0.166992 10.5 0.5 15.5s0.833008 10.167 1.5 15.5
c0.666992 4.66699 1.33398 9.66699 2.00098 15s1.33398 10.333 2.00098 15l64 376c0 0.666992 0.166992 1.83398 0.5 3.50098s0.833008 3.5 1.5 5.5c1.33301 10 2.5 19.5 3.5 28.5s1.5 15.167 1.5 18.5c0 10 -2.66699 16.333 -8 19s-14 4.33398 -26 5.00098l-52 3l3 28
c5.33301 -0.666992 10.5 -1.16699 15.5 -1.5s10.167 -0.5 15.5 -0.5c10 -0.666992 20 -1.16699 30 -1.5s20 -0.5 30 -0.5s19.833 0.166992 29.5 0.5s19.167 0.833008 28.5 1.5c5.33301 0 10.5 0.166992 15.5 0.5s9.83301 0.5 14.5 0.5l-88 -476
c-2 -10.667 -3.66699 -21 -5 -31s-2 -20.333 -2 -31c0 -40.667 14.333 -70 43 -88s61.334 -27 98.001 -27c47.333 0 92.5 14 135.5 42s77.833 60 104.5 96l63 383c3.33301 18.667 5.5 33.667 6.5 45l2.5 28v1.5v1.5c0 8 -2.66699 14.167 -8 18.5s-14.333 6.83301 -27 7.5
l-48 3l3 28c9.33301 -0.666992 18.333 -1.16699 27 -1.5s17 -0.5 25 -0.5c16 -0.666992 31.167 -1.16699 45.5 -1.5s28.5 -0.5 42.5 -0.5s27.667 0.166992 41 0.5s26 0.833008 38 1.5c6 0 11.5 0.166992 16.5 0.5s9.83301 0.5 14.5 0.5l-3 -27l-36 -3
c-18.667 -2 -31 -5.83301 -37 -11.5s-10.667 -18.167 -14 -37.5v1zM362.996 847c13.333 -0.666992 25 -5.83301 35 -15.5s15 -21.167 15 -34.5c0 -12.667 -5 -24.334 -15 -35.001s-21.667 -16 -35 -16c-12.667 0 -24.167 5.33301 -34.5 16s-15.5 22.334 -15.5 35.001
c0 13.333 5.16699 24.833 15.5 34.5s21.833 14.5 34.5 14.5v1zM562.996 847.001c13.333 -0.666992 25 -5.83301 35 -15.5s15 -21.167 15 -34.5c0 -12.667 -5 -24.334 -15 -35.001s-21.667 -16 -35 -16c-12.667 0 -24.167 5.33301 -34.5 16s-15.5 22.334 -15.5 35.001
c0 13.333 5.16699 24.833 15.5 34.5s21.833 14.5 34.5 14.5v1z" />
    <glyph glyph-name="Yacute" unicode="&#xdd;" 
 />
    <glyph glyph-name="glyph236" unicode="&#xde;" horiz-adv-x="611" 
d="M244 432l-58.0039 -339c-0.666992 -6 -1.5 -12 -2.5 -18s-1.5 -12.333 -1.5 -19c0 -8 2.16699 -14.5 6.5 -19.5s14.166 -8.16699 29.499 -9.5l65 -2l-3 -28c-8 0 -16.167 0.166992 -24.5 0.5s-16.166 0.5 -23.499 0.5c-16 0.666992 -31.5 1.16699 -46.5 1.5
s-29.833 0.5 -44.5 0.5s-29.5 -0.166992 -44.5 -0.5s-29.833 -0.833008 -44.5 -1.5c-7.33301 0 -14.5 -0.166992 -21.5 -0.5s-14.167 -0.5 -21.5 -0.5l4 28l41 3c9.33301 0 16.5 0.666992 21.5 2s8.83301 3.33301 11.5 6c1.33301 1.33301 2.5 2.66602 3.5 3.99902
s2.16699 3.33301 3.5 6c2.66699 6 5.33398 14.833 8.00098 26.5s6 28.834 10 51.501l74 435c3.33301 18.667 5.5 33.667 6.5 45l2.5 28v1.5v1.5c0 8 -2.66699 14.167 -8 18.5s-14.333 6.83301 -27 7.5l-47 3l3 28c9.33301 -0.666992 18.333 -1.16699 27 -1.5
s17.334 -0.5 26.001 -0.5c16 -0.666992 31.167 -1.16699 45.5 -1.5s28.5 -0.5 42.5 -0.5s27.833 0.166992 41.5 0.5s26.5 0.833008 38.5 1.5c6 0 11.833 0.166992 17.5 0.5s11.167 0.5 16.5 0.5l-3 -27l-42 -3c-18.667 -2 -31 -5.83301 -37 -11.5s-10.667 -18.167 -14 -37.5
l-13 -70c3.33301 -0.666992 6.83301 -1 10.5 -1h11.5c14.667 0 30.334 0.166992 47.001 0.5s34.334 0.833008 53.001 1.5h4h3c52 0 94.833 -12.167 128.5 -36.5s50.5 -65.5 50.5 -123.5c0 -62.667 -22.5 -116.834 -67.5 -162.501s-99.833 -68.5 -164.5 -68.5
c-17.333 0 -33.5 1.83301 -48.5 5.5s-29.167 8.83398 -42.5 15.501l-4 33c14 -7.33301 27.667 -12.333 41 -15s25.666 -4 36.999 -4c59.333 0 101 17.5 125 52.5s36 75.833 36 122.5c0 51.333 -13.167 88.333 -39.5 111s-64.166 34 -113.499 34
c-6 0 -11.833 -0.166992 -17.5 -0.5s-11.5 -0.833008 -17.5 -1.5c-6 -1.33301 -11.833 -2.33301 -17.5 -3s-11.5 -1.66699 -17.5 -3c-0.666992 -4 -1.5 -7.83301 -2.5 -11.5s-1.83301 -7.5 -2.5 -11.5c-0.666992 -2 -1.16699 -3.83301 -1.5 -5.5s-0.833008 -3.5 -1.5 -5.5
c-1.33301 -5.33301 -2.5 -10.833 -3.5 -16.5s-2.16699 -11.5 -3.5 -17.5v1z" />
    </font>
</defs>
</svg>
