<svg width="16" height="14" xmlns="http://www.w3.org/2000/svg" xmlns:xlink="http://www.w3.org/1999/xlink" xmlns:svgjs="http://svgjs.com/svgjs" viewBox="1362 11866 16 14"><svg width="16" height="14" xmlns="http://www.w3.org/2000/svg" xmlns:xlink="http://www.w3.org/1999/xlink" xmlns:svgjs="http://svgjs.com/svgjs" viewBox="0 0.581 16 12.837" x="1362" y="11866"><svg xmlns="http://www.w3.org/2000/svg" xmlns:xlink="http://www.w3.org/1999/xlink" width="16" height="14" viewBox="0 0.163 16 12.837"><path paint-order="stroke fill markers" fill-rule="evenodd" d="M0 .163h16V13H0V.163z"/></svg></svg><svg width="16" height="13" xmlns="http://www.w3.org/2000/svg" xmlns:xlink="http://www.w3.org/1999/xlink" xmlns:svgjs="http://svgjs.com/svgjs" viewBox="1362 11866 16 13" x="1362" y="11866"><svg width="16" height="13" xmlns="http://www.w3.org/2000/svg" xmlns:xlink="http://www.w3.org/1999/xlink" xmlns:svgjs="http://svgjs.com/svgjs" viewBox="0 0.082 16 12.837" fill="#fff" x="1362" y="11866"><svg xmlns="http://www.w3.org/2000/svg" width="16" height="13" viewBox="0 0.163 16 12.836"><path paint-order="stroke fill markers" fill-rule="evenodd" d="M14.825 1.98c-.347.095-.62.08-.62.08l.01-.065c.324-.256 1.139-1.042 1.246-1.41.047-.158-.008-.212-.009-.218l-1.04.438-.872.39C12.94.563 12.03.162 11.011.162c-1.81 0-3.279 1.27-3.279 2.836 0 .286.043.809.135 1.07 0 .082.003-.083 0 0-1.167-.032-2.661-.505-3.992-1.173C1.249 1.58 1.085.67 1.085.67.673 1.102.46 2.537.878 3.662c.267.72 1.187 1.367 1.187 1.367s-.41.007-.842-.137C.793 4.747.63 4.605.63 4.605c-.256.618.259 1.722 1.147 2.515.517.462 1.463.751 1.463.751l-1.477.042c-.083 1.42 3.011 2.265 3.011 2.265-.907.69-1.96 1.111-3.087 1.111A5.92 5.92 0 0 1 0 11.044C1.49 12.26 3.406 13.1 5.489 12.99c5.526-.287 8.645-4.988 8.793-9.605l.008.01s.258-.128.812-.677C15.655 2.171 16 1.53 16 1.53s-.828.356-1.175.45"/></svg></svg></svg></svg>